# Blender 5.2.0 LTS
# www.blender.org
mtllib door_frame.mtl
o door
v 0.558363 1.743708 -0.137642
v 0.493029 0.000000 -0.137642
v 0.493029 2.404254 -0.137642
v 0.612651 0.000000 -0.137642
v 0.612651 1.480443 -0.137642
v 0.612651 2.404254 -0.137642
v 0.612652 1.996360 -0.137641
v 0.612651 1.729656 -0.073205
v 0.612651 1.015463 0.082406
v 0.612651 2.404254 0.133311
v 0.493029 2.404254 0.133311
v 0.612649 1.169963 0.133311
v 0.612651 0.837435 0.133311
v 0.612651 0.000000 0.133311
v 0.493029 0.000000 0.133311
v -0.713424 2.276606 -0.162279
v 0.725422 2.276606 -0.162279
v 0.725422 2.206311 -0.162279
v -0.713424 2.171192 -0.162279
v -0.713423 2.171192 0.157947
v -0.713423 2.215982 0.157947
v -0.713423 2.276606 0.112294
v -0.504797 2.276606 0.157947
v 0.725422 2.276606 0.157947
v 0.725422 2.171192 0.157947
v 0.725422 2.171192 -0.081616
v -0.547317 1.743708 -0.137642
v -0.612651 -0.000000 -0.137642
v -0.612651 2.404254 -0.137642
v -0.493029 -0.000000 -0.137642
v -0.493029 2.404254 -0.137642
v -0.493029 2.404254 0.133311
v -0.612651 2.404254 0.133311
v -0.493029 -0.000000 0.133311
v -0.612651 -0.000000 0.133311
v 2.327242 0.000000 0.000000
v 2.365382 0.780371 -0.000000
v 2.531413 0.000000 0.000000
v 2.336505 0.297753 -0.000000
v 2.327242 0.000000 0.167276
v 2.339791 2.483207 0.103232
v 2.339791 0.748831 -0.000000
v 2.336505 2.194687 0.152789
v 2.368719 2.496054 0.147650
v 2.486786 1.285540 0.147650
v 2.522150 0.960660 0.152789
v 2.531413 0.000000 0.167276
v 2.518864 1.300494 0.107605
v 2.518864 2.028471 -0.000000
v 2.518864 1.585406 0.147650
v 2.527797 3.252779 0.161624
v 2.330858 3.252779 -0.000000
v 2.527797 3.252779 -0.000000
v 2.330858 3.252779 0.161624
v 2.339791 2.862487 0.147650
v 2.518864 2.297425 -0.000000
v 2.495607 2.026527 -0.000000
v 2.522150 1.664494 -0.000000
v 2.339791 1.184236 -0.000000
v -1.732543 2.572189 -0.000000
v 1.798159 2.572189 -0.000000
v -1.732543 0.666393 0.052500
v -1.732543 2.572189 0.052500
v -1.732543 0.666393 -0.000000
v -2.349579 2.572189 -0.000001
v -2.349579 2.572189 0.052500
v -2.349579 0.666393 0.052500
v 1.798157 2.572189 0.052500
v 1.798159 0.666393 0.052500
v 2.403292 2.572189 -0.000000
v 2.403292 2.572189 0.052500
v 2.403292 0.666393 0.052500
v 1.798157 0.666393 -0.000000
v -0.767522 0.652153 0.112179
v -1.416523 0.763726 0.112178
v -2.366127 0.652153 0.112178
v -0.996155 0.810622 0.112179
v -0.767522 0.810622 0.112179
v -0.767522 0.652153 -0.000000
v -0.767522 0.810622 -0.000000
v -2.366127 0.652153 -0.000000
v -2.366127 0.810622 -0.000000
v -2.366127 0.810622 0.112178
v -2.140921 0.810622 -0.000000
v -1.904041 0.810622 -0.000000
v -1.397731 0.810622 0.076661
v -1.705655 0.810622 -0.000000
v -1.615281 0.810622 0.112178
v 0.831084 0.652153 0.112179
v -0.767522 0.652153 0.112179
v 0.602451 0.810622 0.112179
v 0.831084 0.810622 0.112179
v 0.831084 0.652153 -0.000000
v 0.831084 0.810622 -0.000000
v -0.767522 0.652153 -0.000000
v -0.767522 0.810622 -0.000000
v -0.767522 0.810622 0.112179
v -0.542315 0.810622 -0.000000
v 2.429689 0.652153 0.112179
v 1.780687 0.763726 0.112179
v 0.831084 0.652153 0.112179
v 2.201056 0.810622 0.112179
v 2.429689 0.810622 0.112179
v 2.429689 0.652153 -0.000000
v 2.429689 0.810622 -0.000000
v 0.831084 0.652153 -0.000000
v 0.831084 0.810622 -0.000000
v 0.831084 0.810622 0.112179
v 1.056290 0.810622 -0.000000
v 1.293170 0.810622 -0.000000
v 1.799479 0.810622 0.076661
v 1.491556 0.810622 -0.000000
v 1.581930 0.810622 0.112179
v -0.768221 2.122312 0.128621
v -0.768221 1.963844 -0.000000
v -0.768221 2.122312 -0.000000
v -0.768221 1.963844 0.128621
v -1.481390 1.963844 0.128621
v -1.642347 2.021446 0.128621
v -2.241131 2.122312 0.128621
v -2.366827 2.122312 0.066753
v -2.366827 2.060708 0.128621
v -2.366827 2.122312 -0.000001
v -2.366827 1.963844 -0.000000
v -2.366827 1.963844 0.128621
v -1.672490 1.963844 0.069362
v -1.629172 1.963844 -0.000000
v -1.330895 1.963844 -0.000000
v -1.189144 1.963844 -0.000000
v -1.864630 1.963844 0.128621
v 0.830384 2.122312 0.128621
v 0.830384 1.963844 -0.000000
v 0.830384 2.122312 -0.000000
v 0.830384 1.963844 0.128621
v -0.642526 2.122312 0.128621
v -0.768221 2.122312 0.066753
v -0.768221 2.060708 0.128621
v -0.768221 2.122312 -0.000000
v -0.768221 1.963844 -0.000000
v -0.768221 1.963844 0.128621
v 2.428989 2.122312 0.128622
v 2.428989 1.963844 -0.000000
v 2.428989 2.122312 -0.000000
v 2.428989 1.963844 0.128622
v 1.715821 1.963844 0.128621
v 1.554863 2.021446 0.128621
v 0.956079 2.122312 0.128621
v 0.830384 2.122312 0.066753
v 0.830384 2.060708 0.128621
v 0.830384 2.122312 -0.000000
v 0.830384 1.963844 -0.000000
v 0.830384 1.963844 0.128621
v 1.524721 1.963844 0.069362
v 1.568039 1.963844 -0.000000
v 1.866315 1.963844 -0.000000
v 2.008066 1.963844 -0.000000
v 1.332580 1.963844 0.128621
v -2.366500 2.498657 0.107629
v -2.366500 2.498657 -0.000001
v -2.366500 2.498657 0.007629
v -2.366500 2.716632 -0.000001
v -2.366500 3.037845 -0.000001
v -1.890000 2.498657 0.028820
v -2.134054 2.498657 0.107629
v -1.884049 2.593719 0.107629
v -2.366500 3.255820 0.107629
v -2.366500 3.255820 -0.000001
v -0.767891 3.255820 0.107629
v -0.767891 3.255820 -0.000000
v -0.767891 3.037845 -0.000000
v 0.830718 3.255820 -0.000000
v 0.830718 3.037845 -0.000000
v 0.830718 3.255820 0.107629
v 2.429327 3.255820 -0.000000
v 2.429327 3.037845 -0.000000
v 2.429327 3.255820 0.107629
v 2.429327 2.498657 0.107629
v 1.856845 2.498657 0.107629
v 1.313170 2.593719 0.107629
v 0.830718 2.498657 0.107629
v 1.063164 2.498657 0.107629
v 1.307220 2.498657 0.028821
v 2.429327 2.498657 -0.000000
v 0.830718 2.498657 -0.000000
v 0.830718 2.498657 0.007629
v 0.830718 2.716632 -0.000000
v -0.291391 2.498657 0.028820
v -0.767891 2.498657 -0.000000
v 0.258236 2.498657 0.107629
v -0.285440 2.593719 0.107629
v -0.767891 2.498657 0.107629
v -0.535445 2.498657 0.107629
v -0.767891 2.716632 -0.000000
v -1.340373 2.498657 0.107629
v -0.767891 2.498657 0.007629
v 2.429327 2.716632 -0.000000
v -0.869977 0.000000 0.000000
v -0.831837 0.600285 -0.000000
v -0.665806 0.000000 0.000000
v -0.860714 0.229041 -0.000000
v -0.869977 0.000000 0.167275
v -0.857428 1.910159 0.103231
v -0.857428 0.576024 -0.000000
v -0.860714 1.688221 0.152789
v -0.828500 1.920042 0.147649
v -0.710432 0.988877 0.147649
v -0.675068 0.738969 0.152789
v -0.665806 0.000000 0.167275
v -0.678355 1.000380 0.107604
v -0.678355 1.560362 -0.000000
v -0.678355 1.219543 0.147649
v -0.669421 2.502138 0.161624
v -0.866361 2.502138 -0.000000
v -0.669421 2.502138 -0.000000
v -0.866361 2.502138 0.161624
v -0.857428 2.201913 0.147649
v -0.678355 1.767250 -0.000000
v -0.701612 1.558867 -0.000000
v -0.675068 1.280380 -0.000000
v -0.857428 0.910951 -0.000000
v -2.366501 0.158468 0.128621
v -1.971885 0.158468 0.128621
v -2.366501 0.158468 0.000000
v -1.873921 0.094800 0.128621
v -2.366501 0.000000 0.128621
v -0.767892 0.000000 0.128621
v -2.366501 0.000000 0.000000
v -0.767892 0.000000 0.000000
v -0.767892 0.158468 -0.000000
v 0.830717 0.000000 0.000000
v -0.767892 0.158468 0.128621
v -1.524915 0.158468 0.128621
v -1.304708 0.158468 0.000000
v -1.878316 0.158468 0.094706
v -1.213568 0.158468 0.000000
v -1.792041 0.158468 -0.000000
v 0.830717 0.158468 0.128621
v 0.830717 0.158468 0.000000
v 0.830717 0.000000 0.128621
v 1.323298 0.094800 0.128621
v 1.225334 0.158468 0.128621
v 1.318903 0.158468 0.094706
v 1.892511 0.158468 0.000000
v 1.672304 0.158468 0.128621
v 2.429326 0.158468 0.128621
v 2.429326 0.000000 0.128621
v 2.429326 0.000000 0.000000
v 2.429326 0.158468 0.000000
v 1.983650 0.158468 0.000000
v 1.405177 0.158468 0.000000
v 0.728632 0.000000 0.000000
v 0.766772 0.600285 -0.000000
v 0.932804 0.000000 0.000000
v 0.737896 0.229041 -0.000000
v 0.728632 0.000000 0.167275
v 0.741182 1.910159 0.103231
v 0.741182 0.576024 -0.000000
v 0.737896 1.688221 0.152789
v 0.770110 1.920042 0.147650
v 0.888177 0.988877 0.147650
v 0.923540 0.738969 0.152789
v 0.932804 0.000000 0.167275
v 0.920255 1.000380 0.107604
v 0.920255 1.560362 -0.000000
v 0.920255 1.219543 0.147650
v 0.929188 2.502138 0.161624
v 0.732248 2.502138 -0.000000
v 0.929188 2.502138 -0.000000
v 0.732248 2.502138 0.161624
v 0.741182 2.201913 0.147650
v 0.920255 1.767250 -0.000000
v 0.896998 1.558867 -0.000000
v 0.923540 1.280380 -0.000000
v 0.741182 0.910951 -0.000000
v -2.468587 0.000000 0.000000
v -2.430446 0.780371 -0.000000
v -2.264415 0.000000 0.000000
v -2.459323 0.297753 -0.000000
v -2.468587 0.000000 0.167275
v -2.456037 2.483207 0.103231
v -2.456037 0.748831 -0.000000
v -2.459323 2.194687 0.152788
v -2.427109 2.496054 0.147649
v -2.309042 1.285540 0.147649
v -2.273678 0.960660 0.152788
v -2.264415 0.000000 0.167275
v -2.276964 1.300494 0.107604
v -2.276964 2.028471 -0.000000
v -2.276964 1.585406 0.147649
v -2.268031 3.252779 0.161623
v -2.464971 3.252779 -0.000001
v -2.268031 3.252779 -0.000001
v -2.464971 3.252779 0.161623
v -2.456037 2.862487 0.147649
v -2.276964 2.297425 -0.000001
v -2.300222 2.026527 -0.000000
v -2.273678 1.664494 -0.000000
v -2.456037 1.184236 -0.000000
v 2.434506 0.747610 0.063213
v 2.434506 0.747610 -0.000000
v -2.403200 0.747610 -0.000000
v -2.403200 0.747610 0.063215
v 2.434506 0.047343 0.000000
v 2.434506 0.047343 0.063213
v -2.403200 0.047343 0.063215
v -2.403200 0.047343 0.000000
v 2.091815 0.681407 0.087622
v 1.966268 0.158470 0.087622
v 2.091815 0.158470 0.087622
v 1.966268 0.681407 0.087622
v 2.091815 0.681407 -0.000000
v 1.966268 0.681407 -0.000000
v 2.091815 0.158470 0.000000
v 1.966268 0.158470 0.000000
v 1.702619 0.681407 0.087622
v 1.577072 0.158469 0.087622
v 1.702619 0.158470 0.087622
v 1.577072 0.681407 0.087622
v 1.702619 0.681407 -0.000000
v 1.577072 0.681407 -0.000000
v 1.702619 0.158469 0.000000
v 1.577072 0.158469 0.000000
v 1.313423 0.681407 0.087622
v 1.187876 0.158469 0.087622
v 1.313423 0.158469 0.087622
v 1.187876 0.681407 0.087622
v 1.313423 0.681407 -0.000000
v 1.187876 0.681407 -0.000000
v 1.313423 0.158469 0.000000
v 1.187876 0.158469 0.000000
v -1.114450 0.681407 0.087622
v -1.239997 0.158470 0.087622
v -1.114450 0.158470 0.087622
v -1.239997 0.681407 0.087622
v -1.114450 0.681407 -0.000000
v -1.239997 0.681407 -0.000000
v -1.114450 0.158470 -0.000000
v -1.239997 0.158470 0.000000
v -1.503646 0.681407 0.087622
v -1.629193 0.158469 0.087622
v -1.503646 0.158470 0.087622
v -1.629193 0.681407 0.087622
v -1.503646 0.681407 -0.000000
v -1.629193 0.681407 -0.000000
v -1.503646 0.158469 -0.000000
v -1.629193 0.158469 0.000000
v -1.892842 0.681407 0.087622
v -2.018389 0.158469 0.087622
v -1.892842 0.158469 0.087622
v -2.018389 0.681407 0.087622
v -1.892842 0.681407 -0.000000
v -2.018389 0.681407 -0.000000
v -1.892842 0.158469 0.000000
v -2.018389 0.158469 0.000000
v -1.307799 1.087374 0.111258
v -1.358502 2.054556 0.111258
v -1.358502 0.759595 0.111257
v -1.291240 0.759595 0.111257
v -1.291240 0.838034 0.111257
v -1.291240 2.054556 0.111258
v -1.291240 1.495235 0.111258
v -1.291240 1.073611 0.053822
v -1.291240 0.759595 -0.000000
v -1.291240 2.054556 -0.000000
v -1.358502 2.054556 -0.000000
v -1.358502 0.759595 -0.000000
v -1.792405 0.759595 0.111259
v -1.859667 1.235492 0.111259
v -1.859667 0.759595 0.111259
v -1.839813 1.417208 0.111259
v -1.792405 2.054556 0.111259
v -1.859668 0.759595 -0.000000
v -1.792405 0.759595 -0.000000
v -1.792405 1.504432 -0.000000
v -1.792405 1.215342 -0.000000
v -1.792405 2.054556 -0.000000
v -1.792405 1.747378 -0.000000
v -1.859667 2.054556 0.111259
v -1.859668 2.054556 -0.000000
v -1.859667 1.446861 0.067558
v -1.859667 1.717129 0.111259
v 1.892171 1.087374 0.111258
v 1.841468 2.054556 0.111258
v 1.841468 0.759595 0.111258
v 1.908730 0.759595 0.111258
v 1.908730 0.838034 0.111258
v 1.908730 2.054556 0.111258
v 1.908730 1.495235 0.111258
v 1.908730 1.073611 0.053822
v 1.908730 0.759595 -0.000000
v 1.908730 2.054556 -0.000000
v 1.841468 2.054556 -0.000000
v 1.841468 0.759595 -0.000000
v 1.407565 0.759595 0.111260
v 1.340304 1.235492 0.111260
v 1.340304 0.759595 0.111260
v 1.360158 1.417208 0.111260
v 1.407565 2.054556 0.111260
v 1.340304 0.759595 -0.000000
v 1.407565 0.759595 -0.000000
v 1.407565 1.504432 -0.000000
v 1.407565 1.215342 -0.000000
v 1.407565 2.054556 -0.000000
v 1.407565 1.747378 -0.000000
v 1.340304 2.054556 0.111260
v 1.340304 2.054556 -0.000000
v 1.340304 1.446861 0.067559
v 1.340304 1.717129 0.111260
v 2.327242 -0.000000 -0.167275
v 2.339791 2.483207 -0.103231
v 2.336505 2.194687 -0.152789
v 2.368719 2.496054 -0.147650
v 2.486786 1.285540 -0.147649
v 2.522150 0.960660 -0.152789
v 2.531413 -0.000000 -0.167275
v 2.518864 1.300494 -0.107604
v 2.518864 1.585406 -0.147649
v 2.527797 3.252779 -0.161624
v 2.330858 3.252779 -0.161624
v 2.339791 2.862487 -0.147650
v -1.732543 0.666393 -0.052500
v -1.732543 2.572189 -0.052501
v -2.349579 2.572189 -0.052501
v -2.349579 0.666393 -0.052500
v 1.798157 2.572189 -0.052500
v 1.798159 0.666393 -0.052500
v 2.403292 2.572189 -0.052500
v 2.403292 0.666393 -0.052500
v -0.767522 0.652153 -0.112179
v -1.416523 0.763726 -0.112179
v -2.366127 0.652153 -0.112179
v -0.996155 0.810622 -0.112179
v -0.767522 0.810622 -0.112179
v -2.366127 0.810622 -0.112179
v -1.397731 0.810622 -0.076661
v -1.615281 0.810622 -0.112179
v 0.831084 0.652153 -0.112179
v -0.767522 0.652153 -0.112179
v 0.602451 0.810622 -0.112179
v 0.831084 0.810622 -0.112179
v -0.767522 0.810622 -0.112179
v 2.429689 0.652153 -0.112178
v 1.780687 0.763726 -0.112179
v 0.831084 0.652153 -0.112179
v 2.201056 0.810622 -0.112178
v 2.429689 0.810622 -0.112178
v 0.831084 0.810622 -0.112179
v 1.799479 0.810622 -0.076661
v 1.581930 0.810622 -0.112179
v -0.768221 2.122312 -0.128622
v -0.768221 1.963844 -0.128622
v -1.481390 1.963844 -0.128622
v -1.642347 2.021446 -0.128622
v -2.241131 2.122312 -0.128622
v -2.366827 2.122312 -0.066754
v -2.366827 2.060708 -0.128622
v -2.366827 1.963844 -0.128622
v -1.672490 1.963844 -0.069363
v -1.864630 1.963844 -0.128622
v 0.830384 2.122312 -0.128621
v 0.830384 1.963844 -0.128621
v -0.642526 2.122312 -0.128622
v -0.768221 2.122312 -0.066753
v -0.768221 2.060708 -0.128622
v -0.768221 1.963844 -0.128622
v 2.428989 2.122312 -0.128621
v 2.428989 1.963844 -0.128621
v 1.715821 1.963844 -0.128621
v 1.554863 2.021446 -0.128621
v 0.956079 2.122312 -0.128621
v 0.830384 2.122312 -0.066753
v 0.830384 2.060708 -0.128621
v 0.830384 1.963844 -0.128621
v 1.524721 1.963844 -0.069362
v 1.332580 1.963844 -0.128621
v -2.366500 2.498657 -0.107630
v -2.366500 2.498657 -0.007630
v -1.890000 2.498657 -0.028821
v -2.134054 2.498657 -0.107630
v -1.884049 2.593719 -0.107630
v -2.366500 3.255820 -0.107630
v -0.767891 3.255820 -0.107630
v 0.830718 3.255820 -0.107630
v 2.429327 3.255820 -0.107629
v 2.429327 2.498657 -0.107629
v 1.856845 2.498657 -0.107629
v 1.313170 2.593719 -0.107629
v 0.830718 2.498657 -0.107629
v 1.063164 2.498657 -0.107629
v 1.307220 2.498657 -0.028821
v 0.830718 2.498657 -0.007629
v -0.291391 2.498657 -0.028821
v 0.258236 2.498657 -0.107629
v -0.285440 2.593719 -0.107630
v -0.767891 2.498657 -0.107630
v -0.535445 2.498657 -0.107630
v -1.340373 2.498657 -0.107630
v -0.767891 2.498657 -0.007630
v -0.869977 -0.000000 -0.167275
v -0.857428 1.910159 -0.103232
v -0.860714 1.688221 -0.152789
v -0.828500 1.920042 -0.147650
v -0.710432 0.988877 -0.147650
v -0.675068 0.738969 -0.152789
v -0.665806 -0.000000 -0.167275
v -0.678355 1.000380 -0.107605
v -0.678355 1.219543 -0.147650
v -0.669421 2.502138 -0.161624
v -0.866361 2.502138 -0.161624
v -0.857428 2.201913 -0.147650
v -2.366501 0.158468 -0.128621
v -1.971885 0.158468 -0.128621
v -1.873921 0.094800 -0.128621
v -2.366501 -0.000000 -0.128621
v -0.767892 -0.000000 -0.128621
v -0.767892 0.158468 -0.128621
v -1.524915 0.158468 -0.128621
v -1.878316 0.158468 -0.094706
v 0.830717 0.158468 -0.128621
v 0.830717 -0.000000 -0.128621
v 1.323298 0.094800 -0.128621
v 1.225334 0.158468 -0.128621
v 1.318903 0.158468 -0.094706
v 1.672304 0.158468 -0.128621
v 2.429326 0.158468 -0.128621
v 2.429326 -0.000000 -0.128621
v 0.728632 -0.000000 -0.167275
v 0.741182 1.910159 -0.103231
v 0.737896 1.688221 -0.152789
v 0.770110 1.920042 -0.147650
v 0.888177 0.988877 -0.147650
v 0.923540 0.738969 -0.152789
v 0.932804 -0.000000 -0.167275
v 0.920255 1.000380 -0.107604
v 0.920255 1.219543 -0.147650
v 0.929188 2.502138 -0.161624
v 0.732248 2.502138 -0.161624
v 0.741182 2.201913 -0.147650
v -2.468587 -0.000000 -0.167276
v -2.456037 2.483207 -0.103232
v -2.459323 2.194687 -0.152790
v -2.427109 2.496054 -0.147650
v -2.309042 1.285540 -0.147650
v -2.273678 0.960660 -0.152789
v -2.264415 -0.000000 -0.167276
v -2.276964 1.300494 -0.107605
v -2.276964 1.585406 -0.147650
v -2.268031 3.252779 -0.161625
v -2.464971 3.252779 -0.161625
v -2.456037 2.862487 -0.147650
v 2.434506 0.747610 -0.063213
v -2.403200 0.747610 -0.063216
v 2.434506 0.047343 -0.063213
v -2.403200 0.047343 -0.063216
v 2.091815 0.681407 -0.087622
v 1.966268 0.158470 -0.087622
v 2.091815 0.158470 -0.087622
v 1.966268 0.681407 -0.087622
v 1.702619 0.681407 -0.087622
v 1.577072 0.158469 -0.087622
v 1.702619 0.158470 -0.087622
v 1.577072 0.681407 -0.087622
v 1.313423 0.681407 -0.087622
v 1.187876 0.158469 -0.087622
v 1.313423 0.158469 -0.087622
v 1.187876 0.681407 -0.087622
v -1.114450 0.681407 -0.087622
v -1.239997 0.158470 -0.087622
v -1.114450 0.158470 -0.087622
v -1.239997 0.681407 -0.087622
v -1.503646 0.681407 -0.087622
v -1.629193 0.158469 -0.087622
v -1.503646 0.158470 -0.087622
v -1.629193 0.681407 -0.087622
v -1.892842 0.681407 -0.087622
v -2.018389 0.158469 -0.087622
v -1.892842 0.158469 -0.087622
v -2.018389 0.681407 -0.087622
v -1.307799 1.087374 -0.111258
v -1.358502 2.054556 -0.111258
v -1.358502 0.759595 -0.111258
v -1.291240 0.759595 -0.111258
v -1.291240 0.838034 -0.111258
v -1.291240 2.054556 -0.111258
v -1.291240 1.495235 -0.111258
v -1.291240 1.073611 -0.053822
v -1.792405 0.759595 -0.111260
v -1.859667 1.235492 -0.111260
v -1.859667 0.759595 -0.111260
v -1.839813 1.417208 -0.111260
v -1.792405 2.054556 -0.111260
v -1.859667 2.054556 -0.111260
v -1.859667 1.446861 -0.067559
v -1.859667 1.717129 -0.111260
v 1.892171 1.087374 -0.111258
v 1.841468 2.054556 -0.111258
v 1.841468 0.759595 -0.111258
v 1.908730 0.759595 -0.111258
v 1.908730 0.838034 -0.111258
v 1.908730 2.054556 -0.111258
v 1.908730 1.495235 -0.111258
v 1.908730 1.073611 -0.053822
v 1.407565 0.759595 -0.111259
v 1.340304 1.235492 -0.111260
v 1.340304 0.759595 -0.111259
v 1.360158 1.417208 -0.111260
v 1.407565 2.054556 -0.111260
v 1.340304 2.054556 -0.111260
v 1.340304 1.446861 -0.067558
v 1.340304 1.717129 -0.111260
v -0.497999 0.003132 0.000000
v -0.497999 0.003132 -0.137642
v -0.493127 0.003132 -0.137642
v -0.493029 0.003132 -0.137642
v -0.493029 0.003132 -0.136963
v -0.493029 0.003132 0.133154
v -0.497999 0.003132 0.133311
v -0.493029 0.003132 0.133311
v -0.497999 0.003132 -0.128621
v -0.497999 0.003132 0.128621
v 0.498001 0.003132 0.000000
v 0.493029 0.003132 -0.137642
v 0.493029 0.003132 0.132958
v 0.493146 0.003132 -0.137642
v 0.493029 0.003132 0.133311
v 0.498001 0.003132 -0.137642
v 0.498001 0.003132 0.133311
v 0.498001 0.003132 -0.128621
v 0.498001 0.003132 0.128621
v -0.498001 2.203132 -0.000000
v -0.498001 2.203132 -0.052500
v -0.498001 2.203132 0.052499
v -0.493029 2.203132 -0.000288
v -0.493029 2.203132 -0.137642
v -0.498001 2.203132 -0.137642
v -0.493029 2.203132 0.071741
v -0.493029 2.203132 0.133311
v -0.493029 2.203132 0.125939
v -0.498001 2.203132 0.133312
v -0.498001 2.203132 0.157948
v -0.498001 2.203132 -0.162280
v -0.498000 0.047343 -0.063215
v -0.498000 0.471829 -0.063215
v -0.498000 0.471829 0.063214
v -0.498000 0.047343 0.063214
v -0.498000 0.747610 0.063214
v -0.498000 0.747610 -0.063215
v -0.498000 0.747610 -0.024895
v -0.498000 0.747610 -0.000000
v -0.498000 0.747610 0.024895
v -0.497999 0.158468 -0.000000
v -0.498000 0.666393 0.052500
v -0.498000 0.666393 -0.052500
v -0.498000 0.159651 -0.137642
v -0.498000 1.137581 -0.137641
v -0.498000 0.802636 0.133311
v -0.498000 0.683820 0.112179
v -0.498000 0.652153 0.112179
v -0.498000 0.652153 -0.112179
v -0.498000 0.683820 -0.112179
v -0.498000 0.810622 0.102294
v -0.498000 0.810622 0.112179
v -0.498000 0.810622 -0.102294
v -0.498000 0.810622 -0.046748
v -0.498000 0.810622 -0.112179
v -0.498000 0.810622 0.046748
v -0.498000 0.709037 0.112179
v -0.498000 0.709037 -0.112179
v -0.498000 0.810622 -0.000000
v -0.498000 0.652153 -0.093266
v -0.498000 0.652153 0.093266
v -0.498000 0.652153 -0.000000
v -0.497999 0.051942 -0.128621
v -0.497999 0.051942 0.128621
v -0.497999 0.158468 -0.000000
v -0.497999 0.158468 -0.052358
v -0.498000 0.158468 -0.000000
v -0.497999 0.158468 0.052358
v -0.497999 0.123583 0.128621
v -0.497999 0.123583 -0.128621
v -0.497999 0.158468 -0.128621
v -0.497999 0.158468 0.128621
v -0.497999 0.158468 -0.087969
v -0.497999 0.158468 0.087969
v -0.498000 1.332773 0.052500
v -0.498000 1.332773 -0.052500
v -0.498000 1.973220 -0.137641
v -0.498000 1.221235 0.133311
v -0.498001 2.171192 0.157947
v -0.498001 2.171192 -0.162279
v -0.498000 2.122312 -0.077211
v -0.498000 2.122312 -0.055470
v -0.498001 2.171192 0.122080
v -0.498001 2.171192 -0.150202
v -0.498000 2.122312 -0.128622
v -0.498000 2.097967 -0.128622
v -0.498000 2.097967 0.128621
v -0.498001 2.122312 0.128621
v -0.498000 2.122312 0.077211
v -0.498000 2.122312 0.055469
v -0.498000 2.122312 -0.000000
v -0.498000 2.046064 -0.128622
v -0.498000 2.046064 0.128621
v -0.498000 1.985329 -0.128622
v -0.498000 1.985329 0.128621
v -0.498000 1.963844 0.026994
v -0.498000 1.963844 -0.000000
v -0.498000 1.963844 -0.026995
v -0.498000 1.963844 -0.128622
v -0.498000 1.963844 0.128621
v -0.498000 1.963844 0.105559
v -0.498000 1.963844 -0.105560
v -0.498000 1.730943 -0.079105
v -0.498000 1.504550 -0.137642
v 0.498000 0.047343 -0.063214
v 0.498000 0.327656 -0.063214
v 0.498000 0.327656 0.063214
v 0.498000 0.047343 0.063214
v 0.498000 0.747610 0.063214
v 0.498000 0.747610 -0.063214
v 0.498000 0.747610 -0.037909
v 0.498000 0.747610 -0.000000
v 0.498000 0.747610 0.037909
v 0.498000 0.158468 0.000000
v 0.498000 0.666393 0.052500
v 0.498000 0.666393 -0.052500
v 0.498000 1.068683 -0.137642
v 0.498001 0.132685 -0.137642
v 0.498000 1.136498 0.133311
v 0.498000 0.709415 0.112179
v 0.498000 0.652153 0.112179
v 0.498000 0.652153 -0.112179
v 0.498000 0.709415 -0.112179
v 0.498000 0.810622 -0.102941
v 0.498000 0.810622 -0.093407
v 0.498000 0.810622 -0.040518
v 0.498000 0.810622 -0.000000
v 0.498000 0.798970 -0.112179
v 0.498000 0.810622 0.040517
v 0.498000 0.810622 0.093407
v 0.498000 0.798970 0.112179
v 0.498000 0.810622 0.102941
v 0.498000 0.652153 -0.023374
v 0.498000 0.652153 0.023373
v 0.498000 0.652153 -0.000000
v 0.498001 0.158468 -0.048902
v 0.498000 0.158468 -0.128621
v 0.498000 0.028518 -0.128621
v 0.498001 0.158468 0.000000
v 0.498000 0.158468 -0.000000
v 0.498000 0.028518 0.128621
v 0.498000 0.139315 0.128621
v 0.498000 0.139315 -0.128621
v 0.498001 0.158468 0.048902
v 0.498000 0.158468 0.128621
v 0.497999 2.203132 0.000000
v 0.497999 1.870392 0.052500
v 0.497999 1.870392 -0.052500
v 0.497999 2.203132 -0.052500
v 0.497999 2.203132 0.052499
v 0.497999 2.203132 -0.137642
v 0.497999 2.203132 0.133311
v 0.497999 2.171192 0.157947
v 0.497999 2.203132 -0.162279
v 0.497999 2.181218 -0.162279
v 0.497999 2.203132 0.157948
v 0.497999 2.171192 -0.139250
v 0.498000 2.083958 0.128621
v 0.498000 2.048455 0.128621
v 0.498000 2.122312 -0.115757
v 0.498000 2.122312 -0.013880
v 0.497999 2.171192 -0.043751
v 0.498000 2.171192 -0.094366
v 0.497999 2.122312 -0.128621
v 0.498000 2.083958 -0.128622
v 0.498000 2.048455 -0.128622
v 0.498000 1.963844 0.128621
v 0.498000 1.963844 -0.128622
v 0.497999 2.122312 0.128621
v 0.498000 2.122312 0.115757
v 0.498000 2.122312 0.013879
v 0.498000 2.122312 -0.000000
v 0.498000 1.963844 -0.000000
v 0.498000 1.963844 -0.027055
v 0.498000 1.963844 0.027055
v 0.498000 1.963844 0.052642
v 0.498000 1.963844 0.106839
v 0.498000 1.963844 -0.052642
v 0.498000 1.963844 -0.106840
v 0.493029 2.203132 -0.137642
v 0.493029 2.203132 -0.114976
v 0.493029 2.203132 0.133311
v 0.067601 2.203132 -0.162279
vn -0.0000 -0.0000 -1.0000
vn 0.7718 0.1592 -0.6156
vn 0.7378 -0.1585 -0.6562
vn 1.0000 -0.0000 -0.0000
vn -0.0000 1.0000 -0.0000
vn -0.0000 -0.0000 1.0000
vn -0.0000 -1.0000 -0.0000
vn -1.0000 -0.0000 -0.0000
vn -0.0115 0.0397 0.9991
vn 0.6469 -0.0346 -0.7618
vn 0.6469 -0.0341 -0.7618
vn -0.0310 -0.6342 -0.7726
vn -0.0224 0.0013 -0.9997
vn -0.0417 -0.0180 -0.9990
vn -0.0354 -0.0064 -0.9994
vn -0.9992 0.0078 -0.0390
vn -0.9996 0.0158 -0.0240
vn -0.9998 0.0100 -0.0187
vn -0.9997 0.0152 -0.0167
vn -0.9993 0.0041 -0.0361
vn -0.9993 -0.0073 0.0369
vn -0.9984 0.0101 -0.0553
vn -0.9999 -0.0051 0.0135
vn -0.9987 0.0066 -0.0496
vn -0.9991 -0.0009 -0.0417
vn 0.1007 -0.0057 0.9949
vn 0.0830 0.0061 0.9965
vn 0.1013 0.0102 0.9948
vn 0.0693 -0.0051 0.9976
vn 0.0701 0.0106 0.9975
vn 0.0690 0.0057 0.9976
vn 0.0031 0.0176 0.9998
vn -0.0006 0.0154 0.9999
vn -0.0018 0.0149 0.9999
vn -0.0005 0.0153 0.9999
vn 0.9999 0.0126 0.0098
vn 1.0000 0.0097 -0.0001
vn 1.0000 0.0096 -0.0000
vn 0.9996 0.0030 0.0281
vn 0.7599 0.0929 0.6434
vn 0.9999 -0.0074 0.0069
vn 0.9999 -0.0143 0.0032
vn 0.9999 -0.0075 -0.0139
vn 0.9997 0.0066 0.0224
vn 0.7929 -0.0848 0.6035
vn 1.0000 -0.0020 -0.0021
vn 0.9997 -0.0185 -0.0178
vn 0.9998 0.0108 -0.0187
vn -0.0376 -0.0057 0.9993
vn -0.0515 0.0154 0.9986
vn -0.0554 -0.0240 0.9982
vn 0.0017 -0.0118 0.9999
vn -0.0006 0.0006 1.0000
vn -0.0221 -0.0082 0.9997
vn 1.0000 0.0074 0.0008
vn 0.9999 -0.0074 -0.0088
vn 0.9999 -0.0069 -0.0128
vn -0.0100 -0.0193 0.9998
vn 0.0007 -0.0067 1.0000
vn -0.0169 -0.0162 0.9997
vn -0.9986 0.0068 -0.0522
vn -0.9999 -0.0127 0.0093
vn -0.9997 -0.0064 0.0230
vn -0.9747 -0.0044 0.2236
vn -0.9949 -0.0039 -0.1010
vn -0.9598 -0.0278 0.2791
vn -0.5453 -0.0383 0.8374
vn -0.1870 -0.0276 0.9820
vn -0.5385 -0.0308 0.8421
vn -0.8274 -0.0653 0.5578
vn 0.0119 0.0045 -0.9999
vn 0.0097 0.0029 -0.9999
vn 0.0097 0.0027 -0.9999
vn -0.0000 0.1158 -0.9933
vn 0.1109 -0.0045 -0.9938
vn -0.0008 -0.1110 -0.9938
vn -0.0210 -0.0071 -0.9998
vn -0.0251 -0.0072 -0.9997
vn -0.0007 0.0218 -0.9998
vn -0.0737 0.0131 -0.9972
vn -0.0216 -0.0048 -0.9998
vn -0.0216 -0.0032 -0.9998
vn 0.0017 0.0115 -0.9999
vn 0.0647 -0.0149 -0.9978
vn 0.0115 -0.0010 -0.9999
vn 0.0179 0.0108 -0.9998
vn -0.0003 0.0459 0.9989
vn 0.0162 -0.0004 0.9999
vn 0.0004 -0.0587 0.9983
vn 0.0350 0.0156 -0.9993
vn 0.0955 0.0002 -0.9954
vn 0.0012 -0.0883 -0.9961
vn -0.9993 -0.0013 0.0361
vn -0.9990 -0.0101 0.0428
vn -0.9989 -0.0029 0.0459
vn -0.9997 -0.0053 0.0258
vn -0.8467 0.0994 0.5227
vn 0.1331 0.5639 0.8150
vn -0.0691 0.6198 0.7817
vn 0.1331 0.5640 0.8150
vn -0.3281 0.6694 0.6665
vn 0.1946 -0.7510 0.6310
vn -0.2282 -0.6376 0.7358
vn 0.2390 -0.6285 0.7401
vn -0.1102 -0.6302 0.7685
vn 0.2390 -0.6286 0.7401
vn 0.2852 0.9585 -0.0000
vn 0.6466 -0.0451 -0.7615
vn 0.6466 -0.0441 -0.7616
vn 0.6328 -0.0647 -0.7716
vn -0.0223 0.0017 -0.9997
vn -0.0416 -0.0236 -0.9989
vn -0.0355 -0.0082 -0.9993
vn -0.9992 0.0017 -0.0396
vn -0.9997 0.0133 -0.0186
vn -0.9997 0.0131 -0.0185
vn -0.9997 0.0197 -0.0167
vn -0.9993 0.0053 -0.0361
vn -0.9993 -0.0095 0.0369
vn -0.9984 0.0131 -0.0546
vn -0.9999 -0.0086 0.0128
vn -0.9987 0.0025 -0.0514
vn -0.9990 0.0190 -0.0400
vn -0.9991 0.0011 -0.0416
vn -0.9992 0.0266 -0.0311
vn 0.1006 -0.0023 0.9949
vn 0.0829 0.0079 0.9965
vn 0.1019 0.0103 0.9947
vn 0.0694 -0.0015 0.9976
vn 0.0697 0.0110 0.9975
vn 0.0712 0.0072 0.9974
vn 0.0018 0.0212 0.9998
vn -0.0007 0.0198 0.9998
vn -0.0000 0.0220 0.9998
vn -0.0000 0.0196 0.9998
vn 0.9998 0.0154 0.0099
vn 0.9999 0.0126 -0.0001
vn 0.9999 0.0125 -0.0000
vn 0.9996 0.0038 0.0281
vn 0.7576 0.1204 0.6415
vn 0.9999 -0.0098 0.0069
vn 0.9999 -0.0135 0.0040
vn 0.9999 -0.0091 -0.0128
vn 0.9997 0.0087 0.0225
vn 0.7909 -0.1100 0.6020
vn 1.0000 -0.0027 -0.0027
vn 0.9996 -0.0194 -0.0182
vn 0.9998 0.0088 -0.0198
vn -0.0393 -0.0076 0.9992
vn -0.0522 0.0124 0.9986
vn -0.0556 -0.0243 0.9982
vn 0.0019 -0.0102 0.9999
vn -0.0024 -0.0019 1.0000
vn -0.0208 -0.0101 0.9997
vn 1.0000 0.0046 0.0009
vn 0.9999 -0.0097 -0.0088
vn 0.9999 -0.0091 -0.0123
vn -0.0064 -0.0246 0.9997
vn 0.0006 -0.0137 0.9999
vn -0.0151 -0.0219 0.9996
vn -0.9986 0.0090 -0.0518
vn -0.9999 -0.0159 0.0059
vn -0.9997 -0.0084 0.0230
vn -0.9740 -0.0058 0.2264
vn -0.9949 -0.0051 -0.1008
vn -0.9604 -0.0389 0.2761
vn -0.5424 -0.0526 0.8385
vn -0.1865 -0.0357 0.9818
vn -0.5383 -0.0451 0.8415
vn -0.8262 -0.0848 0.5569
vn 0.0121 0.0059 -0.9999
vn 0.0098 0.0039 -0.9999
vn 0.0098 0.0037 -0.9999
vn -0.0000 0.1161 -0.9932
vn 0.1109 -0.0059 -0.9938
vn -0.0011 -0.1111 -0.9938
vn -0.0208 -0.0093 -0.9997
vn -0.0251 -0.0096 -0.9996
vn -0.0010 0.0218 -0.9998
vn -0.0737 0.0171 -0.9971
vn -0.0218 -0.0064 -0.9997
vn -0.0215 -0.0040 -0.9998
vn 0.0095 0.0066 -0.9999
vn 0.0645 -0.0194 -0.9977
vn 0.0180 0.0142 -0.9997
vn -0.0003 0.0462 0.9989
vn 0.0162 -0.0005 0.9999
vn 0.0005 -0.0598 0.9982
vn 0.0351 0.0201 -0.9992
vn 0.0955 0.0003 -0.9954
vn 0.0016 -0.0885 -0.9961
vn -0.9993 -0.0014 0.0361
vn -0.9990 -0.0131 0.0427
vn -0.9989 -0.0038 0.0459
vn -0.9999 -0.0045 0.0162
vn -0.9996 -0.0069 0.0257
vn -0.9988 0.0136 -0.0462
vn -0.8438 0.1288 0.5209
vn -0.0000 0.1088 0.9941
vn 0.0001 0.1088 0.9941
vn 0.3018 0.4644 0.8326
vn -0.0846 0.4639 0.8818
vn -0.0001 0.3571 -0.9340
vn -0.0000 0.3571 -0.9340
vn -0.0000 0.0001 -1.0000
vn -0.0000 -0.0001 -1.0000
vn -0.9993 0.0053 -0.0360
vn 0.1006 -0.0022 0.9949
vn 0.0830 0.0079 0.9965
vn 0.0017 0.0213 0.9998
vn -0.0003 0.0198 0.9998
vn 0.9996 0.0038 0.0282
vn 0.9999 -0.0090 -0.0129
vn -0.0394 -0.0076 0.9992
vn -0.0557 -0.0245 0.9981
vn 0.0019 -0.0101 0.9999
vn 0.0006 -0.0138 0.9999
vn -0.0152 -0.0219 0.9996
vn -0.9949 -0.0051 -0.1009
vn -0.9603 -0.0389 0.2762
vn -0.1864 -0.0358 0.9818
vn -0.9993 -0.0015 0.0361
vn -0.9984 0.0101 -0.0554
vn 0.1007 -0.0058 0.9949
vn 0.0829 0.0061 0.9965
vn 0.0689 0.0058 0.9976
vn -0.0007 0.0154 0.9999
vn -0.0021 0.0153 0.9999
vn -0.0005 0.0152 0.9999
vn 0.9999 -0.0075 -0.0138
vn 0.9998 0.0107 -0.0187
vn -0.0005 0.0005 1.0000
vn -0.9598 -0.0278 0.2792
vn -0.5385 -0.0308 0.8420
vn 0.0004 0.1158 -0.9933
vn -0.0004 -0.1110 -0.9938
vn -0.0250 -0.0072 -0.9997
vn -0.0216 -0.0033 -0.9998
vn -0.0003 0.0460 0.9989
vn -0.9990 -0.0101 0.0429
vn 0.0001 -0.0000 1.0000
vn 0.9629 0.0639 0.2623
vn 0.9576 -0.0389 0.2854
vn -0.9238 -0.3827 0.0135
vn -0.9238 0.3827 0.0135
vn -0.9307 -0.2715 -0.2452
vn -0.8800 0.0962 0.4651
vn -0.9237 -0.0611 0.3782
vn -0.0000 -0.3984 0.9172
vn -0.0001 0.3984 0.9172
vn -0.2817 -0.2819 0.9171
vn -0.0000 0.7237 0.6901
vn -0.9991 0.0063 0.0431
vn -0.9998 0.0100 0.0187
vn -0.9996 0.0158 0.0240
vn -0.9997 0.0152 0.0167
vn -0.9993 -0.0073 -0.0369
vn -0.9993 0.0041 0.0361
vn -0.9991 0.0140 0.0410
vn -0.9987 0.0036 0.0506
vn -0.9999 -0.0066 -0.0127
vn -0.9983 -0.0024 0.0578
vn 0.1007 -0.0058 -0.9949
vn 0.1013 0.0102 -0.9948
vn 0.0830 0.0061 -0.9965
vn 0.0693 -0.0051 -0.9976
vn 0.0690 0.0058 -0.9976
vn 0.0701 0.0106 -0.9975
vn 0.0031 0.0176 -0.9998
vn -0.0019 0.0151 -0.9999
vn -0.0009 0.0154 -0.9999
vn -0.0006 0.0153 -0.9999
vn 0.9999 0.0129 -0.0047
vn 1.0000 0.0097 0.0001
vn 0.9997 0.0021 -0.0224
vn 0.7599 0.0929 -0.6434
vn 0.9998 0.0101 -0.0171
vn 0.9996 0.0054 -0.0279
vn 0.9999 -0.0107 -0.0047
vn 0.9999 -0.0075 0.0138
vn 0.7929 -0.0848 -0.6035
vn 1.0000 -0.0012 0.0029
vn 0.9998 0.0107 0.0187
vn 0.9999 -0.0078 0.0106
vn -0.0376 -0.0057 -0.9993
vn -0.0554 -0.0240 -0.9982
vn -0.0515 0.0154 -0.9986
vn 0.0017 -0.0118 -0.9999
vn -0.0221 -0.0082 -0.9997
vn -0.0006 0.0006 -1.0000
vn 1.0000 -0.0007 0.0047
vn 0.9999 -0.0068 0.0094
vn 0.9999 -0.0074 0.0088
vn -0.0100 -0.0193 -0.9998
vn -0.0169 -0.0162 -0.9997
vn 0.0007 -0.0067 -1.0000
vn -0.9986 0.0068 0.0522
vn -0.9997 -0.0064 -0.0230
vn -0.9999 -0.0127 -0.0093
vn -0.9747 -0.0044 -0.2235
vn -0.9598 -0.0278 -0.2791
vn -0.9949 -0.0039 0.1010
vn -0.5453 -0.0383 -0.8374
vn -0.5385 -0.0308 -0.8421
vn -0.1870 -0.0276 -0.9820
vn -0.8274 -0.0653 -0.5578
vn -0.9993 -0.0013 -0.0361
vn -0.9989 -0.0029 -0.0459
vn -0.9990 -0.0101 -0.0428
vn -0.9999 -0.0035 -0.0160
vn -0.9989 0.0104 0.0467
vn -0.9997 -0.0053 -0.0258
vn -0.8467 0.0994 -0.5227
vn 0.1331 0.5640 -0.8150
vn -0.0691 0.6198 -0.7817
vn -0.3281 0.6694 -0.6665
vn 0.1946 -0.7510 -0.6310
vn -0.2282 -0.6376 -0.7358
vn 0.2390 -0.6285 -0.7401
vn -0.1102 -0.6302 -0.7685
vn 0.2390 -0.6286 -0.7401
vn -0.4441 0.8960 -0.0000
vn -0.9992 0.0017 0.0396
vn -0.9997 0.0131 0.0185
vn -0.9997 0.0133 0.0186
vn -0.9997 0.0197 0.0167
vn -0.9993 -0.0095 -0.0369
vn -0.9993 0.0053 0.0361
vn -0.9990 0.0183 0.0408
vn -0.9987 0.0047 0.0504
vn -0.9999 -0.0086 -0.0128
vn -0.9987 0.0143 0.0479
vn -0.9992 0.0266 0.0311
vn -0.9984 -0.0032 0.0573
vn 0.1006 -0.0024 -0.9949
vn 0.1019 0.0103 -0.9947
vn 0.0830 0.0079 -0.9965
vn 0.0694 -0.0015 -0.9976
vn 0.0712 0.0071 -0.9974
vn 0.0696 0.0109 -0.9975
vn 0.0018 0.0212 -0.9998
vn -0.0000 0.0220 -0.9998
vn -0.0009 0.0198 -0.9998
vn -0.0000 0.0196 -0.9998
vn 0.9999 0.0155 -0.0050
vn 0.9999 0.0126 0.0001
vn 0.9997 0.0026 -0.0223
vn 0.7576 0.1204 -0.6415
vn 0.9998 0.0132 -0.0169
vn 0.9996 0.0071 -0.0278
vn 0.9999 -0.0114 -0.0053
vn 0.9999 -0.0091 0.0128
vn 0.7909 -0.1100 -0.6020
vn 1.0000 -0.0018 0.0037
vn 0.9998 0.0089 0.0198
vn 0.9999 -0.0101 0.0106
vn -0.0393 -0.0076 -0.9992
vn -0.0556 -0.0243 -0.9982
vn -0.0522 0.0124 -0.9986
vn 0.0019 -0.0102 -0.9999
vn -0.0208 -0.0101 -0.9997
vn -0.0024 -0.0019 -1.0000
vn 1.0000 -0.0010 0.0045
vn 0.9999 -0.0088 0.0093
vn 0.9999 -0.0097 0.0088
vn -0.0064 -0.0246 -0.9997
vn -0.0151 -0.0219 -0.9996
vn 0.0006 -0.0137 -0.9999
vn -0.9986 0.0090 0.0518
vn -0.9997 -0.0084 -0.0230
vn -0.9999 -0.0159 -0.0059
vn -0.9740 -0.0058 -0.2264
vn -0.9604 -0.0389 -0.2761
vn -0.9949 -0.0051 0.1009
vn -0.5424 -0.0526 -0.8385
vn -0.5383 -0.0450 -0.8415
vn -0.1864 -0.0359 -0.9818
vn -0.8262 -0.0848 -0.5569
vn -0.9993 -0.0015 -0.0361
vn -0.9989 -0.0038 -0.0459
vn -0.9990 -0.0131 -0.0427
vn -0.9999 -0.0045 -0.0162
vn -0.9988 0.0136 0.0462
vn -0.9996 -0.0069 -0.0257
vn -0.8438 0.1288 -0.5209
vn 0.3018 0.4644 -0.8326
vn -0.0846 0.4639 -0.8818
vn -0.9993 0.0053 0.0360
vn 0.1006 -0.0022 -0.9949
vn 0.0712 0.0072 -0.9974
vn 0.0017 0.0213 -0.9998
vn -0.0007 0.0198 -0.9998
vn -0.0003 0.0198 -0.9998
vn 0.9997 0.0026 -0.0225
vn 0.9999 -0.0090 0.0129
vn 0.9998 0.0088 0.0197
vn -0.0394 -0.0076 -0.9992
vn -0.0557 -0.0245 -0.9981
vn 0.0019 -0.0101 -0.9999
vn -0.0152 -0.0219 -0.9996
vn 0.0006 -0.0138 -0.9999
vn -0.9603 -0.0389 -0.2762
vn -0.5383 -0.0451 -0.8415
vn -0.9991 0.0140 0.0409
vn -0.9987 0.0036 0.0505
vn 0.1007 -0.0057 -0.9949
vn 0.0829 0.0061 -0.9965
vn 0.0689 0.0058 -0.9976
vn -0.0020 0.0151 -0.9999
vn -0.0008 0.0154 -0.9999
vn -0.0005 0.0152 -0.9999
vn 0.9999 0.0129 -0.0046
vn -0.0005 0.0005 -1.0000
vn -0.9747 -0.0044 -0.2236
vn -0.9598 -0.0278 -0.2792
vn -0.5452 -0.0383 -0.8374
vn -0.5385 -0.0308 -0.8420
vn -0.9990 -0.0101 -0.0429
vn 0.9629 0.0639 -0.2623
vn 0.9576 -0.0389 -0.2854
vn -0.8800 0.0962 -0.4651
vn -0.9237 -0.0611 -0.3782
vn 0.1300 -0.0000 -0.9915
vn 0.1006 -0.9122 -0.3972
vt 0.496057 0.152314
vt 0.496057 0.152314
vt 0.496057 0.152314
vt 0.496057 0.152314
vt 0.496057 0.152314
vt 0.496057 0.152314
vt 0.496057 0.152314
vt 0.496057 0.152314
vt 0.495107 0.158123
vt 0.495108 0.158057
vt 0.495116 0.157967
vt 0.495168 0.158074
vt 0.495185 0.158154
vt 0.495229 0.157520
vt 0.495227 0.157450
vt 0.495128 0.157979
vt 0.495245 0.157446
vt 0.495274 0.157776
vt 0.495271 0.157849
vt 0.495242 0.158119
vt 0.495263 0.157765
vt 0.495217 0.157522
vt 0.495288 0.157700
vt 0.495343 0.157190
vt 0.495127 0.157191
vt 0.495251 0.157212
vt 0.495233 0.157180
vt 0.495239 0.157370
vt 0.495204 0.157458
vt 0.495195 0.157519
vt 0.495196 0.157601
vt 0.495112 0.157894
vt 0.496298 0.183896
vt 0.000000 0.000000
vt 0.302788 0.092971
vt 0.492235 0.151140
vt 0.490202 0.150516
vt 0.199767 0.061338
vt 0.007891 0.960522
vt 0.242198 0.960522
vt 0.242198 0.821067
vt 0.242198 0.990981
vt 0.007891 0.790010
vt 0.204254 0.990981
vt 0.204254 0.821067
vt 0.089819 0.849631
vt 0.089819 0.927502
vt 0.155916 0.927502
vt 0.155916 0.897732
vt 0.089819 0.790010
vt 0.007325 0.990981
vt 0.046719 0.990981
vt 0.242198 0.790010
vt 0.007325 0.821067
vt 0.046719 0.821067
vt 0.101683 0.960522
vt 0.101683 0.960522
vt 0.101683 0.858265
vt 0.101683 0.790010
vt 0.155916 0.927502
vt 0.089819 0.849631
vt 0.101683 0.960522
vt 0.155916 0.790010
vt 0.149922 0.893370
vt 0.149923 0.960522
vt 0.149923 0.960522
vt 0.149922 0.960522
vt 0.149922 0.790010
s 1
usemtl Material.007
f 1/1/1 728/1/1 727/1/1 761/1/1 790/1/1 3/1/1
f 1/1/1 4/1/1 2/1/1 624/1/1 626/2/1 728/1/1
f 6/1/1 1/1/1 3/1/1
f 1/1/1 5/1/1 4/1/1
f 8/1/2 5/1/2 1/1/2
f 6/1/1 7/1/1 1/1/1
f 7/1/3 8/1/3 1/1/3
f 9/1/4 5/1/4 8/1/4
f 10/1/4 9/1/4 8/1/4
f 10/1/4 8/1/4 7/1/4
f 10/1/5 6/1/5 3/1/5
f 10/1/4 7/1/4 6/1/4
f 10/1/5 3/1/5 11/1/5
f 11/1/6 792/3/6 762/4/6 729/5/6 627/6/6 625/1/6 15/1/6 14/1/6 13/1/6 12/1/6 10/1/6
f 10/1/4 12/1/4 9/1/4
f 9/1/4 13/1/4 14/1/4
f 4/1/7 14/1/7 15/1/7
f 9/1/4 14/1/4 4/1/4
f 3/1/8 791/1/8 792/3/8 11/1/8
f 4/1/7 15/1/7 2/1/7
f 3/1/8 790/1/8 791/1/8
f 9/1/4 4/1/4 5/1/4
f 16/1/1 17/1/1 18/1/1
f 17/1/5 16/1/5 22/1/5
f 18/1/1 765/2/1 764/7/1 793/1/1 16/1/1
f 16/1/8 19/1/8 20/1/8
f 20/1/8 21/1/8 16/1/8
f 21/1/8 22/1/8 16/1/8
f 24/1/9 23/1/9 22/1/9 21/1/9 20/1/9 689/3/9 640/2/9 766/5/9 763/1/9 25/1/9
f 22/1/5 23/1/5 24/1/5
f 24/1/5 17/1/5 22/1/5
f 24/1/4 25/1/4 26/1/4
f 26/1/4 18/1/4 24/1/4
f 18/1/4 17/1/4 24/1/4
f 26/1/7 25/1/7 763/1/7 772/1/7
f 20/1/7 19/1/7 694/3/7 693/3/7
f 19/1/7 690/2/7 694/3/7
f 27/1/1 28/1/1 29/1/1
f 27/1/1 654/1/1 612/8/1 613/1/1 30/1/1 28/1/1
f 31/1/1 27/1/1 29/1/1
f 27/1/1 714/1/1 655/1/1 654/1/1
f 31/1/1 634/2/1 635/1/1 687/1/1 27/1/1
f 32/1/4 638/1/4 636/1/4
f 32/1/4 636/1/4 633/1/4
f 32/1/5 31/1/5 29/1/5
f 32/1/4 633/1/4 634/2/4 31/1/4
f 32/1/5 29/1/5 33/1/5
f 33/1/6 35/1/6 34/1/6 618/1/6 617/1/6 656/2/6 688/1/6 639/2/6 637/2/6 32/1/6
f 32/1/4 637/2/4 638/1/4
f 30/1/7 34/1/7 35/1/7
f 29/1/8 35/1/8 33/1/8
f 30/1/7 35/1/7 28/1/7
f 29/1/8 28/1/8 35/1/8
f 9/1/4 12/1/4 13/1/4
f 772/1/7 773/1/7 26/1/7
f 625/1/8 623/1/8 15/1/8
f 623/1/8 622/1/8 2/1/8 15/1/8
f 687/1/3 713/1/3 27/1/3
f 616/1/4 618/1/4 34/1/4
f 713/1/2 714/1/2 27/1/2
f 773/1/7 767/2/7 26/1/7
f 622/1/1 624/1/1 2/1/1
f 613/1/1 614/1/1 30/1/1
f 793/1/1 641/2/1 690/2/1 19/1/1 16/1/1
f 693/3/7 689/3/7 20/1/7
f 767/2/424 765/2/424 18/1/424 26/1/424
f 615/1/4 616/1/4 34/1/4 30/1/4
f 614/1/4 615/1/4 30/1/4
usemtl Material.002
f 36/9/10 39/10/11 37/11/12
f 36/9/13 37/11/14 38/12/15
f 40/13/7 36/9/7 38/12/7
f 40/13/16 39/10/17 36/9/18
f 40/13/19 43/14/20 41/15/21
f 40/13/22 41/15/23 42/16/24
f 40/13/16 42/16/25 39/10/17
f 44/17/26 43/14/27 40/13/28
f 44/17/29 40/13/30 45/18/31
f 40/13/32 46/19/33 45/18/34
f 40/13/32 47/20/35 46/19/33
f 40/13/7 38/12/7 47/20/7
f 38/12/36 46/19/37 47/20/38
f 38/12/36 48/21/39 46/19/37
f 45/18/40 46/19/40 48/21/40
f 38/12/36 49/22/41 48/21/39
f 49/22/42 50/23/43 48/21/44
f 50/23/45 45/18/45 48/21/45
f 49/22/46 51/24/47 50/23/48
f 44/17/49 50/23/50 51/24/51
f 44/17/52 45/18/53 50/23/54
f 52/25/5 54/26/5 51/24/5
f 52/25/5 51/24/5 53/27/5
f 49/22/55 53/27/56 51/24/57
f 54/26/58 44/17/59 51/24/60
f 41/15/61 54/26/62 52/25/63
f 41/15/64 55/28/65 54/26/66
f 54/26/67 55/28/68 44/17/69
f 55/28/70 41/15/70 44/17/70
f 52/25/71 53/27/72 56/29/73
f 49/22/74 56/29/75 53/27/76
f 52/25/77 56/29/78 57/30/79
f 57/30/1 56/29/1 49/22/1
f 37/11/80 52/25/81 57/30/82
f 37/11/83 57/30/84 58/31/1
f 58/31/1 57/30/1 49/22/1
f 37/11/85 58/31/1 38/12/86
f 38/12/87 58/31/88 49/22/89
f 37/11/90 59/32/91 52/25/92
f 41/15/93 52/25/94 59/32/95
f 59/32/1 37/11/1 42/16/1
f 41/15/23 59/32/96 42/16/24
f 41/15/97 43/14/97 44/17/97
f 37/11/1 39/10/1 42/16/1
f 74/1/6 77/1/6 75/1/6
f 74/1/6 75/1/6 76/1/6
f 79/1/7 74/1/7 76/1/7
f 74/1/6 78/1/6 77/1/6
f 79/1/4 78/1/4 74/1/4
f 79/1/4 80/1/4 78/1/4
f 79/1/7 76/1/7 81/1/7
f 76/1/8 82/1/8 81/1/8
f 76/1/8 83/1/8 82/1/8
f 83/1/5 84/1/5 82/1/5
f 83/1/5 85/1/5 84/1/5
f 86/1/5 85/1/5 83/1/5
f 86/1/5 87/1/5 85/1/5
f 86/1/5 80/1/5 87/1/5
f 86/1/5 83/1/5 88/1/5
f 78/1/5 80/1/5 86/1/5
f 75/1/98 86/1/98 88/1/98
f 78/1/5 86/1/5 77/1/5
f 77/1/99 86/1/99 75/1/99
f 76/1/6 75/1/6 88/1/6
f 76/1/6 88/1/6 83/1/6
f 89/1/6 91/1/6 741/2/6 730/1/6
f 89/1/6 730/1/6 731/3/6
f 93/1/7 89/1/7 731/3/7 744/1/7
f 89/1/6 92/1/6 91/1/6
f 93/1/4 92/1/4 89/1/4
f 93/1/4 94/1/4 92/1/4
f 93/1/7 744/1/7 745/3/7
f 90/1/8 96/1/8 95/1/8
f 90/1/8 97/1/8 96/1/8
f 97/1/5 98/1/5 96/1/5
f 97/1/5 666/2/5 669/2/5 98/1/5
f 92/1/5 94/1/5 739/1/5 740/1/5
f 92/1/5 740/1/5 742/1/5 91/1/5
f 91/1/99 742/1/99 741/2/99
f 90/1/6 657/3/6 667/1/6
f 90/1/6 667/1/6 662/3/6 97/1/6
f 99/1/6 102/1/6 100/1/6
f 99/1/6 100/1/6 101/1/6
f 104/1/7 99/1/7 101/1/7
f 99/1/6 103/1/6 102/1/6
f 104/1/4 103/1/4 99/1/4
f 104/1/4 105/1/4 103/1/4
f 104/1/7 101/1/7 106/1/7
f 101/1/8 107/1/8 106/1/8
f 101/1/8 108/1/8 107/1/8
f 108/1/5 109/1/5 107/1/5
f 108/1/5 110/1/5 109/1/5
f 111/1/5 110/1/5 108/1/5
f 111/1/5 112/1/5 110/1/5
f 111/1/5 105/1/5 112/1/5
f 111/1/5 108/1/5 113/1/5
f 103/1/5 105/1/5 111/1/5
f 100/1/100 111/1/100 113/1/100
f 103/1/5 111/1/5 102/1/5
f 102/1/99 111/1/99 100/1/99
f 101/1/6 100/1/6 113/1/6
f 101/1/6 113/1/6 108/1/6
f 114/1/4 117/1/4 115/1/4
f 114/1/4 115/1/4 116/1/4
f 116/1/5 121/1/5 114/1/5
f 114/1/6 118/1/6 117/1/6
f 114/1/6 119/1/6 118/1/6
f 120/1/6 119/1/6 114/1/6
f 114/1/5 121/1/5 120/1/5
f 120/1/101 121/1/101 122/1/101
f 123/1/8 122/1/8 121/1/8
f 121/1/5 116/1/5 123/1/5
f 124/1/8 122/1/8 123/1/8
f 122/1/8 124/1/8 125/1/8
f 125/1/7 124/1/7 126/1/7
f 126/1/7 124/1/7 127/1/7
f 126/1/7 127/1/7 128/1/7
f 126/1/7 128/1/7 117/1/7
f 117/1/7 128/1/7 129/1/7
f 117/1/7 129/1/7 115/1/7
f 125/1/7 126/1/7 130/1/7
f 126/1/102 119/1/102 130/1/102
f 126/1/7 117/1/7 118/1/7
f 118/1/103 119/1/103 126/1/103
f 119/1/6 125/1/6 130/1/6
f 119/1/6 122/1/6 125/1/6
f 120/1/6 122/1/6 119/1/6
f 131/1/4 134/1/4 132/1/4
f 131/1/4 132/1/4 133/1/4
f 133/1/5 781/1/5 780/2/5 131/1/5
f 131/1/6 769/1/6 777/3/6 134/1/6
f 131/1/6 768/3/6 769/1/6
f 135/1/6 697/1/6 698/2/6
f 131/1/5 780/2/5 779/1/5
f 135/1/101 136/1/101 137/1/101
f 138/1/8 137/1/8 136/1/8
f 136/1/5 700/1/5 701/1/5 138/1/5
f 139/1/8 137/1/8 138/1/8
f 137/1/8 139/1/8 140/1/8
f 140/1/7 139/1/7 706/2/7 711/2/7
f 134/1/7 786/2/7 785/3/7
f 134/1/7 785/3/7 783/3/7 132/1/7
f 140/1/7 711/2/7 710/3/7
f 135/1/6 137/1/6 703/1/6 697/1/6
f 141/1/4 144/1/4 142/1/4
f 141/1/4 142/1/4 143/1/4
f 143/1/5 148/1/5 141/1/5
f 141/1/6 145/1/6 144/1/6
f 141/1/6 146/1/6 145/1/6
f 147/1/6 146/1/6 141/1/6
f 141/1/5 148/1/5 147/1/5
f 147/1/101 148/1/101 149/1/101
f 150/1/8 149/1/8 148/1/8
f 148/1/5 143/1/5 150/1/5
f 151/1/8 149/1/8 150/1/8
f 149/1/8 151/1/8 152/1/8
f 152/1/7 151/1/7 153/1/7
f 153/1/7 151/1/7 154/1/7
f 153/1/7 154/1/7 155/1/7
f 153/1/7 155/1/7 144/1/7
f 144/1/7 155/1/7 156/1/7
f 144/1/7 156/1/7 142/1/7
f 152/1/7 153/1/7 157/1/7
f 153/1/102 146/1/102 157/1/102
f 153/1/7 144/1/7 145/1/7
f 145/1/103 146/1/103 153/1/103
f 146/1/6 152/1/6 157/1/6
f 146/1/6 149/1/6 152/1/6
f 147/1/6 149/1/6 146/1/6
f 158/33/8 161/33/8 159/33/8
f 160/33/7 163/33/7 158/33/7
f 158/33/8 162/33/8 161/33/8
f 158/33/8 166/33/8 162/33/8
f 158/33/7 163/33/7 164/33/7
f 165/33/6 158/33/6 164/33/6
f 165/33/6 166/33/6 158/33/6
f 162/33/8 166/33/8 167/33/8
f 166/33/5 169/33/5 167/33/5
f 166/33/5 168/33/5 169/33/5
f 168/33/6 166/33/6 165/33/6
f 168/33/8 169/33/8 170/33/8
f 168/33/5 171/33/5 169/33/5
f 172/33/4 171/33/4 173/33/4
f 168/33/5 173/33/5 171/33/5
f 173/33/5 174/33/5 171/33/5
f 176/33/4 175/33/4 174/33/4
f 173/33/5 176/33/5 174/33/5
f 177/33/4 175/33/4 176/33/4
f 176/33/6 178/33/6 177/33/6
f 176/33/6 179/33/6 178/33/6
f 176/33/6 173/33/6 179/33/6
f 179/33/6 173/33/6 180/33/6
f 179/33/6 180/33/6 181/33/6
f 181/33/104 182/33/104 179/33/104
f 179/33/105 182/33/105 178/33/105
f 183/33/7 178/33/7 182/33/7
f 183/33/7 182/33/7 184/33/7
f 182/33/7 185/33/7 184/33/7
f 185/33/7 182/33/7 180/33/7
f 180/33/7 182/33/7 181/33/7
f 184/33/7 180/33/7 189/33/7
f 180/33/4 184/33/4 186/33/4
f 184/33/7 189/33/7 187/33/7
f 184/33/7 187/33/7 188/33/7
f 190/33/105 187/33/105 189/33/105
f 173/33/6 189/33/6 180/33/6
f 173/33/6 190/33/6 189/33/6
f 190/33/6 168/33/6 191/33/6
f 173/33/6 168/33/6 190/33/6
f 190/33/6 191/33/6 192/33/6
f 192/33/106 187/33/106 190/33/106
f 191/33/7 187/33/7 192/33/7
s 0
f 191/33/107 188/33/107 195/33/107
s 1
f 188/33/8 191/33/8 193/33/8
f 188/33/7 191/33/7 194/33/7
f 191/33/8 170/33/8 193/33/8
f 191/33/8 168/33/8 170/33/8
f 168/33/6 194/33/6 191/33/6
f 195/33/7 187/33/7 191/33/7
f 187/33/7 195/33/7 188/33/7
f 188/33/7 194/33/7 163/33/7
f 165/33/105 163/33/105 194/33/105
f 168/33/6 165/33/6 194/33/6
f 188/33/7 163/33/7 159/33/7
f 180/33/4 186/33/4 172/33/4
f 183/33/4 196/33/4 177/33/4
f 183/33/7 177/33/7 178/33/7
f 177/33/4 196/33/4 175/33/4
f 180/33/4 172/33/4 173/33/4
f 164/33/106 163/33/106 165/33/106
f 163/33/7 160/33/7 159/33/7
f 197/9/108 200/10/109 198/11/110
f 197/9/111 198/11/112 199/12/113
f 201/13/7 197/9/7 199/12/7
f 201/13/114 200/10/115 197/9/116
f 201/13/117 204/14/118 202/15/119
f 201/13/120 202/15/121 203/16/122
f 201/13/123 203/16/124 200/10/125
f 205/17/126 204/14/127 201/13/128
f 205/17/129 201/13/130 206/18/131
f 201/13/132 207/19/133 206/18/134
f 201/13/132 208/20/135 207/19/133
f 201/13/7 199/12/7 208/20/7
f 199/12/136 207/19/137 208/20/138
f 199/12/136 209/21/139 207/19/137
f 206/18/140 207/19/140 209/21/140
f 199/12/136 210/22/141 209/21/139
f 210/22/142 211/23/143 209/21/144
f 211/23/145 206/18/145 209/21/145
f 210/22/146 212/24/147 211/23/148
f 205/17/149 211/23/150 212/24/151
f 205/17/152 206/18/153 211/23/154
f 213/25/5 215/26/5 212/24/5
f 213/25/5 212/24/5 214/27/5
f 210/22/155 214/27/156 212/24/157
f 215/26/158 205/17/159 212/24/160
f 202/15/161 215/26/162 213/25/163
f 202/15/164 216/28/165 215/26/166
f 215/26/167 216/28/168 205/17/169
f 216/28/170 202/15/170 205/17/170
f 213/25/171 214/27/172 217/29/173
f 210/22/174 217/29/175 214/27/176
f 213/25/177 217/29/178 218/30/179
f 218/30/1 217/29/1 210/22/1
f 198/11/180 213/25/181 218/30/182
f 198/11/183 218/30/184 219/31/1
f 219/31/1 218/30/1 210/22/1
f 198/11/183 219/31/1 199/12/185
f 199/12/186 219/31/187 210/22/188
f 198/11/189 220/32/190 213/25/191
f 202/15/192 213/25/193 220/32/194
f 220/32/1 198/11/1 203/16/1
f 202/15/195 220/32/196 203/16/197
f 202/15/198 204/14/198 205/17/198
f 198/11/1 200/10/1 203/16/1
f 223/1/5 221/1/5 222/1/5
f 221/1/6 224/1/6 222/1/6
f 223/1/8 225/1/8 221/1/8
f 221/1/6 225/1/6 224/1/6
f 224/1/6 225/1/6 226/1/6
f 225/1/7 228/1/7 226/1/7
f 223/1/8 227/1/8 225/1/8
f 225/1/7 227/1/7 228/1/7
f 231/1/8 229/1/8 228/1/8
f 229/1/8 228/1/8 226/1/8
f 226/1/7 228/1/7 230/1/7
f 231/1/8 228/1/8 226/1/8
f 233/1/5 231/1/5 229/1/5
f 229/1/8 226/1/8 231/1/8
f 229/1/5 231/1/5 682/2/5 684/2/5
f 231/1/6 226/1/6 674/1/6 679/1/6
f 224/1/6 226/1/6 231/1/6
f 231/1/6 679/1/6 682/2/6
f 224/1/6 231/1/6 232/1/6
f 233/1/5 232/1/5 231/1/5
f 233/1/5 234/1/5 232/1/5
f 223/1/5 234/1/5 233/1/5
s 0
f 233/1/6 235/1/6 229/1/6
f 223/1/199 233/1/200 236/1/200
s 1
f 223/1/5 222/1/5 234/1/5
f 224/1/201 234/1/201 222/1/201
f 232/1/202 234/1/202 224/1/202
f 229/1/5 684/2/5 678/2/5
f 229/1/5 678/2/5 675/2/5
f 237/1/4 239/1/4 230/1/4
f 237/1/4 230/1/4 238/1/4
f 238/1/5 237/1/5 241/1/5
f 238/1/4 237/1/4 239/1/4
f 237/1/6 239/1/6 240/1/6
f 237/1/6 240/1/6 241/1/6
f 240/1/201 242/1/201 241/1/201
f 238/1/5 241/1/5 242/1/5
f 238/1/5 242/1/5 243/1/5
f 243/1/5 242/1/5 244/1/5
f 244/1/202 242/1/202 240/1/202
f 243/1/5 244/1/5 245/1/5
f 240/1/6 245/1/6 244/1/6
f 245/1/4 246/1/4 247/1/4
f 240/1/6 246/1/6 245/1/6
f 245/1/4 247/1/4 248/1/4
f 243/1/5 245/1/5 248/1/5
s 0
f 243/1/203 248/1/204 249/1/204
s 1
f 239/1/7 247/1/7 246/1/7
f 239/1/7 230/1/7 247/1/7
f 240/1/6 239/1/6 246/1/6
s 0
f 238/1/205 243/1/206 250/1/206
s 1
f 226/1/7 230/1/7 239/1/7
f 238/1/4 239/1/4 230/1/4
s 0
f 229/1/5 675/2/5 677/3/5
s 1
f 251/9/108 254/10/109 252/11/110
f 251/9/111 252/11/112 253/12/113
f 255/13/7 251/9/7 253/12/7
f 255/13/114 254/10/115 251/9/116
f 255/13/117 258/14/207 256/15/119
f 255/13/120 256/15/121 257/16/122
f 255/13/123 257/16/124 254/10/125
f 259/17/208 258/14/209 255/13/128
f 259/17/129 255/13/130 260/18/131
f 255/13/210 261/19/133 260/18/134
f 255/13/210 262/20/211 261/19/133
f 255/13/7 253/12/7 262/20/7
f 253/12/136 261/19/137 262/20/138
f 253/12/136 263/21/212 261/19/137
f 260/18/140 261/19/140 263/21/140
f 253/12/136 264/22/141 263/21/212
f 264/22/142 265/23/213 263/21/144
f 265/23/145 260/18/145 263/21/145
f 264/22/146 266/24/147 265/23/148
f 259/17/214 265/23/150 266/24/215
f 259/17/216 260/18/153 265/23/154
f 267/25/5 269/26/5 266/24/5
f 267/25/5 266/24/5 268/27/5
f 264/22/155 268/27/156 266/24/157
f 269/26/158 259/17/217 266/24/218
f 256/15/161 269/26/162 267/25/163
f 256/15/164 270/28/219 269/26/220
f 269/26/167 270/28/221 259/17/169
f 270/28/170 256/15/170 259/17/170
f 267/25/171 268/27/172 271/29/173
f 264/22/174 271/29/175 268/27/176
f 267/25/177 271/29/178 272/30/179
f 272/30/1 271/29/1 264/22/1
f 252/11/180 267/25/181 272/30/182
f 252/11/183 272/30/184 273/31/1
f 273/31/1 272/30/1 264/22/1
f 252/11/183 273/31/1 253/12/185
f 253/12/186 273/31/187 264/22/188
f 252/11/189 274/32/190 267/25/191
f 256/15/222 267/25/193 274/32/194
f 274/32/1 252/11/1 257/16/1
f 256/15/195 274/32/196 257/16/197
f 256/15/198 258/14/198 259/17/198
f 252/11/1 254/10/1 257/16/1
f 275/9/10 278/10/11 276/11/12
f 275/9/13 276/11/14 277/12/15
f 279/13/7 275/9/7 277/12/7
f 279/13/16 278/10/17 275/9/18
f 279/13/19 282/14/20 280/15/21
f 279/13/223 280/15/23 281/16/24
f 279/13/16 281/16/25 278/10/17
f 283/17/224 282/14/225 279/13/28
f 283/17/29 279/13/30 284/18/226
f 279/13/32 285/19/227 284/18/228
f 279/13/32 286/20/229 285/19/227
f 279/13/7 277/12/7 286/20/7
f 277/12/36 285/19/37 286/20/38
f 277/12/36 287/21/39 285/19/37
f 284/18/40 285/19/40 287/21/40
f 277/12/36 288/22/41 287/21/39
f 288/22/42 289/23/230 287/21/44
f 289/23/45 284/18/45 287/21/45
f 288/22/46 290/24/47 289/23/231
f 283/17/49 289/23/50 290/24/51
f 283/17/52 284/18/232 289/23/54
f 291/25/5 293/26/5 290/24/5
f 291/25/5 290/24/5 292/27/5
f 288/22/55 292/27/56 290/24/57
f 293/26/58 283/17/59 290/24/60
f 280/15/61 293/26/62 291/25/63
f 280/15/64 294/28/65 293/26/233
f 293/26/67 294/28/68 283/17/234
f 294/28/70 280/15/70 283/17/70
f 291/25/71 292/27/72 295/29/73
f 288/22/235 295/29/75 292/27/236
f 291/25/77 295/29/237 296/30/79
f 296/30/1 295/29/1 288/22/1
f 276/11/80 291/25/81 296/30/238
f 276/11/83 296/30/84 297/31/1
f 297/31/1 296/30/1 288/22/1
f 276/11/85 297/31/1 277/12/86
f 277/12/239 297/31/88 288/22/89
f 276/11/90 298/32/91 291/25/92
f 280/15/93 291/25/240 298/32/95
f 298/32/1 276/11/1 281/16/1
f 280/15/23 298/32/96 281/16/24
f 280/15/97 282/14/97 283/17/97
f 276/11/1 278/10/1 281/16/1
f 307/1/6 310/1/6 308/1/6
f 307/1/6 308/1/6 309/1/6
f 311/1/4 307/1/4 309/1/4
f 311/1/5 310/1/5 307/1/5
f 311/1/5 312/1/5 310/1/5
f 311/1/4 309/1/4 313/1/4
f 309/1/7 314/1/7 313/1/7
f 309/1/7 308/1/7 314/1/7
f 310/1/8 314/1/8 308/1/8
f 310/1/8 312/1/8 314/1/8
f 315/1/6 318/1/6 316/1/6
f 315/1/6 316/1/6 317/1/6
f 319/1/4 315/1/4 317/1/4
f 319/1/5 318/1/5 315/1/5
f 319/1/5 320/1/5 318/1/5
f 319/1/4 317/1/4 321/1/4
f 317/1/7 322/1/7 321/1/7
f 317/1/7 316/1/7 322/1/7
f 318/1/8 322/1/8 316/1/8
f 318/1/8 320/1/8 322/1/8
f 323/1/6 326/1/6 324/1/6
f 323/1/6 324/1/6 325/1/6
f 327/1/4 323/1/4 325/1/4
f 327/1/5 326/1/5 323/1/5
f 327/1/5 328/1/5 326/1/5
f 327/1/4 325/1/4 329/1/4
f 325/1/7 330/1/7 329/1/7
f 325/1/7 324/1/7 330/1/7
f 326/1/8 330/1/8 324/1/8
f 326/1/8 328/1/8 330/1/8
f 331/1/6 334/1/6 332/1/6
f 331/1/6 332/1/6 333/1/6
f 335/1/4 331/1/4 333/1/4
f 335/1/5 334/1/5 331/1/5
f 335/1/5 336/1/5 334/1/5
f 335/1/4 333/1/4 337/1/4
f 333/1/7 338/1/7 337/1/7
f 333/1/7 332/1/7 338/1/7
f 334/1/8 338/1/8 332/1/8
f 334/1/8 336/1/8 338/1/8
f 339/1/6 342/1/6 340/1/6
f 339/1/6 340/1/6 341/1/6
f 343/1/4 339/1/4 341/1/4
f 343/1/5 342/1/5 339/1/5
f 343/1/5 344/1/5 342/1/5
f 343/1/4 341/1/4 345/1/4
f 341/1/7 346/1/7 345/1/7
f 341/1/7 340/1/7 346/1/7
f 342/1/8 346/1/8 340/1/8
f 342/1/8 344/1/8 346/1/8
f 347/1/6 350/1/6 348/1/6
f 347/1/6 348/1/6 349/1/6
f 351/1/4 347/1/4 349/1/4
f 351/1/5 350/1/5 347/1/5
f 351/1/5 352/1/5 350/1/5
f 351/1/4 349/1/4 353/1/4
f 349/1/7 354/1/7 353/1/7
f 349/1/7 348/1/7 354/1/7
f 350/1/8 354/1/8 348/1/8
f 350/1/8 352/1/8 354/1/8
f 360/1/6 356/1/6 355/1/6
f 355/1/6 356/1/6 357/1/6
f 355/1/6 357/1/6 358/1/6
f 355/1/6 358/1/6 359/1/241
f 362/1/242 355/1/242 359/1/242
f 360/1/6 355/1/6 361/1/6
f 361/1/243 355/1/243 362/1/243
f 364/1/4 362/1/4 363/1/4
f 363/1/4 362/1/4 359/1/4
f 364/1/4 361/1/4 362/1/4
f 364/1/5 365/1/5 356/1/5
f 364/1/5 356/1/5 360/1/5
f 364/1/4 360/1/4 361/1/4
f 356/1/8 365/1/8 366/1/8
f 358/1/7 357/1/7 366/1/7
f 358/1/7 366/1/7 363/1/7
f 356/1/8 366/1/8 357/1/8
f 363/1/4 359/1/4 358/1/4
f 367/1/6 370/1/6 368/1/6
f 367/1/6 368/1/6 369/1/6
f 367/1/7 369/1/7 372/1/7
f 371/1/6 370/1/6 367/1/6
f 374/1/4 371/1/4 367/1/4
f 367/1/7 372/1/7 373/1/7
f 374/1/4 367/1/4 373/1/4
f 376/1/4 371/1/4 374/1/4
s 0
f 374/1/244 373/1/245 375/1/246
f 376/1/4 374/1/4 377/1/4
s 1
f 376/1/5 379/1/5 378/1/5
f 376/1/5 378/1/5 371/1/5
f 378/1/8 379/1/8 380/1/8
f 380/1/8 379/1/8 372/1/8
f 380/1/8 372/1/8 369/1/8
f 380/1/8 369/1/8 368/1/8
f 370/1/247 380/1/247 368/1/247
f 378/1/8 380/1/8 381/1/8
f 381/1/248 380/1/248 370/1/248
f 371/1/6 378/1/6 381/1/6
f 371/1/6 381/1/6 370/1/6
f 387/1/6 383/1/6 382/1/6
f 382/1/6 383/1/6 384/1/6
f 382/1/6 384/1/6 385/1/6
f 382/1/6 385/1/6 386/1/6
f 389/1/242 382/1/242 386/1/242
f 387/1/6 382/1/6 388/1/6
f 388/1/243 382/1/243 389/1/243
f 391/1/4 389/1/4 390/1/4
f 390/1/4 389/1/4 386/1/4
f 391/1/4 388/1/4 389/1/4
f 391/1/5 392/1/5 383/1/5
f 391/1/5 383/1/5 387/1/5
f 391/1/4 387/1/4 388/1/4
f 383/1/8 392/1/8 393/1/8
f 385/1/7 384/1/7 393/1/7
f 385/1/7 393/1/7 390/1/7
f 383/1/8 393/1/8 384/1/8
f 390/1/4 386/1/4 385/1/4
f 394/1/6 397/1/6 395/1/6
f 394/1/6 395/1/6 396/1/6
f 394/1/7 396/1/7 399/1/7
f 398/1/6 397/1/6 394/1/6
f 401/1/4 398/1/4 394/1/4
f 394/1/7 399/1/7 400/1/7
f 401/1/4 394/1/4 400/1/4
f 403/1/4 398/1/4 401/1/4
s 0
f 401/1/249 400/1/250 402/1/251
f 403/1/252 401/1/252 404/1/252
s 1
f 403/1/5 406/1/5 405/1/5
f 403/1/5 405/1/5 398/1/5
f 405/1/8 406/1/8 407/1/8
f 407/1/8 406/1/8 399/1/8
f 407/1/8 399/1/8 396/1/8
f 407/1/8 396/1/8 395/1/8
f 397/1/247 407/1/247 395/1/247
f 405/1/8 407/1/8 408/1/8
f 408/1/248 407/1/248 397/1/248
f 398/1/6 405/1/6 408/1/6
f 398/1/6 408/1/6 397/1/6
f 167/34/1 174/34/1 248/34/1 724/34/1 756/34/1 630/34/1 651/34/1 223/34/1
f 247/1/1 227/1/1 223/1/1 651/35/1 611/36/1 621/37/1 724/38/1 248/34/1
f 409/13/7 38/12/7 36/9/7
f 409/13/253 36/9/254 39/10/255
f 409/13/256 410/15/257 411/14/258
f 409/13/259 42/16/260 410/15/261
f 409/13/253 39/10/255 42/16/262
f 412/17/263 409/13/264 411/14/265
f 412/17/266 413/18/267 409/13/268
f 409/13/269 413/18/270 414/19/271
f 409/13/269 414/19/271 415/20/272
f 409/13/7 415/20/7 38/12/7
f 38/12/273 415/20/38 414/19/274
f 38/12/273 414/19/274 416/21/275
f 413/18/276 416/21/276 414/19/276
f 38/12/277 416/21/278 49/22/279
f 49/22/279 416/21/278 417/23/280
f 417/23/281 416/21/281 413/18/281
f 49/22/282 417/23/283 418/24/284
f 412/17/285 418/24/286 417/23/287
f 412/17/288 417/23/289 413/18/290
f 52/25/5 418/24/5 419/26/5
f 52/25/5 53/27/5 418/24/5
f 49/22/291 418/24/292 53/27/293
f 419/26/294 418/24/295 412/17/296
f 410/15/297 52/25/298 419/26/299
f 410/15/300 419/26/301 420/28/302
f 419/26/303 412/17/304 420/28/305
f 420/28/306 412/17/306 410/15/306
f 410/15/307 59/32/308 52/25/309
f 410/15/310 42/16/311 59/32/312
f 410/15/313 412/17/313 411/14/313
f 429/1/1 430/1/1 432/1/1
f 429/1/1 431/1/1 430/1/1
f 79/1/7 431/1/7 429/1/7
f 429/1/1 432/1/1 433/1/1
f 79/1/4 429/1/4 433/1/4
f 79/1/4 433/1/4 80/1/4
f 79/1/7 81/1/7 431/1/7
f 431/1/8 81/1/8 82/1/8
f 431/1/8 82/1/8 434/1/8
f 434/1/5 82/1/5 84/1/5
f 434/1/5 84/1/5 85/1/5
f 435/1/5 434/1/5 85/1/5
f 435/1/5 85/1/5 87/1/5
f 435/1/5 87/1/5 80/1/5
f 435/1/5 436/1/5 434/1/5
f 433/1/5 435/1/5 80/1/5
f 430/1/314 436/1/314 435/1/314
f 433/1/5 432/1/5 435/1/5
f 432/1/315 430/1/315 435/1/315
f 431/1/1 436/1/1 430/1/1
f 431/1/1 434/1/1 436/1/1
f 437/1/1 733/1/1 738/2/1 439/1/1
f 437/1/1 732/3/1 733/1/1
f 93/1/7 743/3/7 732/3/7 437/1/7
f 437/1/1 439/1/1 440/1/1
f 93/1/4 437/1/4 440/1/4
f 93/1/4 440/1/4 94/1/4
f 93/1/7 745/3/7 743/3/7
f 438/1/8 95/1/8 96/1/8
f 438/1/8 96/1/8 441/1/8
f 441/1/5 96/1/5 98/1/5
f 441/1/5 98/1/5 669/2/5 664/2/5
f 440/1/5 735/1/5 736/1/5 94/1/5
f 440/1/5 439/1/5 734/1/5 735/1/5
f 439/1/315 738/2/315 734/1/315
f 438/1/1 668/1/1 660/3/1
f 438/1/1 441/1/1 665/3/1 668/1/1
f 442/1/1 443/1/1 445/1/1
f 442/1/1 444/1/1 443/1/1
f 104/1/7 444/1/7 442/1/7
f 442/1/1 445/1/1 446/1/1
f 104/1/4 442/1/4 446/1/4
f 104/1/4 446/1/4 105/1/4
f 104/1/7 106/1/7 444/1/7
f 444/1/8 106/1/8 107/1/8
f 444/1/8 107/1/8 447/1/8
f 447/1/5 107/1/5 109/1/5
f 447/1/5 109/1/5 110/1/5
f 448/1/5 447/1/5 110/1/5
f 448/1/5 110/1/5 112/1/5
f 448/1/5 112/1/5 105/1/5
f 448/1/5 449/1/5 447/1/5
f 446/1/5 448/1/5 105/1/5
f 443/1/314 449/1/314 448/1/314
f 446/1/5 445/1/5 448/1/5
f 445/1/315 443/1/315 448/1/315
f 444/1/1 449/1/1 443/1/1
f 444/1/1 447/1/1 449/1/1
f 450/1/4 115/1/4 451/1/4
f 450/1/4 116/1/4 115/1/4
f 116/1/5 450/1/5 455/1/5
f 450/1/1 451/1/1 452/1/1
f 450/1/1 452/1/1 453/1/1
f 454/1/1 450/1/1 453/1/1
f 450/1/5 454/1/5 455/1/5
f 454/1/316 456/1/316 455/1/316
f 123/1/8 455/1/8 456/1/8
f 455/1/5 123/1/5 116/1/5
f 124/1/8 123/1/8 456/1/8
f 456/1/8 457/1/8 124/1/8
f 457/1/7 458/1/7 124/1/7
f 458/1/7 127/1/7 124/1/7
f 458/1/7 128/1/7 127/1/7
f 458/1/7 451/1/7 128/1/7
f 451/1/7 129/1/7 128/1/7
f 451/1/7 115/1/7 129/1/7
f 457/1/7 459/1/7 458/1/7
f 458/1/317 459/1/317 453/1/317
f 458/1/7 452/1/7 451/1/7
f 452/1/318 458/1/318 453/1/318
f 453/1/1 459/1/1 457/1/1
f 453/1/1 457/1/1 456/1/1
f 454/1/1 453/1/1 456/1/1
f 460/1/4 132/1/4 461/1/4
f 460/1/4 133/1/4 132/1/4
f 133/1/5 460/1/5 770/2/5 771/1/5
f 460/1/1 461/1/1 778/2/1 776/1/1
f 460/1/1 776/1/1 775/1/1
f 462/1/1 695/2/1 696/1/1
f 460/1/5 774/1/5 770/2/5
f 462/1/316 464/1/316 463/1/316
f 138/1/8 463/1/8 464/1/8
f 463/1/5 138/1/5 701/1/5 692/1/5
f 139/1/8 138/1/8 464/1/8
f 464/1/8 465/1/8 139/1/8
f 465/1/7 712/1/7 708/2/7 139/1/7
f 461/1/7 784/1/7 788/2/7
f 461/1/7 132/1/7 783/3/7 784/1/7
f 465/1/7 709/3/7 712/1/7
f 462/1/1 696/1/1 702/1/1 464/1/1
f 466/1/4 142/1/4 467/1/4
f 466/1/4 143/1/4 142/1/4
f 143/1/5 466/1/5 471/1/5
f 466/1/1 467/1/1 468/1/1
f 466/1/1 468/1/1 469/1/1
f 470/1/1 466/1/1 469/1/1
f 466/1/5 470/1/5 471/1/5
f 470/1/316 472/1/316 471/1/316
f 150/1/8 471/1/8 472/1/8
f 471/1/5 150/1/5 143/1/5
f 151/1/8 150/1/8 472/1/8
f 472/1/8 473/1/8 151/1/8
f 473/1/7 474/1/7 151/1/7
f 474/1/7 154/1/7 151/1/7
f 474/1/7 155/1/7 154/1/7
f 474/1/7 467/1/7 155/1/7
f 467/1/7 156/1/7 155/1/7
f 467/1/7 142/1/7 156/1/7
f 473/1/7 475/1/7 474/1/7
f 474/1/317 475/1/317 469/1/317
f 474/1/7 468/1/7 467/1/7
f 468/1/318 474/1/318 469/1/318
f 469/1/1 475/1/1 473/1/1
f 469/1/1 473/1/1 472/1/1
f 470/1/1 469/1/1 472/1/1
f 476/33/8 159/33/8 161/33/8
f 477/33/7 476/33/7 478/33/7
f 476/33/8 161/33/8 162/33/8
f 476/33/8 162/33/8 481/33/8
f 476/33/7 479/33/7 478/33/7
f 480/33/1 479/33/1 476/33/1
f 480/33/1 476/33/1 481/33/1
f 162/33/8 167/33/8 481/33/8
f 481/33/5 167/33/5 169/33/5
f 481/33/5 169/33/5 482/33/5
f 482/33/1 480/33/1 481/33/1
f 482/33/8 170/33/8 169/33/8
f 482/33/5 169/33/5 171/33/5
f 172/33/4 483/33/4 171/33/4
f 482/33/5 171/33/5 483/33/5
f 483/33/5 171/33/5 174/33/5
f 484/33/4 174/33/4 175/33/4
f 483/33/5 174/33/5 484/33/5
f 485/33/4 484/33/4 175/33/4
f 484/33/1 485/33/1 486/33/1
f 484/33/1 486/33/1 487/33/1
f 484/33/1 487/33/1 483/33/1
f 487/33/1 488/33/1 483/33/1
f 487/33/1 489/33/1 488/33/1
f 489/33/319 487/33/319 490/33/319
f 487/33/320 486/33/320 490/33/320
f 183/33/7 490/33/7 486/33/7
f 183/33/7 184/33/7 490/33/7
f 490/33/7 184/33/7 491/33/7
f 491/33/7 488/33/7 490/33/7
f 488/33/7 489/33/7 490/33/7
f 184/33/7 493/33/7 488/33/7
f 488/33/4 186/33/4 184/33/4
f 184/33/7 492/33/7 493/33/7
f 184/33/7 188/33/7 492/33/7
f 494/33/320 493/33/320 492/33/320
f 483/33/1 488/33/1 493/33/1
f 483/33/1 493/33/1 494/33/1
f 494/33/1 495/33/1 482/33/1
f 483/33/1 494/33/1 482/33/1
f 494/33/1 496/33/1 495/33/1
f 496/33/321 494/33/321 492/33/321
f 495/33/7 496/33/7 492/33/7
s 0
f 495/33/322 498/33/322 188/33/322
s 1
f 188/33/8 193/33/8 495/33/8
f 188/33/7 497/33/7 495/33/7
f 495/33/8 193/33/8 170/33/8
f 495/33/8 170/33/8 482/33/8
f 482/33/1 495/33/1 497/33/1
f 498/33/7 495/33/7 492/33/7
f 492/33/7 188/33/7 498/33/7
f 188/33/7 478/33/7 497/33/7
f 480/33/320 497/33/320 478/33/320
f 482/33/1 497/33/1 480/33/1
f 188/33/7 159/33/7 478/33/7
f 488/33/4 172/33/4 186/33/4
f 183/33/4 485/33/4 196/33/4
f 183/33/7 486/33/7 485/33/7
f 485/33/4 175/33/4 196/33/4
f 488/33/4 483/33/4 172/33/4
f 479/33/321 480/33/321 478/33/321
f 478/33/7 159/33/7 477/33/7
f 499/13/7 199/12/7 197/9/7
f 499/13/323 197/9/324 200/10/325
f 499/13/326 500/15/327 501/14/328
f 499/13/329 203/16/330 500/15/331
f 499/13/332 200/10/333 203/16/334
f 502/17/335 499/13/336 501/14/337
f 502/17/338 503/18/339 499/13/340
f 499/13/341 503/18/342 504/19/343
f 499/13/341 504/19/343 505/20/344
f 499/13/7 505/20/7 199/12/7
f 199/12/345 505/20/138 504/19/346
f 199/12/345 504/19/346 506/21/347
f 503/18/348 506/21/348 504/19/348
f 199/12/349 506/21/350 210/22/351
f 210/22/351 506/21/350 507/23/352
f 507/23/353 506/21/353 503/18/353
f 210/22/354 507/23/355 508/24/356
f 502/17/357 508/24/358 507/23/359
f 502/17/360 507/23/361 503/18/362
f 213/25/5 508/24/5 509/26/5
f 213/25/5 214/27/5 508/24/5
f 210/22/363 508/24/364 214/27/365
f 509/26/366 508/24/367 502/17/368
f 500/15/369 213/25/370 509/26/371
f 500/15/372 509/26/373 510/28/374
f 509/26/375 502/17/376 510/28/377
f 510/28/378 502/17/378 500/15/378
f 500/15/379 220/32/380 213/25/381
f 500/15/382 203/16/383 220/32/384
f 500/15/385 502/17/385 501/14/385
f 223/1/5 512/1/5 511/1/5
f 511/1/1 512/1/1 513/1/1
f 223/1/8 511/1/8 514/1/8
f 511/1/1 513/1/1 514/1/1
f 513/1/1 515/1/1 514/1/1
f 514/1/7 515/1/7 228/1/7
f 223/1/8 514/1/8 227/1/8
f 514/1/7 228/1/7 227/1/7
f 516/1/8 228/1/8 229/1/8
f 229/1/8 515/1/8 228/1/8
f 515/1/7 230/1/7 228/1/7
f 516/1/8 515/1/8 228/1/8
f 233/1/5 229/1/5 516/1/5
f 229/1/8 516/1/8 515/1/8
f 229/1/5 683/2/5 681/2/5 516/1/5
f 516/1/1 680/1/1 673/1/1 515/1/1
f 513/1/1 516/1/1 515/1/1
f 516/1/1 681/2/1 680/1/1
f 513/1/1 517/1/1 516/1/1
f 233/1/5 516/1/5 517/1/5
f 233/1/5 517/1/5 518/1/5
f 223/1/5 233/1/5 518/1/5
f 223/1/5 518/1/5 512/1/5
f 513/1/386 512/1/386 518/1/386
f 517/1/387 513/1/387 518/1/387
f 229/1/5 676/2/5 683/2/5
f 229/1/5 675/2/5 676/2/5
f 519/1/4 230/1/4 520/1/4
f 519/1/4 238/1/4 230/1/4
f 238/1/5 522/1/5 519/1/5
f 238/1/4 520/1/4 519/1/4
f 519/1/1 521/1/1 520/1/1
f 519/1/1 522/1/1 521/1/1
f 521/1/386 522/1/386 523/1/386
f 238/1/5 523/1/5 522/1/5
f 238/1/5 243/1/5 523/1/5
f 243/1/5 524/1/5 523/1/5
f 524/1/387 521/1/387 523/1/387
f 243/1/5 525/1/5 524/1/5
f 521/1/1 524/1/1 525/1/1
f 525/1/4 247/1/4 526/1/4
f 521/1/1 525/1/1 526/1/1
f 525/1/4 248/1/4 247/1/4
f 243/1/5 248/1/5 525/1/5
f 520/1/7 526/1/7 247/1/7
f 520/1/7 247/1/7 230/1/7
f 521/1/1 526/1/1 520/1/1
f 515/1/7 520/1/7 230/1/7
f 238/1/4 230/1/4 520/1/4
f 527/13/7 253/12/7 251/9/7
f 527/13/323 251/9/324 254/10/325
f 527/13/326 528/15/327 529/14/388
f 527/13/329 257/16/330 528/15/331
f 527/13/332 254/10/333 257/16/334
f 530/17/389 527/13/336 529/14/337
f 530/17/338 531/18/390 527/13/340
f 527/13/391 531/18/342 532/19/392
f 527/13/391 532/19/392 533/20/393
f 527/13/7 533/20/7 253/12/7
f 253/12/345 533/20/138 532/19/346
f 253/12/345 532/19/346 534/21/394
f 531/18/348 534/21/348 532/19/348
f 253/12/349 534/21/350 264/22/351
f 264/22/351 534/21/350 535/23/395
f 535/23/353 534/21/353 531/18/353
f 264/22/354 535/23/396 536/24/356
f 530/17/397 536/24/398 535/23/359
f 530/17/399 535/23/361 531/18/362
f 267/25/5 536/24/5 537/26/5
f 267/25/5 268/27/5 536/24/5
f 264/22/363 536/24/364 268/27/365
f 537/26/366 536/24/400 530/17/401
f 528/15/369 267/25/370 537/26/371
f 528/15/372 537/26/402 538/28/374
f 537/26/375 530/17/403 538/28/377
f 538/28/378 530/17/378 528/15/378
f 528/15/379 274/32/380 267/25/381
f 528/15/382 257/16/383 274/32/384
f 528/15/385 530/17/385 529/14/385
f 539/13/7 277/12/7 275/9/7
f 539/13/253 275/9/254 278/10/255
f 539/13/256 540/15/257 541/14/258
f 539/13/404 281/16/405 540/15/261
f 539/13/253 278/10/255 281/16/262
f 542/17/406 539/13/264 541/14/407
f 542/17/266 543/18/408 539/13/268
f 539/13/269 543/18/409 544/19/410
f 539/13/269 544/19/410 545/20/411
f 539/13/7 545/20/7 277/12/7
f 277/12/412 545/20/38 544/19/274
f 277/12/412 544/19/274 546/21/275
f 543/18/276 546/21/276 544/19/276
f 277/12/277 546/21/278 288/22/279
f 288/22/279 546/21/278 547/23/280
f 547/23/281 546/21/281 543/18/281
f 288/22/282 547/23/283 548/24/284
f 542/17/285 548/24/286 547/23/287
f 542/17/288 547/23/289 543/18/413
f 291/25/5 548/24/5 549/26/5
f 291/25/5 292/27/5 548/24/5
f 288/22/291 548/24/292 292/27/293
f 549/26/294 548/24/295 542/17/296
f 540/15/297 291/25/298 549/26/299
f 540/15/414 549/26/415 550/28/302
f 549/26/416 542/17/417 550/28/305
f 550/28/306 542/17/306 540/15/306
f 540/15/307 298/32/308 291/25/418
f 540/15/310 281/16/311 298/32/312
f 540/15/313 542/17/313 541/14/313
f 555/1/1 556/1/1 558/1/1
f 555/1/1 557/1/1 556/1/1
f 311/1/4 557/1/4 555/1/4
f 311/1/5 555/1/5 558/1/5
f 311/1/5 558/1/5 312/1/5
f 311/1/4 313/1/4 557/1/4
f 557/1/7 313/1/7 314/1/7
f 557/1/7 314/1/7 556/1/7
f 558/1/8 556/1/8 314/1/8
f 558/1/8 314/1/8 312/1/8
f 559/1/1 560/1/1 562/1/1
f 559/1/1 561/1/1 560/1/1
f 319/1/4 561/1/4 559/1/4
f 319/1/5 559/1/5 562/1/5
f 319/1/5 562/1/5 320/1/5
f 319/1/4 321/1/4 561/1/4
f 561/1/7 321/1/7 322/1/7
f 561/1/7 322/1/7 560/1/7
f 562/1/8 560/1/8 322/1/8
f 562/1/8 322/1/8 320/1/8
f 563/1/1 564/1/1 566/1/1
f 563/1/1 565/1/1 564/1/1
f 327/1/4 565/1/4 563/1/4
f 327/1/5 563/1/5 566/1/5
f 327/1/5 566/1/5 328/1/5
f 327/1/4 329/1/4 565/1/4
f 565/1/7 329/1/7 330/1/7
f 565/1/7 330/1/7 564/1/7
f 566/1/8 564/1/8 330/1/8
f 566/1/8 330/1/8 328/1/8
f 567/1/1 568/1/1 570/1/1
f 567/1/1 569/1/1 568/1/1
f 335/1/4 569/1/4 567/1/4
f 335/1/5 567/1/5 570/1/5
f 335/1/5 570/1/5 336/1/5
f 335/1/4 337/1/4 569/1/4
f 569/1/7 337/1/7 338/1/7
f 569/1/7 338/1/7 568/1/7
f 570/1/8 568/1/8 338/1/8
f 570/1/8 338/1/8 336/1/8
f 571/1/1 572/1/1 574/1/1
f 571/1/1 573/1/1 572/1/1
f 343/1/4 573/1/4 571/1/4
f 343/1/5 571/1/5 574/1/5
f 343/1/5 574/1/5 344/1/5
f 343/1/4 345/1/4 573/1/4
f 573/1/7 345/1/7 346/1/7
f 573/1/7 346/1/7 572/1/7
f 574/1/8 572/1/8 346/1/8
f 574/1/8 346/1/8 344/1/8
f 575/1/1 576/1/1 578/1/1
f 575/1/1 577/1/1 576/1/1
f 351/1/4 577/1/4 575/1/4
f 351/1/5 575/1/5 578/1/5
f 351/1/5 578/1/5 352/1/5
f 351/1/4 353/1/4 577/1/4
f 577/1/7 353/1/7 354/1/7
f 577/1/7 354/1/7 576/1/7
f 578/1/8 576/1/8 354/1/8
f 578/1/8 354/1/8 352/1/8
f 584/1/1 579/1/1 580/1/1
f 579/1/1 581/1/1 580/1/1
f 579/1/1 582/1/1 581/1/1
f 579/1/1 583/1/1 582/1/1
f 586/1/419 583/1/419 579/1/419
f 584/1/1 585/1/1 579/1/1
f 585/1/420 586/1/420 579/1/420
f 364/1/4 363/1/4 586/1/4
f 363/1/4 583/1/4 586/1/4
f 364/1/4 586/1/4 585/1/4
f 364/1/5 580/1/5 365/1/5
f 364/1/5 584/1/5 580/1/5
f 364/1/4 585/1/4 584/1/4
f 580/1/8 366/1/8 365/1/8
f 582/1/7 366/1/7 581/1/7
f 582/1/7 363/1/7 366/1/7
f 580/1/8 581/1/8 366/1/8
f 363/1/4 582/1/4 583/1/4
f 587/1/1 588/1/1 590/1/1
f 587/1/1 589/1/1 588/1/1
f 587/1/7 372/1/7 589/1/7
f 591/1/1 587/1/1 590/1/1
f 374/1/4 587/1/4 591/1/4
f 587/1/7 373/1/7 372/1/7
f 374/1/4 373/1/4 587/1/4
f 376/1/4 374/1/4 591/1/4
f 376/1/5 592/1/5 379/1/5
f 376/1/5 591/1/5 592/1/5
f 592/1/8 593/1/8 379/1/8
f 593/1/8 372/1/8 379/1/8
f 593/1/8 589/1/8 372/1/8
f 593/1/8 588/1/8 589/1/8
f 590/1/421 588/1/421 593/1/421
f 592/1/8 594/1/8 593/1/8
f 594/1/422 590/1/422 593/1/422
f 591/1/1 594/1/1 592/1/1
f 591/1/1 590/1/1 594/1/1
f 600/1/1 595/1/1 596/1/1
f 595/1/1 597/1/1 596/1/1
f 595/1/1 598/1/1 597/1/1
f 595/1/1 599/1/1 598/1/1
f 602/1/419 599/1/419 595/1/419
f 600/1/1 601/1/1 595/1/1
f 601/1/420 602/1/420 595/1/420
f 391/1/4 390/1/4 602/1/4
f 390/1/4 599/1/4 602/1/4
f 391/1/4 602/1/4 601/1/4
f 391/1/5 596/1/5 392/1/5
f 391/1/5 600/1/5 596/1/5
f 391/1/4 601/1/4 600/1/4
f 596/1/8 393/1/8 392/1/8
f 598/1/7 393/1/7 597/1/7
f 598/1/7 390/1/7 393/1/7
f 596/1/8 597/1/8 393/1/8
f 390/1/4 598/1/4 599/1/4
f 603/1/1 604/1/1 606/1/1
f 603/1/1 605/1/1 604/1/1
f 603/1/7 399/1/7 605/1/7
f 607/1/1 603/1/1 606/1/1
f 401/1/4 603/1/4 607/1/4
f 603/1/7 400/1/7 399/1/7
f 401/1/4 400/1/4 603/1/4
f 403/1/4 401/1/4 607/1/4
f 403/1/5 608/1/5 406/1/5
f 403/1/5 607/1/5 608/1/5
f 608/1/8 609/1/8 406/1/8
f 609/1/8 399/1/8 406/1/8
f 609/1/8 605/1/8 399/1/8
f 609/1/8 604/1/8 605/1/8
f 606/1/421 604/1/421 609/1/421
f 608/1/8 610/1/8 609/1/8
f 610/1/422 606/1/422 609/1/422
f 607/1/1 610/1/1 608/1/1
f 607/1/1 606/1/1 610/1/1
f 754/1/5 755/1/5 237/1/5
f 691/1/5 695/2/5 462/1/5 463/1/5
f 779/1/6 768/3/6 131/1/6
f 661/3/5 666/2/5 97/1/5
f 782/2/5 781/1/5 133/1/5
f 737/3/5 739/1/5 94/1/5
f 660/3/1 659/1/1 438/1/1
f 704/1/1 709/3/1 465/1/1
f 699/1/5 700/1/5 136/1/5
f 663/3/5 665/3/5 441/1/5
f 670/1/7 672/1/7 95/1/7 438/1/7
f 746/1/5 749/1/5 238/1/5 519/1/5
f 789/3/7 778/2/7 461/1/7
f 747/1/5 746/1/5 519/1/5
f 775/1/1 774/1/1 460/1/1
f 777/3/7 787/3/7 134/1/7
f 771/1/5 782/2/5 133/1/5
f 692/1/5 691/1/5 463/1/5
s 0
f 750/1/423 749/1/423 238/1/423
s 1
f 673/1/1 619/5/1 628/5/1 748/1/1 520/1/1 515/1/1
f 698/2/5 699/1/5 136/1/5 135/1/5
f 748/1/1 753/1/1 519/1/1 520/1/1
f 705/1/6 703/1/6 137/1/6 140/1/6
f 753/1/1 747/1/1 519/1/1
f 662/3/5 661/3/5 97/1/5
f 708/2/7 707/2/7 139/1/7
f 658/1/6 657/3/6 90/1/6
f 755/1/6 752/1/6 237/1/6
f 710/3/6 705/1/6 140/1/6
f 736/1/5 737/3/5 94/1/5
f 752/1/6 751/1/6 239/1/6 237/1/6
f 702/1/1 704/1/1 465/1/1 464/1/1
f 751/1/6 629/5/6 620/1/6 674/1/6 226/1/6 239/1/6
f 671/1/7 658/1/7 90/1/7
f 664/2/5 663/3/5 441/1/5
f 787/3/7 786/2/7 134/1/7
f 749/1/5 754/1/5 237/1/5 238/1/5
f 672/1/7 671/1/7 90/1/7 95/1/7
f 659/1/7 670/1/7 438/1/7
f 788/2/7 789/3/7 461/1/7
f 707/2/7 706/2/7 139/1/7
usemtl Material.003
f 63/39/5 61/40/5 60/39/5
f 62/41/8 60/42/8 64/41/8
f 62/41/8 63/42/8 60/42/8
f 64/43/4 60/39/4 63/39/4
f 65/44/5 63/42/5 60/42/5
f 65/44/5 66/44/5 63/42/5
f 66/44/6 62/41/6 63/42/6
f 66/44/6 67/45/6 62/41/6
f 64/43/4 63/39/4 62/43/4
f 63/39/5 68/40/5 61/40/5
f 62/43/6 685/46/6 632/47/6 760/48/6 757/49/6 68/40/6 63/39/6
f 62/43/6 652/50/6 685/46/6
f 68/51/5 70/52/5 61/51/5
f 69/53/4 61/40/4 68/40/4
f 69/54/6 71/52/6 68/51/6
f 68/51/5 71/52/5 70/52/5
f 69/54/6 72/55/6 71/52/6
f 69/53/4 73/53/4 61/40/4
f 303/43/4 300/39/4 299/39/4
f 299/39/5 300/39/5 722/56/5 723/57/5
f 299/39/5 723/57/5 719/56/5
f 304/43/6 299/39/6 719/56/6 717/58/6
f 303/43/4 299/39/4 304/43/4
f 304/43/6 717/58/6 718/59/6
f 305/53/8 302/40/8 301/40/8
f 305/53/8 301/40/8 306/53/8
f 422/39/5 60/39/5 61/40/5
f 421/41/4 60/42/4 64/41/4
f 421/41/4 422/42/4 60/42/4
f 64/43/8 60/39/8 422/39/8
f 65/44/5 60/42/5 422/42/5
f 65/44/5 422/42/5 423/44/5
f 423/44/1 422/42/1 421/41/1
f 423/44/1 421/41/1 424/45/1
f 64/43/8 422/39/8 421/43/8
f 422/39/5 61/40/5 425/40/5
f 421/43/1 422/39/1 425/40/1 758/49/1 759/60/1 631/47/1 686/61/1
f 421/43/1 686/61/1 653/50/1
f 425/51/5 61/51/5 70/52/5
f 426/53/4 425/40/4 61/40/4
f 426/54/1 425/51/1 427/52/1
f 425/51/5 70/52/5 427/52/5
f 426/54/1 427/52/1 428/55/1
f 426/53/4 61/40/4 73/53/4
f 303/43/4 551/39/4 300/39/4
f 551/39/5 721/62/5 722/56/5 300/39/5
f 551/39/5 720/56/5 721/62/5
f 553/43/1 716/58/1 720/56/1 551/39/1
f 303/43/4 553/43/4 551/39/4
f 553/43/1 715/59/1 716/58/1
f 554/53/8 301/40/8 552/40/8
f 554/53/8 306/53/8 301/40/8
f 726/63/1 758/49/1 425/40/1 426/53/1
f 644/64/6 646/65/6 302/40/6
f 650/66/5 649/65/5 301/40/5
f 648/67/5 647/65/5 552/40/5 301/40/5
f 757/49/6 725/63/6 69/53/6 68/40/6
f 646/65/5 650/66/5 301/40/5 302/40/5
f 649/65/5 648/67/5 301/40/5
f 645/68/6 644/64/6 302/40/6 305/53/6
f 647/65/1 643/64/1 552/40/1
f 643/64/1 642/68/1 554/53/1 552/40/1
l 777 729
l 776 727
l 731 729
l 738 727
l 718 751
l 720 733
l 696 687
l 710 688
l 665 655
l 667 656
l 647 668
l 645 674
