# Blender 5.2.0 LTS
# www.blender.org
mtllib door.mtl
o door.001
v 0.266888 2.175815 -0.034540
v 0.254078 2.127395 -0.018864
v 0.254078 2.127395 0.012496
v 0.266888 2.175815 0.028171
v 0.493501 2.175812 0.028171
v 0.493501 2.175813 -0.034540
v 0.272381 1.204668 -0.034540
v 0.241091 0.650473 -0.018864
v 0.257535 0.659834 -0.034540
v 0.254883 1.182237 -0.018864
v 0.226105 0.643510 -0.034540
v 0.238940 1.204668 -0.034540
v 0.236370 2.166408 -0.034540
v 0.016111 2.166408 -0.034540
v 0.016111 2.166408 0.028171
v 0.236370 2.166408 0.028171
v 0.000366 2.127395 0.012496
v 0.000366 2.127395 -0.018864
v -0.017586 2.175816 -0.034538
v -0.017586 2.175816 0.028171
v -0.228782 2.175816 0.028171
v -0.249181 2.127395 0.012496
v -0.228782 2.175816 -0.034538
v -0.249181 2.127395 -0.018864
v -0.231027 1.197405 -0.034538
v -0.013566 1.407291 -0.034540
v -0.008846 0.517285 -0.034540
v 0.004386 1.384860 -0.018864
v -0.215589 0.752498 -0.034538
v -0.233691 0.742276 -0.018864
v -0.226942 -0.000000 -0.034538
v -0.017587 -0.000000 -0.034540
v 0.008024 0.525229 -0.018864
v 0.000366 0.041952 -0.018864
v 0.000366 0.041952 0.012496
v -0.017587 0.000000 0.028171
v -0.226942 0.000000 0.028171
v -0.246201 0.041952 -0.018864
v -0.246201 0.041952 0.012496
v -0.269224 -0.000000 -0.034540
v -0.269224 0.000000 0.028171
v -0.492768 -0.000000 -0.034539
v -0.492768 0.000000 0.028171
v -0.486373 0.456426 -0.034539
v -0.486373 0.449561 0.028171
v -0.492768 2.166404 -0.034539
v -0.492768 2.166404 0.028171
v -0.266033 2.166408 0.028171
v -0.266033 2.166408 -0.034540
v -0.273309 1.197405 -0.034540
v -0.250286 1.174974 -0.018864
v -0.255326 0.731859 -0.034538
v 0.016111 0.000000 0.028171
v 0.016111 -0.000000 -0.034540
v 0.230988 0.000000 0.028171
v 0.246934 0.041952 0.012496
v 0.230988 -0.000000 -0.034540
v 0.022823 0.533735 -0.034540
v 0.246934 0.041952 -0.018864
v 0.264431 -0.000000 -0.034540
v 0.264431 0.000000 0.028171
v 0.493500 0.000000 0.028171
v 0.492713 0.560956 0.028171
v 0.493500 -0.000000 -0.034540
v 0.492713 0.567821 -0.034540
v 0.020130 1.407291 -0.034540
v 0.364083 0.963231 -0.140895
v 0.371927 0.963231 -0.138793
v 0.364083 1.018697 -0.117920
v 0.356239 0.963231 -0.138793
v 0.364083 0.907765 -0.117920
v 0.364083 0.884791 -0.062454
v 0.371927 0.909251 -0.116434
v 0.356239 0.909251 -0.116434
v 0.350497 0.913312 -0.112373
v 0.356239 0.886892 -0.062454
v 0.350497 0.892635 -0.062454
v 0.356239 0.909251 -0.008475
v 0.350497 0.913312 -0.012535
v 0.364083 0.907765 -0.006988
v 0.356239 0.963231 0.013884
v 0.350497 0.963231 0.008142
v 0.364083 0.963231 0.015987
v 0.356239 1.017210 -0.008475
v 0.350497 1.013150 -0.012535
v 0.364083 1.018697 -0.006988
v 0.356239 1.039569 -0.062454
v 0.350497 1.033827 -0.062454
v 0.356239 1.017210 -0.116434
v 0.364083 1.041671 -0.062454
v 0.371927 1.039569 -0.062454
v 0.371927 1.017210 -0.116434
v 0.377669 1.033827 -0.062454
v 0.371927 1.017210 -0.008475
v 0.377669 1.013150 -0.012535
v 0.371927 0.963231 0.013884
v 0.377669 0.963231 0.008142
v 0.371927 0.909251 -0.008475
v 0.377669 0.913312 -0.012535
v 0.371927 0.886892 -0.062454
v 0.377669 0.892635 -0.062454
v 0.377669 0.913312 -0.112373
v 0.379771 0.900479 -0.062454
v 0.379771 0.918858 -0.018081
v 0.377669 0.908323 -0.062454
v 0.379771 0.918858 -0.106827
v 0.379771 0.963231 -0.125206
v 0.377669 0.924405 -0.101280
v 0.371927 0.928465 -0.097220
v 0.377669 0.963231 -0.117362
v 0.371927 0.963231 -0.111620
v 0.377669 1.002057 -0.101280
v 0.371927 0.997997 -0.097220
v 0.377669 1.018139 -0.062454
v 0.379771 1.007603 -0.106827
v 0.377669 1.013150 -0.112373
v 0.379771 1.025983 -0.062454
v 0.379771 1.007603 -0.018081
v 0.377669 1.002057 -0.023628
v 0.379771 0.963231 0.000298
v 0.377669 0.963231 -0.007546
v 0.371927 0.963231 -0.013288
v 0.377669 0.924405 -0.023628
v 0.371927 0.928465 -0.027688
v 0.364083 0.929952 -0.029175
v 0.371927 0.914065 -0.062454
v 0.364083 0.916167 -0.062454
v 0.356239 0.914065 -0.062454
v 0.364083 0.929952 -0.095733
v 0.356239 0.928465 -0.097220
v 0.364083 0.963231 -0.109518
v 0.356239 0.963231 -0.111620
v 0.364083 0.996510 -0.095733
v 0.356239 0.997997 -0.097220
v 0.364083 1.010295 -0.062454
v 0.356239 1.012397 -0.062454
v 0.364083 0.996510 -0.029175
v 0.371927 1.012397 -0.062454
v 0.371927 0.997997 -0.027688
v 0.356239 0.997997 -0.027688
v 0.364083 0.963231 -0.015390
v 0.356239 0.963231 -0.013288
v 0.350497 0.963231 -0.007546
v 0.356239 0.928465 -0.027688
v 0.350497 0.924405 -0.023628
v 0.348395 0.918858 -0.018081
v 0.350497 0.908323 -0.062454
v 0.348395 0.900479 -0.062454
v 0.350497 0.924405 -0.101280
v 0.348395 0.918858 -0.106827
v 0.350497 0.963231 -0.117362
v 0.348395 0.963231 -0.125206
v 0.350497 1.002057 -0.101280
v 0.348395 1.007603 -0.106827
v 0.350497 1.018139 -0.062454
v 0.348395 1.025983 -0.062454
v 0.350497 1.002057 -0.023628
v 0.348395 1.007603 -0.018081
v 0.348395 0.963231 0.000298
v 0.350497 1.013150 -0.112373
v 0.350497 0.963231 -0.133050
v 0.377669 0.963231 -0.133050
v 0.026264 1.134532 -0.101023
v 0.026264 1.134532 0.094655
v -0.018797 1.149321 0.094655
v -0.018797 1.149321 -0.101023
v 0.054172 1.173338 -0.101023
v 0.013820 1.173337 -0.101023
v -0.018797 1.197354 -0.101023
v 0.026262 1.212143 -0.101023
v 0.026262 1.212143 0.094655
v 0.054172 1.173338 0.094655
v -0.018797 1.197354 0.094655
v 0.466667 1.068415 -0.073942
v 0.466667 1.068415 0.067573
v -0.326605 1.075361 0.067573
v -0.469433 1.076611 0.054995
v -0.469433 1.076611 -0.073942
v 0.467915 1.210893 -0.073942
v -0.467575 1.288791 -0.073942
v 0.330655 1.281802 -0.073942
v 0.468525 1.280595 -0.044678
v 0.468525 1.280595 0.067573
v -0.467575 1.288791 0.067573
v -0.468884 1.139376 0.067573
v -0.353797 1.134532 -0.101023
v -0.353797 1.134532 0.094655
v -0.398858 1.149321 0.094655
v -0.398858 1.149321 -0.101023
v -0.325889 1.173338 -0.101023
v -0.366241 1.173337 -0.101023
v -0.398858 1.197354 -0.101023
v -0.353799 1.212143 -0.101023
v -0.353799 1.212143 0.094655
v -0.325889 1.173338 0.094655
v -0.398858 1.197354 0.094655
v 0.395225 1.145814 -0.101023
v 0.395225 1.145813 0.094654
v 0.348006 1.142113 0.094655
v 0.348006 1.142114 -0.101023
v 0.406376 1.192496 -0.101023
v 0.369090 1.176894 -0.101023
v 0.329870 1.186484 -0.101023
v 0.365977 1.217565 -0.101023
v 0.365977 1.217565 0.094654
v 0.406376 1.192496 0.094654
v 0.329870 1.186484 0.094655
v 0.001440 0.472734 -0.101023
v 0.001440 0.472734 0.094654
v 0.046402 0.458290 0.094654
v 0.046402 0.458290 -0.101023
v -0.026273 0.435017 -0.101023
v 0.013881 0.435017 -0.101023
v 0.046402 0.411745 -0.101023
v 0.001442 0.397300 -0.101023
v 0.001442 0.397300 0.094654
v -0.026273 0.435017 0.094655
v 0.046402 0.411745 0.094654
v 0.026264 1.804467 -0.101023
v 0.026264 1.804467 0.094655
v -0.018797 1.819257 0.094655
v -0.018797 1.819257 -0.101023
v 0.054172 1.843274 -0.101023
v 0.013820 1.843273 -0.101023
v -0.018797 1.867289 -0.101023
v 0.026262 1.882079 -0.101023
v 0.026262 1.882079 0.094655
v 0.054172 1.843274 0.094655
v -0.018797 1.867289 0.094655
v 0.432203 0.941488 -0.079797
v 0.437333 0.946618 -0.097207
v 0.365494 0.979179 -0.097206
v 0.365494 0.971924 -0.079797
v 0.461466 0.875952 -0.079797
v 0.419854 0.929139 -0.079797
v 0.444001 0.875952 -0.079797
v 0.421007 0.820438 -0.079797
v 0.433150 0.875952 -0.097944
v 0.413335 0.828111 -0.097944
v 0.365494 0.810110 -0.097944
v 0.365494 0.793390 -0.111739
v 0.425158 0.816288 -0.111739
v 0.449869 0.875952 -0.111739
v 0.365494 0.774539 -0.097206
v 0.438486 0.802958 -0.097207
v 0.365494 0.781794 -0.079797
v 0.433356 0.808088 -0.079797
v 0.468721 0.875952 -0.097207
v 0.424003 0.933288 -0.111739
v 0.412178 0.921466 -0.097944
v 0.365494 0.943608 -0.097944
v 0.365494 0.960328 -0.111739
v 0.317652 0.923792 -0.097944
v 0.305830 0.935615 -0.111739
v 0.301937 0.875952 -0.097944
v 0.285218 0.875952 -0.111739
v 0.292501 0.948945 -0.097206
v 0.297631 0.943815 -0.079797
v 0.266364 0.875952 -0.097206
v 0.273620 0.875952 -0.079797
v 0.292501 0.802958 -0.097206
v 0.305830 0.816288 -0.111739
v 0.317652 0.828111 -0.097944
v 0.309980 0.820438 -0.079797
v 0.365494 0.799258 -0.079797
v 0.297631 0.808088 -0.079797
v 0.291087 0.875952 -0.079797
v 0.309980 0.931465 -0.079797
v 0.365494 0.954460 -0.079797
v 0.466667 1.738351 -0.073942
v 0.466667 1.738351 0.067573
v -0.326605 1.745297 0.067573
v -0.469433 1.746547 0.054995
v -0.469433 1.746547 -0.073942
v 0.467915 1.880829 -0.073942
v -0.467575 1.958727 -0.073942
v 0.330655 1.951738 -0.073942
v 0.468525 1.950531 -0.044678
v 0.468525 1.950531 0.067573
v -0.467575 1.958727 0.067573
v -0.468883 1.809312 0.067573
v -0.467703 0.527103 -0.073942
v -0.467703 0.527103 0.067573
v 0.325600 0.527103 0.067573
v 0.468433 0.527103 0.054995
v 0.468433 0.527103 -0.073942
v -0.467703 0.399746 -0.073942
v 0.468433 0.337442 -0.073942
v -0.329827 0.337442 -0.073942
v -0.467703 0.337442 -0.044678
v -0.467703 0.337442 0.067573
v 0.468433 0.337442 0.067573
v 0.468433 0.470999 0.067573
v -0.353797 1.804467 -0.101023
v -0.353797 1.804467 0.094655
v -0.398858 1.819257 0.094655
v -0.398858 1.819257 -0.101023
v -0.325889 1.843274 -0.101023
v -0.366241 1.843273 -0.101023
v -0.398858 1.867289 -0.101023
v -0.353799 1.882079 -0.101023
v -0.353799 1.882079 0.094655
v -0.325889 1.843274 0.094655
v -0.398858 1.867289 0.094655
v 0.395225 1.815750 -0.101023
v 0.395225 1.815749 0.094654
v 0.348006 1.812050 0.094655
v 0.348006 1.812050 -0.101023
v 0.406376 1.862432 -0.101023
v 0.369090 1.846830 -0.101023
v 0.329870 1.856421 -0.101023
v 0.365977 1.887501 -0.101023
v 0.365977 1.887501 0.094654
v 0.406376 1.862432 0.094654
v 0.329870 1.856421 0.094655
v 0.360146 0.472734 -0.101023
v 0.360146 0.472734 0.094654
v 0.405108 0.458290 0.094654
v 0.405108 0.458290 -0.101023
v 0.332433 0.435017 -0.101023
v 0.372587 0.435017 -0.101023
v 0.405108 0.411745 -0.101023
v 0.360148 0.397300 -0.101023
v 0.360148 0.397300 0.094654
v 0.332433 0.435017 0.094655
v 0.405108 0.411745 0.094654
v -0.388831 0.461780 -0.101023
v -0.388831 0.461780 0.094655
v -0.341680 0.465397 0.094655
v -0.341681 0.465397 -0.101023
v -0.399876 0.416521 -0.101023
v -0.362743 0.431622 -0.101023
v -0.323700 0.422345 -0.101023
v -0.359628 0.392073 -0.101023
v -0.359628 0.392073 0.094655
v -0.399876 0.416521 0.094655
v -0.323700 0.422345 0.094655
v 0.365133 0.963231 0.102809
v 0.357289 0.963231 0.100707
v 0.365133 1.018697 0.079834
v 0.372977 0.963231 0.100707
v 0.365133 0.907765 0.079834
v 0.365133 0.884791 0.024368
v 0.357289 0.909251 0.078348
v 0.372977 0.909251 0.078348
v 0.378719 0.913312 0.074287
v 0.372977 0.886892 0.024368
v 0.378719 0.892635 0.024368
v 0.372977 0.909251 -0.029611
v 0.378719 0.913312 -0.025550
v 0.365133 0.907765 -0.031097
v 0.372977 0.963231 -0.051970
v 0.378719 0.963231 -0.046228
v 0.365133 0.963231 -0.054072
v 0.372977 1.017210 -0.029611
v 0.378719 1.013150 -0.025550
v 0.365133 1.018697 -0.031097
v 0.372977 1.039569 0.024368
v 0.378719 1.033827 0.024368
v 0.372977 1.017210 0.078348
v 0.365133 1.041671 0.024368
v 0.357289 1.039569 0.024368
v 0.357289 1.017210 0.078348
v 0.351547 1.033827 0.024368
v 0.357289 1.017210 -0.029611
v 0.351547 1.013150 -0.025550
v 0.357289 0.963231 -0.051970
v 0.351547 0.963231 -0.046228
v 0.357289 0.909251 -0.029611
v 0.351547 0.913312 -0.025550
v 0.357289 0.886892 0.024368
v 0.351547 0.892635 0.024368
v 0.351547 0.913312 0.074287
v 0.349445 0.900479 0.024368
v 0.349445 0.918858 -0.020004
v 0.351547 0.908323 0.024368
v 0.349445 0.918858 0.068741
v 0.349445 0.963231 0.087121
v 0.351547 0.924405 0.063194
v 0.357289 0.928465 0.059134
v 0.351547 0.963231 0.079277
v 0.357289 0.963231 0.073535
v 0.351547 1.002057 0.063194
v 0.357289 0.997997 0.059134
v 0.351547 1.018139 0.024368
v 0.349445 1.007603 0.068741
v 0.351547 1.013150 0.074287
v 0.349445 1.025983 0.024368
v 0.349445 1.007603 -0.020004
v 0.351547 1.002057 -0.014457
v 0.349445 0.963231 -0.038384
v 0.351547 0.963231 -0.030540
v 0.357289 0.963231 -0.024798
v 0.351547 0.924405 -0.014457
v 0.357289 0.928465 -0.010397
v 0.365133 0.929952 -0.008911
v 0.357289 0.914065 0.024368
v 0.365133 0.916167 0.024368
v 0.372977 0.914065 0.024368
v 0.365133 0.929952 0.057648
v 0.372977 0.928465 0.059134
v 0.365133 0.963231 0.071433
v 0.372977 0.963231 0.073535
v 0.365133 0.996510 0.057648
v 0.372977 0.997997 0.059134
v 0.365133 1.010295 0.024368
v 0.372977 1.012397 0.024368
v 0.365133 0.996510 -0.008911
v 0.357289 1.012397 0.024368
v 0.357289 0.997997 -0.010397
v 0.372977 0.997997 -0.010397
v 0.365133 0.963231 -0.022696
v 0.372977 0.963231 -0.024798
v 0.378719 0.963231 -0.030540
v 0.372977 0.928465 -0.010397
v 0.378719 0.924405 -0.014457
v 0.380821 0.918858 -0.020004
v 0.378719 0.908323 0.024368
v 0.380821 0.900479 0.024368
v 0.378719 0.924405 0.063194
v 0.380821 0.918858 0.068741
v 0.378719 0.963231 0.079277
v 0.380821 0.963231 0.087121
v 0.378719 1.002057 0.063194
v 0.380821 1.007603 0.068741
v 0.378719 1.018139 0.024368
v 0.380821 1.025983 0.024368
v 0.378719 1.002057 -0.014457
v 0.380821 1.007603 -0.020004
v 0.380821 0.963231 -0.038384
v 0.378719 1.013150 0.074287
v 0.378719 0.963231 0.094965
v 0.351547 0.963231 0.094965
v 0.297014 0.941488 0.041712
v 0.291884 0.946618 0.059121
v 0.363722 0.979179 0.059121
v 0.363722 0.971924 0.041711
v 0.267750 0.875952 0.041712
v 0.309363 0.929139 0.041712
v 0.285216 0.875952 0.041712
v 0.308209 0.820438 0.041712
v 0.296066 0.875952 0.059858
v 0.315881 0.828111 0.059858
v 0.363722 0.810110 0.059858
v 0.363722 0.793390 0.073653
v 0.304059 0.816288 0.073653
v 0.279347 0.875952 0.073653
v 0.363722 0.774539 0.059121
v 0.290730 0.802958 0.059121
v 0.363722 0.781794 0.041711
v 0.295860 0.808088 0.041712
v 0.260495 0.875952 0.059121
v 0.305214 0.933288 0.073653
v 0.317038 0.921466 0.059858
v 0.363722 0.943608 0.059858
v 0.363722 0.960328 0.073653
v 0.411564 0.923792 0.059858
v 0.423387 0.935615 0.073653
v 0.427280 0.875952 0.059858
v 0.443998 0.875952 0.073653
v 0.436716 0.948945 0.059121
v 0.431585 0.943815 0.041711
v 0.462852 0.875952 0.059121
v 0.455597 0.875952 0.041711
v 0.436716 0.802958 0.059121
v 0.423387 0.816288 0.073653
v 0.411564 0.828111 0.059858
v 0.419237 0.820438 0.041711
v 0.363722 0.799258 0.041711
v 0.431585 0.808088 0.041711
v 0.438130 0.875952 0.041711
v 0.419237 0.931465 0.041711
v 0.363722 0.954460 0.041711
vn -0.7172 -0.0016 -0.6969
vn -0.7163 -0.0024 -0.6978
vn -0.7676 0.0521 -0.6388
vn -0.9667 0.2558 -0.0000
vn -0.0000 1.0000 -0.0000
vn -0.0000 -0.0000 -1.0000
vn -0.6792 0.0265 -0.7335
vn -0.7005 0.0268 -0.7131
vn -0.6960 -0.0340 -0.7172
vn -0.6915 0.0260 -0.7219
vn -0.6967 -0.0375 -0.7164
vn -0.6903 0.0119 -0.7234
vn -0.6635 -0.0760 -0.7443
vn -0.7054 0.0186 -0.7086
vn -0.6722 -0.0301 -0.7397
vn 0.7165 -0.0357 -0.6967
vn 0.7256 -0.0118 -0.6880
vn 0.7134 -0.0033 -0.7008
vn 0.6812 0.0013 -0.7321
vn 0.6828 0.0012 -0.7306
vn 0.6653 -0.0064 -0.7466
vn 0.6876 -0.0379 -0.7251
vn 0.6859 0.0006 -0.7277
vn 0.6941 -0.0119 -0.7197
vn 0.7179 -0.0074 -0.6961
vn 0.7057 -0.0038 -0.7085
vn 0.6908 -0.0038 -0.7230
vn 0.9106 0.4133 -0.0000
vn -0.9273 0.3743 -0.0000
vn 0.9376 0.3476 -0.0000
vn -0.9216 0.3882 -0.0000
vn -0.6066 -0.0022 -0.7950
vn -0.6211 0.0009 -0.7838
vn -0.6213 0.0011 -0.7836
vn 0.6672 0.0071 -0.7448
vn 0.6567 -0.0072 -0.7542
vn 0.6617 -0.0011 -0.7498
vn 0.6630 -0.0062 -0.7486
vn 0.6637 0.0054 -0.7480
vn 0.6599 0.0035 -0.7513
vn -0.6383 -0.0028 -0.7698
vn -0.6517 -0.0187 -0.7582
vn -0.6305 -0.0302 -0.7756
vn -0.6739 0.0191 -0.7385
vn -0.6423 -0.0006 -0.7664
vn -0.6520 0.0315 -0.7576
vn 0.6712 -0.0233 -0.7409
vn 0.6778 -0.0111 -0.7352
vn 0.6768 -0.0111 -0.7361
vn 0.6774 -0.0212 -0.7353
vn 0.6884 -0.0094 -0.7253
vn 0.6783 -0.0023 -0.7348
vn 0.9194 -0.3934 -0.0000
vn -0.0000 -1.0000 -0.0000
vn -0.9088 -0.4172 -0.0000
vn 0.8767 -0.4811 -0.0000
vn -1.0000 0.0090 0.0003
vn -0.9999 0.0141 0.0009
vn -0.9999 0.0141 0.0015
vn -1.0000 0.0087 0.0012
vn -1.0000 -0.0036 -0.0009
vn -1.0000 -0.0050 0.0045
vn -1.0000 0.0005 -0.0039
vn -1.0000 -0.0037 -0.0000
vn 0.9180 0.3965 -0.0000
vn 0.5640 -0.0304 -0.8252
vn 0.6015 0.0180 -0.7987
vn 0.4953 0.0046 -0.8687
vn 0.6742 -0.0264 -0.7381
vn 0.6220 -0.0041 -0.7830
vn 0.6155 -0.0027 -0.7881
vn 0.5813 0.0166 -0.8135
vn 0.5854 0.0478 -0.8093
vn 0.5754 0.0227 -0.8176
vn -0.6146 -0.0007 -0.7888
vn -0.6188 -0.0146 -0.7854
vn -0.6169 -0.0173 -0.7869
vn -0.6264 0.0024 -0.7795
vn -0.6395 -0.0025 -0.7688
vn -0.6361 0.0117 -0.7715
vn 0.5820 0.0201 -0.8129
vn 0.5969 -0.0278 -0.8018
vn 0.5984 0.0285 -0.8007
vn 0.5827 -0.0106 -0.8126
vn 0.5829 -0.0107 -0.8125
vn 0.5717 -0.0088 -0.8204
vn 0.5932 -0.0172 -0.8049
vn 0.5852 -0.0120 -0.8108
vn 0.5887 -0.0154 -0.8082
vn -0.6351 0.0104 -0.7724
vn -0.6375 0.0105 -0.7704
vn -0.6165 -0.0119 -0.7872
vn -0.9362 -0.3514 -0.0000
vn 0.9348 -0.3553 -0.0000
vn 0.7067 0.0064 -0.7075
vn 0.7071 0.0061 -0.7071
vn 0.6944 0.0275 -0.7191
vn -0.9229 -0.3849 -0.0000
vn -0.6812 -0.0069 -0.7320
vn -0.6820 -0.0069 -0.7313
vn -0.6755 -0.0154 -0.7372
vn 0.7273 -0.0087 -0.6862
vn 0.7088 0.0205 -0.7051
vn 0.7107 -0.0130 -0.7034
vn 1.0000 0.0003 -0.0004
vn 1.0000 0.0014 -0.0000
vn 1.0000 0.0004 -0.0000
vn 1.0000 -0.0005 -0.0000
vn -0.6928 -0.0048 -0.7211
vn -0.6826 -0.0124 -0.7307
vn -0.6826 -0.0000 -0.7308
vn -0.7177 0.0151 -0.6962
vn -0.7265 -0.0053 -0.6871
vn -0.7157 -0.0149 -0.6982
vn -0.7447 0.0170 -0.6672
vn -0.7175 -0.0032 -0.6965
vn -0.7205 0.0244 -0.6931
vn -0.7040 -0.0161 -0.7100
vn -0.7031 -0.0040 -0.7111
vn -0.7049 -0.0025 -0.7093
vn -0.7034 0.0185 -0.7106
vn -0.7114 0.0021 -0.7028
vn -0.7043 -0.0058 -0.7099
vn -0.7077 0.0100 -0.7065
vn -0.7108 0.0100 -0.7033
vn -0.6906 -0.0105 -0.7232
vn 0.6803 0.0129 -0.7328
vn 0.6729 0.0112 -0.7397
vn 0.6729 -0.0038 -0.7397
vn 0.6617 0.0035 -0.7498
vn -0.7016 -0.0038 -0.7125
vn -0.0000 -0.0000 1.0000
vn -0.0001 -0.0041 1.0000
vn -0.0008 0.0003 1.0000
vn -0.0000 0.0014 1.0000
vn 0.2403 -0.3715 -0.8968
vn 0.2403 0.3715 -0.8968
vn -0.2403 0.3715 -0.8968
vn -0.2403 -0.3715 -0.8968
vn -0.2402 -0.8968 -0.3715
vn 0.2402 -0.8968 -0.3715
vn -0.6787 -0.2811 -0.6785
vn -0.6787 -0.6785 -0.2811
vn -0.6787 -0.6785 0.2811
vn -0.2403 -0.8968 0.3715
vn -0.6786 -0.2811 0.6786
vn -0.2404 -0.3715 0.8968
vn -0.6786 0.2811 0.6786
vn -0.2404 0.3715 0.8968
vn -0.6786 0.6786 0.2811
vn -0.2404 0.8968 0.3715
vn -0.6786 0.6786 -0.2811
vn -0.2404 0.8968 -0.3715
vn 0.2404 0.8968 -0.3715
vn 0.2404 0.8968 0.3715
vn 0.6786 0.6786 -0.2811
vn 0.6786 0.6786 0.2811
vn 0.2404 0.3715 0.8968
vn 0.6786 0.2811 0.6786
vn 0.2404 -0.3715 0.8968
vn 0.6786 -0.2811 0.6786
vn 0.2403 -0.8968 0.3715
vn 0.6787 -0.6786 0.2811
vn 0.6787 -0.6785 -0.2811
vn 0.9604 -0.2574 0.1066
vn 0.9604 -0.2574 -0.1066
vn 0.9604 0.2574 -0.1066
vn 0.9604 0.2574 0.1066
vn 0.9604 -0.1066 -0.2574
vn 0.9604 0.1066 0.2574
vn 0.9604 -0.1066 0.2574
vn 0.6786 -0.6786 0.2811
vn 0.9604 0.1066 -0.2574
vn 0.6786 -0.2811 -0.6786
vn 0.6786 0.2811 -0.6786
vn 0.2404 0.3715 -0.8968
vn -0.2404 -0.8968 0.3715
vn 0.2404 -0.8968 0.3715
vn -0.2404 -0.8968 -0.3715
vn 0.2404 -0.8968 -0.3715
vn 0.6786 -0.6786 -0.2811
vn 0.2404 -0.3715 -0.8968
vn -0.2404 -0.3715 -0.8968
vn -0.2404 0.3715 -0.8968
vn -0.6786 -0.2811 -0.6786
vn -0.6786 0.2811 -0.6786
vn -0.9604 0.1066 -0.2574
vn -0.9604 0.2574 -0.1066
vn -0.9604 0.2574 0.1066
vn -0.9604 0.1066 0.2574
vn -0.9604 -0.1066 0.2574
vn -0.9604 -0.2574 0.1066
vn -0.6786 -0.6786 0.2811
vn -0.9604 -0.2574 -0.1066
vn -0.6786 -0.6786 -0.2811
vn -0.9604 -0.1066 -0.2574
vn -0.6787 0.2811 -0.6786
vn 0.6787 0.2811 -0.6786
vn 0.6787 -0.2811 -0.6785
vn -0.3118 -0.9501 -0.0000
vn 0.8119 -0.5839 -0.0000
vn -0.3118 0.9501 -0.0000
vn 0.8118 0.5839 -0.0000
vn -1.0000 -0.0000 -0.0000
vn 0.0781 -0.9969 -0.0000
vn 0.9726 -0.2323 -0.0000
vn -0.6524 0.7579 -0.0000
vn 0.5273 0.8497 -0.0000
vn -0.9257 -0.3784 -0.0000
vn 0.3059 0.9521 -0.0000
vn -0.8059 0.5921 -0.0000
vn 0.3059 -0.9521 -0.0000
vn -0.8058 -0.5921 -0.0000
vn 1.0000 -0.0000 -0.0000
vn -0.3119 -0.9501 -0.0000
vn 0.8119 -0.5838 -0.0000
vn -0.3119 0.9501 -0.0000
vn 0.3858 0.8512 0.3558
vn 0.3863 0.8496 0.3591
vn 0.3865 0.8479 0.3628
vn 0.8511 0.3796 0.3626
vn 0.8540 0.3795 0.3559
vn 0.8526 0.3796 0.3592
vn 0.3863 0.8496 0.3592
vn -0.8087 0.3350 0.4836
vn -0.8087 0.3350 0.4835
vn -0.7985 -0.3651 0.4787
vn -0.7941 -0.3625 0.4879
vn -0.7962 -0.3640 0.4833
vn -0.8087 0.3349 0.4836
vn -0.2382 0.6263 -0.7423
vn -0.2369 0.6227 -0.7457
vn -0.2362 0.6192 -0.7488
vn -0.3112 0.8158 0.4874
vn -0.3103 0.8186 0.4834
vn -0.3096 0.8215 0.4788
vn -0.6154 0.2549 -0.7459
vn 0.2336 -0.6001 -0.7650
vn 0.2312 -0.5976 -0.7677
vn 0.2288 -0.5945 -0.7708
vn 0.5919 -0.2452 -0.7678
vn 0.3389 -0.8704 0.3570
vn 0.3379 -0.8699 0.3592
vn 0.3371 -0.8693 0.3616
vn 0.8622 -0.3571 0.3593
vn 0.8526 0.3796 0.3591
vn 0.5814 0.2603 -0.7709
vn 0.5884 0.2623 -0.7648
vn 0.5849 0.2617 -0.7677
vn 0.5850 0.2616 -0.7677
vn -0.2821 -0.5998 -0.7488
vn -0.2823 -0.6037 -0.7455
vn -0.2774 -0.5962 -0.7534
vn -0.6003 -0.2701 -0.7528
vn -0.6043 -0.2750 -0.7478
vn -0.6064 -0.2761 -0.7457
vn -0.2861 -0.6127 -0.7367
vn -0.2822 -0.6066 -0.7433
vn 0.2654 0.5800 -0.7702
vn 0.2665 0.5829 -0.7676
vn 0.2642 0.5733 -0.7756
vn 0.2549 -0.6154 -0.7459
vn -0.2452 0.5919 -0.7678
vn 0.2679 0.5918 -0.7603
vn 0.2676 0.5848 -0.7658
vn 0.2665 0.5828 -0.7676
vn 0.6386 -0.2148 -0.7390
vn 0.6319 -0.2135 -0.7451
vn 0.6500 -0.2141 -0.7292
vn 0.6152 -0.2138 -0.7588
vn 0.6274 -0.2123 -0.7492
vn 0.6318 -0.2135 -0.7451
vn -0.6095 0.2131 -0.7636
vn -0.6048 0.2131 -0.7674
vn -0.6148 0.2190 -0.7577
vn -0.3571 0.8622 0.3593
vn -0.8802 0.3130 0.3568
vn -0.8793 0.3131 0.3589
vn -0.8828 0.3157 0.3478
vn -0.5928 0.2087 -0.7778
vn -0.6017 0.2133 -0.7697
vn -0.6047 0.2131 -0.7674
vn -0.8755 0.3107 0.3701
vn -0.8783 0.3129 0.3614
vn -0.8793 0.3130 0.3589
vn -0.8805 -0.3153 0.3539
vn -0.8793 -0.3131 0.3589
vn -0.8777 -0.3111 0.3645
vn -0.6157 -0.2209 -0.7564
vn -0.6079 -0.2140 -0.7646
vn -0.6047 -0.2131 -0.7674
vn -0.6005 -0.2114 -0.7712
vn -0.6048 -0.2131 -0.7674
vn -0.5922 -0.2056 -0.7791
vn 0.6453 0.2188 -0.7319
vn 0.6348 0.2165 -0.7417
vn 0.6319 0.2135 -0.7451
vn 0.2374 0.6184 -0.7492
vn 0.2369 0.6227 -0.7457
vn 0.2368 0.6277 -0.7416
vn 0.2369 0.6228 -0.7457
vn -0.2298 -0.5947 -0.7704
vn -0.2312 -0.5976 -0.7677
vn -0.2329 -0.6000 -0.7653
vn 0.6274 0.2095 -0.7500
vn 0.6318 0.2135 -0.7451
vn 0.6187 0.2109 -0.7568
vn 0.8342 0.2785 0.4759
vn 0.8305 0.2781 0.4826
vn 0.8411 0.2764 0.4649
vn 0.3110 0.8206 0.4795
vn 0.3103 0.8185 0.4835
vn 0.3100 0.8164 0.4872
vn 0.3103 0.8186 0.4834
vn -0.3103 0.8186 0.4833
vn 0.8202 0.2801 0.4988
vn 0.8276 0.2775 0.4878
vn 0.8381 -0.2812 0.4674
vn 0.8322 -0.2806 0.4782
vn 0.8305 -0.2781 0.4826
vn 0.8282 -0.2751 0.4882
vn 0.8226 -0.2762 0.4970
vn 0.3350 -0.8087 0.4836
vn 0.3350 -0.8087 0.4835
vn -0.3666 -0.7883 0.4941
vn -0.3712 -0.7908 0.4866
vn -0.3722 -0.7924 0.4832
vn -0.3737 -0.7944 0.4788
vn -0.3778 -0.7969 0.4714
vn -0.8793 -0.3130 0.3589
vn -0.3371 -0.8690 0.3622
vn -0.3379 -0.8700 0.3591
vn -0.3388 -0.8707 0.3565
vn -0.3379 -0.8699 0.3593
vn -0.6094 -0.2780 -0.7425
vn -0.6134 -0.2823 -0.7376
vn -0.7962 -0.3639 0.4834
vn -0.0765 0.9971 -0.0000
vn -0.9715 0.2371 -0.0000
vn 0.6443 -0.7647 -0.0000
vn -0.5192 -0.8547 -0.0000
vn 0.9228 0.3854 -0.0000
vn -0.2403 -0.3715 0.8968
vn -0.2403 0.3715 0.8968
vn 0.2403 0.3715 0.8968
vn 0.2403 -0.3715 0.8968
vn 0.2402 -0.8968 0.3715
vn -0.2402 -0.8968 0.3715
vn 0.6787 -0.6785 0.2811
vn 0.2403 -0.8968 -0.3715
vn -0.2403 -0.8968 -0.3715
vn -0.3858 0.8512 -0.3558
vn -0.3863 0.8496 -0.3591
vn -0.3865 0.8479 -0.3628
vn -0.8511 0.3796 -0.3626
vn -0.8540 0.3795 -0.3558
vn -0.8526 0.3796 -0.3592
vn 0.8087 0.3349 -0.4835
vn 0.8087 0.3350 -0.4835
vn 0.7985 -0.3651 -0.4787
vn 0.7940 -0.3625 -0.4879
vn 0.7962 -0.3640 -0.4833
vn 0.2382 0.6262 0.7424
vn 0.2369 0.6227 0.7457
vn 0.2363 0.6192 0.7489
vn 0.3112 0.8158 -0.4874
vn 0.3103 0.8186 -0.4834
vn 0.3096 0.8215 -0.4788
vn 0.2370 0.6228 0.7456
vn 0.6154 0.2549 0.7459
vn -0.2336 -0.6002 0.7650
vn -0.2312 -0.5976 0.7678
vn -0.2288 -0.5945 0.7709
vn -0.5919 -0.2452 0.7678
vn -0.2312 -0.5976 0.7677
vn -0.3389 -0.8704 -0.3570
vn -0.3379 -0.8700 -0.3591
vn -0.3371 -0.8693 -0.3615
vn -0.3379 -0.8699 -0.3592
vn -0.8622 -0.3571 -0.3593
vn -0.8526 0.3796 -0.3591
vn -0.5814 0.2603 0.7708
vn -0.5884 0.2623 0.7648
vn -0.5849 0.2617 0.7677
vn -0.5850 0.2616 0.7677
vn 0.2821 -0.5998 0.7488
vn 0.2823 -0.6037 0.7456
vn 0.2774 -0.5962 0.7534
vn 0.6003 -0.2701 0.7528
vn 0.6043 -0.2750 0.7478
vn 0.6064 -0.2761 0.7457
vn 0.2861 -0.6127 0.7367
vn 0.2822 -0.6066 0.7433
vn 0.2823 -0.6037 0.7455
vn -0.2654 0.5800 0.7702
vn -0.2665 0.5829 0.7676
vn -0.2642 0.5733 0.7756
vn -0.2549 -0.6154 0.7459
vn 0.2452 0.5919 0.7678
vn -0.2679 0.5918 0.7603
vn -0.2675 0.5848 0.7658
vn -0.6386 -0.2148 0.7390
vn -0.6319 -0.2135 0.7451
vn -0.6500 -0.2141 0.7292
vn -0.6153 -0.2138 0.7588
vn -0.6274 -0.2123 0.7492
vn -0.6318 -0.2135 0.7451
vn 0.6095 0.2131 0.7636
vn 0.6048 0.2131 0.7674
vn 0.6148 0.2189 0.7577
vn 0.3571 0.8622 -0.3593
vn 0.8802 0.3130 -0.3568
vn 0.8793 0.3131 -0.3589
vn 0.8828 0.3157 -0.3479
vn 0.5928 0.2087 0.7778
vn 0.6016 0.2133 0.7698
vn 0.6047 0.2131 0.7674
vn 0.8755 0.3107 -0.3702
vn 0.8783 0.3130 -0.3614
vn 0.8793 0.3130 -0.3589
vn 0.8805 -0.3153 -0.3539
vn 0.8793 -0.3131 -0.3589
vn 0.8777 -0.3111 -0.3645
vn 0.6157 -0.2209 0.7563
vn 0.6079 -0.2140 0.7646
vn 0.6047 -0.2131 0.7674
vn 0.6005 -0.2114 0.7712
vn 0.6048 -0.2131 0.7674
vn 0.5922 -0.2056 0.7791
vn -0.6453 0.2188 0.7319
vn -0.6348 0.2166 0.7417
vn -0.6319 0.2135 0.7451
vn -0.2374 0.6184 0.7492
vn -0.2369 0.6227 0.7457
vn -0.2368 0.6277 0.7416
vn 0.2298 -0.5947 0.7704
vn 0.2312 -0.5976 0.7677
vn 0.2329 -0.6000 0.7653
vn -0.6274 0.2095 0.7500
vn -0.6318 0.2135 0.7451
vn -0.6188 0.2108 0.7567
vn -0.8342 0.2785 -0.4759
vn -0.8305 0.2781 -0.4826
vn -0.8411 0.2764 -0.4649
vn -0.3110 0.8206 -0.4795
vn -0.3103 0.8185 -0.4835
vn -0.3100 0.8165 -0.4871
vn -0.3103 0.8186 -0.4833
vn -0.8202 0.2801 -0.4988
vn -0.8276 0.2775 -0.4878
vn -0.8381 -0.2812 -0.4674
vn -0.8322 -0.2806 -0.4782
vn -0.8305 -0.2781 -0.4826
vn -0.8282 -0.2751 -0.4882
vn -0.8226 -0.2762 -0.4970
vn -0.3350 -0.8087 -0.4836
vn 0.3666 -0.7883 -0.4941
vn 0.3713 -0.7908 -0.4866
vn 0.3722 -0.7924 -0.4832
vn 0.3737 -0.7944 -0.4789
vn 0.3779 -0.7969 -0.4713
vn 0.8793 -0.3130 -0.3589
vn 0.3371 -0.8690 -0.3622
vn 0.3379 -0.8700 -0.3591
vn 0.3388 -0.8707 -0.3564
vn 0.3379 -0.8699 -0.3592
vn 0.6094 -0.2780 0.7425
vn 0.6064 -0.2761 0.7456
vn 0.6134 -0.2823 0.7376
vn 0.7962 -0.3639 -0.4834
vn -0.0088 -1.0000 -0.0000
vn 1.0000 -0.0088 -0.0000
vn 0.0088 1.0000 -0.0000
vn 0.1954 0.3782 -0.9049
vn -0.0020 -0.0045 1.0000
vn -1.0000 0.0088 -0.0000
vn -1.0000 0.0087 -0.0000
vn -0.1887 -0.4175 -0.8889
vn 0.0020 0.0051 1.0000
vt 0.495601 0.156145
vt 0.495606 0.156127
vt 0.495605 0.156329
vt 0.495605 0.156149
vt 0.495613 0.156135
vt 0.495724 0.156331
vt 0.495716 0.156322
vt 0.487791 0.153470
vt 0.487904 0.153681
vt 0.487790 0.153681
vt 0.495591 0.156574
vt 0.495598 0.156344
vt 0.495597 0.156566
vt 0.487783 0.153926
vt 0.495582 0.156575
vt 0.495592 0.156119
vt 0.495589 0.156330
vt 0.495484 0.156096
vt 0.495491 0.156104
vt 0.487666 0.153431
vt 0.487776 0.153461
vt 0.487773 0.153681
vt 0.495599 0.156128
vt 0.495481 0.156124
vt 0.495478 0.156120
vt 0.495467 0.156097
vt 0.495474 0.156106
vt 0.495367 0.156140
vt 0.495361 0.156131
vt 0.495356 0.156162
vt 0.495363 0.156344
vt 0.495353 0.156158
vt 0.487650 0.153682
vt 0.487545 0.153682
vt 0.487542 0.153461
vt 0.487649 0.153431
vt 0.487556 0.154016
vt 0.487655 0.154132
vt 0.495477 0.156351
vt 0.495469 0.156777
vt 0.495467 0.156338
vt 0.495364 0.156680
vt 0.495371 0.156671
vt 0.495368 0.157070
vt 0.487652 0.154415
vt 0.487557 0.154416
vt 0.495479 0.156776
vt 0.495474 0.157045
vt 0.495464 0.157061
vt 0.495477 0.157051
vt 0.495470 0.157075
vt 0.495374 0.157084
vt 0.495361 0.157055
vt 0.495363 0.157062
vt 0.495349 0.157072
vt 0.495354 0.157086
vt 0.495245 0.157082
vt 0.495250 0.157096
vt 0.495254 0.156825
vt 0.495259 0.156841
vt 0.495230 0.156353
vt 0.495235 0.156362
vt 0.495349 0.156152
vt 0.495343 0.156143
vt 0.487524 0.153682
vt 0.487412 0.153682
vt 0.487523 0.153472
vt 0.495355 0.156359
vt 0.495342 0.156345
vt 0.495352 0.156683
vt 0.487442 0.154162
vt 0.487537 0.154027
vt 0.487538 0.154416
vt 0.487437 0.154417
vt 0.495486 0.157073
vt 0.495480 0.157059
vt 0.495584 0.157064
vt 0.495577 0.157050
vt 0.495590 0.157041
vt 0.487764 0.154414
vt 0.487667 0.154415
vt 0.487670 0.154123
vt 0.487768 0.153935
vt 0.495587 0.157034
vt 0.495592 0.157048
vt 0.495599 0.157062
vt 0.495703 0.157052
vt 0.495701 0.156619
vt 0.495695 0.157038
vt 0.495694 0.156604
vt 0.487881 0.153972
vt 0.487882 0.154413
vt 0.487779 0.154414
vt 0.495483 0.156337
vt 0.495484 0.156768
vt 0.487666 0.153682
vt 0.000000 0.000000
vt 0.077925 0.231628
vt 0.077897 0.231669
vt 0.077850 0.231654
vt 0.077952 0.231591
vt 0.077880 0.231614
vt 0.077912 0.231591
vt 0.077879 0.231567
vt 0.077923 0.231553
vt 0.077895 0.231591
vt 0.077926 0.231630
vt 0.077848 0.231605
vt 0.078817 0.231623
vt 0.078835 0.231663
vt 0.078785 0.231667
vt 0.078829 0.231578
vt 0.078769 0.231626
vt 0.078791 0.231592
vt 0.078752 0.231583
vt 0.078789 0.231553
vt 0.078806 0.231590
vt 0.078848 0.231616
vt 0.078767 0.231622
vt 0.082700 0.257585
vt 0.082634 0.257564
vt 0.082643 0.257508
vt 0.082690 0.257819
vt 0.082720 0.257536
vt 0.082702 0.257641
vt 0.082692 0.257841
vt 0.082693 0.258100
vt 0.082631 0.258092
vt 0.082631 0.257851
vt 0.082583 0.258350
vt 0.082635 0.258299
vt 0.082583 0.258107
vt 0.082634 0.258403
vt 0.082584 0.257831
vt 0.082629 0.258123
vt 0.082702 0.258382
vt 0.082690 0.258117
vt 0.082629 0.257811
vt 0.082584 0.257617
vt 0.082635 0.257668
vt 0.082642 0.257642
vt 0.082584 0.257577
vt 0.082648 0.257847
vt 0.082583 0.257817
vt 0.082648 0.258176
vt 0.082583 0.258216
vt 0.082652 0.257783
vt 0.082741 0.257797
vt 0.082653 0.258262
vt 0.082743 0.258243
vt 0.082644 0.258508
vt 0.082583 0.258431
vt 0.082642 0.258359
vt 0.082722 0.258397
vt 0.082704 0.258327
vt 0.082724 0.258476
vt 0.082737 0.258197
vt 0.082736 0.257831
vt 0.082719 0.257608
vt 0.488047 0.178016
vt 0.488021 0.177998
vt 0.487450 0.178016
vt 0.488043 0.178122
vt 0.487343 0.178021
vt 0.487345 0.178037
vt 0.487357 0.178200
vt 0.487944 0.178176
vt 0.488036 0.178168
vt 0.488016 0.178150
vt 0.487354 0.178177
vt 0.487346 0.178066
vt 0.488016 0.178837
vt 0.487994 0.178797
vt 0.487494 0.178838
vt 0.488014 0.178910
vt 0.487401 0.178849
vt 0.487404 0.178888
vt 0.487412 0.178999
vt 0.487927 0.178953
vt 0.488008 0.178936
vt 0.487990 0.178903
vt 0.487408 0.178953
vt 0.487403 0.178878
s 1
usemtl Material.006
f 2/1/1 1/2/2 7/3/3
f 1/2/4 2/1/4 3/4/4
f 1/2/4 3/4/4 4/5/4
f 1/2/5 4/5/5 5/6/5
f 1/2/5 5/6/5 6/7/5
f 1/8/6 6/9/6 7/10/6
f 8/11/7 10/12/8 7/3/9
f 8/11/10 7/3/11 9/13/12
f 6/9/6 9/14/6 7/10/6
f 2/1/13 7/3/14 10/12/15
f 11/15/16 10/12/17 8/11/18
f 13/16/19 2/1/20 10/12/21
f 11/15/22 12/17/23 10/12/24
f 13/16/25 10/12/26 12/17/27
f 13/16/5 14/18/5 15/19/5
f 14/20/6 13/21/6 12/22/6
f 13/16/5 15/19/5 16/23/5
f 2/1/28 13/16/28 16/23/28
f 2/1/28 16/23/28 3/4/28
f 14/18/29 17/24/29 15/19/29
f 17/24/30 18/25/30 19/26/30
f 14/18/29 18/25/29 17/24/29
f 17/24/30 19/26/30 20/27/30
f 19/26/5 21/28/5 20/27/5
f 23/29/31 22/30/31 21/28/31
f 19/26/5 23/29/5 21/28/5
f 25/31/32 24/32/33 23/29/34
f 23/29/31 24/32/31 22/30/31
f 26/33/6 25/34/6 23/35/6
f 26/33/6 23/35/6 19/36/6
f 29/37/6 26/33/6 27/38/6
f 28/39/35 27/40/36 26/41/37
f 28/39/38 26/41/39 19/26/40
f 29/37/6 25/34/6 26/33/6
f 30/42/41 25/31/42 29/43/43
f 31/44/44 30/42/45 29/43/46
f 32/45/6 31/46/6 29/37/6
f 32/45/6 29/37/6 27/38/6
f 33/47/47 34/48/48 32/49/49
f 33/47/50 32/49/51 27/40/52
f 32/49/53 34/48/53 35/50/53
f 31/44/54 32/49/54 36/51/54
f 32/49/53 35/50/53 36/51/53
f 31/44/54 36/51/54 37/52/54
f 38/53/55 31/44/55 37/52/55
f 38/53/55 37/52/55 39/54/55
f 40/55/56 38/53/56 39/54/56
f 40/55/56 39/54/56 41/56/56
f 42/57/54 40/55/54 41/56/54
f 42/57/54 41/56/54 43/58/54
f 44/59/57 42/57/58 43/58/59
f 44/59/57 43/58/59 45/60/60
f 46/61/61 44/59/62 45/60/63
f 46/61/61 45/60/63 47/62/64
f 46/61/5 47/62/5 48/63/5
f 46/61/5 48/63/5 49/64/5
f 22/30/65 49/64/65 48/63/65
f 50/65/6 46/66/6 49/67/6
f 51/68/66 50/69/67 49/64/68
f 51/68/69 49/64/70 24/32/71
f 22/30/65 24/32/65 49/64/65
f 52/70/72 51/68/73 30/42/74
f 30/42/75 51/68/76 25/31/77
f 25/31/78 51/68/79 24/32/80
f 52/70/81 50/69/82 51/68/83
f 44/71/6 50/65/6 52/72/6
f 40/73/6 44/71/6 52/72/6
f 38/53/84 40/55/85 52/70/86
f 38/53/87 52/70/88 30/42/89
f 44/71/6 46/66/6 50/65/6
f 40/73/6 42/74/6 44/71/6
f 31/44/90 38/53/91 30/42/92
f 34/48/93 53/75/93 35/50/93
f 54/76/54 55/77/54 53/75/54
f 34/48/93 54/76/93 53/75/93
f 57/78/94 56/79/94 55/77/94
f 54/76/54 57/78/54 55/77/54
f 57/80/6 54/81/6 58/82/6
f 57/80/6 58/82/6 11/83/6
f 59/84/95 57/78/96 11/15/97
f 57/78/94 59/84/94 56/79/94
f 59/84/98 60/85/98 61/86/98
f 60/85/99 59/84/100 8/11/101
f 59/84/102 11/15/103 8/11/104
f 59/84/98 61/86/98 56/79/98
f 60/85/54 62/87/54 61/86/54
f 63/88/105 62/87/106 64/89/106
f 60/85/54 64/89/54 62/87/54
f 63/88/105 64/89/106 65/90/107
f 65/91/6 64/92/6 60/93/6
f 5/6/108 63/88/105 65/90/107
f 5/6/108 65/90/107 6/7/108
f 6/9/6 65/91/6 9/14/6
f 65/91/6 60/93/6 9/14/6
f 60/85/109 8/11/110 9/13/111
f 33/47/112 66/94/113 58/95/114
f 58/82/6 66/96/6 12/22/6
f 58/82/6 12/22/6 11/83/6
f 54/76/115 33/47/116 58/95/117
f 14/20/6 12/22/6 66/96/6
f 28/39/118 14/18/119 66/94/120
f 33/47/121 28/39/122 66/94/123
f 54/76/124 34/48/125 33/47/126
f 28/39/127 33/47/128 27/40/129
f 28/39/38 19/26/40 18/25/130
f 28/39/118 18/25/131 14/18/119
f 15/19/132 17/24/132 20/27/132 21/28/132 22/30/132 48/63/132 47/62/132 45/60/133 43/58/134 41/56/132 39/54/132 37/52/132 36/51/132 35/50/132 53/75/132 55/77/132 56/79/132 61/86/132 62/87/132 63/88/135 5/6/132 4/5/132 3/4/132 16/23/132
f 71/97/136 67/97/136 68/97/136 73/97/136
f 67/97/137 69/97/137 92/97/137 68/97/137
f 70/97/138 89/97/138 69/97/138 67/97/138
f 74/97/139 70/97/139 67/97/139 71/97/139
f 76/97/140 74/97/140 71/97/140 72/97/140
f 72/97/141 71/97/141 73/97/141 100/97/141
f 75/97/142 161/97/142 70/97/142 74/97/142
f 77/97/143 75/97/143 74/97/143 76/97/143
f 79/97/144 77/97/144 76/97/144 78/97/144
f 78/97/145 76/97/145 72/97/145 80/97/145
f 82/97/146 79/97/146 78/97/146 81/97/146
f 81/97/147 78/97/147 80/97/147 83/97/147
f 85/97/148 82/97/148 81/97/148 84/97/148
f 84/97/149 81/97/149 83/97/149 86/97/149
f 88/97/150 85/97/150 84/97/150 87/97/150
f 87/97/151 84/97/151 86/97/151 90/97/151
f 160/97/152 88/97/152 87/97/152 89/97/152
f 89/97/153 87/97/153 90/97/153 69/97/153
f 69/97/154 90/97/154 91/97/154 92/97/154
f 90/97/155 86/97/155 94/97/155 91/97/155
f 92/97/156 91/97/156 93/97/156 116/97/156
f 91/97/157 94/97/157 95/97/157 93/97/157
f 86/97/158 83/97/158 96/97/158 94/97/158
f 94/97/159 96/97/159 97/97/159 95/97/159
f 83/97/160 80/97/160 98/97/160 96/97/160
f 96/97/161 98/97/161 99/97/161 97/97/161
f 80/97/162 72/97/162 100/97/162 98/97/162
f 98/97/163 100/97/163 101/97/163 99/97/163
f 100/97/164 73/97/164 102/97/164 101/97/164
f 99/97/165 101/97/165 103/97/165 104/97/165
f 101/97/166 102/97/166 106/97/166 103/97/166
f 104/97/167 103/97/167 105/97/167 123/97/167
f 103/97/168 106/97/168 108/97/168 105/97/168
f 102/97/169 162/97/169 107/97/169 106/97/169
f 106/97/170 107/97/170 110/97/170 108/97/170
f 105/97/157 108/97/157 109/97/157 126/97/157
f 108/97/159 110/97/159 111/97/159 109/97/159
f 110/97/161 112/97/161 113/97/161 111/97/161
f 107/97/171 115/97/171 112/97/171 110/97/171
f 112/97/172 114/97/172 138/97/172 113/97/172
f 115/97/165 117/97/165 114/97/165 112/97/165
f 116/97/167 93/97/167 117/97/167 115/97/167
f 162/97/173 116/97/173 115/97/173 107/97/173
f 93/97/168 95/97/168 118/97/168 117/97/168
f 117/97/166 118/97/166 119/97/166 114/97/166
f 95/97/170 97/97/170 120/97/170 118/97/170
f 118/97/169 120/97/169 121/97/169 119/97/169
f 97/97/171 99/97/171 104/97/171 120/97/171
f 120/97/173 104/97/173 123/97/173 121/97/173
f 119/97/174 121/97/174 122/97/174 139/97/174
f 121/97/175 123/97/175 124/97/175 122/97/175
f 123/97/156 105/97/156 126/97/156 124/97/156
f 122/97/176 124/97/176 125/97/176 141/97/176
f 124/97/154 126/97/154 127/97/154 125/97/154
f 126/97/155 109/97/155 129/97/155 127/97/155
f 125/97/153 127/97/153 128/97/153 144/97/153
f 127/97/151 129/97/151 130/97/151 128/97/151
f 129/97/149 131/97/149 132/97/149 130/97/149
f 109/97/158 111/97/158 131/97/158 129/97/158
f 131/97/147 133/97/147 134/97/147 132/97/147
f 111/97/160 113/97/160 133/97/160 131/97/160
f 133/97/177 135/97/177 136/97/177 134/97/177
f 113/97/178 138/97/178 135/97/178 133/97/178
f 135/97/179 137/97/179 140/97/179 136/97/179
f 138/97/180 139/97/180 137/97/180 135/97/180
f 114/97/181 119/97/181 139/97/181 138/97/181
f 139/97/182 122/97/182 141/97/182 137/97/182
f 137/97/183 141/97/183 142/97/183 140/97/183
f 141/97/184 125/97/184 144/97/184 142/97/184
f 140/97/185 142/97/185 143/97/185 157/97/185
f 142/97/186 144/97/186 145/97/186 143/97/186
f 144/97/152 128/97/152 147/97/152 145/97/152
f 143/97/187 145/97/187 146/97/187 159/97/187
f 145/97/188 147/97/188 148/97/188 146/97/188
f 147/97/189 149/97/189 150/97/189 148/97/189
f 128/97/150 130/97/150 149/97/150 147/97/150
f 149/97/190 151/97/190 152/97/190 150/97/190
f 130/97/148 132/97/148 151/97/148 149/97/148
f 151/97/191 153/97/191 154/97/191 152/97/191
f 132/97/146 134/97/146 153/97/146 151/97/146
f 153/97/192 155/97/192 156/97/192 154/97/192
f 134/97/193 136/97/193 155/97/193 153/97/193
f 155/97/194 157/97/194 158/97/194 156/97/194
f 136/97/195 140/97/195 157/97/195 155/97/195
f 157/97/196 143/97/196 159/97/196 158/97/196
f 156/97/189 158/97/189 85/97/189 88/97/189
f 158/97/190 159/97/190 82/97/190 85/97/190
f 159/97/191 146/97/191 79/97/191 82/97/191
f 154/97/188 156/97/188 88/97/188 160/97/188
f 152/97/187 154/97/187 160/97/187 161/97/187
f 161/97/197 160/97/197 89/97/197 70/97/197
f 150/97/196 152/97/196 161/97/196 75/97/196
f 148/97/194 150/97/194 75/97/194 77/97/194
f 146/97/192 148/97/192 77/97/192 79/97/192
f 68/97/198 92/97/198 116/97/198 162/97/198
f 73/97/199 68/97/199 162/97/199 102/97/199
f 163/98/200 164/99/200 165/100/200
f 167/101/201 164/99/201 163/98/201
f 163/98/200 165/100/200 166/102/200
f 166/102/6 168/103/6 163/98/6
f 163/98/6 168/103/6 167/101/6
f 169/104/6 168/103/6 166/102/6
f 170/105/6 168/103/6 169/104/6
f 167/101/6 168/103/6 170/105/6
f 169/104/202 171/106/202 170/105/202
f 170/105/203 171/106/203 172/107/203
f 170/105/203 172/107/203 167/101/203
f 171/106/132 173/108/132 165/100/132 164/99/132 172/107/132
f 167/101/201 172/107/201 164/99/201
f 169/104/202 173/108/202 171/106/202
f 166/102/204 165/100/204 173/108/204
f 166/102/204 173/108/204 169/104/204
f 186/98/200 187/99/200 188/100/200
f 190/101/201 187/99/201 186/98/201
f 186/98/200 188/100/200 189/102/200
f 189/102/6 191/103/6 186/98/6
f 186/98/6 191/103/6 190/101/6
f 192/104/6 191/103/6 189/102/6
f 193/105/6 191/103/6 192/104/6
f 190/101/6 191/103/6 193/105/6
f 192/104/202 194/106/202 193/105/202
f 193/105/203 194/106/203 195/107/203
f 193/105/203 195/107/203 190/101/203
f 194/106/132 196/108/132 188/100/132 187/99/132 195/107/132
f 190/101/201 195/107/201 187/99/201
f 192/104/202 196/108/202 194/106/202
f 189/102/204 188/100/204 196/108/204
f 189/102/204 196/108/204 192/104/204
f 197/109/205 198/110/205 199/111/205
f 201/112/206 198/110/206 197/109/206
f 197/109/205 199/111/205 200/113/205
f 200/113/6 202/114/6 197/109/6
f 197/109/6 202/114/6 201/112/6
f 203/115/6 202/114/6 200/113/6
f 204/116/6 202/114/6 203/115/6
f 201/112/6 202/114/6 204/116/6
f 203/115/207 205/117/207 204/116/207
f 204/116/208 205/117/208 206/118/208
f 204/116/208 206/118/208 201/112/208
f 205/117/132 207/119/132 199/111/132 198/110/132 206/118/132
f 201/112/206 206/118/206 198/110/206
f 203/115/207 207/119/207 205/117/207
f 200/113/209 199/111/209 207/119/209
f 200/113/209 207/119/209 203/115/209
f 208/98/210 209/99/210 210/100/210
f 212/101/211 209/99/211 208/98/211
f 208/98/210 210/100/210 211/102/210
f 211/102/6 213/103/6 208/98/6
f 208/98/6 213/103/6 212/101/6
f 214/104/6 213/103/6 211/102/6
f 215/105/6 213/103/6 214/104/6
f 212/101/6 213/103/6 215/105/6
f 214/104/212 216/106/212 215/105/212
f 215/105/213 216/106/213 217/107/213
f 215/105/213 217/107/213 212/101/213
f 216/106/132 218/108/132 210/100/132 209/99/132 217/107/132
f 212/101/211 217/107/211 209/99/211
f 214/104/212 218/108/212 216/106/212
f 211/102/214 210/100/214 218/108/214
f 211/102/214 218/108/214 214/104/214
f 219/98/215 220/99/215 221/100/215
f 223/101/216 220/99/216 219/98/216
f 219/98/215 221/100/215 222/102/215
f 222/102/6 224/103/6 219/98/6
f 219/98/6 224/103/6 223/101/6
f 225/104/6 224/103/6 222/102/6
f 226/105/6 224/103/6 225/104/6
f 223/101/6 224/103/6 226/105/6
f 225/104/217 227/106/217 226/105/217
f 226/105/203 227/106/203 228/107/203
f 226/105/203 228/107/203 223/101/203
f 227/106/132 229/108/132 221/100/132 220/99/132 228/107/132
f 223/101/216 228/107/216 220/99/216
f 225/104/217 229/108/217 227/106/217
f 222/102/204 221/100/204 229/108/204
f 222/102/204 229/108/204 225/104/204
f 230/120/218 231/121/219 232/122/220
f 234/123/221 231/121/222 230/120/223
f 230/120/218 232/122/220 233/124/224
f 233/124/132 235/125/132 230/120/132
f 230/120/132 236/126/132 234/123/132
f 230/120/132 235/125/132 236/126/132
f 234/123/132 236/126/132 237/127/132
f 236/126/225 239/128/226 237/127/226
f 235/125/227 238/129/228 236/126/229
f 236/126/225 238/129/230 239/128/226
f 241/130/231 240/131/232 239/128/233
f 237/127/234 239/128/235 240/131/236
f 241/130/231 239/128/233 242/132/232
f 242/132/237 239/128/237 238/129/237
f 244/133/238 241/130/239 242/132/240
f 242/132/237 238/129/237 243/134/237
f 245/135/241 242/132/241 243/134/241
f 244/133/238 242/132/240 245/135/239
f 246/136/242 244/133/243 245/135/244
f 246/136/242 245/135/244 247/137/243
f 247/137/245 245/135/245 248/138/245
f 245/135/241 243/134/241 248/138/241
f 247/137/245 248/138/245 234/123/245
f 234/123/221 248/138/246 231/121/222
f 248/138/247 249/139/248 231/121/249
f 248/138/247 243/134/250 249/139/248
f 249/139/251 250/140/252 251/141/253
f 243/134/254 250/140/255 249/139/256
f 249/139/257 251/141/258 252/142/252
f 231/121/259 249/139/260 252/142/261
f 252/142/262 251/141/262 253/143/262
f 252/142/262 253/143/262 254/144/262
f 232/122/263 252/142/263 254/144/263
f 231/121/264 252/142/265 232/122/266
f 254/144/267 253/143/268 255/145/269
f 254/144/270 255/145/271 256/146/272
f 257/147/273 254/144/274 256/146/275
f 232/122/263 254/144/263 257/147/263
f 233/124/276 232/122/276 257/147/276
f 233/124/276 257/147/276 258/148/276
f 258/148/277 257/147/278 259/149/279
f 257/147/280 256/146/281 259/149/282
f 258/148/283 259/149/284 260/150/285
f 260/150/286 259/149/287 261/151/288
f 259/149/289 262/152/290 261/151/291
f 259/149/292 256/146/293 262/152/294
f 256/146/295 263/153/296 262/152/297
f 262/152/298 263/153/299 240/131/300
f 262/152/298 240/131/300 241/130/301
f 261/151/302 262/152/303 241/130/304
f 256/146/305 255/145/306 263/153/307
f 264/154/308 263/153/309 255/145/310
f 265/155/311 240/131/312 263/153/313
f 265/155/311 263/153/313 264/154/314
f 246/136/132 265/155/132 264/154/132
f 247/137/132 265/155/132 246/136/132
f 247/137/132 237/127/132 265/155/132
f 237/127/234 240/131/236 265/155/315
f 266/156/132 264/154/132 267/157/132
f 246/136/132 264/154/132 266/156/132
f 264/154/316 255/145/317 267/157/309
f 260/150/132 267/157/132 268/158/132
f 266/156/132 267/157/132 260/150/132
f 267/157/318 253/143/319 268/158/320
f 267/157/321 255/145/320 253/143/322
f 258/148/132 268/158/132 269/159/132
f 260/150/132 268/158/132 258/148/132
f 268/158/323 251/141/323 269/159/323
f 268/158/323 253/143/324 251/141/323
f 233/124/132 269/159/132 235/125/132
f 258/148/132 269/159/132 233/124/132
f 269/159/325 250/140/326 235/125/327
f 269/159/328 251/141/327 250/140/329
f 260/150/286 261/151/288 266/156/330
f 266/156/331 261/151/332 244/133/333
f 266/156/331 244/133/333 246/136/334
f 261/151/302 241/130/304 244/133/303
f 243/134/335 238/129/256 250/140/336
f 235/125/227 250/140/337 238/129/228
f 234/123/132 237/127/132 247/137/132
f 294/98/215 295/99/215 296/100/215
f 298/101/216 295/99/216 294/98/216
f 294/98/215 296/100/215 297/102/215
f 297/102/6 299/103/6 294/98/6
f 294/98/6 299/103/6 298/101/6
f 300/104/6 299/103/6 297/102/6
f 301/105/6 299/103/6 300/104/6
f 298/101/6 299/103/6 301/105/6
f 300/104/217 302/106/217 301/105/217
f 301/105/203 302/106/203 303/107/203
f 301/105/203 303/107/203 298/101/203
f 302/106/132 304/108/132 296/100/132 295/99/132 303/107/132
f 298/101/216 303/107/216 295/99/216
f 300/104/217 304/108/217 302/106/217
f 297/102/204 296/100/204 304/108/204
f 297/102/204 304/108/204 300/104/204
f 305/109/205 306/110/205 307/111/205
f 309/112/206 306/110/206 305/109/206
f 305/109/205 307/111/205 308/113/205
f 308/113/6 310/114/6 305/109/6
f 305/109/6 310/114/6 309/112/6
f 311/115/6 310/114/6 308/113/6
f 312/116/6 310/114/6 311/115/6
f 309/112/6 310/114/6 312/116/6
f 311/115/207 313/117/207 312/116/207
f 312/116/208 313/117/208 314/118/208
f 312/116/208 314/118/208 309/112/208
f 313/117/132 315/119/132 307/111/132 306/110/132 314/118/132
f 309/112/206 314/118/206 306/110/206
f 311/115/207 315/119/207 313/117/207
f 308/113/209 307/111/209 315/119/209
f 308/113/209 315/119/209 311/115/209
f 316/98/210 317/99/210 318/100/210
f 320/101/211 317/99/211 316/98/211
f 316/98/210 318/100/210 319/102/210
f 319/102/6 321/103/6 316/98/6
f 316/98/6 321/103/6 320/101/6
f 322/104/6 321/103/6 319/102/6
f 323/105/6 321/103/6 322/104/6
f 320/101/6 321/103/6 323/105/6
f 322/104/212 324/106/212 323/105/212
f 323/105/213 324/106/213 325/107/213
f 323/105/213 325/107/213 320/101/213
f 324/106/132 326/108/132 318/100/132 317/99/132 325/107/132
f 320/101/211 325/107/211 317/99/211
f 322/104/212 326/108/212 324/106/212
f 319/102/214 318/100/214 326/108/214
f 319/102/214 326/108/214 322/104/214
f 327/109/338 328/110/338 329/111/338
f 331/112/339 328/110/339 327/109/339
f 327/109/338 329/111/338 330/113/338
f 330/113/6 332/114/6 327/109/6
f 327/109/6 332/114/6 331/112/6
f 333/115/6 332/114/6 330/113/6
f 334/116/6 332/114/6 333/115/6
f 331/112/6 332/114/6 334/116/6
f 333/115/340 335/117/340 334/116/340
f 334/116/341 335/117/341 336/118/341
f 334/116/341 336/118/341 331/112/341
f 335/117/132 337/119/132 329/111/132 328/110/132 336/118/132
f 331/112/339 336/118/339 328/110/339
f 333/115/340 337/119/340 335/117/340
f 330/113/342 329/111/342 337/119/342
f 330/113/342 337/119/342 333/115/342
f 342/97/343 338/97/343 339/97/343 344/97/343
f 338/97/344 340/97/344 363/97/344 339/97/344
f 341/97/345 360/97/345 340/97/345 338/97/345
f 345/97/346 341/97/346 338/97/346 342/97/346
f 347/97/347 345/97/347 342/97/347 343/97/347
f 343/97/348 342/97/348 344/97/348 371/97/348
f 346/97/161 432/97/161 341/97/161 345/97/161
f 348/97/349 346/97/349 345/97/349 347/97/349
f 350/97/164 348/97/164 347/97/164 349/97/164
f 349/97/141 347/97/141 343/97/141 351/97/141
f 353/97/174 350/97/174 349/97/174 352/97/174
f 352/97/136 349/97/136 351/97/136 354/97/136
f 356/97/175 353/97/175 352/97/175 355/97/175
f 355/97/137 352/97/137 354/97/137 357/97/137
f 359/97/156 356/97/156 355/97/156 358/97/156
f 358/97/154 355/97/154 357/97/154 361/97/154
f 431/97/157 359/97/157 358/97/157 360/97/157
f 360/97/155 358/97/155 361/97/155 340/97/155
f 340/97/151 361/97/151 362/97/151 363/97/151
f 361/97/153 357/97/153 365/97/153 362/97/153
f 363/97/150 362/97/150 364/97/150 387/97/150
f 362/97/152 365/97/152 366/97/152 364/97/152
f 357/97/138 354/97/138 367/97/138 365/97/138
f 365/97/186 367/97/186 368/97/186 366/97/186
f 354/97/139 351/97/139 369/97/139 367/97/139
f 367/97/185 369/97/185 370/97/185 368/97/185
f 351/97/140 343/97/140 371/97/140 369/97/140
f 369/97/143 371/97/143 372/97/143 370/97/143
f 371/97/144 344/97/144 373/97/144 372/97/144
f 370/97/194 372/97/194 374/97/194 375/97/194
f 372/97/192 373/97/192 377/97/192 374/97/192
f 375/97/189 374/97/189 376/97/189 394/97/189
f 374/97/188 377/97/188 379/97/188 376/97/188
f 373/97/191 433/97/191 378/97/191 377/97/191
f 377/97/187 378/97/187 381/97/187 379/97/187
f 376/97/152 379/97/152 380/97/152 397/97/152
f 379/97/186 381/97/186 382/97/186 380/97/186
f 381/97/185 383/97/185 384/97/185 382/97/185
f 378/97/196 386/97/196 383/97/196 381/97/196
f 383/97/195 385/97/195 409/97/195 384/97/195
f 386/97/194 388/97/194 385/97/194 383/97/194
f 387/97/189 364/97/189 388/97/189 386/97/189
f 433/97/190 387/97/190 386/97/190 378/97/190
f 364/97/188 366/97/188 389/97/188 388/97/188
f 388/97/192 389/97/192 390/97/192 385/97/192
f 366/97/187 368/97/187 391/97/187 389/97/187
f 389/97/191 391/97/191 392/97/191 390/97/191
f 368/97/196 370/97/196 375/97/196 391/97/196
f 391/97/190 375/97/190 394/97/190 392/97/190
f 390/97/146 392/97/146 393/97/146 410/97/146
f 392/97/148 394/97/148 395/97/148 393/97/148
f 394/97/150 376/97/150 397/97/150 395/97/150
f 393/97/344 395/97/344 396/97/344 412/97/344
f 395/97/151 397/97/151 398/97/151 396/97/151
f 397/97/153 380/97/153 400/97/153 398/97/153
f 396/97/155 398/97/155 399/97/155 415/97/155
f 398/97/154 400/97/154 401/97/154 399/97/154
f 400/97/137 402/97/137 403/97/137 401/97/137
f 380/97/138 382/97/138 402/97/138 400/97/138
f 402/97/136 404/97/136 405/97/136 403/97/136
f 382/97/139 384/97/139 404/97/139 402/97/139
f 404/97/350 406/97/350 407/97/350 405/97/350
f 384/97/351 409/97/351 406/97/351 404/97/351
f 406/97/162 408/97/162 411/97/162 407/97/162
f 409/97/145 410/97/145 408/97/145 406/97/145
f 385/97/193 390/97/193 410/97/193 409/97/193
f 410/97/343 393/97/343 412/97/343 408/97/343
f 408/97/346 412/97/346 413/97/346 411/97/346
f 412/97/345 396/97/345 415/97/345 413/97/345
f 411/97/161 413/97/161 414/97/161 428/97/161
f 413/97/159 415/97/159 416/97/159 414/97/159
f 415/97/157 399/97/157 418/97/157 416/97/157
f 414/97/170 416/97/170 417/97/170 430/97/170
f 416/97/168 418/97/168 419/97/168 417/97/168
f 418/97/167 420/97/167 421/97/167 419/97/167
f 399/97/156 401/97/156 420/97/156 418/97/156
f 420/97/173 422/97/173 423/97/173 421/97/173
f 401/97/175 403/97/175 422/97/175 420/97/175
f 422/97/169 424/97/169 425/97/169 423/97/169
f 403/97/174 405/97/174 424/97/174 422/97/174
f 424/97/166 426/97/166 427/97/166 425/97/166
f 405/97/181 407/97/181 426/97/181 424/97/181
f 426/97/165 428/97/165 429/97/165 427/97/165
f 407/97/172 411/97/172 428/97/172 426/97/172
f 428/97/171 414/97/171 430/97/171 429/97/171
f 427/97/167 429/97/167 356/97/167 359/97/167
f 429/97/173 430/97/173 353/97/173 356/97/173
f 430/97/169 417/97/169 350/97/169 353/97/169
f 425/97/168 427/97/168 359/97/168 431/97/168
f 423/97/170 425/97/170 431/97/170 432/97/170
f 432/97/159 431/97/159 360/97/159 341/97/159
f 421/97/171 423/97/171 432/97/171 346/97/171
f 419/97/165 421/97/165 346/97/165 348/97/165
f 417/97/166 419/97/166 348/97/166 350/97/166
f 339/97/148 363/97/148 387/97/148 433/97/148
f 344/97/146 339/97/146 433/97/146 373/97/146
f 434/120/352 435/121/353 436/122/354
f 438/123/355 435/121/356 434/120/357
f 434/120/352 436/122/354 437/124/353
f 437/124/6 439/125/6 434/120/6
f 434/120/6 440/126/6 438/123/6
f 434/120/6 439/125/6 440/126/6
f 438/123/6 440/126/6 441/127/6
f 440/126/358 443/128/359 441/127/359
f 439/125/360 442/129/361 440/126/362
f 440/126/358 442/129/358 443/128/359
f 445/130/363 444/131/364 443/128/365
f 441/127/366 443/128/367 444/131/368
f 445/130/363 443/128/365 446/132/369
f 446/132/370 443/128/370 442/129/370
f 448/133/371 445/130/372 446/132/373
f 446/132/370 442/129/370 447/134/370
f 449/135/374 446/132/374 447/134/374
f 448/133/371 446/132/373 449/135/375
f 450/136/376 448/133/377 449/135/378
f 450/136/376 449/135/378 451/137/379
f 451/137/380 449/135/380 452/138/380
f 449/135/374 447/134/374 452/138/374
f 451/137/380 452/138/380 438/123/380
f 438/123/355 452/138/381 435/121/356
f 452/138/382 453/139/383 435/121/384
f 452/138/382 447/134/385 453/139/383
f 453/139/386 454/140/387 455/141/388
f 447/134/389 454/140/390 453/139/391
f 453/139/392 455/141/393 456/142/394
f 435/121/395 453/139/396 456/142/397
f 456/142/398 455/141/398 457/143/398
f 456/142/398 457/143/398 458/144/398
f 436/122/399 456/142/399 458/144/399
f 435/121/400 456/142/401 436/122/396
f 458/144/402 457/143/403 459/145/404
f 458/144/405 459/145/406 460/146/407
f 461/147/408 458/144/409 460/146/410
f 436/122/399 458/144/399 461/147/399
f 437/124/411 436/122/411 461/147/411
f 437/124/411 461/147/411 462/148/411
f 462/148/412 461/147/413 463/149/414
f 461/147/415 460/146/416 463/149/417
f 462/148/418 463/149/419 464/150/420
f 464/150/421 463/149/422 465/151/423
f 463/149/424 466/152/425 465/151/426
f 463/149/427 460/146/428 466/152/429
f 460/146/430 467/153/431 466/152/432
f 466/152/433 467/153/434 444/131/435
f 466/152/433 444/131/435 445/130/434
f 465/151/436 466/152/437 445/130/438
f 460/146/439 459/145/440 467/153/441
f 468/154/442 467/153/443 459/145/444
f 469/155/445 444/131/446 467/153/447
f 469/155/445 467/153/447 468/154/448
f 450/136/6 469/155/6 468/154/6
f 451/137/6 469/155/6 450/136/6
f 451/137/6 441/127/6 469/155/6
f 441/127/366 444/131/368 469/155/367
f 470/156/6 468/154/6 471/157/6
f 450/136/6 468/154/6 470/156/6
f 468/154/449 459/145/450 471/157/443
f 464/150/6 471/157/6 472/158/6
f 470/156/6 471/157/6 464/150/6
f 471/157/451 457/143/452 472/158/453
f 471/157/454 459/145/453 457/143/455
f 462/148/6 472/158/6 473/159/6
f 464/150/6 472/158/6 462/148/6
f 472/158/456 455/141/456 473/159/456
f 472/158/456 457/143/456 455/141/456
f 437/124/6 473/159/6 439/125/6
f 462/148/6 473/159/6 437/124/6
f 473/159/457 454/140/458 439/125/459
f 473/159/460 455/141/459 454/140/461
f 464/150/421 465/151/423 470/156/462
f 470/156/463 465/151/464 448/133/465
f 470/156/463 448/133/465 450/136/466
f 465/151/436 445/130/438 448/133/437
f 447/134/467 442/129/468 454/140/469
f 439/125/360 454/140/470 442/129/361
f 438/123/6 441/127/6 451/137/6
usemtl Material.007
f 174/160/471 175/161/471 176/162/471
f 175/161/472 174/160/472 179/163/472
f 176/162/471 177/164/471 174/160/471
f 177/164/471 178/165/471 174/160/471
f 174/160/6 178/165/6 180/166/6
f 181/167/6 179/163/6 174/160/6
f 180/166/6 181/167/6 174/160/6
f 182/168/473 181/167/473 180/166/473
f 182/168/474 179/163/474 181/167/474
f 183/169/473 182/168/473 180/166/473
f 179/163/472 182/168/472 183/169/472
f 184/170/475 185/171/475 177/164/475 176/162/475 175/161/475 183/169/475
f 180/166/473 184/170/473 183/169/473
f 183/169/472 175/161/472 179/163/472
f 185/171/476 184/170/476 180/166/476
f 180/166/476 178/165/476 185/171/476
f 178/165/476 177/164/477 185/171/476
f 270/160/471 271/161/471 272/162/471
f 271/161/472 270/160/472 275/163/472
f 272/162/471 273/164/471 270/160/471
f 273/164/471 274/165/471 270/160/471
f 270/160/6 274/165/6 276/166/6
f 277/167/6 275/163/6 270/160/6
f 276/166/6 277/167/6 270/160/6
f 278/168/473 277/167/473 276/166/473
f 278/168/474 275/163/474 277/167/474
f 279/169/473 278/168/473 276/166/473
f 275/163/472 278/168/472 279/169/472
f 280/170/475 281/171/475 273/164/475 272/162/475 271/161/475 279/169/475
f 276/166/473 280/170/473 279/169/473
f 279/169/472 271/161/472 275/163/472
f 281/171/476 280/170/476 276/166/476
f 276/166/476 274/165/476 281/171/476
f 274/165/476 273/164/476 281/171/476
f 282/172/5 283/173/5 284/174/5
f 283/173/204 282/172/204 287/175/204
f 284/174/5 285/176/5 282/172/5
f 285/176/5 286/177/5 282/172/5
f 282/172/6 286/177/6 288/178/6
f 289/179/6 287/175/6 282/172/6
f 288/178/6 289/179/6 282/172/6
f 290/180/54 289/179/54 288/178/54
f 290/180/478 287/175/478 289/179/478
f 291/181/54 290/180/54 288/178/54
f 287/175/204 290/180/204 291/181/204
f 292/182/479 293/183/479 285/176/479 284/174/479 283/173/479 291/181/479
f 288/178/54 292/182/54 291/181/54
f 291/181/204 283/173/204 287/175/204
f 293/183/214 292/182/214 288/178/214
f 288/178/214 286/177/214 293/183/214
f 286/177/214 285/176/214 293/183/214
