# Blender 5.2.0 LTS
# www.blender.org
mtllib wall.mtl
o wall
v 2.327242 0.000000 0.000000
v 2.365382 0.780371 -0.000000
v 2.531413 0.000000 0.000000
v 2.336505 0.297753 -0.000000
v 2.327242 0.000000 0.167276
v 2.339791 2.483207 0.103232
v 2.339791 0.748831 -0.000000
v 2.336505 2.194687 0.152789
v 2.368719 2.496054 0.147650
v 2.486786 1.285540 0.147650
v 2.522150 0.960660 0.152789
v 2.531413 0.000000 0.167276
v 2.518864 1.300494 0.107605
v 2.518864 2.028471 -0.000000
v 2.518864 1.585406 0.147650
v 2.527797 3.252779 0.161624
v 2.330858 3.252779 -0.000000
v 2.527797 3.252779 -0.000000
v 2.330858 3.252779 0.161624
v 2.339791 2.862487 0.147650
v 2.518864 2.297425 -0.000000
v 2.495607 2.026527 -0.000000
v 2.522150 1.664494 -0.000000
v 2.339791 1.184236 -0.000000
v -1.732543 2.572189 -0.000000
v 1.798159 2.572189 -0.000000
v -1.732543 0.666393 0.052500
v -1.732543 2.572189 0.052500
v -1.732543 0.666393 -0.000000
v -2.349579 2.572189 -0.000001
v -2.349579 2.572189 0.052500
v -2.349579 0.666393 0.052500
v 1.798157 2.572189 0.052500
v 1.798159 0.666393 0.052500
v 2.403292 2.572189 -0.000000
v 2.403292 2.572189 0.052500
v 2.403292 0.666393 0.052500
v 1.798157 0.666393 -0.000000
v 0.314918 1.087374 0.111258
v 0.264216 2.054556 0.111258
v 0.264216 0.759595 0.111258
v 0.331477 0.759595 0.111258
v 0.331477 0.838034 0.111258
v 0.331477 2.054556 0.111258
v 0.331477 1.495235 0.111258
v 0.331477 1.073611 0.053822
v 0.331477 0.759595 -0.000000
v 0.331477 2.054556 -0.000000
v 0.264216 2.054556 -0.000000
v 0.264216 0.759595 -0.000000
v -0.767522 0.652153 0.112179
v -1.416523 0.763726 0.112178
v -2.366127 0.652153 0.112178
v -0.996155 0.810622 0.112179
v -0.767522 0.810622 0.112179
v -0.767522 0.652153 -0.000000
v -0.767522 0.810622 -0.000000
v -2.366127 0.652153 -0.000000
v -2.366127 0.810622 -0.000000
v -2.366127 0.810622 0.112178
v -2.140921 0.810622 -0.000000
v -1.904041 0.810622 -0.000000
v -1.397731 0.810622 0.076661
v -1.705655 0.810622 -0.000000
v -1.615281 0.810622 0.112178
v 0.831084 0.652153 0.112179
v 0.182082 0.763726 0.112179
v -0.767522 0.652153 0.112179
v 0.602451 0.810622 0.112179
v 0.831084 0.810622 0.112179
v 0.831084 0.652153 -0.000000
v 0.831084 0.810622 -0.000000
v -0.767522 0.652153 -0.000000
v -0.767522 0.810622 -0.000000
v -0.767522 0.810622 0.112179
v -0.542315 0.810622 -0.000000
v -0.305435 0.810622 -0.000000
v 0.200874 0.810622 0.076661
v -0.107049 0.810622 -0.000000
v -0.016675 0.810622 0.112179
v 2.429689 0.652153 0.112179
v 1.780687 0.763726 0.112179
v 0.831084 0.652153 0.112179
v 2.201056 0.810622 0.112179
v 2.429689 0.810622 0.112179
v 2.429689 0.652153 -0.000000
v 2.429689 0.810622 -0.000000
v 0.831084 0.652153 -0.000000
v 0.831084 0.810622 -0.000000
v 0.831084 0.810622 0.112179
v 1.056290 0.810622 -0.000000
v 1.293170 0.810622 -0.000000
v 1.799479 0.810622 0.076661
v 1.491556 0.810622 -0.000000
v 1.581930 0.810622 0.112179
v -0.169688 0.759595 0.111259
v -0.236950 1.235492 0.111259
v -0.236950 0.759595 0.111259
v -0.217096 1.417208 0.111260
v -0.169688 2.054556 0.111260
v -0.236950 0.759595 -0.000000
v -0.169688 0.759595 -0.000000
v -0.169688 1.504432 -0.000000
v -0.169688 1.215342 -0.000000
v -0.169688 2.054556 -0.000000
v -0.169688 1.747378 -0.000000
v -0.236950 2.054556 0.111260
v -0.236950 2.054556 -0.000000
v -0.236950 1.446861 0.067558
v -0.236950 1.717129 0.111259
v -0.768221 2.122312 0.128621
v -0.768221 1.963844 -0.000000
v -0.768221 2.122312 -0.000000
v -0.768221 1.963844 0.128621
v -1.481390 1.963844 0.128621
v -1.642347 2.021446 0.128621
v -2.241131 2.122312 0.128621
v -2.366827 2.122312 0.066753
v -2.366827 2.060708 0.128621
v -2.366827 2.122312 -0.000001
v -2.366827 1.963844 -0.000000
v -2.366827 1.963844 0.128621
v -1.672490 1.963844 0.069362
v -1.629172 1.963844 -0.000000
v -1.330895 1.963844 -0.000000
v -1.189144 1.963844 -0.000000
v -1.864630 1.963844 0.128621
v 0.830384 2.122312 0.128621
v 0.830384 1.963844 -0.000000
v 0.830384 2.122312 -0.000000
v 0.830384 1.963844 0.128621
v 0.117215 1.963844 0.128621
v -0.043742 2.021446 0.128621
v -0.642526 2.122312 0.128621
v -0.768221 2.122312 0.066753
v -0.768221 2.060708 0.128621
v -0.768221 2.122312 -0.000000
v -0.768221 1.963844 -0.000000
v -0.768221 1.963844 0.128621
v -0.073884 1.963844 0.069362
v -0.030566 1.963844 -0.000000
v 0.267710 1.963844 -0.000000
v 0.409461 1.963844 -0.000000
v -0.266025 1.963844 0.128621
v 2.428989 2.122312 0.128622
v 2.428989 1.963844 -0.000000
v 2.428989 2.122312 -0.000000
v 2.428989 1.963844 0.128622
v 1.715821 1.963844 0.128621
v 1.554863 2.021446 0.128621
v 0.956079 2.122312 0.128621
v 0.830384 2.122312 0.066753
v 0.830384 2.060708 0.128621
v 0.830384 2.122312 -0.000000
v 0.830384 1.963844 -0.000000
v 0.830384 1.963844 0.128621
v 1.524721 1.963844 0.069362
v 1.568039 1.963844 -0.000000
v 1.866315 1.963844 -0.000000
v 2.008066 1.963844 -0.000000
v 1.332580 1.963844 0.128621
v -2.366500 2.498657 0.107629
v -2.366500 2.498657 -0.000001
v -2.366500 2.498657 0.007629
v -2.366500 2.716632 -0.000001
v -2.366500 3.037845 -0.000001
v -1.890000 2.498657 0.028820
v -2.134054 2.498657 0.107629
v -1.884049 2.593719 0.107629
v -2.366500 3.255820 0.107629
v -2.366500 3.255820 -0.000001
v -0.767891 3.255820 0.107629
v -0.767891 3.255820 -0.000000
v -0.767891 3.037845 -0.000000
v 0.830718 3.255820 -0.000000
v 0.830718 3.037845 -0.000000
v 0.830718 3.255820 0.107629
v 2.429327 3.255820 -0.000000
v 2.429327 3.037845 -0.000000
v 2.429327 3.255820 0.107629
v 2.429327 2.498657 0.107629
v 1.856845 2.498657 0.107629
v 1.313170 2.593719 0.107629
v 0.830718 2.498657 0.107629
v 1.063164 2.498657 0.107629
v 1.307220 2.498657 0.028821
v 2.429327 2.498657 -0.000000
v 0.830718 2.498657 -0.000000
v 0.830718 2.498657 0.007629
v 0.830718 2.716632 -0.000000
v -0.291391 2.498657 0.028820
v -0.767891 2.498657 -0.000000
v 0.258236 2.498657 0.107629
v -0.285440 2.593719 0.107629
v -0.767891 2.498657 0.107629
v -0.535445 2.498657 0.107629
v -0.767891 2.716632 -0.000000
v -1.340373 2.498657 0.107629
v -0.767891 2.498657 0.007629
v 2.429327 2.716632 -0.000000
v -0.869977 0.000000 0.000000
v -0.831837 0.600285 -0.000000
v -0.665806 0.000000 0.000000
v -0.860714 0.229041 -0.000000
v -0.869977 0.000000 0.167275
v -0.857428 1.910159 0.103231
v -0.857428 0.576024 -0.000000
v -0.860714 1.688221 0.152789
v -0.828500 1.920042 0.147649
v -0.710432 0.988877 0.147649
v -0.675068 0.738969 0.152789
v -0.665806 0.000000 0.167275
v -0.678355 1.000380 0.107604
v -0.678355 1.560362 -0.000000
v -0.678355 1.219543 0.147649
v -0.669421 2.502138 0.161624
v -0.866361 2.502138 -0.000000
v -0.669421 2.502138 -0.000000
v -0.866361 2.502138 0.161624
v -0.857428 2.201913 0.147649
v -0.678355 1.767250 -0.000000
v -0.701612 1.558867 -0.000000
v -0.675068 1.280380 -0.000000
v -0.857428 0.910951 -0.000000
v -2.366501 0.158468 0.128621
v -1.971885 0.158468 0.128621
v -2.366501 0.158468 -0.000000
v -1.873921 0.094800 0.128621
v -2.366501 0.000000 0.128621
v -0.767892 0.000000 0.128621
v -2.366501 0.000000 0.000000
v -0.767892 0.000000 0.000000
v -0.767892 0.158468 -0.000000
v 0.830717 0.000000 0.000000
v -0.767892 0.158468 0.128621
v -0.275311 0.094800 0.128621
v -0.373277 0.158468 0.128621
v -1.524915 0.158468 0.128621
v -1.304708 0.158468 -0.000000
v -1.878316 0.158468 0.094706
v -1.213568 0.158468 -0.000000
v -1.792041 0.158468 -0.000000
v -0.279706 0.158468 0.094706
v 0.293901 0.158468 -0.000000
v 0.073694 0.158468 0.128621
v 0.830717 0.158468 0.128621
v 0.830717 0.158468 -0.000000
v 0.830717 0.000000 0.128621
v 1.323298 0.094800 0.128621
v 1.225334 0.158468 0.128621
v 1.318903 0.158468 0.094706
v 1.892511 0.158468 -0.000000
v 1.672304 0.158468 0.128621
v 2.429326 0.158468 0.128621
v 2.429326 0.000000 0.128621
v 2.429326 0.000000 0.000000
v 2.429326 0.158468 -0.000000
v 1.983650 0.158468 -0.000000
v 1.405177 0.158468 -0.000000
v 0.385040 0.158468 -0.000000
v -0.193433 0.158468 -0.000000
v 0.728632 0.000000 0.000000
v 0.766772 0.600285 -0.000000
v 0.932804 0.000000 0.000000
v 0.737896 0.229041 -0.000000
v 0.728632 0.000000 0.167275
v 0.741182 1.910159 0.103231
v 0.741182 0.576024 -0.000000
v 0.737896 1.688221 0.152789
v 0.770110 1.920042 0.147650
v 0.888177 0.988877 0.147650
v 0.923540 0.738969 0.152789
v 0.932804 0.000000 0.167275
v 0.920255 1.000380 0.107604
v 0.920255 1.560362 -0.000000
v 0.920255 1.219543 0.147650
v 0.929188 2.502138 0.161624
v 0.732248 2.502138 -0.000000
v 0.929188 2.502138 -0.000000
v 0.732248 2.502138 0.161624
v 0.741182 2.201913 0.147650
v 0.920255 1.767250 -0.000000
v 0.896998 1.558867 -0.000000
v 0.923540 1.280380 -0.000000
v 0.741182 0.910951 -0.000000
v -2.468587 0.000000 0.000000
v -2.430446 0.780371 -0.000000
v -2.264415 0.000000 0.000000
v -2.459323 0.297753 -0.000000
v -2.468587 0.000000 0.167275
v -2.456037 2.483207 0.103231
v -2.456037 0.748831 -0.000000
v -2.459323 2.194687 0.152788
v -2.427109 2.496054 0.147649
v -2.309042 1.285540 0.147649
v -2.273678 0.960660 0.152788
v -2.264415 0.000000 0.167275
v -2.276964 1.300494 0.107604
v -2.276964 2.028471 -0.000000
v -2.276964 1.585406 0.147649
v -2.268031 3.252779 0.161623
v -2.464971 3.252779 -0.000001
v -2.268031 3.252779 -0.000001
v -2.464971 3.252779 0.161623
v -2.456037 2.862487 0.147649
v -2.276964 2.297425 -0.000001
v -2.300222 2.026527 -0.000000
v -2.273678 1.664494 -0.000000
v -2.456037 1.184236 -0.000000
v 2.434506 0.747610 0.063213
v 2.434506 0.747610 -0.000000
v -2.403200 0.747610 -0.000000
v -2.403200 0.747610 0.063215
v 2.434506 0.047343 -0.000000
v 2.434506 0.047343 0.063213
v -2.403200 0.047343 0.063215
v -2.403200 0.047343 -0.000000
v 2.091815 0.681407 0.087622
v 1.966268 0.158470 0.087622
v 2.091815 0.158470 0.087622
v 1.966268 0.681407 0.087622
v 2.091815 0.681407 -0.000000
v 1.966268 0.681407 -0.000000
v 2.091815 0.158470 -0.000000
v 1.966268 0.158470 -0.000000
v 1.702619 0.681407 0.087622
v 1.577072 0.158469 0.087622
v 1.702619 0.158470 0.087622
v 1.577072 0.681407 0.087622
v 1.702619 0.681407 -0.000000
v 1.577072 0.681407 -0.000000
v 1.702619 0.158469 -0.000000
v 1.577072 0.158469 -0.000000
v 1.313423 0.681407 0.087622
v 1.187876 0.158469 0.087622
v 1.313423 0.158469 0.087622
v 1.187876 0.681407 0.087622
v 1.313423 0.681407 -0.000000
v 1.187876 0.681407 -0.000000
v 1.313423 0.158469 -0.000000
v 1.187876 0.158469 -0.000000
v 0.463503 0.681407 0.087622
v 0.337956 0.158470 0.087622
v 0.463503 0.158470 0.087622
v 0.337956 0.681407 0.087622
v 0.463503 0.681407 -0.000000
v 0.337956 0.681407 -0.000000
v 0.463503 0.158470 -0.000000
v 0.337956 0.158470 -0.000000
v 0.074307 0.681407 0.087622
v -0.051241 0.158469 0.087622
v 0.074307 0.158470 0.087622
v -0.051241 0.681407 0.087622
v 0.074307 0.681407 -0.000000
v -0.051241 0.681407 -0.000000
v 0.074307 0.158469 -0.000000
v -0.051241 0.158469 -0.000000
v -0.314889 0.681407 0.087622
v -0.440436 0.158469 0.087622
v -0.314889 0.158469 0.087622
v -0.440436 0.681407 0.087622
v -0.314889 0.681407 -0.000000
v -0.440436 0.681407 -0.000000
v -0.314889 0.158469 -0.000000
v -0.440436 0.158469 -0.000000
v -1.114450 0.681407 0.087622
v -1.239997 0.158470 0.087622
v -1.114450 0.158470 0.087622
v -1.239997 0.681407 0.087622
v -1.114450 0.681407 -0.000000
v -1.239997 0.681407 -0.000000
v -1.114450 0.158470 -0.000000
v -1.239997 0.158470 -0.000000
v -1.503646 0.681407 0.087622
v -1.629193 0.158469 0.087622
v -1.503646 0.158470 0.087622
v -1.629193 0.681407 0.087622
v -1.503646 0.681407 -0.000000
v -1.629193 0.681407 -0.000000
v -1.503646 0.158469 -0.000000
v -1.629193 0.158469 -0.000000
v -1.892842 0.681407 0.087622
v -2.018389 0.158469 0.087622
v -1.892842 0.158469 0.087622
v -2.018389 0.681407 0.087622
v -1.892842 0.681407 -0.000000
v -2.018389 0.681407 -0.000000
v -1.892842 0.158469 -0.000000
v -2.018389 0.158469 -0.000000
v -1.307799 1.087374 0.111258
v -1.358502 2.054556 0.111258
v -1.358502 0.759595 0.111257
v -1.291240 0.759595 0.111257
v -1.291240 0.838034 0.111257
v -1.291240 2.054556 0.111258
v -1.291240 1.495235 0.111258
v -1.291240 1.073611 0.053822
v -1.291240 0.759595 -0.000000
v -1.291240 2.054556 -0.000000
v -1.358502 2.054556 -0.000000
v -1.358502 0.759595 -0.000000
v -1.792405 0.759595 0.111259
v -1.859667 1.235492 0.111259
v -1.859667 0.759595 0.111259
v -1.839813 1.417208 0.111259
v -1.792405 2.054556 0.111259
v -1.859668 0.759595 -0.000000
v -1.792405 0.759595 -0.000000
v -1.792405 1.504432 -0.000000
v -1.792405 1.215342 -0.000000
v -1.792405 2.054556 -0.000000
v -1.792405 1.747378 -0.000000
v -1.859667 2.054556 0.111259
v -1.859668 2.054556 -0.000000
v -1.859667 1.446861 0.067558
v -1.859667 1.717129 0.111259
v 1.892171 1.087374 0.111258
v 1.841468 2.054556 0.111258
v 1.841468 0.759595 0.111258
v 1.908730 0.759595 0.111258
v 1.908730 0.838034 0.111258
v 1.908730 2.054556 0.111258
v 1.908730 1.495235 0.111258
v 1.908730 1.073611 0.053822
v 1.908730 0.759595 -0.000000
v 1.908730 2.054556 -0.000000
v 1.841468 2.054556 -0.000000
v 1.841468 0.759595 -0.000000
v 1.407565 0.759595 0.111260
v 1.340304 1.235492 0.111260
v 1.340304 0.759595 0.111260
v 1.360158 1.417208 0.111260
v 1.407565 2.054556 0.111260
v 1.340304 0.759595 -0.000000
v 1.407565 0.759595 -0.000000
v 1.407565 1.504432 -0.000000
v 1.407565 1.215342 -0.000000
v 1.407565 2.054556 -0.000000
v 1.407565 1.747378 -0.000000
v 1.340304 2.054556 0.111260
v 1.340304 2.054556 -0.000000
v 1.340304 1.446861 0.067559
v 1.340304 1.717129 0.111260
v 2.327242 -0.000000 -0.167275
v 2.339791 2.483207 -0.103231
v 2.336505 2.194687 -0.152789
v 2.368719 2.496054 -0.147650
v 2.486786 1.285540 -0.147649
v 2.522150 0.960660 -0.152789
v 2.531413 -0.000000 -0.167275
v 2.518864 1.300494 -0.107604
v 2.518864 1.585406 -0.147649
v 2.527797 3.252779 -0.161624
v 2.330858 3.252779 -0.161624
v 2.339791 2.862487 -0.147650
v -1.732543 0.666393 -0.052500
v -1.732543 2.572189 -0.052501
v -2.349579 2.572189 -0.052501
v -2.349579 0.666393 -0.052500
v 1.798157 2.572189 -0.052500
v 1.798159 0.666393 -0.052500
v 2.403292 2.572189 -0.052500
v 2.403292 0.666393 -0.052500
v 0.314918 1.087374 -0.111258
v 0.264216 2.054556 -0.111258
v 0.264216 0.759595 -0.111258
v 0.331477 0.759595 -0.111258
v 0.331477 0.838034 -0.111258
v 0.331477 2.054556 -0.111258
v 0.331477 1.495235 -0.111258
v 0.331477 1.073611 -0.053822
v -0.767522 0.652153 -0.112179
v -1.416523 0.763726 -0.112179
v -2.366127 0.652153 -0.112179
v -0.996155 0.810622 -0.112179
v -0.767522 0.810622 -0.112179
v -2.366127 0.810622 -0.112179
v -1.397731 0.810622 -0.076661
v -1.615281 0.810622 -0.112179
v 0.831084 0.652153 -0.112179
v 0.182082 0.763726 -0.112179
v -0.767522 0.652153 -0.112179
v 0.602451 0.810622 -0.112179
v 0.831084 0.810622 -0.112179
v -0.767522 0.810622 -0.112179
v 0.200874 0.810622 -0.076661
v -0.016675 0.810622 -0.112179
v 2.429689 0.652153 -0.112178
v 1.780687 0.763726 -0.112179
v 0.831084 0.652153 -0.112179
v 2.201056 0.810622 -0.112178
v 2.429689 0.810622 -0.112178
v 0.831084 0.810622 -0.112179
v 1.799479 0.810622 -0.076661
v 1.581930 0.810622 -0.112179
v -0.169688 0.759595 -0.111260
v -0.236950 1.235492 -0.111260
v -0.236950 0.759595 -0.111260
v -0.217096 1.417208 -0.111260
v -0.169688 2.054556 -0.111260
v -0.236950 2.054556 -0.111260
v -0.236950 1.446861 -0.067559
v -0.236950 1.717129 -0.111260
v -0.768221 2.122312 -0.128622
v -0.768221 1.963844 -0.128622
v -1.481390 1.963844 -0.128622
v -1.642347 2.021446 -0.128622
v -2.241131 2.122312 -0.128622
v -2.366827 2.122312 -0.066754
v -2.366827 2.060708 -0.128622
v -2.366827 1.963844 -0.128622
v -1.672490 1.963844 -0.069363
v -1.864630 1.963844 -0.128622
v 0.830384 2.122312 -0.128621
v 0.830384 1.963844 -0.128621
v 0.117215 1.963844 -0.128622
v -0.043742 2.021446 -0.128622
v -0.642526 2.122312 -0.128622
v -0.768221 2.122312 -0.066753
v -0.768221 2.060708 -0.128622
v -0.768221 1.963844 -0.128622
v -0.073884 1.963844 -0.069363
v -0.266025 1.963844 -0.128622
v 2.428989 2.122312 -0.128621
v 2.428989 1.963844 -0.128621
v 1.715821 1.963844 -0.128621
v 1.554863 2.021446 -0.128621
v 0.956079 2.122312 -0.128621
v 0.830384 2.122312 -0.066753
v 0.830384 2.060708 -0.128621
v 0.830384 1.963844 -0.128621
v 1.524721 1.963844 -0.069362
v 1.332580 1.963844 -0.128621
v -2.366500 2.498657 -0.107630
v -2.366500 2.498657 -0.007630
v -1.890000 2.498657 -0.028821
v -2.134054 2.498657 -0.107630
v -1.884049 2.593719 -0.107630
v -2.366500 3.255820 -0.107630
v -0.767891 3.255820 -0.107630
v 0.830718 3.255820 -0.107630
v 2.429327 3.255820 -0.107629
v 2.429327 2.498657 -0.107629
v 1.856845 2.498657 -0.107629
v 1.313170 2.593719 -0.107629
v 0.830718 2.498657 -0.107629
v 1.063164 2.498657 -0.107629
v 1.307220 2.498657 -0.028821
v 0.830718 2.498657 -0.007629
v -0.291391 2.498657 -0.028821
v 0.258236 2.498657 -0.107629
v -0.285440 2.593719 -0.107630
v -0.767891 2.498657 -0.107630
v -0.535445 2.498657 -0.107630
v -1.340373 2.498657 -0.107630
v -0.767891 2.498657 -0.007630
v -0.869977 -0.000000 -0.167275
v -0.857428 1.910159 -0.103232
v -0.860714 1.688221 -0.152789
v -0.828500 1.920042 -0.147650
v -0.710432 0.988877 -0.147650
v -0.675068 0.738969 -0.152789
v -0.665806 -0.000000 -0.167275
v -0.678355 1.000380 -0.107605
v -0.678355 1.219543 -0.147650
v -0.669421 2.502138 -0.161624
v -0.866361 2.502138 -0.161624
v -0.857428 2.201913 -0.147650
v -2.366501 0.158468 -0.128621
v -1.971885 0.158468 -0.128621
v -1.873921 0.094800 -0.128621
v -2.366501 -0.000000 -0.128621
v -0.767892 -0.000000 -0.128621
v -0.767892 0.158468 -0.128621
v -0.275311 0.094800 -0.128621
v -0.373277 0.158468 -0.128621
v -1.524915 0.158468 -0.128621
v -1.878316 0.158468 -0.094706
v -0.279706 0.158468 -0.094706
v 0.073695 0.158468 -0.128621
v 0.830717 0.158468 -0.128621
v 0.830717 -0.000000 -0.128621
v 1.323298 0.094800 -0.128621
v 1.225334 0.158468 -0.128621
v 1.318903 0.158468 -0.094706
v 1.672304 0.158468 -0.128621
v 2.429326 0.158468 -0.128621
v 2.429326 -0.000000 -0.128621
v 0.728632 -0.000000 -0.167275
v 0.741182 1.910159 -0.103231
v 0.737896 1.688221 -0.152789
v 0.770110 1.920042 -0.147650
v 0.888177 0.988877 -0.147650
v 0.923540 0.738969 -0.152789
v 0.932804 -0.000000 -0.167275
v 0.920255 1.000380 -0.107604
v 0.920255 1.219543 -0.147650
v 0.929188 2.502138 -0.161624
v 0.732248 2.502138 -0.161624
v 0.741182 2.201913 -0.147650
v -2.468587 -0.000000 -0.167276
v -2.456037 2.483207 -0.103232
v -2.459323 2.194687 -0.152790
v -2.427109 2.496054 -0.147650
v -2.309042 1.285540 -0.147650
v -2.273678 0.960660 -0.152789
v -2.264415 -0.000000 -0.167276
v -2.276964 1.300494 -0.107605
v -2.276964 1.585406 -0.147650
v -2.268031 3.252779 -0.161625
v -2.464971 3.252779 -0.161625
v -2.456037 2.862487 -0.147650
v 2.434506 0.747610 -0.063213
v -2.403200 0.747610 -0.063216
v 2.434506 0.047343 -0.063213
v -2.403200 0.047343 -0.063216
v 2.091815 0.681407 -0.087622
v 1.966268 0.158470 -0.087622
v 2.091815 0.158470 -0.087622
v 1.966268 0.681407 -0.087622
v 1.702619 0.681407 -0.087622
v 1.577072 0.158469 -0.087622
v 1.702619 0.158470 -0.087622
v 1.577072 0.681407 -0.087622
v 1.313423 0.681407 -0.087622
v 1.187876 0.158469 -0.087622
v 1.313423 0.158469 -0.087622
v 1.187876 0.681407 -0.087622
v 0.463503 0.681407 -0.087622
v 0.337956 0.158470 -0.087622
v 0.463503 0.158470 -0.087622
v 0.337956 0.681407 -0.087622
v 0.074307 0.681407 -0.087622
v -0.051241 0.158469 -0.087622
v 0.074307 0.158470 -0.087622
v -0.051241 0.681407 -0.087622
v -0.314889 0.681407 -0.087622
v -0.440436 0.158469 -0.087622
v -0.314889 0.158469 -0.087622
v -0.440436 0.681407 -0.087622
v -1.114450 0.681407 -0.087622
v -1.239997 0.158470 -0.087622
v -1.114450 0.158470 -0.087622
v -1.239997 0.681407 -0.087622
v -1.503646 0.681407 -0.087622
v -1.629193 0.158469 -0.087622
v -1.503646 0.158470 -0.087622
v -1.629193 0.681407 -0.087622
v -1.892842 0.681407 -0.087622
v -2.018389 0.158469 -0.087622
v -1.892842 0.158469 -0.087622
v -2.018389 0.681407 -0.087622
v -1.307799 1.087374 -0.111258
v -1.358502 2.054556 -0.111258
v -1.358502 0.759595 -0.111258
v -1.291240 0.759595 -0.111258
v -1.291240 0.838034 -0.111258
v -1.291240 2.054556 -0.111258
v -1.291240 1.495235 -0.111258
v -1.291240 1.073611 -0.053822
v -1.792405 0.759595 -0.111260
v -1.859667 1.235492 -0.111260
v -1.859667 0.759595 -0.111260
v -1.839813 1.417208 -0.111260
v -1.792405 2.054556 -0.111260
v -1.859667 2.054556 -0.111260
v -1.859667 1.446861 -0.067559
v -1.859667 1.717129 -0.111260
v 1.892171 1.087374 -0.111258
v 1.841468 2.054556 -0.111258
v 1.841468 0.759595 -0.111258
v 1.908730 0.759595 -0.111258
v 1.908730 0.838034 -0.111258
v 1.908730 2.054556 -0.111258
v 1.908730 1.495235 -0.111258
v 1.908730 1.073611 -0.053822
v 1.407565 0.759595 -0.111259
v 1.340304 1.235492 -0.111260
v 1.340304 0.759595 -0.111259
v 1.360158 1.417208 -0.111260
v 1.407565 2.054556 -0.111260
v 1.340304 2.054556 -0.111260
v 1.340304 1.446861 -0.067558
v 1.340304 1.717129 -0.111260
vn 0.6289 -0.0336 -0.7767
vn 0.6289 -0.0331 -0.7768
vn -0.0301 -0.6160 -0.7872
vn -0.0214 0.0012 -0.9998
vn -0.0398 -0.0172 -0.9991
vn -0.0338 -0.0061 -0.9994
vn -0.0000 -1.0000 -0.0000
vn -0.9992 0.0012 -0.0408
vn -0.9997 0.0104 -0.0201
vn -0.9998 0.0100 -0.0196
vn -0.9998 0.0152 -0.0154
vn -0.9994 0.0041 -0.0357
vn -0.9991 -0.0068 0.0409
vn -0.9984 0.0101 -0.0551
vn -0.9998 -0.0066 0.0162
vn -0.9987 0.0022 -0.0511
vn -0.9991 0.0146 -0.0398
vn -0.9991 -0.0009 -0.0416
vn -0.9994 0.0201 -0.0298
vn 0.1007 -0.0051 0.9949
vn 0.0838 0.0061 0.9965
vn 0.1013 0.0100 0.9948
vn 0.0693 -0.0046 0.9976
vn 0.0700 0.0104 0.9975
vn 0.0690 0.0058 0.9976
vn 0.0030 0.0175 0.9998
vn -0.0007 0.0154 0.9999
vn -0.0018 0.0149 0.9999
vn -0.0006 0.0153 0.9999
vn 0.9999 0.0129 0.0049
vn 1.0000 0.0097 -0.0001
vn 1.0000 0.0096 -0.0000
vn 0.9997 0.0022 0.0235
vn 0.7599 0.0929 0.6434
vn 0.9998 0.0101 0.0159
vn 1.0000 -0.0075 0.0052
vn 0.9994 0.0044 0.0336
vn 0.9999 -0.0143 0.0035
vn 0.9999 -0.0075 -0.0146
vn 0.9997 0.0065 0.0235
vn 0.7929 -0.0848 0.6035
vn 1.0000 -0.0020 -0.0014
vn 0.9997 -0.0185 -0.0180
vn 0.9998 0.0108 -0.0190
vn -0.0381 -0.0058 0.9993
vn -0.0514 0.0143 0.9986
vn -0.0551 -0.0233 0.9982
vn 0.0016 -0.0113 0.9999
vn -0.0006 0.0006 1.0000
vn -0.0211 -0.0078 0.9997
vn -0.0000 1.0000 -0.0000
vn 1.0000 0.0074 0.0009
vn 0.9999 -0.0074 -0.0092
vn 0.9999 -0.0069 -0.0134
vn -0.0095 -0.0193 0.9998
vn 0.0007 -0.0072 1.0000
vn -0.0161 -0.0163 0.9997
vn -0.9985 0.0066 -0.0548
vn -0.9999 -0.0127 0.0097
vn -0.9997 -0.0064 0.0241
vn -0.9751 -0.0043 0.2216
vn -0.9930 -0.0026 -0.1184
vn -0.9598 -0.0278 0.2795
vn -0.5451 -0.0384 0.8375
vn -0.1995 -0.0282 0.9795
vn -0.5385 -0.0312 0.8421
vn -0.8274 -0.0653 0.5578
vn 0.0114 0.0043 -0.9999
vn 0.0093 0.0028 -1.0000
vn 0.0093 0.0026 -1.0000
vn -0.0000 0.1105 -0.9939
vn 0.1058 -0.0043 -0.9944
vn -0.0008 -0.1059 -0.9944
vn -0.0200 -0.0068 -0.9998
vn -0.0239 -0.0069 -0.9997
vn -0.0007 0.0208 -0.9998
vn -0.0000 -0.0000 -1.0000
vn -0.0703 0.0125 -0.9975
vn -0.0206 -0.0046 -0.9998
vn -0.0206 -0.0031 -0.9998
vn 0.0016 0.0110 -0.9999
vn 0.0617 -0.0142 -0.9980
vn 0.0110 -0.0010 -0.9999
vn 0.0171 0.0103 -0.9998
vn -0.0002 0.0438 0.9990
vn 0.0155 -0.0004 0.9999
vn 0.0003 -0.0560 0.9984
vn 0.0334 0.0149 -0.9993
vn 0.0911 0.0002 -0.9958
vn 0.0012 -0.0843 -0.9964
vn -0.9994 -0.0013 0.0352
vn -0.9991 -0.0101 0.0422
vn -0.9990 -0.0029 0.0455
vn -0.9999 -0.0036 0.0168
vn -0.9996 -0.0053 0.0270
vn -0.9987 0.0104 -0.0490
vn -0.8467 0.0994 0.5227
vn -0.0000 -0.0000 1.0000
vn 0.9629 0.0639 0.2623
vn 0.9576 -0.0389 0.2854
vn 1.0000 -0.0000 -0.0000
vn -1.0000 -0.0000 -0.0000
vn 0.1331 0.5639 0.8150
vn -0.0691 0.6198 0.7817
vn 0.1331 0.5640 0.8150
vn -0.9923 0.1240 -0.0000
vn -0.9923 0.1239 -0.0000
vn -0.8800 0.0962 0.4651
vn -0.9237 -0.0611 0.3782
vn -0.3281 0.6694 0.6665
vn 0.1946 -0.7510 0.6310
vn -0.2282 -0.6376 0.7358
vn 0.2390 -0.6285 0.7401
vn -0.1102 -0.6302 0.7685
vn 0.2390 -0.6286 0.7401
vn -0.9585 0.2852 -0.0000
vn 0.6285 -0.0438 -0.7765
vn 0.6286 -0.0429 -0.7766
vn 0.6147 -0.0629 -0.7863
vn -0.0213 0.0016 -0.9998
vn -0.0397 -0.0225 -0.9990
vn -0.0338 -0.0078 -0.9994
vn -0.9991 0.0016 -0.0414
vn -0.9997 0.0132 -0.0195
vn -0.9997 0.0131 -0.0194
vn -0.9997 0.0197 -0.0154
vn -0.9993 0.0053 -0.0357
vn -0.9991 -0.0088 0.0409
vn -0.9984 0.0131 -0.0544
vn -0.9998 -0.0086 0.0163
vn -0.9987 0.0026 -0.0510
vn -0.9990 0.0190 -0.0400
vn -0.9991 0.0011 -0.0415
vn -0.9992 0.0267 -0.0306
vn 0.1006 -0.0019 0.9949
vn 0.0838 0.0079 0.9965
vn 0.1019 0.0102 0.9947
vn 0.0694 -0.0010 0.9976
vn 0.0696 0.0109 0.9975
vn 0.0711 0.0073 0.9974
vn 0.0017 0.0211 0.9998
vn -0.0007 0.0198 0.9998
vn -0.0001 0.0219 0.9998
vn -0.0000 0.0196 0.9998
vn 0.9999 0.0155 0.0052
vn 0.9999 0.0126 -0.0001
vn 0.9999 0.0125 -0.0000
vn 0.9997 0.0027 0.0235
vn 0.7576 0.1204 0.6415
vn 0.9998 0.0132 0.0157
vn 0.9999 -0.0099 0.0052
vn 0.9994 0.0057 0.0336
vn 0.9999 -0.0135 0.0044
vn 0.9999 -0.0091 -0.0135
vn 0.9997 0.0086 0.0236
vn 0.7909 -0.1100 0.6020
vn 1.0000 -0.0027 -0.0021
vn 0.9996 -0.0194 -0.0184
vn 0.9998 0.0088 -0.0202
vn -0.0397 -0.0077 0.9992
vn -0.0521 0.0113 0.9986
vn -0.0553 -0.0237 0.9982
vn 0.0018 -0.0097 1.0000
vn -0.0023 -0.0018 1.0000
vn -0.0198 -0.0096 0.9998
vn 1.0000 0.0046 0.0010
vn 0.9999 -0.0097 -0.0092
vn 0.9999 -0.0091 -0.0129
vn -0.0061 -0.0246 0.9997
vn 0.0006 -0.0142 0.9999
vn -0.0144 -0.0220 0.9997
vn -0.9985 0.0087 -0.0545
vn -0.9999 -0.0159 0.0062
vn -0.9997 -0.0084 0.0241
vn -0.9744 -0.0057 0.2247
vn -0.9930 -0.0034 -0.1182
vn -0.9603 -0.0389 0.2763
vn -0.5423 -0.0527 0.8386
vn -0.1990 -0.0365 0.9793
vn -0.5383 -0.0454 0.8415
vn -0.8262 -0.0848 0.5569
vn 0.0115 0.0056 -0.9999
vn 0.0093 0.0037 -0.9999
vn 0.0094 0.0035 -0.9999
vn -0.0000 0.1108 -0.9938
vn 0.1058 -0.0056 -0.9944
vn -0.0010 -0.1060 -0.9944
vn -0.0198 -0.0089 -0.9998
vn -0.0239 -0.0092 -0.9997
vn -0.0010 0.0208 -0.9998
vn -0.0703 0.0163 -0.9974
vn -0.0208 -0.0061 -0.9998
vn -0.0205 -0.0038 -0.9998
vn 0.0091 0.0063 -0.9999
vn 0.0615 -0.0185 -0.9979
vn 0.0172 0.0135 -0.9998
vn -0.0003 0.0441 0.9990
vn 0.0155 -0.0005 0.9999
vn 0.0005 -0.0571 0.9984
vn 0.0335 0.0192 -0.9993
vn 0.0911 0.0003 -0.9958
vn 0.0015 -0.0844 -0.9964
vn -0.9994 -0.0015 0.0352
vn -0.9990 -0.0131 0.0421
vn -0.9990 -0.0038 0.0455
vn -0.9998 -0.0046 0.0170
vn -0.9996 -0.0070 0.0269
vn -0.9987 0.0136 -0.0485
vn -0.8438 0.1288 0.5209
vn 0.3018 0.4644 0.8326
vn -0.0846 0.4639 0.8818
vn 0.1006 -0.0018 0.9949
vn 0.0016 0.0212 0.9998
vn -0.0008 0.0198 0.9998
vn -0.0004 0.0198 0.9998
vn 0.9997 0.0027 0.0237
vn 0.9999 -0.0090 -0.0135
vn -0.0398 -0.0077 0.9992
vn -0.0554 -0.0238 0.9982
vn 0.0018 -0.0096 1.0000
vn 0.0006 -0.0143 0.9999
vn -0.0145 -0.0220 0.9997
vn -0.9603 -0.0389 0.2764
vn -0.5423 -0.0527 0.8385
vn -0.1989 -0.0365 0.9793
vn -0.9984 0.0101 -0.0552
vn -0.9991 0.0145 -0.0398
vn 0.1007 -0.0052 0.9949
vn 0.0837 0.0061 0.9965
vn 0.0689 0.0059 0.9976
vn -0.0020 0.0152 0.9999
vn -0.0005 0.0152 0.9999
vn 0.9999 -0.0075 -0.0145
vn 0.9998 0.0107 -0.0190
vn -0.0005 0.0005 1.0000
vn -0.9751 -0.0043 0.2217
vn -0.9597 -0.0278 0.2795
vn -0.5385 -0.0312 0.8420
vn 0.0004 0.1105 -0.9939
vn 0.1059 -0.0043 -0.9944
vn -0.0004 -0.1059 -0.9944
vn -0.0002 0.0439 0.9990
vn -0.9991 -0.0101 0.0423
vn 0.0001 -0.0000 1.0000
vn -0.9239 -0.3827 -0.0000
vn -0.9239 0.3827 -0.0000
vn -0.9239 -0.2706 -0.2706
vn -0.9239 0.3827 -0.0001
vn -0.9239 -0.2707 -0.2706
vn -0.7072 0.7070 -0.0000
vn -0.7071 0.7071 -0.0000
vn -0.9992 0.0012 0.0408
vn -0.9998 0.0100 0.0196
vn -0.9997 0.0104 0.0201
vn -0.9998 0.0152 0.0154
vn -0.9991 -0.0068 -0.0409
vn -0.9994 0.0041 0.0357
vn -0.9991 0.0141 0.0401
vn -0.9987 0.0036 0.0501
vn -0.9998 -0.0066 -0.0162
vn -0.9988 0.0113 0.0486
vn -0.9994 0.0201 0.0298
vn -0.9983 -0.0024 0.0586
vn 0.1007 -0.0052 -0.9949
vn 0.1013 0.0100 -0.9948
vn 0.0838 0.0061 -0.9965
vn 0.0693 -0.0046 -0.9976
vn 0.0690 0.0059 -0.9976
vn 0.0700 0.0104 -0.9975
vn 0.0030 0.0175 -0.9998
vn -0.0018 0.0150 -0.9999
vn -0.0010 0.0154 -0.9999
vn -0.0007 0.0153 -0.9999
vn 0.9999 0.0129 -0.0049
vn 1.0000 0.0097 0.0001
vn 0.9997 0.0022 -0.0235
vn 0.7599 0.0929 -0.6434
vn 0.9998 0.0101 -0.0159
vn 0.9994 0.0044 -0.0336
vn 1.0000 -0.0075 -0.0052
vn 0.9999 -0.0136 -0.0034
vn 0.9997 0.0065 -0.0235
vn 0.9999 -0.0075 0.0145
vn 0.7929 -0.0848 -0.6035
vn 1.0000 -0.0012 0.0023
vn 0.9998 0.0107 0.0190
vn 0.9999 -0.0078 0.0104
vn -0.0381 -0.0058 -0.9993
vn -0.0551 -0.0233 -0.9982
vn -0.0514 0.0143 -0.9986
vn 0.0016 -0.0113 -0.9999
vn -0.0211 -0.0078 -0.9997
vn -0.0006 0.0006 -1.0000
vn 1.0000 -0.0007 0.0049
vn 0.9999 -0.0068 0.0098
vn 0.9999 -0.0074 0.0092
vn -0.0095 -0.0193 -0.9998
vn -0.0161 -0.0163 -0.9997
vn 0.0007 -0.0072 -1.0000
vn -0.9985 0.0066 0.0548
vn -0.9997 -0.0064 -0.0241
vn -0.9999 -0.0127 -0.0097
vn -0.9751 -0.0043 -0.2216
vn -0.9598 -0.0278 -0.2795
vn -0.9930 -0.0026 0.1184
vn -0.5451 -0.0384 -0.8375
vn -0.5385 -0.0312 -0.8421
vn -0.1995 -0.0282 -0.9795
vn -0.8274 -0.0653 -0.5578
vn -0.9994 -0.0013 -0.0352
vn -0.9990 -0.0029 -0.0455
vn -0.9991 -0.0101 -0.0422
vn -0.9999 -0.0036 -0.0168
vn -0.9987 0.0104 0.0490
vn -0.9996 -0.0053 -0.0270
vn -0.8467 0.0994 -0.5227
vn 0.9629 0.0639 -0.2623
vn 0.9576 -0.0389 -0.2854
vn 0.1331 0.5640 -0.8150
vn -0.0691 0.6198 -0.7817
vn -0.8800 0.0962 -0.4651
vn -0.9237 -0.0611 -0.3782
vn -0.3281 0.6694 -0.6665
vn 0.1946 -0.7510 -0.6310
vn -0.2282 -0.6376 -0.7358
vn 0.2390 -0.6285 -0.7401
vn -0.1102 -0.6302 -0.7685
vn 0.2390 -0.6286 -0.7401
vn -0.8960 -0.4441 -0.0000
vn -0.9991 0.0016 0.0414
vn -0.9997 0.0131 0.0194
vn -0.9997 0.0132 0.0195
vn -0.9997 0.0197 0.0154
vn -0.9991 -0.0088 -0.0409
vn -0.9993 0.0053 0.0357
vn -0.9990 0.0184 0.0399
vn -0.9987 0.0047 0.0500
vn -0.9998 -0.0086 -0.0163
vn -0.9987 0.0142 0.0483
vn -0.9992 0.0267 0.0306
vn -0.9983 -0.0032 0.0580
vn 0.1006 -0.0019 -0.9949
vn 0.1019 0.0102 -0.9947
vn 0.0838 0.0079 -0.9965
vn 0.0694 -0.0010 -0.9976
vn 0.0711 0.0072 -0.9974
vn 0.0696 0.0108 -0.9975
vn 0.0017 0.0211 -0.9998
vn -0.0001 0.0219 -0.9998
vn -0.0009 0.0198 -0.9998
vn -0.0000 0.0196 -0.9998
vn 0.9999 0.0155 -0.0052
vn 0.9999 0.0126 0.0001
vn 0.9997 0.0027 -0.0235
vn 0.7576 0.1204 -0.6415
vn 0.9998 0.0132 -0.0157
vn 0.9994 0.0057 -0.0336
vn 0.9999 -0.0099 -0.0052
vn 0.9999 -0.0129 -0.0043
vn 0.9997 0.0086 -0.0236
vn 0.9999 -0.0091 0.0135
vn 0.7909 -0.1100 -0.6020
vn 1.0000 -0.0018 0.0031
vn 0.9998 0.0088 0.0202
vn 0.9999 -0.0101 0.0104
vn -0.0397 -0.0077 -0.9992
vn -0.0553 -0.0237 -0.9982
vn -0.0521 0.0113 -0.9986
vn 0.0018 -0.0097 -1.0000
vn -0.0198 -0.0096 -0.9998
vn -0.0023 -0.0018 -1.0000
vn 1.0000 -0.0010 0.0047
vn 0.9999 -0.0088 0.0098
vn 0.9999 -0.0097 0.0092
vn -0.0061 -0.0246 -0.9997
vn -0.0144 -0.0220 -0.9997
vn 0.0006 -0.0142 -0.9999
vn -0.9985 0.0087 0.0545
vn -0.9997 -0.0084 -0.0241
vn -0.9999 -0.0159 -0.0062
vn -0.9744 -0.0057 -0.2247
vn -0.9603 -0.0389 -0.2763
vn -0.9930 -0.0034 0.1182
vn -0.5423 -0.0527 -0.8385
vn -0.5383 -0.0453 -0.8415
vn -0.1989 -0.0366 -0.9793
vn -0.8262 -0.0848 -0.5569
vn -0.9994 -0.0015 -0.0352
vn -0.9990 -0.0038 -0.0455
vn -0.9990 -0.0131 -0.0421
vn -0.9998 -0.0046 -0.0170
vn -0.9987 0.0136 0.0485
vn -0.9996 -0.0070 -0.0269
vn -0.8438 0.1288 -0.5209
vn 0.3018 0.4644 -0.8326
vn -0.0846 0.4639 -0.8818
vn 0.1006 -0.0018 -0.9949
vn 0.0711 0.0073 -0.9974
vn 0.0016 0.0212 -0.9998
vn -0.0008 0.0198 -0.9998
vn -0.0004 0.0198 -0.9998
vn 0.9997 0.0027 -0.0237
vn 0.9999 -0.0090 0.0135
vn 0.9998 0.0088 0.0201
vn -0.0398 -0.0077 -0.9992
vn -0.0554 -0.0238 -0.9982
vn 0.0018 -0.0096 -1.0000
vn -0.0145 -0.0220 -0.9997
vn 0.0006 -0.0143 -0.9999
vn -0.9603 -0.0389 -0.2764
vn -0.5383 -0.0454 -0.8415
vn -0.9991 0.0141 0.0400
vn 0.1007 -0.0051 -0.9949
vn 0.0689 0.0059 -0.9976
vn -0.0019 0.0150 -0.9999
vn -0.0008 0.0154 -0.9999
vn -0.0005 0.0152 -0.9999
vn -0.0005 0.0005 -1.0000
vn -0.9751 -0.0043 -0.2217
vn -0.9597 -0.0278 -0.2795
vn -0.5385 -0.0312 -0.8420
vn -0.9991 -0.0101 -0.0423
vt 0.495107 0.158123
vt 0.495108 0.158057
vt 0.495116 0.157967
vt 0.495168 0.158074
vt 0.495185 0.158154
vt 0.495229 0.157520
vt 0.495227 0.157450
vt 0.495128 0.157979
vt 0.495245 0.157446
vt 0.495274 0.157776
vt 0.495271 0.157849
vt 0.495242 0.158119
vt 0.495263 0.157765
vt 0.495217 0.157522
vt 0.495288 0.157700
vt 0.495343 0.157190
vt 0.495127 0.157191
vt 0.495251 0.157212
vt 0.495233 0.157180
vt 0.495239 0.157370
vt 0.495204 0.157458
vt 0.495195 0.157519
vt 0.495196 0.157601
vt 0.495112 0.157894
vt 0.496057 0.152314
vt 0.496298 0.183896
vt 0.000000 0.000000
vt 0.007891 0.960522
vt 0.242198 0.960522
vt 0.242198 0.821067
vt 0.242198 0.990981
vt 0.007891 0.790010
vt 0.204254 0.990981
vt 0.204254 0.821067
vt 0.242198 0.790010
vt 0.007325 0.990981
vt 0.046719 0.990981
vt 0.007325 0.821067
vt 0.046719 0.821067
s 1
usemtl Material.032
f 1/1/1 4/2/2 2/3/3
f 1/1/4 2/3/5 3/4/6
f 5/5/7 1/1/7 3/4/7
f 5/5/8 4/2/9 1/1/10
f 5/5/11 8/6/12 6/7/13
f 5/5/14 6/7/15 7/8/16
f 5/5/17 7/8/18 4/2/19
f 9/9/20 8/6/21 5/5/22
f 9/9/23 5/5/24 10/10/25
f 5/5/26 11/11/27 10/10/28
f 5/5/26 12/12/29 11/11/27
f 5/5/7 3/4/7 12/12/7
f 3/4/30 11/11/31 12/12/32
f 3/4/30 13/13/33 11/11/31
f 10/10/34 11/11/34 13/13/34
f 3/4/35 14/14/36 13/13/37
f 14/14/38 15/15/39 13/13/40
f 15/15/41 10/10/41 13/13/41
f 14/14/42 16/16/43 15/15/44
f 9/9/45 15/15/46 16/16/47
f 9/9/48 10/10/49 15/15/50
f 17/17/51 19/18/51 16/16/51
f 17/17/51 16/16/51 18/19/51
f 14/14/52 18/19/53 16/16/54
f 19/18/55 9/9/56 16/16/57
f 6/7/58 19/18/59 17/17/60
f 6/7/61 20/20/62 19/18/63
f 19/18/64 20/20/65 9/9/66
f 20/20/67 6/7/67 9/9/67
f 17/17/68 18/19/69 21/21/70
f 14/14/71 21/21/72 18/19/73
f 17/17/74 21/21/75 22/22/76
f 22/22/77 21/21/77 14/14/77
f 2/3/78 17/17/79 22/22/80
f 2/3/81 22/22/82 23/23/77
f 23/23/77 22/22/77 14/14/77
f 2/3/83 23/23/77 3/4/84
f 3/4/85 23/23/86 14/14/87
f 2/3/88 24/24/89 17/17/90
f 6/7/91 17/17/92 24/24/93
f 24/24/77 2/3/77 7/8/77
f 6/7/94 24/24/95 7/8/96
f 6/7/97 8/6/97 9/9/97
f 2/3/77 4/2/77 7/8/77
f 44/25/98 40/25/98 39/25/98
f 39/25/98 40/25/98 41/25/98
f 39/25/98 41/25/98 42/25/98
f 39/25/98 42/25/98 43/25/98
f 46/25/99 39/25/99 43/25/99
f 44/25/98 39/25/98 45/25/98
f 45/25/100 39/25/100 46/25/100
f 48/25/101 46/25/101 47/25/101
f 47/25/101 46/25/101 43/25/101
f 48/25/101 45/25/101 46/25/101
f 48/25/51 49/25/51 40/25/51
f 48/25/51 40/25/51 44/25/51
f 48/25/101 44/25/101 45/25/101
f 40/25/102 49/25/102 50/25/102
f 42/25/7 41/25/7 50/25/7
f 42/25/7 50/25/7 47/25/7
f 40/25/102 50/25/102 41/25/102
f 47/25/101 43/25/101 42/25/101
f 51/25/98 54/25/98 52/25/98
f 51/25/98 52/25/98 53/25/98
f 56/25/7 51/25/7 53/25/7
f 51/25/98 55/25/98 54/25/98
f 56/25/101 55/25/101 51/25/101
f 56/25/101 57/25/101 55/25/101
f 56/25/7 53/25/7 58/25/7
f 53/25/102 59/25/102 58/25/102
f 53/25/102 60/25/102 59/25/102
f 60/25/51 61/25/51 59/25/51
f 60/25/51 62/25/51 61/25/51
f 63/25/51 62/25/51 60/25/51
f 63/25/51 64/25/51 62/25/51
f 63/25/51 57/25/51 64/25/51
f 63/25/51 60/25/51 65/25/51
f 55/25/51 57/25/51 63/25/51
f 52/25/103 63/25/103 65/25/103
f 55/25/51 63/25/51 54/25/51
f 54/25/104 63/25/104 52/25/104
f 53/25/98 52/25/98 65/25/98
f 53/25/98 65/25/98 60/25/98
f 66/25/98 69/25/98 67/25/98
f 66/25/98 67/25/98 68/25/98
f 71/25/7 66/25/7 68/25/7
f 66/25/98 70/25/98 69/25/98
f 71/25/101 70/25/101 66/25/101
f 71/25/101 72/25/101 70/25/101
f 71/25/7 68/25/7 73/25/7
f 68/25/102 74/25/102 73/25/102
f 68/25/102 75/25/102 74/25/102
f 75/25/51 76/25/51 74/25/51
f 75/25/51 77/25/51 76/25/51
f 78/25/51 77/25/51 75/25/51
f 78/25/51 79/25/51 77/25/51
f 78/25/51 72/25/51 79/25/51
f 78/25/51 75/25/51 80/25/51
f 70/25/51 72/25/51 78/25/51
f 67/25/105 78/25/105 80/25/105
f 70/25/51 78/25/51 69/25/51
f 69/25/104 78/25/104 67/25/104
f 68/25/98 67/25/98 80/25/98
f 68/25/98 80/25/98 75/25/98
f 81/25/98 84/25/98 82/25/98
f 81/25/98 82/25/98 83/25/98
f 86/25/7 81/25/7 83/25/7
f 81/25/98 85/25/98 84/25/98
f 86/25/101 85/25/101 81/25/101
f 86/25/101 87/25/101 85/25/101
f 86/25/7 83/25/7 88/25/7
f 83/25/102 89/25/102 88/25/102
f 83/25/102 90/25/102 89/25/102
f 90/25/51 91/25/51 89/25/51
f 90/25/51 92/25/51 91/25/51
f 93/25/51 92/25/51 90/25/51
f 93/25/51 94/25/51 92/25/51
f 93/25/51 87/25/51 94/25/51
f 93/25/51 90/25/51 95/25/51
f 85/25/51 87/25/51 93/25/51
f 82/25/105 93/25/105 95/25/105
f 85/25/51 93/25/51 84/25/51
f 84/25/104 93/25/104 82/25/104
f 83/25/98 82/25/98 95/25/98
f 83/25/98 95/25/98 90/25/98
f 96/25/98 99/25/98 97/25/98
f 96/25/98 97/25/98 98/25/98
f 96/25/7 98/25/7 101/25/7
f 100/25/98 99/25/98 96/25/98
f 103/25/101 100/25/101 96/25/101
f 96/25/7 101/25/7 102/25/7
f 103/25/101 96/25/101 102/25/101
f 105/25/101 100/25/101 103/25/101
s 0
f 103/25/77 102/25/77 104/25/77
f 105/25/106 103/25/107 106/25/106
s 1
f 105/25/51 108/25/51 107/25/51
f 105/25/51 107/25/51 100/25/51
f 107/25/102 108/25/102 109/25/102
f 109/25/102 108/25/102 101/25/102
f 109/25/102 101/25/102 98/25/102
f 109/25/102 98/25/102 97/25/102
f 99/25/108 109/25/108 97/25/108
f 107/25/102 109/25/102 110/25/102
f 110/25/109 109/25/109 99/25/109
f 100/25/98 107/25/98 110/25/98
f 100/25/98 110/25/98 99/25/98
f 111/25/101 114/25/101 112/25/101
f 111/25/101 112/25/101 113/25/101
f 113/25/51 118/25/51 111/25/51
f 111/25/98 115/25/98 114/25/98
f 111/25/98 116/25/98 115/25/98
f 117/25/98 116/25/98 111/25/98
f 111/25/51 118/25/51 117/25/51
f 117/25/110 118/25/110 119/25/110
f 120/25/102 119/25/102 118/25/102
f 118/25/51 113/25/51 120/25/51
f 121/25/102 119/25/102 120/25/102
f 119/25/102 121/25/102 122/25/102
f 122/25/7 121/25/7 123/25/7
f 123/25/7 121/25/7 124/25/7
f 123/25/7 124/25/7 125/25/7
f 123/25/7 125/25/7 114/25/7
f 114/25/7 125/25/7 126/25/7
f 114/25/7 126/25/7 112/25/7
f 122/25/7 123/25/7 127/25/7
f 123/25/111 116/25/111 127/25/111
f 123/25/7 114/25/7 115/25/7
f 115/25/112 116/25/112 123/25/112
f 116/25/98 122/25/98 127/25/98
f 116/25/98 119/25/98 122/25/98
f 117/25/98 119/25/98 116/25/98
f 128/25/101 131/25/101 129/25/101
f 128/25/101 129/25/101 130/25/101
f 130/25/51 135/25/51 128/25/51
f 128/25/98 132/25/98 131/25/98
f 128/25/98 133/25/98 132/25/98
f 134/25/98 133/25/98 128/25/98
f 128/25/51 135/25/51 134/25/51
f 134/25/110 135/25/110 136/25/110
f 137/25/102 136/25/102 135/25/102
f 135/25/51 130/25/51 137/25/51
f 138/25/102 136/25/102 137/25/102
f 136/25/102 138/25/102 139/25/102
f 139/25/7 138/25/7 140/25/7
f 140/25/7 138/25/7 141/25/7
f 140/25/7 141/25/7 142/25/7
f 140/25/7 142/25/7 131/25/7
f 131/25/7 142/25/7 143/25/7
f 131/25/7 143/25/7 129/25/7
f 139/25/7 140/25/7 144/25/7
f 140/25/111 133/25/111 144/25/111
f 140/25/7 131/25/7 132/25/7
f 132/25/112 133/25/112 140/25/112
f 133/25/98 139/25/98 144/25/98
f 133/25/98 136/25/98 139/25/98
f 134/25/98 136/25/98 133/25/98
f 145/25/101 148/25/101 146/25/101
f 145/25/101 146/25/101 147/25/101
f 147/25/51 152/25/51 145/25/51
f 145/25/98 149/25/98 148/25/98
f 145/25/98 150/25/98 149/25/98
f 151/25/98 150/25/98 145/25/98
f 145/25/51 152/25/51 151/25/51
f 151/25/110 152/25/110 153/25/110
f 154/25/102 153/25/102 152/25/102
f 152/25/51 147/25/51 154/25/51
f 155/25/102 153/25/102 154/25/102
f 153/25/102 155/25/102 156/25/102
f 156/25/7 155/25/7 157/25/7
f 157/25/7 155/25/7 158/25/7
f 157/25/7 158/25/7 159/25/7
f 157/25/7 159/25/7 148/25/7
f 148/25/7 159/25/7 160/25/7
f 148/25/7 160/25/7 146/25/7
f 156/25/7 157/25/7 161/25/7
f 157/25/111 150/25/111 161/25/111
f 157/25/7 148/25/7 149/25/7
f 149/25/112 150/25/112 157/25/112
f 150/25/98 156/25/98 161/25/98
f 150/25/98 153/25/98 156/25/98
f 151/25/98 153/25/98 150/25/98
f 162/26/102 165/26/102 163/26/102
f 164/26/7 167/26/7 162/26/7
f 162/26/102 166/26/102 165/26/102
f 162/26/102 170/26/102 166/26/102
f 162/26/7 167/26/7 168/26/7
f 169/26/98 162/26/98 168/26/98
f 169/26/98 170/26/98 162/26/98
f 166/26/102 170/26/102 171/26/102
f 170/26/51 173/26/51 171/26/51
f 170/26/51 172/26/51 173/26/51
f 172/26/98 170/26/98 169/26/98
f 172/26/102 173/26/102 174/26/102
f 172/26/51 175/26/51 173/26/51
f 176/26/101 175/26/101 177/26/101
f 172/26/51 177/26/51 175/26/51
f 177/26/51 178/26/51 175/26/51
f 180/26/101 179/26/101 178/26/101
f 177/26/51 180/26/51 178/26/51
f 181/26/101 179/26/101 180/26/101
f 180/26/98 182/26/98 181/26/98
f 180/26/98 183/26/98 182/26/98
f 180/26/98 177/26/98 183/26/98
f 183/26/98 177/26/98 184/26/98
f 183/26/98 184/26/98 185/26/98
f 185/26/113 186/26/113 183/26/113
f 183/26/114 186/26/114 182/26/114
f 187/26/7 182/26/7 186/26/7
f 187/26/7 186/26/7 188/26/7
f 186/26/7 189/26/7 188/26/7
f 189/26/7 186/26/7 184/26/7
f 184/26/7 186/26/7 185/26/7
f 188/26/7 184/26/7 193/26/7
f 184/26/101 188/26/101 190/26/101
f 188/26/7 193/26/7 191/26/7
f 188/26/7 191/26/7 192/26/7
f 194/26/114 191/26/114 193/26/114
f 177/26/98 193/26/98 184/26/98
f 177/26/98 194/26/98 193/26/98
f 194/26/98 172/26/98 195/26/98
f 177/26/98 172/26/98 194/26/98
f 194/26/98 195/26/98 196/26/98
f 196/26/115 191/26/115 194/26/115
f 195/26/7 191/26/7 196/26/7
f 195/26/116 192/26/116 199/26/116
f 192/26/102 195/26/102 197/26/102
f 192/26/7 195/26/7 198/26/7
f 195/26/102 174/26/102 197/26/102
f 195/26/102 172/26/102 174/26/102
f 172/26/98 198/26/98 195/26/98
f 199/26/7 191/26/7 195/26/7
f 191/26/7 199/26/7 192/26/7
f 192/26/7 198/26/7 167/26/7
f 169/26/114 167/26/114 198/26/114
f 172/26/98 169/26/98 198/26/98
f 192/26/7 167/26/7 163/26/7
f 184/26/101 190/26/101 176/26/101
f 187/26/101 200/26/101 181/26/101
f 187/26/7 181/26/7 182/26/7
f 181/26/101 200/26/101 179/26/101
f 184/26/101 176/26/101 177/26/101
f 168/26/115 167/26/115 169/26/115
f 167/26/7 164/26/7 163/26/7
f 201/1/117 204/2/118 202/3/119
f 201/1/120 202/3/121 203/4/122
f 205/5/7 201/1/7 203/4/7
f 205/5/123 204/2/124 201/1/125
f 205/5/126 208/6/127 206/7/128
f 205/5/129 206/7/130 207/8/131
f 205/5/132 207/8/133 204/2/134
f 209/9/135 208/6/136 205/5/137
f 209/9/138 205/5/139 210/10/140
f 205/5/141 211/11/142 210/10/143
f 205/5/141 212/12/144 211/11/142
f 205/5/7 203/4/7 212/12/7
f 203/4/145 211/11/146 212/12/147
f 203/4/145 213/13/148 211/11/146
f 210/10/149 211/11/149 213/13/149
f 203/4/150 214/14/151 213/13/152
f 214/14/153 215/15/154 213/13/155
f 215/15/156 210/10/156 213/13/156
f 214/14/157 216/16/158 215/15/159
f 209/9/160 215/15/161 216/16/162
f 209/9/163 210/10/164 215/15/165
f 217/17/51 219/18/51 216/16/51
f 217/17/51 216/16/51 218/19/51
f 214/14/166 218/19/167 216/16/168
f 219/18/169 209/9/170 216/16/171
f 206/7/172 219/18/173 217/17/174
f 206/7/175 220/20/176 219/18/177
f 219/18/178 220/20/179 209/9/180
f 220/20/181 206/7/181 209/9/181
f 217/17/182 218/19/183 221/21/184
f 214/14/185 221/21/186 218/19/187
f 217/17/188 221/21/189 222/22/190
f 222/22/77 221/21/77 214/14/77
f 202/3/191 217/17/192 222/22/193
f 202/3/194 222/22/195 223/23/77
f 223/23/77 222/22/77 214/14/77
f 202/3/194 223/23/77 203/4/196
f 203/4/197 223/23/198 214/14/199
f 202/3/200 224/24/201 217/17/202
f 206/7/203 217/17/204 224/24/205
f 224/24/77 202/3/77 207/8/77
f 206/7/206 224/24/207 207/8/208
f 206/7/209 208/6/209 209/9/209
f 202/3/77 204/2/77 207/8/77
f 227/25/51 225/25/51 226/25/51
f 225/25/98 228/25/98 226/25/98
f 227/25/102 229/25/102 225/25/102
f 225/25/98 229/25/98 228/25/98
f 228/25/98 229/25/98 230/25/98
f 229/25/7 232/25/7 230/25/7
f 227/25/102 231/25/102 229/25/102
f 229/25/7 231/25/7 232/25/7
f 235/25/102 233/25/102 232/25/102
f 233/25/102 232/25/102 230/25/102
f 230/25/7 232/25/7 234/25/7
f 235/25/102 232/25/102 230/25/102
f 239/25/51 235/25/51 233/25/51
f 233/25/102 230/25/102 235/25/102
f 233/25/51 235/25/51 237/25/51
f 235/25/98 230/25/98 236/25/98
f 228/25/98 230/25/98 235/25/98
f 235/25/98 236/25/98 237/25/98
f 228/25/98 235/25/98 238/25/98
f 239/25/51 238/25/51 235/25/51
f 239/25/51 240/25/51 238/25/51
f 227/25/51 240/25/51 239/25/51
s 0
f 239/25/77 241/25/77 233/25/77
f 227/25/7 239/25/7 242/25/7
s 1
f 227/25/51 226/25/51 240/25/51
f 228/25/210 240/25/210 226/25/210
f 238/25/211 240/25/211 228/25/211
f 236/25/210 243/25/210 237/25/210
f 233/25/51 237/25/51 243/25/51
f 233/25/51 243/25/51 244/25/51
f 244/25/51 243/25/51 245/25/51
f 245/25/211 243/25/211 236/25/211
f 244/25/51 245/25/51 246/25/51
f 236/25/98 246/25/98 245/25/98
f 246/25/101 248/25/101 234/25/101
f 246/25/101 234/25/101 247/25/101
f 247/25/51 246/25/51 250/25/51
f 244/25/51 246/25/51 247/25/51
f 247/25/101 246/25/101 248/25/101
f 236/25/98 248/25/98 246/25/98
f 246/25/98 248/25/98 249/25/98
f 246/25/98 249/25/98 250/25/98
f 249/25/210 251/25/210 250/25/210
f 247/25/51 250/25/51 251/25/51
f 247/25/51 251/25/51 252/25/51
f 252/25/51 251/25/51 253/25/51
f 253/25/211 251/25/211 249/25/211
f 252/25/51 253/25/51 254/25/51
f 249/25/98 254/25/98 253/25/98
f 254/25/101 255/25/101 256/25/101
f 249/25/98 255/25/98 254/25/98
f 254/25/101 256/25/101 257/25/101
f 252/25/51 254/25/51 257/25/51
s 0
f 252/25/51 257/25/51 258/25/51
s 1
f 248/25/7 256/25/7 255/25/7
f 248/25/7 234/25/7 256/25/7
f 249/25/98 248/25/98 255/25/98
s 0
f 247/25/98 252/25/98 259/25/98
s 1
f 230/25/7 234/25/7 248/25/7
f 236/25/98 230/25/98 248/25/98
f 247/25/101 248/25/101 234/25/101
s 0
f 244/25/98 247/25/98 260/25/98
f 233/25/77 244/25/77 261/25/77
s 1
f 262/1/117 265/2/118 263/3/119
f 262/1/120 263/3/121 264/4/122
f 266/5/7 262/1/7 264/4/7
f 266/5/123 265/2/124 262/1/125
f 266/5/126 269/6/127 267/7/128
f 266/5/129 267/7/130 268/8/131
f 266/5/132 268/8/133 265/2/134
f 270/9/212 269/6/136 266/5/137
f 270/9/138 266/5/139 271/10/140
f 266/5/213 272/11/214 271/10/143
f 266/5/213 273/12/215 272/11/214
f 266/5/7 264/4/7 273/12/7
f 264/4/145 272/11/146 273/12/147
f 264/4/145 274/13/216 272/11/146
f 271/10/149 272/11/149 274/13/149
f 264/4/150 275/14/151 274/13/152
f 275/14/153 276/15/217 274/13/155
f 276/15/156 271/10/156 274/13/156
f 275/14/157 277/16/158 276/15/159
f 270/9/218 276/15/161 277/16/219
f 270/9/220 271/10/164 276/15/165
f 278/17/51 280/18/51 277/16/51
f 278/17/51 277/16/51 279/19/51
f 275/14/166 279/19/167 277/16/168
f 280/18/169 270/9/221 277/16/222
f 267/7/172 280/18/173 278/17/174
f 267/7/175 281/20/176 280/18/223
f 280/18/224 281/20/225 270/9/180
f 281/20/181 267/7/181 270/9/181
f 278/17/182 279/19/183 282/21/184
f 275/14/185 282/21/186 279/19/187
f 278/17/188 282/21/189 283/22/190
f 283/22/77 282/21/77 275/14/77
f 263/3/191 278/17/192 283/22/193
f 263/3/194 283/22/195 284/23/77
f 284/23/77 283/22/77 275/14/77
f 263/3/194 284/23/77 264/4/196
f 264/4/197 284/23/198 275/14/199
f 263/3/200 285/24/201 278/17/202
f 267/7/203 278/17/204 285/24/205
f 285/24/77 263/3/77 268/8/77
f 267/7/206 285/24/207 268/8/208
f 267/7/209 269/6/209 270/9/209
f 263/3/77 265/2/77 268/8/77
f 286/1/1 289/2/2 287/3/3
f 286/1/4 287/3/5 288/4/6
f 290/5/7 286/1/7 288/4/7
f 290/5/8 289/2/9 286/1/10
f 290/5/11 293/6/12 291/7/13
f 290/5/226 291/7/15 292/8/16
f 290/5/227 292/8/18 289/2/19
f 294/9/228 293/6/229 290/5/22
f 294/9/23 290/5/24 295/10/230
f 290/5/26 296/11/27 295/10/231
f 290/5/26 297/12/232 296/11/27
f 290/5/7 288/4/7 297/12/7
f 288/4/30 296/11/31 297/12/32
f 288/4/30 298/13/33 296/11/31
f 295/10/34 296/11/34 298/13/34
f 288/4/35 299/14/36 298/13/37
f 299/14/38 300/15/233 298/13/40
f 300/15/41 295/10/41 298/13/41
f 299/14/42 301/16/43 300/15/234
f 294/9/45 300/15/46 301/16/47
f 294/9/48 295/10/235 300/15/50
f 302/17/51 304/18/51 301/16/51
f 302/17/51 301/16/51 303/19/51
f 299/14/52 303/19/53 301/16/54
f 304/18/55 294/9/56 301/16/57
f 291/7/58 304/18/59 302/17/60
f 291/7/236 305/20/62 304/18/237
f 304/18/64 305/20/65 294/9/238
f 305/20/67 291/7/67 294/9/67
f 302/17/68 303/19/69 306/21/70
f 299/14/239 306/21/240 303/19/241
f 302/17/74 306/21/75 307/22/76
f 307/22/77 306/21/77 299/14/77
f 287/3/78 302/17/79 307/22/80
f 287/3/81 307/22/82 308/23/77
f 308/23/77 307/22/77 299/14/77
f 287/3/83 308/23/77 288/4/84
f 288/4/242 308/23/86 299/14/87
f 287/3/88 309/24/89 302/17/90
f 291/7/91 302/17/243 309/24/93
f 309/24/77 287/3/77 292/8/77
f 291/7/94 309/24/95 292/8/96
f 291/7/97 293/6/97 294/9/97
f 287/3/77 289/2/77 292/8/77
f 318/25/98 321/25/98 319/25/98
f 318/25/98 319/25/98 320/25/98
f 322/25/101 318/25/101 320/25/101
f 322/25/51 321/25/51 318/25/51
f 322/25/51 323/25/51 321/25/51
f 322/25/101 320/25/101 324/25/101
f 320/25/7 325/25/7 324/25/7
f 320/25/7 319/25/7 325/25/7
f 321/25/102 325/25/102 319/25/102
f 321/25/102 323/25/102 325/25/102
f 326/25/98 329/25/98 327/25/98
f 326/25/98 327/25/98 328/25/98
f 330/25/101 326/25/101 328/25/101
f 330/25/51 329/25/51 326/25/51
f 330/25/51 331/25/51 329/25/51
f 330/25/101 328/25/101 332/25/101
f 328/25/7 333/25/7 332/25/7
f 328/25/7 327/25/7 333/25/7
f 329/25/102 333/25/102 327/25/102
f 329/25/102 331/25/102 333/25/102
f 334/25/98 337/25/98 335/25/98
f 334/25/98 335/25/98 336/25/98
f 338/25/101 334/25/101 336/25/101
f 338/25/51 337/25/51 334/25/51
f 338/25/51 339/25/51 337/25/51
f 338/25/101 336/25/101 340/25/101
f 336/25/7 341/25/7 340/25/7
f 336/25/7 335/25/7 341/25/7
f 337/25/102 341/25/102 335/25/102
f 337/25/102 339/25/102 341/25/102
f 342/25/98 345/25/98 343/25/98
f 342/25/98 343/25/98 344/25/98
f 346/25/101 342/25/101 344/25/101
f 346/25/51 345/25/51 342/25/51
f 346/25/51 347/25/51 345/25/51
f 346/25/101 344/25/101 348/25/101
f 344/25/7 349/25/7 348/25/7
f 344/25/7 343/25/7 349/25/7
f 345/25/102 349/25/102 343/25/102
f 345/25/102 347/25/102 349/25/102
f 350/25/98 353/25/98 351/25/98
f 350/25/98 351/25/98 352/25/98
f 354/25/101 350/25/101 352/25/101
f 354/25/51 353/25/51 350/25/51
f 354/25/51 355/25/51 353/25/51
f 354/25/101 352/25/101 356/25/101
f 352/25/7 357/25/7 356/25/7
f 352/25/7 351/25/7 357/25/7
f 353/25/102 357/25/102 351/25/102
f 353/25/102 355/25/102 357/25/102
f 358/25/98 361/25/98 359/25/98
f 358/25/98 359/25/98 360/25/98
f 362/25/101 358/25/101 360/25/101
f 362/25/51 361/25/51 358/25/51
f 362/25/51 363/25/51 361/25/51
f 362/25/101 360/25/101 364/25/101
f 360/25/7 365/25/7 364/25/7
f 360/25/7 359/25/7 365/25/7
f 361/25/102 365/25/102 359/25/102
f 361/25/102 363/25/102 365/25/102
f 366/25/98 369/25/98 367/25/98
f 366/25/98 367/25/98 368/25/98
f 370/25/101 366/25/101 368/25/101
f 370/25/51 369/25/51 366/25/51
f 370/25/51 371/25/51 369/25/51
f 370/25/101 368/25/101 372/25/101
f 368/25/7 373/25/7 372/25/7
f 368/25/7 367/25/7 373/25/7
f 369/25/102 373/25/102 367/25/102
f 369/25/102 371/25/102 373/25/102
f 374/25/98 377/25/98 375/25/98
f 374/25/98 375/25/98 376/25/98
f 378/25/101 374/25/101 376/25/101
f 378/25/51 377/25/51 374/25/51
f 378/25/51 379/25/51 377/25/51
f 378/25/101 376/25/101 380/25/101
f 376/25/7 381/25/7 380/25/7
f 376/25/7 375/25/7 381/25/7
f 377/25/102 381/25/102 375/25/102
f 377/25/102 379/25/102 381/25/102
f 382/25/98 385/25/98 383/25/98
f 382/25/98 383/25/98 384/25/98
f 386/25/101 382/25/101 384/25/101
f 386/25/51 385/25/51 382/25/51
f 386/25/51 387/25/51 385/25/51
f 386/25/101 384/25/101 388/25/101
f 384/25/7 389/25/7 388/25/7
f 384/25/7 383/25/7 389/25/7
f 385/25/102 389/25/102 383/25/102
f 385/25/102 387/25/102 389/25/102
f 395/25/98 391/25/98 390/25/98
f 390/25/98 391/25/98 392/25/98
f 390/25/98 392/25/98 393/25/98
f 390/25/98 393/25/98 394/25/244
f 397/25/99 390/25/99 394/25/99
f 395/25/98 390/25/98 396/25/98
f 396/25/100 390/25/100 397/25/100
f 399/25/101 397/25/101 398/25/101
f 398/25/101 397/25/101 394/25/101
f 399/25/101 396/25/101 397/25/101
f 399/25/51 400/25/51 391/25/51
f 399/25/51 391/25/51 395/25/51
f 399/25/101 395/25/101 396/25/101
f 391/25/102 400/25/102 401/25/102
f 393/25/7 392/25/7 401/25/7
f 393/25/7 401/25/7 398/25/7
f 391/25/102 401/25/102 392/25/102
f 398/25/101 394/25/101 393/25/101
f 402/25/98 405/25/98 403/25/98
f 402/25/98 403/25/98 404/25/98
f 402/25/7 404/25/7 407/25/7
f 406/25/98 405/25/98 402/25/98
f 409/25/101 406/25/101 402/25/101
f 402/25/7 407/25/7 408/25/7
f 409/25/101 402/25/101 408/25/101
f 411/25/101 406/25/101 409/25/101
s 0
f 409/25/245 408/25/246 410/25/247
f 411/25/77 409/25/77 412/25/77
s 1
f 411/25/51 414/25/51 413/25/51
f 411/25/51 413/25/51 406/25/51
f 413/25/102 414/25/102 415/25/102
f 415/25/102 414/25/102 407/25/102
f 415/25/102 407/25/102 404/25/102
f 415/25/102 404/25/102 403/25/102
f 405/25/108 415/25/108 403/25/108
f 413/25/102 415/25/102 416/25/102
f 416/25/109 415/25/109 405/25/109
f 406/25/98 413/25/98 416/25/98
f 406/25/98 416/25/98 405/25/98
f 422/25/98 418/25/98 417/25/98
f 417/25/98 418/25/98 419/25/98
f 417/25/98 419/25/98 420/25/98
f 417/25/98 420/25/98 421/25/98
f 424/25/99 417/25/99 421/25/99
f 422/25/98 417/25/98 423/25/98
f 423/25/100 417/25/100 424/25/100
f 426/25/101 424/25/101 425/25/101
f 425/25/101 424/25/101 421/25/101
f 426/25/101 423/25/101 424/25/101
f 426/25/51 427/25/51 418/25/51
f 426/25/51 418/25/51 422/25/51
f 426/25/101 422/25/101 423/25/101
f 418/25/102 427/25/102 428/25/102
f 420/25/7 419/25/7 428/25/7
f 420/25/7 428/25/7 425/25/7
f 418/25/102 428/25/102 419/25/102
f 425/25/101 421/25/101 420/25/101
f 429/25/98 432/25/98 430/25/98
f 429/25/98 430/25/98 431/25/98
f 429/25/7 431/25/7 434/25/7
f 433/25/98 432/25/98 429/25/98
f 436/25/101 433/25/101 429/25/101
f 429/25/7 434/25/7 435/25/7
f 436/25/101 429/25/101 435/25/101
f 438/25/101 433/25/101 436/25/101
s 0
f 436/25/245 435/25/248 437/25/249
f 438/25/250 436/25/251 439/25/251
s 1
f 438/25/51 441/25/51 440/25/51
f 438/25/51 440/25/51 433/25/51
f 440/25/102 441/25/102 442/25/102
f 442/25/102 441/25/102 434/25/102
f 442/25/102 434/25/102 431/25/102
f 442/25/102 431/25/102 430/25/102
f 432/25/108 442/25/108 430/25/108
f 440/25/102 442/25/102 443/25/102
f 443/25/109 442/25/109 432/25/109
f 433/25/98 440/25/98 443/25/98
f 433/25/98 443/25/98 432/25/98
f 171/27/77 178/27/77 257/27/77
f 171/27/77 257/27/77 227/27/77
f 256/25/77 231/25/77 227/25/77
f 256/25/77 227/25/77 257/27/77
f 444/5/7 3/4/7 1/1/7
f 444/5/252 1/1/253 4/2/254
f 444/5/255 445/7/256 446/6/257
f 444/5/258 7/8/259 445/7/260
f 444/5/261 4/2/262 7/8/263
f 447/9/264 444/5/265 446/6/266
f 447/9/267 448/10/268 444/5/269
f 444/5/270 448/10/271 449/11/272
f 444/5/270 449/11/272 450/12/273
f 444/5/7 450/12/7 3/4/7
f 3/4/274 450/12/32 449/11/275
f 3/4/274 449/11/275 451/13/276
f 448/10/277 451/13/277 449/11/277
f 3/4/278 451/13/279 14/14/280
f 14/14/281 451/13/282 452/15/283
f 452/15/284 451/13/284 448/10/284
f 14/14/285 452/15/286 453/16/287
f 447/9/288 453/16/289 452/15/290
f 447/9/291 452/15/292 448/10/293
f 17/17/51 453/16/51 454/18/51
f 17/17/51 18/19/51 453/16/51
f 14/14/294 453/16/295 18/19/296
f 454/18/297 453/16/298 447/9/299
f 445/7/300 17/17/301 454/18/302
f 445/7/303 454/18/304 455/20/305
f 454/18/306 447/9/307 455/20/308
f 455/20/309 447/9/309 445/7/309
f 445/7/310 24/24/311 17/17/312
f 445/7/313 7/8/314 24/24/315
f 445/7/316 447/9/316 446/6/316
f 469/25/77 464/25/77 465/25/77
f 464/25/77 466/25/77 465/25/77
f 464/25/77 467/25/77 466/25/77
f 464/25/77 468/25/77 467/25/77
f 471/25/317 468/25/317 464/25/317
f 469/25/77 470/25/77 464/25/77
f 470/25/318 471/25/318 464/25/318
f 48/25/101 47/25/101 471/25/101
f 47/25/101 468/25/101 471/25/101
f 48/25/101 471/25/101 470/25/101
f 48/25/51 465/25/51 49/25/51
f 48/25/51 469/25/51 465/25/51
f 48/25/101 470/25/101 469/25/101
f 465/25/102 50/25/102 49/25/102
f 467/25/7 50/25/7 466/25/7
f 467/25/7 47/25/7 50/25/7
f 465/25/102 466/25/102 50/25/102
f 47/25/101 467/25/101 468/25/101
f 472/25/77 473/25/77 475/25/77
f 472/25/77 474/25/77 473/25/77
f 56/25/7 474/25/7 472/25/7
f 472/25/77 475/25/77 476/25/77
f 56/25/101 472/25/101 476/25/101
f 56/25/101 476/25/101 57/25/101
f 56/25/7 58/25/7 474/25/7
f 474/25/102 58/25/102 59/25/102
f 474/25/102 59/25/102 477/25/102
f 477/25/51 59/25/51 61/25/51
f 477/25/51 61/25/51 62/25/51
f 478/25/51 477/25/51 62/25/51
f 478/25/51 62/25/51 64/25/51
f 478/25/51 64/25/51 57/25/51
f 478/25/51 479/25/51 477/25/51
f 476/25/51 478/25/51 57/25/51
f 473/25/319 479/25/319 478/25/319
f 476/25/51 475/25/51 478/25/51
f 475/25/320 473/25/320 478/25/320
f 474/25/77 479/25/77 473/25/77
f 474/25/77 477/25/77 479/25/77
f 480/25/77 481/25/77 483/25/77
f 480/25/77 482/25/77 481/25/77
f 71/25/7 482/25/7 480/25/7
f 480/25/77 483/25/77 484/25/77
f 71/25/101 480/25/101 484/25/101
f 71/25/101 484/25/101 72/25/101
f 71/25/7 73/25/7 482/25/7
f 482/25/102 73/25/102 74/25/102
f 482/25/102 74/25/102 485/25/102
f 485/25/51 74/25/51 76/25/51
f 485/25/51 76/25/51 77/25/51
f 486/25/51 485/25/51 77/25/51
f 486/25/51 77/25/51 79/25/51
f 486/25/51 79/25/51 72/25/51
f 486/25/51 487/25/51 485/25/51
f 484/25/51 486/25/51 72/25/51
f 481/25/319 487/25/319 486/25/319
f 484/25/51 483/25/51 486/25/51
f 483/25/320 481/25/320 486/25/320
f 482/25/77 487/25/77 481/25/77
f 482/25/77 485/25/77 487/25/77
f 488/25/77 489/25/77 491/25/77
f 488/25/77 490/25/77 489/25/77
f 86/25/7 490/25/7 488/25/7
f 488/25/77 491/25/77 492/25/77
f 86/25/101 488/25/101 492/25/101
f 86/25/101 492/25/101 87/25/101
f 86/25/7 88/25/7 490/25/7
f 490/25/102 88/25/102 89/25/102
f 490/25/102 89/25/102 493/25/102
f 493/25/51 89/25/51 91/25/51
f 493/25/51 91/25/51 92/25/51
f 494/25/51 493/25/51 92/25/51
f 494/25/51 92/25/51 94/25/51
f 494/25/51 94/25/51 87/25/51
f 494/25/51 495/25/51 493/25/51
f 492/25/51 494/25/51 87/25/51
f 489/25/319 495/25/319 494/25/319
f 492/25/51 491/25/51 494/25/51
f 491/25/320 489/25/320 494/25/320
f 490/25/77 495/25/77 489/25/77
f 490/25/77 493/25/77 495/25/77
f 496/25/77 497/25/77 499/25/77
f 496/25/77 498/25/77 497/25/77
f 496/25/7 101/25/7 498/25/7
f 500/25/77 496/25/77 499/25/77
f 103/25/101 496/25/101 500/25/101
f 496/25/7 102/25/7 101/25/7
f 103/25/101 102/25/101 496/25/101
f 105/25/101 103/25/101 500/25/101
f 105/25/51 501/25/51 108/25/51
f 105/25/51 500/25/51 501/25/51
f 501/25/102 502/25/102 108/25/102
f 502/25/102 101/25/102 108/25/102
f 502/25/102 498/25/102 101/25/102
f 502/25/102 497/25/102 498/25/102
f 499/25/321 497/25/321 502/25/321
f 501/25/102 503/25/102 502/25/102
f 503/25/322 499/25/322 502/25/322
f 500/25/77 503/25/77 501/25/77
f 500/25/77 499/25/77 503/25/77
f 504/25/101 112/25/101 505/25/101
f 504/25/101 113/25/101 112/25/101
f 113/25/51 504/25/51 509/25/51
f 504/25/77 505/25/77 506/25/77
f 504/25/77 506/25/77 507/25/77
f 508/25/77 504/25/77 507/25/77
f 504/25/51 508/25/51 509/25/51
f 508/25/323 510/25/323 509/25/323
f 120/25/102 509/25/102 510/25/102
f 509/25/51 120/25/51 113/25/51
f 121/25/102 120/25/102 510/25/102
f 510/25/102 511/25/102 121/25/102
f 511/25/7 512/25/7 121/25/7
f 512/25/7 124/25/7 121/25/7
f 512/25/7 125/25/7 124/25/7
f 512/25/7 505/25/7 125/25/7
f 505/25/7 126/25/7 125/25/7
f 505/25/7 112/25/7 126/25/7
f 511/25/7 513/25/7 512/25/7
f 512/25/324 513/25/324 507/25/324
f 512/25/7 506/25/7 505/25/7
f 506/25/325 512/25/325 507/25/325
f 507/25/77 513/25/77 511/25/77
f 507/25/77 511/25/77 510/25/77
f 508/25/77 507/25/77 510/25/77
f 514/25/101 129/25/101 515/25/101
f 514/25/101 130/25/101 129/25/101
f 130/25/51 514/25/51 519/25/51
f 514/25/77 515/25/77 516/25/77
f 514/25/77 516/25/77 517/25/77
f 518/25/77 514/25/77 517/25/77
f 514/25/51 518/25/51 519/25/51
f 518/25/323 520/25/323 519/25/323
f 137/25/102 519/25/102 520/25/102
f 519/25/51 137/25/51 130/25/51
f 138/25/102 137/25/102 520/25/102
f 520/25/102 521/25/102 138/25/102
f 521/25/7 522/25/7 138/25/7
f 522/25/7 141/25/7 138/25/7
f 522/25/7 142/25/7 141/25/7
f 522/25/7 515/25/7 142/25/7
f 515/25/7 143/25/7 142/25/7
f 515/25/7 129/25/7 143/25/7
f 521/25/7 523/25/7 522/25/7
f 522/25/324 523/25/324 517/25/324
f 522/25/7 516/25/7 515/25/7
f 516/25/325 522/25/325 517/25/325
f 517/25/77 523/25/77 521/25/77
f 517/25/77 521/25/77 520/25/77
f 518/25/77 517/25/77 520/25/77
f 524/25/101 146/25/101 525/25/101
f 524/25/101 147/25/101 146/25/101
f 147/25/51 524/25/51 529/25/51
f 524/25/77 525/25/77 526/25/77
f 524/25/77 526/25/77 527/25/77
f 528/25/77 524/25/77 527/25/77
f 524/25/51 528/25/51 529/25/51
f 528/25/323 530/25/323 529/25/323
f 154/25/102 529/25/102 530/25/102
f 529/25/51 154/25/51 147/25/51
f 155/25/102 154/25/102 530/25/102
f 530/25/102 531/25/102 155/25/102
f 531/25/7 532/25/7 155/25/7
f 532/25/7 158/25/7 155/25/7
f 532/25/7 159/25/7 158/25/7
f 532/25/7 525/25/7 159/25/7
f 525/25/7 160/25/7 159/25/7
f 525/25/7 146/25/7 160/25/7
f 531/25/7 533/25/7 532/25/7
f 532/25/324 533/25/324 527/25/324
f 532/25/7 526/25/7 525/25/7
f 526/25/325 532/25/325 527/25/325
f 527/25/77 533/25/77 531/25/77
f 527/25/77 531/25/77 530/25/77
f 528/25/77 527/25/77 530/25/77
f 534/26/102 163/26/102 165/26/102
f 535/26/7 534/26/7 536/26/7
f 534/26/102 165/26/102 166/26/102
f 534/26/102 166/26/102 539/26/102
f 534/26/7 537/26/7 536/26/7
f 538/26/77 537/26/77 534/26/77
f 538/26/77 534/26/77 539/26/77
f 166/26/102 171/26/102 539/26/102
f 539/26/51 171/26/51 173/26/51
f 539/26/51 173/26/51 540/26/51
f 540/26/77 538/26/77 539/26/77
f 540/26/102 174/26/102 173/26/102
f 540/26/51 173/26/51 175/26/51
f 176/26/101 541/26/101 175/26/101
f 540/26/51 175/26/51 541/26/51
f 541/26/51 175/26/51 178/26/51
f 542/26/101 178/26/101 179/26/101
f 541/26/51 178/26/51 542/26/51
f 543/26/101 542/26/101 179/26/101
f 542/26/77 543/26/77 544/26/77
f 542/26/77 544/26/77 545/26/77
f 542/26/77 545/26/77 541/26/77
f 545/26/77 546/26/77 541/26/77
f 545/26/77 547/26/77 546/26/77
f 547/26/326 545/26/326 548/26/326
f 545/26/327 544/26/327 548/26/327
f 187/26/7 548/26/7 544/26/7
f 187/26/7 188/26/7 548/26/7
f 548/26/7 188/26/7 549/26/7
f 549/26/7 546/26/7 548/26/7
f 546/26/7 547/26/7 548/26/7
f 188/26/7 551/26/7 546/26/7
f 546/26/101 190/26/101 188/26/101
f 188/26/7 550/26/7 551/26/7
f 188/26/7 192/26/7 550/26/7
f 552/26/327 551/26/327 550/26/327
f 541/26/77 546/26/77 551/26/77
f 541/26/77 551/26/77 552/26/77
f 552/26/77 553/26/77 540/26/77
f 541/26/77 552/26/77 540/26/77
f 552/26/77 554/26/77 553/26/77
f 554/26/328 552/26/328 550/26/328
f 553/26/7 554/26/7 550/26/7
f 553/26/329 556/26/329 192/26/329
f 192/26/102 197/26/102 553/26/102
f 192/26/7 555/26/7 553/26/7
f 553/26/102 197/26/102 174/26/102
f 553/26/102 174/26/102 540/26/102
f 540/26/77 553/26/77 555/26/77
f 556/26/7 553/26/7 550/26/7
f 550/26/7 192/26/7 556/26/7
f 192/26/7 536/26/7 555/26/7
f 538/26/327 555/26/327 536/26/327
f 540/26/77 555/26/77 538/26/77
f 192/26/7 163/26/7 536/26/7
f 546/26/101 176/26/101 190/26/101
f 187/26/101 543/26/101 200/26/101
f 187/26/7 544/26/7 543/26/7
f 543/26/101 179/26/101 200/26/101
f 546/26/101 541/26/101 176/26/101
f 537/26/328 538/26/328 536/26/328
f 536/26/7 163/26/7 535/26/7
f 557/5/7 203/4/7 201/1/7
f 557/5/330 201/1/331 204/2/332
f 557/5/333 558/7/334 559/6/335
f 557/5/336 207/8/337 558/7/338
f 557/5/339 204/2/340 207/8/341
f 560/9/342 557/5/343 559/6/344
f 560/9/345 561/10/346 557/5/347
f 557/5/348 561/10/349 562/11/350
f 557/5/348 562/11/350 563/12/351
f 557/5/7 563/12/7 203/4/7
f 203/4/352 563/12/147 562/11/353
f 203/4/352 562/11/353 564/13/354
f 561/10/355 564/13/355 562/11/355
f 203/4/356 564/13/357 214/14/358
f 214/14/359 564/13/360 565/15/361
f 565/15/362 564/13/362 561/10/362
f 214/14/363 565/15/364 566/16/365
f 560/9/366 566/16/367 565/15/368
f 560/9/369 565/15/370 561/10/371
f 217/17/51 566/16/51 567/18/51
f 217/17/51 218/19/51 566/16/51
f 214/14/372 566/16/373 218/19/374
f 567/18/375 566/16/376 560/9/377
f 558/7/378 217/17/379 567/18/380
f 558/7/381 567/18/382 568/20/383
f 567/18/384 560/9/385 568/20/386
f 568/20/387 560/9/387 558/7/387
f 558/7/388 224/24/389 217/17/390
f 558/7/391 207/8/392 224/24/393
f 558/7/394 560/9/394 559/6/394
f 227/25/51 570/25/51 569/25/51
f 569/25/77 570/25/77 571/25/77
f 227/25/102 569/25/102 572/25/102
f 569/25/77 571/25/77 572/25/77
f 571/25/77 573/25/77 572/25/77
f 572/25/7 573/25/7 232/25/7
f 227/25/102 572/25/102 231/25/102
f 572/25/7 232/25/7 231/25/7
f 574/25/102 232/25/102 233/25/102
f 233/25/102 573/25/102 232/25/102
f 573/25/7 234/25/7 232/25/7
f 574/25/102 573/25/102 232/25/102
f 239/25/51 233/25/51 574/25/51
f 233/25/102 574/25/102 573/25/102
f 233/25/51 576/25/51 574/25/51
f 574/25/77 575/25/77 573/25/77
f 571/25/77 574/25/77 573/25/77
f 574/25/77 576/25/77 575/25/77
f 571/25/77 577/25/77 574/25/77
f 239/25/51 574/25/51 577/25/51
f 239/25/51 577/25/51 578/25/51
f 227/25/51 239/25/51 578/25/51
f 227/25/51 578/25/51 570/25/51
f 571/25/395 570/25/395 578/25/395
f 577/25/396 571/25/396 578/25/396
f 575/25/395 576/25/395 579/25/395
f 233/25/51 579/25/51 576/25/51
f 233/25/51 244/25/51 579/25/51
f 244/25/51 580/25/51 579/25/51
f 580/25/396 575/25/396 579/25/396
f 244/25/51 581/25/51 580/25/51
f 575/25/77 580/25/77 581/25/77
f 581/25/101 234/25/101 582/25/101
f 581/25/101 247/25/101 234/25/101
f 247/25/51 584/25/51 581/25/51
f 244/25/51 247/25/51 581/25/51
f 247/25/101 582/25/101 581/25/101
f 575/25/77 581/25/77 582/25/77
f 581/25/77 583/25/77 582/25/77
f 581/25/77 584/25/77 583/25/77
f 583/25/395 584/25/395 585/25/395
f 247/25/51 585/25/51 584/25/51
f 247/25/51 252/25/51 585/25/51
f 252/25/51 586/25/51 585/25/51
f 586/25/396 583/25/396 585/25/396
f 252/25/51 587/25/51 586/25/51
f 583/25/77 586/25/77 587/25/77
f 587/25/101 256/25/101 588/25/101
f 583/25/77 587/25/77 588/25/77
f 587/25/101 257/25/101 256/25/101
f 252/25/51 257/25/51 587/25/51
f 582/25/7 588/25/7 256/25/7
f 582/25/7 256/25/7 234/25/7
f 583/25/77 588/25/77 582/25/77
f 573/25/7 582/25/7 234/25/7
f 575/25/77 582/25/77 573/25/77
f 247/25/101 234/25/101 582/25/101
f 589/5/7 264/4/7 262/1/7
f 589/5/330 262/1/331 265/2/332
f 589/5/333 590/7/334 591/6/335
f 589/5/336 268/8/337 590/7/338
f 589/5/339 265/2/340 268/8/341
f 592/9/397 589/5/343 591/6/344
f 592/9/345 593/10/398 589/5/347
f 589/5/399 593/10/349 594/11/400
f 589/5/399 594/11/400 595/12/401
f 589/5/7 595/12/7 264/4/7
f 264/4/352 595/12/147 594/11/353
f 264/4/352 594/11/353 596/13/402
f 593/10/355 596/13/355 594/11/355
f 264/4/356 596/13/357 275/14/358
f 275/14/359 596/13/360 597/15/403
f 597/15/362 596/13/362 593/10/362
f 275/14/363 597/15/404 598/16/365
f 592/9/405 598/16/406 597/15/368
f 592/9/407 597/15/370 593/10/371
f 278/17/51 598/16/51 599/18/51
f 278/17/51 279/19/51 598/16/51
f 275/14/372 598/16/373 279/19/374
f 599/18/375 598/16/408 592/9/409
f 590/7/378 278/17/379 599/18/380
f 590/7/381 599/18/410 600/20/383
f 599/18/384 592/9/411 600/20/386
f 600/20/387 592/9/387 590/7/387
f 590/7/388 285/24/389 278/17/390
f 590/7/391 268/8/392 285/24/393
f 590/7/394 592/9/394 591/6/394
f 601/5/7 288/4/7 286/1/7
f 601/5/252 286/1/253 289/2/254
f 601/5/255 602/7/256 603/6/257
f 601/5/412 292/8/259 602/7/260
f 601/5/261 289/2/262 292/8/263
f 604/9/413 601/5/265 603/6/266
f 604/9/267 605/10/414 601/5/269
f 601/5/270 605/10/415 606/11/416
f 601/5/270 606/11/416 607/12/417
f 601/5/7 607/12/7 288/4/7
f 288/4/274 607/12/32 606/11/275
f 288/4/274 606/11/275 608/13/276
f 605/10/277 608/13/277 606/11/277
f 288/4/278 608/13/279 299/14/280
f 299/14/281 608/13/282 609/15/283
f 609/15/284 608/13/284 605/10/284
f 299/14/285 609/15/286 610/16/287
f 604/9/288 610/16/289 609/15/290
f 604/9/291 609/15/292 605/10/418
f 302/17/51 610/16/51 611/18/51
f 302/17/51 303/19/51 610/16/51
f 299/14/294 610/16/295 303/19/296
f 611/18/297 610/16/298 604/9/299
f 602/7/300 302/17/301 611/18/302
f 602/7/419 611/18/420 612/20/305
f 611/18/306 604/9/421 612/20/308
f 612/20/309 604/9/309 602/7/309
f 602/7/310 309/24/311 302/17/422
f 602/7/313 292/8/314 309/24/315
f 602/7/316 604/9/316 603/6/316
f 617/25/77 618/25/77 620/25/77
f 617/25/77 619/25/77 618/25/77
f 322/25/101 619/25/101 617/25/101
f 322/25/51 617/25/51 620/25/51
f 322/25/51 620/25/51 323/25/51
f 322/25/101 324/25/101 619/25/101
f 619/25/7 324/25/7 325/25/7
f 619/25/7 325/25/7 618/25/7
f 620/25/102 618/25/102 325/25/102
f 620/25/102 325/25/102 323/25/102
f 621/25/77 622/25/77 624/25/77
f 621/25/77 623/25/77 622/25/77
f 330/25/101 623/25/101 621/25/101
f 330/25/51 621/25/51 624/25/51
f 330/25/51 624/25/51 331/25/51
f 330/25/101 332/25/101 623/25/101
f 623/25/7 332/25/7 333/25/7
f 623/25/7 333/25/7 622/25/7
f 624/25/102 622/25/102 333/25/102
f 624/25/102 333/25/102 331/25/102
f 625/25/77 626/25/77 628/25/77
f 625/25/77 627/25/77 626/25/77
f 338/25/101 627/25/101 625/25/101
f 338/25/51 625/25/51 628/25/51
f 338/25/51 628/25/51 339/25/51
f 338/25/101 340/25/101 627/25/101
f 627/25/7 340/25/7 341/25/7
f 627/25/7 341/25/7 626/25/7
f 628/25/102 626/25/102 341/25/102
f 628/25/102 341/25/102 339/25/102
f 629/25/77 630/25/77 632/25/77
f 629/25/77 631/25/77 630/25/77
f 346/25/101 631/25/101 629/25/101
f 346/25/51 629/25/51 632/25/51
f 346/25/51 632/25/51 347/25/51
f 346/25/101 348/25/101 631/25/101
f 631/25/7 348/25/7 349/25/7
f 631/25/7 349/25/7 630/25/7
f 632/25/102 630/25/102 349/25/102
f 632/25/102 349/25/102 347/25/102
f 633/25/77 634/25/77 636/25/77
f 633/25/77 635/25/77 634/25/77
f 354/25/101 635/25/101 633/25/101
f 354/25/51 633/25/51 636/25/51
f 354/25/51 636/25/51 355/25/51
f 354/25/101 356/25/101 635/25/101
f 635/25/7 356/25/7 357/25/7
f 635/25/7 357/25/7 634/25/7
f 636/25/102 634/25/102 357/25/102
f 636/25/102 357/25/102 355/25/102
f 637/25/77 638/25/77 640/25/77
f 637/25/77 639/25/77 638/25/77
f 362/25/101 639/25/101 637/25/101
f 362/25/51 637/25/51 640/25/51
f 362/25/51 640/25/51 363/25/51
f 362/25/101 364/25/101 639/25/101
f 639/25/7 364/25/7 365/25/7
f 639/25/7 365/25/7 638/25/7
f 640/25/102 638/25/102 365/25/102
f 640/25/102 365/25/102 363/25/102
f 641/25/77 642/25/77 644/25/77
f 641/25/77 643/25/77 642/25/77
f 370/25/101 643/25/101 641/25/101
f 370/25/51 641/25/51 644/25/51
f 370/25/51 644/25/51 371/25/51
f 370/25/101 372/25/101 643/25/101
f 643/25/7 372/25/7 373/25/7
f 643/25/7 373/25/7 642/25/7
f 644/25/102 642/25/102 373/25/102
f 644/25/102 373/25/102 371/25/102
f 645/25/77 646/25/77 648/25/77
f 645/25/77 647/25/77 646/25/77
f 378/25/101 647/25/101 645/25/101
f 378/25/51 645/25/51 648/25/51
f 378/25/51 648/25/51 379/25/51
f 378/25/101 380/25/101 647/25/101
f 647/25/7 380/25/7 381/25/7
f 647/25/7 381/25/7 646/25/7
f 648/25/102 646/25/102 381/25/102
f 648/25/102 381/25/102 379/25/102
f 649/25/77 650/25/77 652/25/77
f 649/25/77 651/25/77 650/25/77
f 386/25/101 651/25/101 649/25/101
f 386/25/51 649/25/51 652/25/51
f 386/25/51 652/25/51 387/25/51
f 386/25/101 388/25/101 651/25/101
f 651/25/7 388/25/7 389/25/7
f 651/25/7 389/25/7 650/25/7
f 652/25/102 650/25/102 389/25/102
f 652/25/102 389/25/102 387/25/102
f 658/25/77 653/25/77 654/25/77
f 653/25/77 655/25/77 654/25/77
f 653/25/77 656/25/77 655/25/77
f 653/25/77 657/25/77 656/25/77
f 660/25/317 657/25/317 653/25/317
f 658/25/77 659/25/77 653/25/77
f 659/25/318 660/25/318 653/25/318
f 399/25/101 398/25/101 660/25/101
f 398/25/101 657/25/101 660/25/101
f 399/25/101 660/25/101 659/25/101
f 399/25/51 654/25/51 400/25/51
f 399/25/51 658/25/51 654/25/51
f 399/25/101 659/25/101 658/25/101
f 654/25/102 401/25/102 400/25/102
f 656/25/7 401/25/7 655/25/7
f 656/25/7 398/25/7 401/25/7
f 654/25/102 655/25/102 401/25/102
f 398/25/101 656/25/101 657/25/101
f 661/25/77 662/25/77 664/25/77
f 661/25/77 663/25/77 662/25/77
f 661/25/7 407/25/7 663/25/7
f 665/25/77 661/25/77 664/25/77
f 409/25/101 661/25/101 665/25/101
f 661/25/7 408/25/7 407/25/7
f 409/25/101 408/25/101 661/25/101
f 411/25/101 409/25/101 665/25/101
f 411/25/51 666/25/51 414/25/51
f 411/25/51 665/25/51 666/25/51
f 666/25/102 667/25/102 414/25/102
f 667/25/102 407/25/102 414/25/102
f 667/25/102 663/25/102 407/25/102
f 667/25/102 662/25/102 663/25/102
f 664/25/321 662/25/321 667/25/321
f 666/25/102 668/25/102 667/25/102
f 668/25/322 664/25/322 667/25/322
f 665/25/77 668/25/77 666/25/77
f 665/25/77 664/25/77 668/25/77
f 674/25/77 669/25/77 670/25/77
f 669/25/77 671/25/77 670/25/77
f 669/25/77 672/25/77 671/25/77
f 669/25/77 673/25/77 672/25/77
f 676/25/317 673/25/317 669/25/317
f 674/25/77 675/25/77 669/25/77
f 675/25/318 676/25/318 669/25/318
f 426/25/101 425/25/101 676/25/101
f 425/25/101 673/25/101 676/25/101
f 426/25/101 676/25/101 675/25/101
f 426/25/51 670/25/51 427/25/51
f 426/25/51 674/25/51 670/25/51
f 426/25/101 675/25/101 674/25/101
f 670/25/102 428/25/102 427/25/102
f 672/25/7 428/25/7 671/25/7
f 672/25/7 425/25/7 428/25/7
f 670/25/102 671/25/102 428/25/102
f 425/25/101 672/25/101 673/25/101
f 677/25/77 678/25/77 680/25/77
f 677/25/77 679/25/77 678/25/77
f 677/25/7 434/25/7 679/25/7
f 681/25/77 677/25/77 680/25/77
f 436/25/101 677/25/101 681/25/101
f 677/25/7 435/25/7 434/25/7
f 436/25/101 435/25/101 677/25/101
f 438/25/101 436/25/101 681/25/101
f 438/25/51 682/25/51 441/25/51
f 438/25/51 681/25/51 682/25/51
f 682/25/102 683/25/102 441/25/102
f 683/25/102 434/25/102 441/25/102
f 683/25/102 679/25/102 434/25/102
f 683/25/102 678/25/102 679/25/102
f 680/25/321 678/25/321 683/25/321
f 682/25/102 684/25/102 683/25/102
f 684/25/322 680/25/322 683/25/322
f 681/25/77 684/25/77 682/25/77
f 681/25/77 680/25/77 684/25/77
usemtl Material.033
f 28/28/51 26/29/51 25/28/51
f 27/30/102 25/31/102 29/30/102
f 27/30/102 28/31/102 25/31/102
f 29/32/101 25/28/101 28/28/101
f 30/33/51 28/31/51 25/31/51
f 30/33/51 31/33/51 28/31/51
f 31/33/98 27/30/98 28/31/98
f 31/33/98 32/34/98 27/30/98
f 29/32/101 28/28/101 27/32/101
f 28/28/51 33/29/51 26/29/51
f 27/32/98 33/29/98 28/28/98
f 27/32/98 34/35/98 33/29/98
f 33/36/51 35/37/51 26/36/51
f 34/35/101 26/29/101 33/29/101
f 34/38/98 36/37/98 33/36/98
f 33/36/51 36/37/51 35/37/51
f 34/38/98 37/39/98 36/37/98
f 34/35/101 38/35/101 26/29/101
f 314/32/101 311/28/101 310/28/101
f 310/28/51 311/28/51 312/29/51
f 310/28/51 312/29/51 313/29/51
f 315/32/98 310/28/98 313/29/98
f 314/32/101 310/28/101 315/32/101
f 315/32/98 313/29/98 316/35/98
f 316/35/102 313/29/102 312/29/102
f 316/35/102 312/29/102 317/35/102
f 457/28/51 25/28/51 26/29/51
f 456/30/101 25/31/101 29/30/101
f 456/30/101 457/31/101 25/31/101
f 29/32/102 25/28/102 457/28/102
f 30/33/51 25/31/51 457/31/51
f 30/33/51 457/31/51 458/33/51
f 458/33/77 457/31/77 456/30/77
f 458/33/77 456/30/77 459/34/77
f 29/32/102 457/28/102 456/32/102
f 457/28/51 26/29/51 460/29/51
f 456/32/77 457/28/77 460/29/77
f 456/32/77 460/29/77 461/35/77
f 460/36/51 26/36/51 35/37/51
f 461/35/101 460/29/101 26/29/101
f 461/38/77 460/36/77 462/37/77
f 460/36/51 35/37/51 462/37/51
f 461/38/77 462/37/77 463/39/77
f 461/35/101 26/29/101 38/35/101
f 314/32/101 613/28/101 311/28/101
f 613/28/51 312/29/51 311/28/51
f 613/28/51 614/29/51 312/29/51
f 615/32/77 614/29/77 613/28/77
f 314/32/101 615/32/101 613/28/101
f 615/32/77 616/35/77 614/29/77
f 616/35/102 312/29/102 614/29/102
f 616/35/102 317/35/102 312/29/102
