# Blender 5.2.0 LTS
# www.blender.org
mtllib chest_lid.mtl
o chest.001
v -0.091222 0.245179 0.147531
v -0.088096 0.245282 0.144387
v -0.087426 0.213179 0.140754
v -0.090629 0.212768 0.143948
v -0.097865 0.402718 0.022972
v -0.095435 0.401348 0.019189
v -0.098482 0.405667 0.015801
v -0.091970 0.351617 0.075494
v -0.094520 0.354753 0.077014
v -0.094539 0.336175 0.132126
v -0.094342 0.330943 0.136728
v -0.091089 0.331923 0.132581
v -0.095418 0.401779 -0.031279
v -0.098529 0.402791 -0.036303
v -0.097848 0.405644 -0.028918
v -0.094549 0.354837 -0.090547
v -0.091969 0.351778 -0.088822
v -0.094439 0.330461 -0.149686
v -0.094183 0.335511 -0.146327
v -0.091098 0.331367 -0.146070
v -0.097638 0.406025 -0.007045
v -0.095287 0.402474 -0.005078
v -0.090464 0.286867 0.144418
v -0.093603 0.287476 0.147602
v -0.088292 0.250003 -0.157750
v -0.091133 0.245613 -0.156597
v -0.092488 0.245614 -0.158015
v -0.092048 0.249172 -0.161021
v -0.093706 0.289687 -0.158669
v -0.094182 0.293244 -0.155250
v -0.090177 0.290088 -0.154080
v -0.090328 0.288861 -0.155402
v -0.092616 0.293226 -0.153691
v -0.093630 0.293269 -0.151938
v -0.093266 0.296322 -0.148886
v -0.092073 0.297519 -0.148929
v -0.088804 0.289858 -0.145619
v -0.114314 0.245070 0.147565
v -0.117479 0.245453 0.144420
v -0.118548 0.333347 0.136444
v -0.118845 0.338465 0.131549
v -0.122381 0.334497 0.132414
v -0.125948 0.410137 -0.028402
v -0.125201 0.407213 -0.035674
v -0.129316 0.407006 -0.031162
v -0.120826 0.357209 -0.090541
v -0.123749 0.354709 -0.088941
v -0.117924 0.288314 0.147594
v -0.121190 0.288605 0.144323
v -0.113061 0.245614 -0.158015
v -0.117665 0.248403 -0.156498
v -0.117775 0.249997 -0.158268
v -0.113968 0.249293 -0.161024
v -0.115713 0.298754 -0.148628
v -0.114341 0.297427 -0.148621
v -0.115272 0.294231 -0.151191
v -0.118617 0.291374 -0.145556
v -0.116436 0.213170 0.140844
v -0.113290 0.212481 0.143956
v -0.125459 0.410021 0.015185
v -0.129300 0.406989 0.018018
v -0.125609 0.407186 0.022506
v -0.123749 0.354549 0.075618
v -0.120829 0.357048 0.077224
v -0.117985 0.333074 -0.149351
v -0.122383 0.334016 -0.145896
v -0.119278 0.338119 -0.145595
v -0.129103 0.407853 -0.005026
v -0.126010 0.410533 -0.006607
v -0.117196 0.290224 -0.158903
v -0.120986 0.290181 -0.155950
v -0.120779 0.291501 -0.154658
v -0.116293 0.294171 -0.155125
v -0.091764 0.158531 0.131017
v -0.087374 0.161685 0.129721
v -0.087372 0.162922 0.131263
v -0.091207 0.161857 0.134423
v -0.116349 0.162907 0.131318
v -0.113292 0.158607 0.129631
v -0.111946 0.158521 0.131054
v -0.112630 0.162032 0.134448
v -0.090500 0.189020 0.135965
v -0.087398 0.189505 0.132798
v -0.113251 0.188882 0.135956
v -0.116389 0.189486 0.132863
v -0.088090 0.245425 0.141573
v -0.091037 0.245553 0.138412
v -0.090384 0.214431 0.134918
v -0.087429 0.213782 0.138042
v -0.099129 0.394091 0.019700
v -0.100442 0.395130 0.018757
v -0.099833 0.396996 0.014288
v -0.095776 0.399609 0.017643
v -0.095432 0.346761 0.072807
v -0.092243 0.349423 0.074029
v -0.091239 0.330951 0.131555
v -0.094478 0.324537 0.129825
v -0.095767 0.325870 0.129542
v -0.095341 0.329840 0.125854
v -0.094103 0.330124 0.124647
v -0.099309 0.397071 -0.025237
v -0.100561 0.397270 -0.026504
v -0.099901 0.395093 -0.032000
v -0.098589 0.394056 -0.032946
v -0.095776 0.399655 -0.030878
v -0.092237 0.349419 -0.087629
v -0.095476 0.347064 -0.085760
v -0.095656 0.326042 -0.142213
v -0.094319 0.324679 -0.142214
v -0.091244 0.331006 -0.145431
v -0.094634 0.330418 -0.138016
v -0.095873 0.330137 -0.139222
v -0.095729 0.399655 -0.006617
v -0.093662 0.286508 0.138518
v -0.090504 0.286714 0.141651
v -0.088256 0.248722 -0.156491
v -0.088352 0.249999 -0.155136
v -0.092185 0.249068 -0.151938
v -0.092488 0.245611 -0.155141
v -0.094745 0.283698 -0.151974
v -0.093406 0.282385 -0.151975
v -0.090398 0.289804 -0.155018
v -0.093897 0.286711 -0.149409
v -0.089016 0.289670 -0.146669
v -0.088886 0.290932 -0.145419
v -0.092865 0.290556 -0.142180
v -0.093398 0.286733 -0.145780
v -0.117455 0.245392 0.141574
v -0.114648 0.245565 0.138444
v -0.118125 0.327623 0.129525
v -0.119347 0.326487 0.129800
v -0.122420 0.333545 0.131422
v -0.120091 0.332201 0.124661
v -0.118794 0.331708 0.125863
v -0.125697 0.401254 -0.026500
v -0.126947 0.401451 -0.025234
v -0.129556 0.404909 -0.030089
v -0.127057 0.398505 -0.032879
v -0.125902 0.399166 -0.031955
v -0.124011 0.352324 -0.087807
v -0.121655 0.349364 -0.085935
v -0.121199 0.287964 0.141647
v -0.118075 0.287759 0.138427
v -0.114405 0.245610 -0.156576
v -0.113061 0.245611 -0.155141
v -0.114103 0.249319 -0.151953
v -0.117847 0.249989 -0.154723
v -0.115343 0.291180 -0.142205
v -0.118810 0.291916 -0.145423
v -0.115757 0.287673 -0.145864
v -0.113580 0.214446 0.135036
v -0.116433 0.213767 0.138118
v -0.126948 0.401415 0.012002
v -0.125697 0.401215 0.013269
v -0.125409 0.399039 0.018719
v -0.126564 0.398376 0.019642
v -0.129582 0.405026 0.017524
v -0.121652 0.349211 0.072604
v -0.124023 0.352256 0.074337
v -0.119066 0.326630 -0.142212
v -0.117917 0.327792 -0.142211
v -0.118326 0.331926 -0.139229
v -0.119624 0.332417 -0.138025
v -0.122414 0.333737 -0.145198
v -0.117675 0.283345 -0.151974
v -0.116522 0.284556 -0.151973
v -0.115936 0.287694 -0.148840
v -0.116890 0.287742 -0.147613
v -0.121123 0.290315 -0.154650
v -0.090430 0.158615 0.129641
v -0.091770 0.158705 0.128148
v -0.091002 0.162511 0.125143
v -0.087378 0.163095 0.128405
v -0.116350 0.161653 0.129813
v -0.116355 0.163080 0.128460
v -0.113078 0.162769 0.125231
v -0.111952 0.158695 0.128185
v -0.087403 0.189940 0.130093
v -0.090555 0.190511 0.126990
v -0.116392 0.189997 0.130144
v -0.113515 0.190635 0.126992
v 0.088099 0.245304 0.144389
v 0.091022 0.244983 0.147528
v 0.090384 0.212467 0.143837
v 0.087427 0.213051 0.140735
v 0.098547 0.402918 0.022851
v 0.097838 0.405598 0.015689
v 0.095416 0.401389 0.018553
v 0.094555 0.354704 0.077195
v 0.091970 0.351617 0.075494
v 0.091097 0.332082 0.132473
v 0.094406 0.330932 0.136733
v 0.094095 0.336107 0.132180
v 0.098381 0.405707 -0.028988
v 0.098001 0.402865 -0.036114
v 0.095414 0.401399 -0.032015
v 0.091969 0.351778 -0.088822
v 0.094506 0.354890 -0.090346
v 0.094389 0.330435 -0.149691
v 0.091101 0.331325 -0.146162
v 0.094782 0.335531 -0.146384
v 0.095290 0.402488 -0.007739
v 0.097599 0.406018 -0.006432
v 0.093603 0.287476 0.147602
v 0.090470 0.286987 0.144399
v 0.088255 0.248374 -0.156416
v 0.088292 0.250003 -0.158195
v 0.092044 0.249180 -0.161009
v 0.092488 0.245614 -0.158015
v 0.093717 0.289726 -0.158652
v 0.090241 0.289931 -0.154891
v 0.092606 0.293223 -0.153642
v 0.094182 0.293244 -0.155250
v 0.088804 0.289858 -0.145619
v 0.092073 0.297519 -0.148929
v 0.093266 0.296322 -0.148886
v 0.093630 0.293269 -0.151938
v 0.117478 0.245489 0.144440
v 0.114643 0.245070 0.147565
v 0.118536 0.333356 0.136437
v 0.122371 0.334597 0.132395
v 0.119258 0.338523 0.131508
v 0.125464 0.410063 -0.028408
v 0.129300 0.406981 -0.031287
v 0.125622 0.407236 -0.035731
v 0.123749 0.354709 -0.088941
v 0.120829 0.357209 -0.090541
v 0.121182 0.288886 0.144282
v 0.117995 0.288561 0.147519
v 0.114411 0.245614 -0.156581
v 0.113061 0.245614 -0.158015
v 0.113919 0.249262 -0.161029
v 0.117775 0.249996 -0.157792
v 0.114341 0.297427 -0.148621
v 0.115713 0.298754 -0.148628
v 0.118617 0.291374 -0.145556
v 0.115295 0.294236 -0.151163
v 0.113562 0.212481 0.143957
v 0.116434 0.213115 0.140832
v 0.125956 0.410095 0.015176
v 0.125178 0.407164 0.022450
v 0.129317 0.406882 0.018183
v 0.120826 0.357047 0.077224
v 0.123749 0.354549 0.075618
v 0.118003 0.333079 -0.149344
v 0.118825 0.338066 -0.145622
v 0.122397 0.334049 -0.145871
v 0.126010 0.410533 -0.006607
v 0.129110 0.407853 -0.007824
v 0.117175 0.290128 -0.158946
v 0.116161 0.294174 -0.155092
v 0.120788 0.291286 -0.154423
v 0.120995 0.289967 -0.155714
v 0.090420 0.158619 0.129581
v 0.091764 0.158531 0.131017
v 0.091235 0.161872 0.134427
v 0.087372 0.162922 0.131263
v 0.116350 0.161654 0.129806
v 0.116349 0.162907 0.131318
v 0.112876 0.162055 0.134452
v 0.111946 0.158521 0.131054
v 0.087398 0.189505 0.132798
v 0.090537 0.188735 0.135952
v 0.116389 0.189486 0.132863
v 0.113494 0.188882 0.135957
v 0.091252 0.245764 0.138415
v 0.088090 0.245425 0.141573
v 0.087429 0.213782 0.138042
v 0.090539 0.214721 0.135022
v 0.099901 0.395045 0.018757
v 0.098589 0.394005 0.019700
v 0.095776 0.399609 0.017643
v 0.099796 0.396983 0.014294
v 0.092219 0.349289 0.074290
v 0.095453 0.346890 0.072472
v 0.094634 0.330165 0.124648
v 0.095873 0.329881 0.125854
v 0.094985 0.326686 0.129260
v 0.091239 0.330951 0.131555
v 0.095761 0.399589 -0.030837
v 0.099129 0.394142 -0.032946
v 0.100442 0.395179 -0.032000
v 0.100561 0.397270 -0.026504
v 0.095371 0.346934 -0.086098
v 0.092237 0.349585 -0.087361
v 0.094319 0.324679 -0.142214
v 0.095656 0.326042 -0.142213
v 0.095341 0.330095 -0.139223
v 0.094103 0.330377 -0.138016
v 0.091244 0.331006 -0.145431
v 0.099309 0.397071 -0.025237
v 0.090504 0.286714 0.141652
v 0.093662 0.286508 0.138518
v 0.088352 0.249999 -0.154557
v 0.091175 0.245609 -0.156585
v 0.092488 0.245611 -0.155141
v 0.092252 0.249092 -0.151931
v 0.093406 0.282385 -0.151975
v 0.094745 0.283698 -0.151974
v 0.093807 0.286703 -0.149441
v 0.090420 0.289253 -0.154483
v 0.093477 0.286741 -0.145724
v 0.092869 0.290518 -0.142180
v 0.088886 0.290932 -0.145419
v 0.089016 0.289670 -0.146669
v 0.114320 0.245565 0.138444
v 0.117455 0.245392 0.141574
v 0.119347 0.326487 0.129800
v 0.118125 0.327623 0.129525
v 0.119135 0.331371 0.126764
v 0.122420 0.333545 0.131422
v 0.126947 0.401451 -0.025234
v 0.125697 0.401254 -0.026500
v 0.125408 0.399088 -0.031955
v 0.126564 0.398427 -0.032879
v 0.129582 0.405072 -0.030748
v 0.121652 0.349364 -0.085935
v 0.124009 0.352417 -0.087611
v 0.118094 0.287326 0.138522
v 0.121199 0.287964 0.141647
v 0.113061 0.245611 -0.155141
v 0.117684 0.248667 -0.156472
v 0.117847 0.249989 -0.155136
v 0.114174 0.249392 -0.151951
v 0.115343 0.291180 -0.142205
v 0.115863 0.287669 -0.145948
v 0.118841 0.291397 -0.145844
v 0.116433 0.213767 0.138118
v 0.113308 0.214446 0.135035
v 0.125697 0.401215 0.013269
v 0.129582 0.405026 0.017524
v 0.127057 0.398455 0.019642
v 0.125902 0.399118 0.018719
v 0.123990 0.352128 0.074490
v 0.121655 0.349211 0.072604
v 0.117917 0.327792 -0.142211
v 0.119066 0.326630 -0.142212
v 0.122414 0.333737 -0.145198
v 0.120091 0.332454 -0.138025
v 0.118794 0.331963 -0.139229
v 0.129549 0.405014 -0.006612
v 0.126948 0.401415 0.012002
v 0.116522 0.284556 -0.151973
v 0.117675 0.283345 -0.151974
v 0.121104 0.290786 -0.155166
v 0.116890 0.287742 -0.147613
v 0.115936 0.287694 -0.148840
v 0.091770 0.158705 0.128148
v 0.087374 0.161681 0.129791
v 0.087378 0.163095 0.128405
v 0.091001 0.162511 0.125143
v 0.116355 0.163080 0.128460
v 0.113292 0.158608 0.129614
v 0.111952 0.158695 0.128185
v 0.112831 0.162744 0.125230
v 0.090608 0.190797 0.127004
v 0.087404 0.190033 0.130104
v 0.113272 0.190635 0.126991
v 0.116394 0.190017 0.130150
v -0.034527 0.324116 0.128834
v -0.034528 0.386765 0.016385
v -0.202917 0.413450 0.016411
v -0.192778 0.355940 0.072610
v -0.189846 0.336324 0.128846
v -0.183026 0.290209 0.128802
v -0.034528 0.284188 0.128796
v 0.198529 0.355940 0.072610
v 0.208668 0.413450 0.016411
v 0.040279 0.386765 0.016385
v 0.040279 0.340969 0.072596
v 0.040279 0.324116 0.128834
v 0.040279 0.284188 0.128796
v 0.188777 0.290210 0.128802
v 0.195597 0.336325 0.128846
v -0.192778 0.356093 -0.085929
v -0.202917 0.413494 -0.029619
v -0.034528 0.386809 -0.029644
v -0.034528 0.341122 -0.085943
v -0.183026 0.290470 -0.142247
v -0.189846 0.336586 -0.142203
v -0.034528 0.386787 -0.006630
v 0.002876 0.386809 -0.029644
v -0.044172 0.324377 -0.142214
v -0.034527 0.284449 -0.142253
v 0.198529 0.356093 -0.085929
v 0.038462 0.341163 -0.085854
v 0.040279 0.386809 -0.029644
v 0.208668 0.413494 -0.029619
v 0.040279 0.324377 -0.142214
v 0.195597 0.336586 -0.142203
v 0.188777 0.290470 -0.142247
v 0.040279 0.284449 -0.142253
v 0.040279 0.386787 -0.006630
v -0.257637 0.423175 0.016420
v -0.247238 0.357576 0.072612
v -0.244528 0.339476 0.125697
v -0.237517 0.295643 0.125654
v 0.252989 0.357577 0.072612
v 0.243193 0.295690 0.077002
v 0.250279 0.339476 0.125697
v 0.243268 0.295643 0.125655
v -0.257638 0.423220 -0.029609
v -0.247238 0.357729 -0.085927
v -0.237442 0.295690 0.076081
v -0.244528 0.339731 -0.139047
v -0.237502 0.295895 -0.139089
v 0.263389 0.423220 -0.029609
v 0.243276 0.295892 -0.139089
v 0.252989 0.357729 -0.085927
v 0.250279 0.339731 -0.139047
v 0.263388 0.423176 0.016420
v -0.247238 0.357576 0.072612
v -0.202917 0.413450 0.016410
v -0.192778 0.355940 0.072610
v -0.244528 0.339476 0.125697
v -0.189846 0.336324 0.128846
v -0.237441 0.295849 -0.088364
v -0.237490 0.295645 0.125725
v -0.183026 0.290209 0.128802
v -0.034528 0.284188 0.128796
v -0.246487 0.293661 0.138525
v -0.255107 0.347580 0.138509
v -0.258469 0.369252 0.078182
v -0.269130 0.435695 0.019876
v -0.205344 0.422137 0.020890
v -0.196547 0.364248 0.077622
v -0.193882 0.341468 0.138645
v -0.187370 0.290200 0.138522
v -0.180733 0.245325 0.138478
v -0.239087 0.245112 0.138467
v -0.246430 0.293679 0.128781
v -0.254116 0.341327 0.128848
v -0.257119 0.361347 0.072551
v 0.235220 0.330478 0.088044
v -0.229469 0.330477 0.088044
v -0.191655 0.285513 0.144172
v -0.186436 0.250225 0.144138
v -0.234841 0.250046 0.144138
v -0.240701 0.288385 0.144175
v 0.211081 0.422130 0.020336
v 0.274881 0.435696 0.019876
v 0.274879 0.435730 -0.033055
v 0.192187 0.250225 0.144138
v 0.240592 0.250046 0.144138
v 0.246452 0.288385 0.144175
v 0.197406 0.285514 0.144172
v 0.202298 0.364249 0.077622
v 0.264220 0.369252 0.078182
v 0.260858 0.347581 0.138509
v 0.199633 0.341469 0.138645
v 0.040279 0.284179 0.138516
v -0.034896 0.284179 0.138516
v 0.252238 0.293661 0.138525
v 0.193121 0.290200 0.138522
v 0.186485 0.245328 0.138479
v 0.252238 0.293670 0.128801
v 0.244822 0.245121 0.138482
v 0.259867 0.341327 0.128848
v 0.262870 0.361348 0.072551
v 0.273198 0.426503 0.016326
v 0.273199 0.426530 -0.029525
v 0.198529 0.355940 0.072610
v 0.195597 0.336325 0.128846
v 0.188777 0.290210 0.128802
v 0.040279 0.284188 0.128796
v 0.235220 0.245329 0.128760
v 0.208634 0.413459 0.016419
v 0.235221 0.245594 -0.142291
v 0.243268 0.295643 0.125655
v 0.250279 0.339476 0.125697
v 0.252989 0.357577 0.072612
v 0.263391 0.423169 0.016409
v -0.229469 0.298402 0.123674
v 0.235220 0.345870 0.037652
v -0.205330 0.422182 -0.033527
v -0.269128 0.435730 -0.033055
v -0.186436 0.250516 -0.157660
v -0.234841 0.250336 -0.157660
v -0.240701 0.288675 -0.157623
v -0.191655 0.285804 -0.157626
v -0.196547 0.364411 -0.090925
v -0.258469 0.369415 -0.091475
v -0.255107 0.347860 -0.151844
v -0.193882 0.341748 -0.151991
v -0.034528 0.284459 -0.151973
v 0.040647 0.284459 -0.151973
v -0.246487 0.293941 -0.151964
v -0.187370 0.290480 -0.151967
v -0.246487 0.293930 -0.142239
v -0.239071 0.245401 -0.152014
v -0.254116 0.341588 -0.142195
v -0.257119 0.361500 -0.085860
v -0.267447 0.426547 -0.029509
v -0.267448 0.426485 0.016342
v -0.192778 0.356093 -0.085929
v -0.189846 0.336586 -0.142203
v -0.183026 0.290470 -0.142247
v -0.034528 0.284449 -0.142253
v -0.202883 0.413503 -0.029627
v -0.237517 0.295898 -0.139089
v -0.244528 0.339731 -0.139047
v -0.247238 0.357729 -0.085927
v -0.257638 0.423220 -0.029609
v 0.235220 0.298653 -0.137103
v -0.229469 0.345955 -0.050990
v 0.235220 0.350829 -0.006664
v -0.229469 0.350828 -0.006664
v 0.211095 0.422190 -0.034081
v 0.192187 0.250516 -0.157660
v 0.197406 0.285804 -0.157626
v 0.246452 0.288676 -0.157623
v 0.240593 0.250337 -0.157660
v 0.202298 0.364411 -0.090925
v 0.264220 0.369416 -0.091475
v 0.260858 0.347861 -0.151844
v 0.199634 0.341749 -0.151991
v -0.180733 0.245605 -0.152010
v 0.244839 0.245392 -0.151999
v 0.252238 0.293941 -0.151964
v 0.193121 0.290480 -0.151967
v 0.186485 0.245608 -0.152010
v 0.252181 0.293941 -0.142219
v 0.259867 0.341588 -0.142195
v 0.262870 0.361501 -0.085859
v 0.208668 0.413494 -0.029619
v 0.198529 0.356093 -0.085929
v 0.195597 0.336586 -0.142203
v 0.188777 0.290471 -0.142247
v 0.040279 0.284449 -0.142253
v -0.229469 0.245594 -0.142291
v 0.243193 0.295692 0.074886
v 0.243241 0.295901 -0.139160
v 0.250279 0.339731 -0.139047
v 0.252989 0.357729 -0.085927
v 0.263389 0.423220 -0.029609
v -0.229469 0.330660 -0.101412
v -0.257640 0.423169 0.016409
v -0.131998 0.247940 -0.157941
v -0.083263 0.247940 -0.157941
v -0.134210 0.271124 -0.157919
v -0.084369 0.270120 -0.157920
v -0.131998 0.247933 -0.150873
v -0.083263 0.247933 -0.150873
v -0.134210 0.271117 -0.150851
v -0.084369 0.270113 -0.150851
v 0.139962 0.271124 -0.157919
v 0.137750 0.247941 -0.157941
v 0.089014 0.247941 -0.157941
v 0.090120 0.270120 -0.157920
v 0.089014 0.247934 -0.150873
v 0.090120 0.270114 -0.150851
v 0.139962 0.271117 -0.150850
v 0.137750 0.247934 -0.150873
v -0.229469 0.345870 0.037653
v 0.235220 0.298402 0.123674
v -0.229469 0.245334 0.128759
v -0.229469 0.298653 -0.137104
v 0.235220 0.345956 -0.050990
v 0.235220 0.330660 -0.101411
v -0.032710 0.341011 0.072506
v 0.002876 0.386765 0.016385
v 0.002876 0.386787 -0.006630
vn 0.9634 -0.2128 -0.1629
vn 0.9937 -0.1004 -0.0496
vn 0.9940 -0.0980 -0.0489
vn 0.9944 -0.0946 -0.0479
vn 1.0000 0.0016 -0.0015
vn 1.0000 0.0014 -0.0019
vn 1.0000 0.0013 -0.0007
vn 0.9868 -0.1618 -0.0011
vn 0.9879 -0.1550 0.0016
vn 0.9875 -0.1574 -0.0015
vn 0.9755 -0.1309 0.1767
vn -0.0122 -0.2204 -0.9753
vn -0.0811 -0.9489 -0.3050
vn -0.0901 -0.7403 -0.6662
vn 0.9983 0.0500 0.0293
vn 0.9686 -0.2316 0.0904
vn 0.9998 0.0131 -0.0152
vn 0.9983 0.0583 0.0053
vn -0.9995 0.0085 0.0309
vn -0.9871 0.1598 -0.0009
vn -0.9933 -0.0852 -0.0779
vn -0.9991 0.0226 -0.0351
vn -1.0000 -0.0013 -0.0013
vn -1.0000 -0.0018 -0.0003
vn -1.0000 -0.0019 0.0002
vn -0.9898 0.0442 -0.1354
vn -0.9785 0.0944 0.1834
vn -0.9995 -0.0314 -0.0077
vn -0.9995 -0.0315 -0.0077
vn -0.9995 -0.0314 -0.0079
vn -0.9948 -0.0899 0.0471
vn -0.9952 -0.0868 -0.0449
vn -0.9954 -0.0850 -0.0443
vn -0.9955 -0.0838 -0.0440
vn -0.9998 0.0204 0.0043
vn -0.9998 0.0203 0.0046
vn -0.9998 0.0204 0.0041
vn -0.9928 0.0564 0.1059
vn -0.9866 -0.1634 0.0004
vn -0.9866 -0.1633 0.0007
vn 0.0004 0.0005 1.0000
vn 0.0809 -0.9495 0.3033
vn 0.0903 -0.7415 0.6648
vn 0.0004 0.0009 1.0000
vn 0.1608 -0.9870 -0.0039
vn 0.1600 -0.9871 -0.0034
vn 0.1573 -0.9875 -0.0015
vn -0.9998 0.0135 -0.0135
vn -0.9983 0.0583 0.0057
vn 0.9961 -0.0876 -0.0052
vn 0.9887 0.1496 -0.0017
vn 0.9881 0.1535 0.0014
vn 0.9892 0.1465 -0.0002
vn 0.9996 -0.0235 0.0145
vn 0.9884 0.1519 0.0019
vn 0.9962 -0.0777 -0.0384
vn -0.7907 0.0760 -0.6075
vn -0.1659 0.9848 -0.0504
vn 0.9952 0.0820 -0.0534
vn 1.0000 -0.0017 0.0003
vn 1.0000 -0.0021 0.0009
vn 1.0000 -0.0020 0.0017
vn 0.9907 0.0378 0.1305
vn 0.9995 -0.0315 -0.0074
vn 0.9995 -0.0315 -0.0071
vn 0.9995 -0.0314 -0.0076
vn -0.5667 0.6146 -0.5488
vn -0.5671 0.6152 -0.5477
vn -0.5670 0.6150 -0.5479
vn 0.5115 0.6408 -0.5725
vn -0.5314 -0.6233 0.5737
vn -0.5316 -0.6230 0.5738
vn -0.5313 -0.6234 0.5737
vn 0.0394 0.6032 -0.7966
vn 0.0245 0.6930 -0.7205
vn 0.0235 0.6900 -0.7234
vn 0.0230 0.6887 -0.7247
vn 0.7782 0.6185 -0.1095
vn 0.8390 0.5439 -0.0178
vn 0.8405 0.5415 -0.0183
vn 0.8413 0.5402 -0.0185
vn 0.7496 0.0342 -0.6610
vn 0.8230 0.5667 0.0393
vn 0.7133 -0.2225 0.6646
vn 0.7088 -0.0647 0.7024
vn 0.7087 -0.0647 0.7025
vn 0.0568 0.6606 0.7486
vn -0.0000 -0.6453 -0.7639
vn 0.0281 0.7051 -0.7086
vn -0.7099 -0.0997 0.6973
vn -0.7084 -0.1001 0.6987
vn -0.7107 -0.0995 0.6964
vn -0.5057 0.8525 0.1320
vn -0.6716 0.7406 -0.0242
vn -0.6725 0.7398 -0.0185
vn -0.6444 0.7639 0.0343
vn -0.7055 -0.0422 0.7074
vn 0.0016 -0.7156 0.6985
vn 0.6447 -0.0600 0.7621
vn -0.7066 -0.2275 0.6701
vn -0.7085 -0.2273 0.6681
vn -0.7096 -0.2272 0.6670
vn -0.1363 -0.9225 -0.3611
vn -0.0465 -0.5898 0.8062
vn -0.0469 -0.5883 0.8073
vn -0.0470 -0.5874 0.8079
vn -0.0277 -0.7037 0.7100
vn 0.5457 -0.8351 -0.0701
vn 0.5892 -0.8080 -0.0011
vn 0.5648 -0.8252 0.0059
vn 0.7045 0.2187 -0.6752
vn 0.7309 0.0911 -0.6763
vn 0.7322 0.0908 -0.6750
vn 0.7329 0.0906 -0.6743
vn -0.0528 -0.6754 -0.7356
vn -0.0535 -0.6727 -0.7380
vn -0.0525 -0.6767 -0.7344
vn -0.1457 -0.9230 0.3561
vn -0.1448 -0.9249 0.3516
vn -0.1444 -0.9258 0.3493
vn -0.0000 -0.6796 0.7336
vn -0.0198 -0.6840 0.7292
vn -0.7433 0.0485 -0.6672
vn -0.7401 0.0484 -0.6707
vn -0.7383 0.0483 -0.6727
vn -0.7081 -0.5549 0.4366
vn -0.6009 -0.0626 0.7969
vn -0.6867 -0.0720 0.7234
vn -0.7413 0.0307 -0.6705
vn -0.0011 -0.6196 -0.7849
vn 0.6641 0.0475 -0.7461
vn -0.7420 0.2126 -0.6358
vn -0.7407 0.2127 -0.6373
vn -0.7400 0.2128 -0.6380
vn -0.0382 0.6017 -0.7978
vn -0.0217 0.6891 -0.7243
vn -0.0234 0.6941 -0.7195
vn -0.0209 0.6869 -0.7265
vn -0.7851 0.6083 -0.1169
vn -0.8131 0.5813 -0.0302
vn -0.7480 0.0328 -0.6629
vn -0.8399 0.5423 0.0194
vn -0.7241 -0.2211 0.6533
vn -0.7198 -0.2215 0.6578
vn -0.7176 -0.2217 0.6603
vn -0.7297 -0.0627 0.6809
vn -0.7321 -0.0619 0.6784
vn -0.7283 -0.0632 0.6823
vn 0.0013 -0.6385 -0.7696
vn 0.0004 -0.6415 -0.7671
vn -0.0000 -0.6430 -0.7659
vn -0.0281 0.7051 -0.7086
vn 0.7433 -0.0978 0.6618
vn 0.7429 -0.0979 0.6622
vn 0.7426 -0.0980 0.6625
vn 0.5240 0.8432 0.1200
vn 0.6149 0.7883 -0.0243
vn 0.6577 0.7530 0.0168
vn 0.6535 0.7567 0.0182
vn 0.6580 0.7530 0.0107
vn 0.7335 -0.0406 0.6785
vn -0.0017 -0.7144 0.6997
vn -0.6422 -0.0601 0.7642
vn 0.7385 -0.2179 0.6380
vn 0.7352 -0.2183 0.6417
vn 0.7403 -0.2178 0.6361
vn 0.1365 -0.9228 -0.3603
vn 0.0468 -0.5883 0.8073
vn 0.0465 -0.5899 0.8061
vn 0.0470 -0.5875 0.8079
vn 0.0277 -0.7037 0.7100
vn -0.5425 -0.8391 -0.0394
vn -0.5551 0.0203 0.8316
vn -0.7107 0.2232 -0.6671
vn -0.7068 0.2235 -0.6712
vn -0.7047 0.2237 -0.6733
vn -0.7081 0.0928 -0.6999
vn -0.7083 0.0928 -0.6998
vn -0.7078 0.0929 -0.7002
vn 0.0375 -0.7337 -0.6784
vn 0.1448 -0.9250 0.3514
vn 0.1456 -0.9230 0.3561
vn 0.1443 -0.9259 0.3492
vn -0.0000 -0.6778 0.7352
vn 0.0209 -0.6825 0.7306
vn 0.7070 0.0542 -0.7051
vn 0.7072 0.0542 -0.7049
vn 0.7069 -0.5761 0.4105
vn 0.6600 -0.0675 0.7482
vn 0.8087 -0.5882 -0.0006
vn 0.8087 -0.5883 -0.0004
vn 0.8084 -0.5886 -0.0003
vn 0.7140 0.0328 -0.6994
vn 0.0011 -0.6195 -0.7850
vn -0.6641 0.0477 -0.7461
vn 0.7103 0.2232 -0.6675
vn 0.7132 0.2230 -0.6645
vn 0.7087 0.2234 -0.6692
vn -0.1565 0.9877 0.0009
vn -0.1565 0.9877 0.0010
vn -0.0000 1.0000 0.0010
vn 0.0002 0.7764 -0.6303
vn 0.0001 0.7764 -0.6303
vn -0.0000 0.7763 -0.6304
vn -0.9877 -0.1564 -0.0000
vn -0.9876 -0.1570 -0.0020
vn -0.9877 -0.1565 -0.0001
vn 0.9876 -0.1570 -0.0020
vn 0.9877 -0.1563 -0.0000
vn 0.9877 -0.1565 -0.0001
vn -0.9874 -0.1583 0.0032
vn -0.9874 -0.1581 0.0031
vn -0.9875 -0.1577 0.0024
vn -0.9877 -0.1563 -0.0001
vn 0.9877 -0.1562 -0.0001
vn -0.9887 -0.1499 0.0005
vn -0.9887 -0.1502 -0.0002
vn -0.9886 -0.1504 -0.0046
vn 0.9633 0.2686 0.0010
vn -0.2141 0.9768 0.0009
vn -0.2135 0.9769 0.0010
vn -0.2145 0.9767 0.0009
vn -0.0000 -0.9564 -0.2921
vn 0.9882 -0.1534 -0.0000
vn 0.9887 -0.1502 -0.0001
vn 0.9887 -0.1499 -0.0008
vn -0.0000 -0.9938 -0.1112
vn 0.2078 0.9782 0.0007
vn 0.2078 0.9782 0.0008
vn 0.2077 0.9782 0.0009
vn -0.0000 0.0010 -1.0000
vn -0.9882 -0.1534 -0.0003
vn -0.0000 -0.7445 0.6676
vn -0.0000 -0.9569 0.2903
vn -0.0000 -0.0973 0.9953
vn 0.9886 -0.1504 0.0043
vn -0.9633 0.2686 -0.0005
vn 0.2141 0.9768 0.0010
vn 0.2136 0.9769 0.0009
vn 0.2145 0.9767 0.0010
vn 0.3213 -0.9470 -0.0007
vn 0.3202 -0.9473 -0.0009
vn 0.3197 -0.9475 -0.0011
vn 0.9988 0.0498 -0.0000
vn -0.9955 -0.0950 -0.0001
vn -0.9988 0.0498 -0.0000
vn 0.9955 -0.0950 -0.0001
vn -1.0000 -0.0000 -0.0000
vn 1.0000 -0.0000 -0.0000
vn 0.9690 -0.1866 -0.1623
vn 0.1571 0.9874 -0.0181
vn -0.0153 -0.0230 -0.9996
vn 0.0832 0.9441 0.3191
vn 0.9946 -0.0922 -0.0472
vn 1.0000 0.0015 -0.0019
vn 0.0030 -0.3198 0.9475
vn 0.9861 -0.1661 -0.0005
vn 0.0001 -1.0000 -0.0010
vn 0.9998 0.0205 0.0033
vn 0.9998 0.0204 0.0038
vn 0.9998 0.0205 0.0036
vn 0.9924 -0.0573 0.1093
vn 0.9715 0.0547 0.2304
vn 0.9909 -0.0640 -0.1183
vn 1.0000 0.0011 -0.0020
vn 0.0013 0.0012 -1.0000
vn -0.0015 0.0644 -0.9979
vn -0.0004 0.0005 1.0000
vn -0.0808 -0.9494 0.3034
vn -0.0015 0.3173 -0.9483
vn -0.1565 -0.9877 -0.0010
vn -0.1598 -0.9871 -0.0033
vn -0.1572 -0.9876 -0.0014
vn -0.0435 -0.9990 0.0043
vn -0.0031 0.1101 -0.9939
vn -0.0932 -0.7408 0.6652
vn -0.0003 0.0008 1.0000
vn -0.1605 -0.9870 -0.0038
vn 0.0060 0.0552 -0.9985
vn 0.0005 -0.0011 1.0000
vn 0.0876 0.7446 -0.6618
vn 0.0866 0.9418 -0.3249
vn 0.0898 0.7429 0.6634
vn 0.9949 -0.0891 0.0469
vn 0.0103 0.2416 0.9703
vn 0.9918 -0.0193 -0.1261
vn 0.1580 0.9872 0.0203
vn 0.9878 -0.1560 0.0016
vn 0.9818 -0.1899 -0.0022
vn 0.9818 -0.1898 -0.0028
vn 0.9982 0.0568 -0.0176
vn 0.0019 -0.1099 0.9939
vn 0.0422 0.9989 -0.0207
vn -0.9961 -0.0876 -0.0065
vn -0.9960 -0.0856 0.0238
vn -0.9946 0.0880 0.0550
vn -0.9897 0.1430 -0.0031
vn -0.9997 -0.0247 0.0093
vn -0.9986 -0.0127 0.0511
vn -0.9932 0.1160 0.0043
vn -0.9960 -0.0794 -0.0401
vn -0.6832 -0.0662 -0.7272
vn -0.7956 0.5993 0.0882
vn -0.9950 0.0834 -0.0542
vn -1.0000 -0.0012 0.0011
vn 0.0004 -0.9982 -0.0605
vn -0.9900 0.0430 0.1346
vn 0.0003 -0.0564 0.9984
vn -1.0000 -0.0015 0.0015
vn -0.9158 -0.3781 -0.1359
vn 0.0155 -0.0230 -0.9996
vn -0.9696 -0.2278 0.0894
vn -0.9951 -0.0880 -0.0452
vn -0.9931 -0.0518 -0.1054
vn -0.9799 -0.1145 -0.1632
vn -1.0000 0.0013 -0.0025
vn -1.0000 0.0016 -0.0013
vn -1.0000 0.0013 -0.0011
vn -1.0000 0.0011 -0.0003
vn 0.0010 -0.0004 1.0000
vn -0.9825 -0.1865 0.0028
vn -0.9825 -0.1863 0.0033
vn -0.9899 -0.0708 0.1231
vn -0.9998 0.0203 0.0049
vn -0.9749 0.0574 0.2150
vn -0.9806 -0.1962 -0.0035
vn -1.0000 0.0011 -0.0021
vn 0.0007 0.0022 -1.0000
vn 0.0016 0.0643 -0.9979
vn 0.0138 -0.2213 -0.9751
vn 0.0795 -0.9488 -0.3058
vn 0.0031 0.3189 -0.9478
vn 0.1565 -0.9877 -0.0010
vn 0.0433 -0.9991 0.0045
vn 0.0020 0.1087 -0.9941
vn 0.0929 -0.7396 -0.6666
vn -0.0075 0.0549 -0.9985
vn -0.0031 -0.1113 0.9938
vn -0.1577 0.9873 -0.0182
vn -0.0871 0.9417 -0.3249
vn -0.9967 0.0475 0.0651
vn -0.0900 0.7441 -0.6619
vn -0.0879 0.7433 0.6631
vn -0.0099 0.2415 0.9703
vn -0.9915 -0.0202 -0.1283
vn -0.0834 0.9440 0.3192
vn -0.1572 0.9874 0.0200
vn -0.9982 0.0568 -0.0178
vn -0.0015 -0.3182 0.9480
vn -0.0425 0.9989 -0.0201
vn 0.9957 -0.0849 0.0360
vn 0.9959 0.0755 0.0507
vn 0.9993 0.0158 0.0327
vn 0.9898 0.1425 -0.0026
vn 0.9981 -0.0102 0.0607
vn 0.9891 0.1470 0.0026
vn 0.9939 -0.0885 -0.0659
vn 0.9365 0.2817 0.2089
vn 0.9996 -0.0033 -0.0266
vn 1.0000 -0.0014 -0.0007
vn -0.0004 -0.9982 -0.0605
vn 0.9909 0.0374 -0.1293
vn 0.9788 0.0933 -0.1823
vn 0.9821 0.0799 0.1706
vn 0.9995 -0.0314 -0.0079
vn -0.0003 -0.0563 0.9984
vn 1.0000 -0.0016 0.0018
vn 0.7111 0.6697 0.2143
vn 0.5928 0.5444 0.5935
vn 0.7077 0.6346 -0.3105
vn 0.6140 0.4154 -0.6712
vn 0.6113 -0.5494 -0.5696
vn 0.6211 0.5635 -0.5447
vn 0.7521 0.4409 -0.4898
vn -0.4985 0.5839 0.6408
vn -0.4494 0.8119 -0.3726
vn -0.5474 -0.6221 -0.5598
vn -0.2655 -0.2797 -0.9227
vn -0.8456 0.4617 -0.2678
vn -0.4318 0.8441 0.3180
vn -0.4980 0.4321 -0.7519
vn -0.4581 0.6672 -0.5873
vn -0.4695 0.6542 -0.5930
vn 0.5942 -0.6198 0.5126
vn -0.5867 -0.6201 0.5208
vn 0.2434 -0.4653 -0.8510
vn 0.6487 -0.7296 -0.2163
vn 0.6465 -0.5402 -0.5388
vn 0.5334 -0.7702 0.3498
vn 0.6744 -0.4113 0.6132
vn 0.6012 -0.5688 0.5613
vn 0.8429 -0.4661 0.2687
vn 0.2668 0.2712 0.9248
vn 0.5320 -0.6186 0.5782
vn 0.5299 -0.6215 0.5770
vn 0.5287 -0.6233 0.5762
vn 0.5278 -0.6245 0.5757
vn -0.7163 -0.5148 -0.4710
vn -0.6968 -0.6663 0.2657
vn -0.5394 -0.6425 0.5442
vn -0.6382 -0.5184 0.5691
vn -0.7104 -0.6655 -0.2292
vn -0.7253 -0.4478 0.5229
vn -0.6858 -0.4477 0.5738
vn 0.5950 -0.5645 -0.5721
vn -0.5978 -0.5648 -0.5688
vn -0.7214 0.6221 0.3042
vn -0.6127 0.5009 0.6113
vn -0.7229 0.6542 -0.2224
vn -0.5814 0.4739 -0.6613
vn -0.5804 -0.5788 -0.5728
vn -0.5643 0.6111 -0.5550
vn -0.7521 0.4393 -0.4912
vn 0.5120 0.5543 0.6562
vn 0.4392 0.8413 -0.3152
vn 0.5798 -0.5965 -0.5549
vn 0.8457 0.4635 -0.2644
vn 0.2654 -0.2797 -0.9227
vn 0.4425 0.8144 0.3754
vn 0.4799 0.4726 -0.7392
vn 0.4944 0.6613 -0.5641
vn -0.5904 -0.6200 0.5167
vn 0.5949 -0.6275 0.5023
vn -0.6773 -0.6805 -0.2797
vn -0.2623 -0.4459 -0.8558
vn -0.2241 -0.9746 0.0007
vn -0.7538 -0.3698 -0.5432
vn -0.4994 -0.8059 0.3180
vn -0.6912 -0.4436 0.5705
vn -0.5535 -0.6028 0.5747
vn -0.2369 0.2407 0.9412
vn -0.8140 -0.5014 0.2933
vn -0.5310 -0.6238 0.5735
vn 0.2970 0.0892 -0.9507
vn 0.8083 -0.4746 -0.3484
vn 0.7104 -0.6659 0.2280
vn 0.5678 -0.6223 0.5388
vn 0.6311 -0.5201 0.5755
vn 0.7246 -0.6394 -0.2571
vn 0.7400 -0.4720 0.4791
vn 0.7296 -0.4120 0.5458
vn -0.5972 -0.5623 -0.5720
vn 0.5898 -0.5554 -0.5863
vn 0.1413 0.9210 0.3630
vn 0.6737 0.0749 -0.7352
vn 0.0493 0.5514 -0.8328
vn 0.0250 0.6944 -0.7191
vn 0.7116 0.0394 0.7015
vn 0.7963 0.5733 -0.1928
vn 0.8381 0.5453 -0.0175
vn 0.7902 0.4860 -0.3733
vn 0.7295 0.0367 -0.6830
vn 0.7746 0.6004 0.1989
vn 0.8045 0.5930 0.0324
vn 0.7371 0.1786 0.6518
vn 0.8073 0.4657 0.3625
vn 0.7025 -0.2233 0.6757
vn 0.1424 0.9211 -0.3624
vn 0.0481 0.6918 0.7204
vn -0.0034 -0.6336 -0.7736
vn 0.0009 0.6265 -0.7794
vn -0.7075 -0.1003 0.6996
vn -0.6876 0.5036 0.5231
vn -0.6989 0.6687 0.2536
vn -0.6646 0.5230 -0.5336
vn -0.7398 0.6277 -0.2422
vn -0.6010 -0.0040 -0.7992
vn -0.4989 0.8588 0.1163
vn -0.7082 -0.0595 0.7035
vn -0.6350 -0.0605 -0.7701
vn -0.6551 0.7553 -0.0174
vn -0.6592 0.7519 -0.0094
vn -0.6593 0.7518 -0.0155
vn -0.6907 0.1648 0.7041
vn -0.6082 0.7934 0.0246
vn -0.6508 -0.0576 0.7571
vn -0.0048 -0.6955 0.7185
vn 0.7168 -0.0395 0.6962
vn -0.7055 -0.2276 0.6712
vn 0.6546 0.0284 0.7554
vn -0.1413 -0.9065 -0.3978
vn -0.0464 -0.5907 0.8056
vn -0.0092 -0.6467 0.7627
vn 0.5582 -0.8229 -0.1056
vn 0.7168 0.0455 -0.6958
vn 0.6540 -0.7176 0.2395
vn 0.6568 0.0342 0.7533
vn 0.6782 -0.5287 0.5104
vn 0.7003 -0.6752 -0.2317
vn 0.5417 -0.8406 -0.0006
vn 0.6913 -0.1485 -0.7072
vn 0.6299 -0.5589 -0.5394
vn 0.7314 0.2164 -0.6467
vn 0.7302 0.0914 -0.6771
vn -0.0538 -0.6714 -0.7392
vn -0.1461 -0.9221 0.3583
vn -0.0080 -0.6532 0.7571
vn -0.0328 -0.7197 0.6935
vn -0.7450 0.0486 -0.6653
vn -0.8112 -0.4651 -0.3545
vn -0.8126 -0.5605 -0.1599
vn -0.8207 -0.4589 0.3403
vn -0.7870 -0.5940 0.1667
vn -0.7297 -0.0613 -0.6811
vn -0.8017 -0.5219 0.2915
vn -0.6810 -0.0567 0.7301
vn -0.7232 -0.1710 -0.6691
vn -0.7979 -0.6028 -0.0006
vn -0.7400 -0.0674 0.6692
vn -0.8071 -0.5904 0.0010
vn -0.6991 0.0437 -0.7137
vn -0.0101 -0.5888 -0.8082
vn 0.7045 0.0355 -0.7089
vn -0.7427 0.2125 -0.6350
vn -0.1414 0.9229 0.3580
vn -0.6642 0.0822 -0.7431
vn -0.0489 0.5463 -0.8361
vn -0.0243 0.6965 -0.7171
vn -0.7231 0.0419 0.6895
vn -0.7693 0.6040 -0.2081
vn -0.8300 0.5565 -0.0364
vn -0.8092 0.4655 -0.3585
vn -0.7267 0.0353 -0.6860
vn -0.7902 0.5830 0.1891
vn -0.8589 0.5116 0.0255
vn -0.7367 0.1797 0.6519
vn -0.7881 0.4871 0.3762
vn -0.7264 -0.2209 0.6508
vn -0.0519 0.6760 0.7351
vn -0.7335 -0.0614 0.6769
vn -0.1408 0.9224 -0.3597
vn 0.0017 -0.6371 -0.7708
vn 0.0002 0.6231 -0.7821
vn 0.7436 -0.0977 0.6615
vn 0.6563 0.5274 0.5395
vn 0.7202 0.6494 0.2441
vn 0.6883 0.5040 -0.5217
vn 0.7110 0.6556 -0.2543
vn 0.6449 -0.0123 -0.7642
vn 0.5163 0.8505 0.1003
vn 0.7284 -0.0575 0.6828
vn 0.6365 -0.0605 -0.7689
vn 0.6464 0.7623 -0.0327
vn 0.6917 0.1652 0.7030
vn 0.6805 0.7324 0.0219
vn 0.6795 0.7332 0.0276
vn 0.6766 -0.0568 0.7341
vn 0.0050 -0.6937 0.7202
vn -0.7129 -0.0397 0.7001
vn 0.7335 -0.2185 0.6437
vn -0.7053 0.0430 -0.7076
vn 0.1415 -0.9067 -0.3973
vn 0.0464 -0.5907 0.8056
vn 0.0080 -0.6429 0.7659
vn -0.5481 -0.8346 -0.0539
vn -0.6013 0.0302 0.7985
vn -0.7019 -0.6742 0.2298
vn -0.6566 0.0341 0.7535
vn -0.6286 -0.5609 0.5388
vn -0.5626 -0.8267 0.0026
vn -0.6581 -0.7138 -0.2395
vn -0.6694 -0.1505 -0.7275
vn -0.6782 -0.5278 -0.5114
vn -0.7128 0.2230 -0.6649
vn -0.7085 0.0927 -0.6995
vn 0.0697 -0.6038 -0.7941
vn 0.1461 -0.9221 0.3583
vn 0.0095 -0.6464 0.7629
vn 0.0370 -0.7263 0.6863
vn 0.8391 -0.4378 -0.3228
vn 0.7651 -0.6197 -0.1750
vn 0.8109 -0.4661 0.3539
vn 0.8148 -0.5579 0.1576
vn 0.7089 -0.0619 -0.7026
vn 0.8071 -0.5430 0.2316
vn 0.7458 -0.0591 0.6636
vn 0.7335 -0.0743 0.6757
vn 0.8088 -0.5881 -0.0007
vn 0.7250 -0.1704 -0.6673
vn 0.8085 -0.5885 -0.0008
vn 0.6726 0.0453 -0.7386
vn 0.0095 -0.5909 -0.8067
vn -0.6994 0.0372 -0.7138
vn 0.7148 0.2229 -0.6629
vn 0.0937 0.7379 0.6684
vn -0.0000 -0.0010 1.0000
vn 0.0817 0.9483 0.3068
vn 0.1565 0.9877 0.0010
vn -0.0941 0.7372 0.6690
vn -0.0823 0.9487 0.3054
vn 0.0941 0.7385 -0.6676
vn 0.0847 0.9469 -0.3101
vn 0.0002 0.7764 -0.6302
vn -0.0938 0.7392 -0.6670
vn -0.0001 0.9584 -0.2853
vn -0.0002 0.9585 -0.2852
vn -0.0001 0.9584 -0.2854
vn 0.1565 0.9877 0.0009
vn -0.0817 0.9489 -0.3049
vn -0.0000 0.9584 -0.2855
vn -0.9876 -0.1571 -0.0024
vn 0.9876 -0.1571 -0.0024
vn 0.9875 -0.1573 0.0023
vn 0.9875 -0.1576 0.0029
vn 0.9875 -0.1577 0.0031
vn 0.2079 0.9781 0.0007
vn 0.0984 0.6841 0.7227
vn 0.0857 0.9369 0.3389
vn -0.0012 -0.0012 1.0000
vn -0.9873 -0.1591 -0.0028
vn -0.9880 -0.1546 -0.0042
vn -0.9865 -0.1639 -0.0078
vn -0.9864 -0.1639 -0.0078
vn -0.9857 -0.1680 -0.0124
vn 0.9525 0.2779 0.1242
vn -0.9837 -0.1797 -0.0002
vn -0.9836 -0.1801 -0.0003
vn 0.9060 0.4101 0.1050
vn 0.9232 0.1258 0.3633
vn 0.0400 0.9991 0.0107
vn -0.3169 -0.0506 -0.9471
vn 0.0037 -0.9998 -0.0193
vn 0.0214 -0.9998 -0.0010
vn 0.0221 -0.9998 -0.0010
vn 0.0217 -0.9998 -0.0010
vn -0.3082 -0.9032 -0.2987
vn -0.2312 -0.6551 -0.7193
vn 0.7461 0.1097 0.6568
vn -0.0000 -0.7432 -0.6691
vn 0.0027 -0.7551 0.6557
vn -0.7452 -0.1144 0.6570
vn 0.0441 0.7522 0.6574
vn -0.2078 0.9782 0.0008
vn -0.1019 0.6859 0.7206
vn -0.0857 0.9369 0.3389
vn 0.0012 -0.0012 1.0000
vn 0.9880 -0.1545 0.0001
vn 0.9873 -0.1589 -0.0014
vn 0.9873 -0.1588 -0.0014
vn 0.9864 -0.1639 -0.0079
vn 0.9864 -0.1640 -0.0079
vn 0.9857 -0.1681 -0.0126
vn 0.9837 -0.1799 -0.0001
vn -0.9511 0.2811 0.1276
vn -0.9060 0.4101 0.1050
vn -0.9232 0.1258 0.3633
vn -0.0399 0.9992 0.0099
vn -0.0000 -1.0000 -0.0005
vn 0.2132 0.9770 0.0009
vn -0.0036 -0.9998 -0.0178
vn -0.9624 0.2716 0.0001
vn -0.0206 -0.9998 -0.0010
vn -0.0213 -0.9998 -0.0010
vn 0.3206 -0.0504 -0.9459
vn 0.3082 -0.9032 -0.2987
vn 0.2312 -0.6551 -0.7193
vn -0.0000 -0.0954 -0.9954
vn 0.3219 -0.9468 -0.0005
vn -0.7461 0.1097 0.6568
vn -0.0028 -0.7550 0.6557
vn 0.7453 -0.1145 0.6568
vn -0.0441 0.7523 0.6574
vn 0.1019 0.6873 -0.7192
vn 0.0857 0.9375 -0.3371
vn -0.0012 0.0007 -1.0000
vn -0.9880 -0.1545 -0.0004
vn -0.9873 -0.1589 0.0011
vn -0.9873 -0.1588 0.0011
vn -0.9864 -0.1639 0.0076
vn -0.9864 -0.1640 0.0076
vn -0.9857 -0.1682 0.0122
vn 0.9511 0.2814 -0.1271
vn -0.9836 -0.1802 -0.0003
vn 0.9060 0.4103 -0.1042
vn 0.9232 0.1265 -0.3630
vn 0.0399 0.9992 -0.0080
vn -0.2132 0.9770 0.0010
vn 0.0035 -0.9999 0.0164
vn 0.9624 0.2716 0.0005
vn 0.0211 -0.9998 -0.0010
vn -0.3206 -0.0522 0.9458
vn -0.3082 -0.9038 0.2969
vn -0.2305 -0.6565 0.7182
vn -0.3208 -0.9472 -0.0012
vn -0.0000 -0.9940 0.1093
vn 0.7461 0.1110 -0.6566
vn 0.0027 -0.7536 -0.6573
vn -0.7453 -0.1132 -0.6570
vn 0.0441 0.7535 -0.6560
vn -0.0984 0.6855 -0.7214
vn -0.0857 0.9375 -0.3371
vn 0.0012 0.0007 -1.0000
vn 0.9873 -0.1591 0.0025
vn 0.9880 -0.1546 0.0039
vn 0.9865 -0.1639 0.0075
vn 0.9864 -0.1639 0.0075
vn 0.9857 -0.1681 0.0121
vn -0.9525 0.2781 -0.1237
vn -0.9060 0.4103 -0.1042
vn -0.9232 0.1265 -0.3630
vn -0.0400 0.9992 -0.0087
vn -0.0000 -1.0000 -0.0013
vn 0.3170 -0.0524 0.9470
vn -0.0037 -0.9998 0.0171
vn -0.0219 -0.9998 -0.0009
vn 0.3082 -0.9038 0.2969
vn 0.2305 -0.6565 0.7182
vn -0.7461 0.1110 -0.6566
vn -0.0027 -0.7539 -0.6570
vn 0.7452 -0.1132 -0.6572
vn -0.0441 0.7535 -0.6560
vn 0.0201 0.9998 0.0010
vn 0.9988 0.0498 0.0001
vn -0.0201 0.9998 0.0010
vn -0.0001 0.7752 0.6318
vn -0.0002 0.7752 0.6318
vn -0.0002 0.7752 0.6317
vn 0.0001 0.9579 0.2872
vn -0.0000 0.7751 0.6319
vt 0.889160 0.714896
vt 0.890847 0.721339
vt 0.888862 0.713758
vt 0.672719 0.054245
vt 0.669805 0.111897
vt 0.676314 0.068993
vt 0.778284 0.965539
vt 0.822658 0.956974
vt 0.778284 0.965541
vt 0.659941 0.208335
vt 0.659936 0.209768
vt 0.659855 0.232736
vt 0.669829 0.307941
vt 0.659797 0.232303
vt 0.677154 0.090991
vt 0.682619 0.105922
vt 0.803915 0.564955
vt 0.772943 0.550760
vt 0.652451 0.104912
vt 0.650044 0.090383
vt 0.639455 0.057029
vt 0.637840 0.058245
vt 0.634136 0.111419
vt 0.666281 0.111572
vt 0.669356 0.058501
vt 0.667889 0.057256
vt 0.634136 0.111419
vt 0.622191 0.183109
vt 0.623537 0.184331
vt 0.654798 0.183749
vt 0.656531 0.182460
vt 0.888948 0.712720
vt 0.888785 0.714704
vt 0.891659 0.679749
vt 0.891754 0.678602
vt 0.891670 0.679622
vt 0.672731 0.365369
vt 0.672719 0.365290
vt 0.807814 0.566500
vt 0.807390 0.564894
vt 0.811156 0.527770
vt 0.811158 0.527755
vt 0.807390 0.564894
vt 0.636716 0.062056
vt 0.630885 0.110973
vt 0.634911 0.053947
vt 0.617559 0.208345
vt 0.617487 0.231349
vt 0.617485 0.187581
vt 0.634927 0.365820
vt 0.643031 0.406639
vt 0.634911 0.365588
vt 0.630847 0.308098
vt 0.746207 0.965519
vt 0.798578 0.964258
vt 0.747503 0.966161
vt 0.617486 0.231707
vt 0.630910 0.308141
vt 0.617450 0.187781
vt 0.745034 0.992631
vt 0.745012 0.993134
vt 0.672727 0.365458
vt 0.669805 0.307638
vt 0.669815 0.307835
vt 0.669826 0.111613
vt 0.674075 0.061223
vt 0.669815 0.111700
vt 0.778284 0.965541
vt 0.777486 0.993267
vt 0.777487 0.993231
vt 0.678762 0.404954
vt 0.678951 0.406189
vt 0.659855 0.186799
vt 0.659940 0.210817
vt 0.659855 0.232698
vt 0.667847 0.368397
vt 0.669563 0.369610
vt 0.673869 0.402741
vt 0.647258 0.404105
vt 0.639592 0.369858
vt 0.640879 0.368619
vt 0.639455 0.362507
vt 0.637840 0.361290
vt 0.634136 0.308116
vt 0.666277 0.307918
vt 0.669356 0.361035
vt 0.667889 0.362279
vt 0.634136 0.308116
vt 0.622191 0.236427
vt 0.623537 0.235205
vt 0.654798 0.235786
vt 0.656531 0.237076
vt 0.884140 0.711040
vt 0.885659 0.709823
vt 0.887205 0.679171
vt 0.862659 0.679404
vt 0.858347 0.710808
vt 0.859633 0.711924
vt 0.622935 0.190521
vt 0.654280 0.189886
vt 0.655997 0.228298
vt 0.621374 0.191770
vt 0.803729 0.551011
vt 0.807390 0.564894
vt 0.811099 0.528337
vt 0.773401 0.565485
vt 0.778597 0.527411
vt 0.778673 0.527040
vt 0.617564 0.209768
vt 0.617560 0.210860
vt 0.634911 0.053947
vt 0.770724 0.555093
vt 0.617485 0.231955
vt 0.617564 0.209768
vt 0.854441 0.713962
vt 0.854211 0.715918
vt 0.854317 0.715016
vt 0.858478 0.679686
vt 0.858614 0.678533
vt 0.858492 0.679568
vt 0.643319 0.408092
vt 0.643275 0.407873
vt 0.856397 0.720549
vt 0.854716 0.716076
vt 0.857578 0.723691
vt 0.630878 0.308504
vt 0.634957 0.365822
vt 0.798469 0.964260
vt 0.746210 0.965471
vt 0.798471 0.964260
vt 0.630851 0.111399
vt 0.617485 0.187593
vt 0.630910 0.111394
vt 0.745059 0.992048
vt 0.888934 0.714030
vt 0.889653 0.716779
vt 0.884616 0.716784
vt 0.854852 0.718651
vt 0.858771 0.711713
vt 0.886470 0.722638
vt 0.890419 0.719706
vt 0.890129 0.718598
vt 0.668592 0.361902
vt 0.640386 0.369211
vt 0.635993 0.361988
vt 0.859925 0.718001
vt 0.884884 0.710897
vt 0.858814 0.711745
vt 0.886413 0.718163
vt 0.891142 0.722468
vt 0.656258 0.229140
vt 0.674510 0.401969
vt 0.655463 0.190316
vt 0.656400 0.210140
vt 0.820981 0.957470
vt 0.822529 0.956999
vt 0.773993 0.993298
vt 0.774271 0.965588
vt 0.670312 0.057922
vt 0.648464 0.097104
vt 0.679827 0.096800
vt 0.863879 0.675842
vt 0.887367 0.678819
vt 0.887028 0.675911
vt 0.885407 0.719807
vt 0.862067 0.723527
vt 0.885796 0.722663
vt 0.748481 0.993145
vt 0.749670 0.965521
vt 0.861531 0.720774
vt 0.854715 0.716074
vt 0.857578 0.723691
vt 0.620954 0.228388
vt 0.621553 0.191135
vt 0.620820 0.209768
vt 0.843335 0.963180
vt 0.801069 0.963476
vt 0.859174 0.951232
vt 0.853169 0.960795
vt 0.864340 0.950662
vt 0.860510 0.949665
vt 0.654260 0.189870
vt 0.622935 0.190521
vt 0.667245 0.362284
vt 0.640022 0.362502
vt 0.860421 0.717625
vt 0.859633 0.711924
vt 0.884654 0.716774
vt 0.885845 0.719403
vt 0.655997 0.228298
vt 0.775024 0.965514
vt 0.821280 0.957314
vt 0.777851 0.965858
vt 0.654426 0.229535
vt 0.622919 0.235193
vt 0.655474 0.235799
vt 0.887227 0.679190
vt 0.863879 0.675842
vt 0.887028 0.675911
vt 0.861447 0.723564
vt 0.886492 0.722637
vt 0.748118 0.993143
vt 0.749369 0.965521
vt 0.857733 0.724105
vt 0.859410 0.718772
vt 0.860804 0.720271
vt 0.858347 0.710808
vt 0.858476 0.679706
vt 0.862745 0.679340
vt 0.639592 0.369858
vt 0.647258 0.404105
vt 0.846301 0.961664
vt 0.800868 0.963537
vt 0.853169 0.960795
vt 0.859245 0.951162
vt 0.864340 0.950663
vt 0.860569 0.949654
vt 0.640378 0.369219
vt 0.667863 0.361972
vt 0.638879 0.361828
vt 0.884855 0.710918
vt 0.859962 0.717961
vt 0.886425 0.718208
vt 0.655548 0.229161
vt 0.659853 0.233123
vt 0.674510 0.401969
vt 0.656269 0.190402
vt 0.656401 0.209615
vt 0.821373 0.957295
vt 0.778516 0.965496
vt 0.822529 0.956998
vt 0.774280 0.992153
vt 0.779505 0.965909
vt 0.775025 0.965528
vt 0.887374 0.678824
vt 0.863879 0.675842
vt 0.887028 0.675911
vt 0.862067 0.723527
vt 0.885407 0.719807
vt 0.885796 0.722663
vt 0.747948 0.965996
vt 0.748117 0.993143
vt 0.749369 0.965521
vt 0.861530 0.720773
vt 0.621555 0.228402
vt 0.617462 0.231823
vt 0.620943 0.191156
vt 0.800867 0.963537
vt 0.859180 0.951234
vt 0.864340 0.950663
vt 0.820189 0.957770
vt 0.860510 0.949665
vt 0.862169 0.950808
vt 0.749369 0.965521
vt 0.622919 0.184342
vt 0.884547 0.714140
vt 0.885780 0.719470
vt 0.891657 0.679780
vt 0.822527 0.956999
vt 0.777817 0.966118
vt 0.819716 0.957792
vt 0.774327 0.965581
vt 0.667245 0.057251
vt 0.650044 0.090383
vt 0.676900 0.090280
vt 0.654426 0.229535
vt 0.861447 0.723563
vt 0.748481 0.993145
vt 0.859410 0.718772
vt 0.860679 0.720200
vt 0.621374 0.227766
vt 0.797777 0.964277
vt 0.846483 0.961546
vt 0.801069 0.963476
vt 0.859245 0.951162
vt 0.864340 0.950662
vt 0.860569 0.949654
vt 0.749670 0.965521
vt 0.824008 0.185236
vt 0.993487 0.188362
vt 0.823919 0.209768
vt 0.744682 0.209768
vt 0.784300 0.233803
vt 0.744593 0.234299
vt 0.819195 0.307207
vt 0.824007 0.234299
vt 0.708733 0.417125
vt 0.705183 0.491353
vt 0.638536 0.569978
vt 1.705183 0.491353
vt 1.708916 0.417125
vt 1.638536 0.569978
vt 1.768095 0.469731
vt 1.768095 0.417140
vt 1.643857 0.417126
vt 1.611270 0.569978
vt 0.266617 0.258790
vt 0.365408 0.192092
vt 0.302409 0.292569
vt 0.875041 0.563719
vt 0.908736 0.571787
vt 0.875518 0.572352
vt 0.798102 0.500206
vt 0.797608 0.511977
vt 0.773595 0.511977
vt 0.317895 0.159877
vt 0.260486 0.251384
vt 0.148917 0.167970
vt 0.167667 0.277487
vt 0.124531 0.178608
vt 1.266610 0.258801
vt 1.302401 0.292582
vt 1.266617 0.258790
vt 1.124531 0.178608
vt 1.192053 0.266848
vt 1.148917 0.167970
vt 1.169556 0.158966
vt 1.797620 0.438776
vt 1.773595 0.500206
vt 1.797608 0.500206
vt 0.957952 0.711242
vt 0.825892 0.675730
vt 0.819772 0.716274
vt 1.302401 0.292582
vt 1.333682 0.151722
vt 1.102344 0.188288
vt 1.102344 0.188288
vt 1.148917 0.167970
vt 1.077672 0.199051
vt 1.302409 0.292569
vt 1.958272 0.720022
vt 1.957619 0.711252
vt 1.992034 0.718804
vt 1.798102 0.500206
vt 1.797608 0.511977
vt 1.797616 0.511977
vt 1.287434 0.208443
vt 1.260486 0.251384
vt 1.797624 0.424570
vt 1.797596 0.414301
vt 1.797607 0.414301
vt 1.077672 0.199051
vt 0.016701 0.425300
vt 0.010796 0.406096
vt 0.010607 0.425240
vt 0.009986 0.488289
vt 0.016277 0.468273
vt 0.010184 0.468213
vt 1.010796 0.406096
vt 1.016701 0.425300
vt 1.010607 0.425240
vt 1.009986 0.488289
vt 1.016278 0.468273
vt 1.016080 0.488349
vt 1.922007 0.815924
vt 1.959111 0.830454
vt 1.991736 0.835109
vt 1.983383 0.733910
vt 0.959111 0.830454
vt 0.922007 0.815924
vt 0.891976 0.735336
vt 1.891976 0.735336
vt 1.895756 0.785582
vt 1.891976 0.735336
vt 0.618042 0.228365
vt 0.620820 0.209768
vt 0.646195 0.403313
vt 0.668822 0.369191
vt 0.673190 0.403302
vt 0.647956 0.404494
vt 0.637827 0.053675
vt 0.668107 0.057809
vt 0.668124 0.111987
vt 0.634131 0.111419
vt 0.862455 0.675838
vt 0.888452 0.675915
vt 0.777518 0.992142
vt 0.678763 0.404954
vt 0.679120 0.407300
vt 0.659852 0.186047
vt 0.862335 0.949313
vt 0.781780 0.527108
vt 0.772732 0.557410
vt 0.807895 0.527642
vt 0.820144 0.957776
vt 0.673892 0.402718
vt 0.669563 0.369610
vt 0.668712 0.361040
vt 0.666259 0.307679
vt 0.634133 0.308116
vt 0.638407 0.361286
vt 0.622935 0.229015
vt 0.621374 0.191770
vt 0.621374 0.227766
vt 0.774281 0.992103
vt 0.657207 0.237089
vt 0.621574 0.236415
vt 0.634133 0.308116
vt 0.862859 0.678839
vt 0.782143 0.527116
vt 0.807579 0.528791
vt 0.803916 0.564955
vt 0.777035 0.564313
vt 0.668201 0.307868
vt 0.634134 0.308116
vt 0.622501 0.236059
vt 0.656039 0.236656
vt 0.666282 0.307939
vt 0.638306 0.361829
vt 0.634134 0.308116
vt 0.666275 0.111713
vt 0.656708 0.182871
vt 0.621891 0.183493
vt 0.677727 0.088148
vt 0.650205 0.094601
vt 0.773514 0.559223
vt 0.803916 0.564955
vt 0.676336 0.067960
vt 0.658026 0.190297
vt 0.805814 0.557931
vt 0.884616 0.716784
vt 0.778518 0.528169
vt 0.770577 0.554372
vt 0.769743 0.551973
vt 0.854441 0.713963
vt 0.858495 0.679545
vt 0.858614 0.678532
vt 0.854317 0.715016
vt 0.853942 0.714017
vt 0.798471 0.964260
vt 0.865041 0.950027
vt 0.852468 0.961430
vt 0.849178 0.961303
vt 0.843406 0.963178
vt 0.845491 0.963128
vt 0.891428 0.723560
vt 0.646195 0.403312
vt 0.647956 0.404494
vt 0.668869 0.369225
vt 0.659879 0.186614
vt 0.778284 0.965541
vt 0.781779 0.527108
vt 0.773657 0.559354
vt 0.807901 0.527599
vt 0.862455 0.675838
vt 0.862334 0.949313
vt 0.822529 0.956999
vt 0.782143 0.527116
vt 0.807575 0.528831
vt 0.777041 0.564273
vt 0.652451 0.104912
vt 0.777308 0.566850
vt 0.668712 0.058495
vt 0.666264 0.111806
vt 0.634133 0.111419
vt 0.640109 0.056968
vt 0.622935 0.229015
vt 0.884696 0.716800
vt 0.773987 0.993360
vt 0.657207 0.182447
vt 0.655474 0.183737
vt 0.621574 0.183120
vt 0.634133 0.111419
vt 0.862907 0.678807
vt 0.620820 0.209768
vt 0.658321 0.229182
vt 0.668094 0.307566
vt 0.634131 0.308116
vt 0.891672 0.679599
vt 0.891754 0.678604
vt 0.634131 0.308116
vt 0.666275 0.307841
vt 0.656542 0.236543
vt 0.621878 0.236053
vt 0.668140 0.111696
vt 0.634134 0.111419
vt 0.622518 0.183492
vt 0.655838 0.183027
vt 0.773386 0.552409
vt 0.647174 0.082173
vt 0.679738 0.096583
vt 0.803916 0.564955
vt 0.666278 0.111639
vt 0.666529 0.048055
vt 0.638188 0.057834
vt 0.634134 0.111419
vt 0.618006 0.191179
vt 0.805122 0.555466
vt 0.638730 0.069268
vt 0.638513 0.067252
vt 0.854317 0.715016
vt 0.634911 0.365588
vt 0.865041 0.950027
vt 0.846432 0.961584
vt 0.843406 0.963178
vt 0.845491 0.963128
vt 0.658817 0.236348
vt 0.891963 0.676061
vt 0.891710 0.679548
vt 0.884476 0.713995
vt 0.889313 0.717637
vt 0.890227 0.718972
vt 0.890936 0.721680
vt 0.890965 0.721789
vt 0.889861 0.717574
vt 0.863902 0.675978
vt 0.859158 0.727896
vt 0.856869 0.721804
vt 0.619445 0.183157
vt 0.854379 0.712041
vt 0.864328 0.950664
vt 0.866773 0.948456
vt 0.843214 0.963183
vt 0.660376 0.182865
vt 0.663139 0.035740
vt 0.685480 0.102632
vt 0.655636 0.234989
vt 0.659870 0.228352
vt 0.672496 0.360881
vt 0.667923 0.366252
vt 0.884251 0.713902
vt 0.890690 0.718508
vt 0.890419 0.719706
vt 0.634623 0.058083
vt 0.640683 0.052454
vt 0.618347 0.236844
vt 0.622990 0.229714
vt 0.858958 0.675614
vt 0.858455 0.679887
vt 0.856548 0.720951
vt 0.623690 0.185199
vt 0.617500 0.191821
vt 0.640042 0.364602
vt 0.635934 0.370762
vt 0.860264 0.714828
vt 0.854849 0.710504
vt 0.860660 0.949636
vt 0.845136 0.962487
vt 0.850733 0.963003
vt 0.658169 0.183286
vt 0.681801 0.094050
vt 0.887051 0.676046
vt 0.890936 0.721680
vt 0.889973 0.718001
vt 0.890965 0.721789
vt 0.635646 0.057683
vt 0.619403 0.236394
vt 0.858538 0.679512
vt 0.858958 0.675614
vt 0.856868 0.721804
vt 0.858988 0.727444
vt 0.860407 0.949685
vt 0.853155 0.960796
vt 0.850733 0.963003
vt 0.655636 0.184546
vt 0.672496 0.058652
vt 0.667079 0.050115
vt 0.654480 0.230295
vt 0.660376 0.236671
vt 0.667903 0.364408
vt 0.673276 0.368946
vt 0.891641 0.679969
vt 0.891963 0.676061
vt 0.889168 0.710038
vt 0.649724 0.108660
vt 0.635043 0.034087
vt 0.623690 0.234337
vt 0.617500 0.227714
vt 0.863879 0.675842
vt 0.618347 0.182692
vt 0.622990 0.189822
vt 0.634623 0.361454
vt 0.640944 0.366465
vt 0.856233 0.720114
vt 0.859744 0.714795
vt 0.864340 0.950663
vt 0.866773 0.948457
vt 0.843513 0.963176
vt 0.638748 0.057845
vt 0.846612 0.961466
vt 0.668669 0.057746
vt 0.650187 0.094483
vt 0.744593 0.185236
vt 0.575116 0.188362
vt 0.592006 0.111088
vt 0.749406 0.112312
vt 0.607601 0.009977
vt 0.750305 0.016717
vt 0.748329 0.054841
vt 0.597104 0.053650
vt 0.575116 0.231173
vt 0.820977 0.112312
vt 0.976597 0.111087
vt 0.961001 0.009975
vt 0.971498 0.053648
vt 0.820266 0.054841
vt 0.818299 0.016716
vt 0.747624 0.307223
vt 0.592005 0.308447
vt 0.607600 0.409558
vt 0.597103 0.365886
vt 0.739061 0.364827
vt 0.750301 0.402819
vt 0.993487 0.231174
vt 0.976596 0.308449
vt 0.961000 0.409560
vt 0.818299 0.402820
vt 0.820266 0.364695
vt 0.971498 0.365888
vt 0.768095 0.417140
vt 0.768095 0.469731
vt 1.768095 0.417140
vt 0.931763 0.524516
vt 0.984520 0.525883
vt 0.977938 0.566392
vt 0.924405 0.568522
vt 0.773595 0.438776
vt 0.797608 0.438776
vt 0.884187 0.438776
vt 0.884187 0.500206
vt 0.945394 0.438776
vt 0.945394 0.500206
vt 0.994063 0.438776
vt 0.994063 0.500206
vt 0.945394 0.424570
vt 0.994063 0.424570
vt 0.739412 0.566075
vt 0.746188 0.526325
vt 0.261515 0.266925
vt 0.884187 0.424570
vt 0.797624 0.424570
vt 0.884187 0.511977
vt 0.945394 0.511977
vt 0.994063 0.511977
vt 0.743420 0.574649
vt 0.945394 0.414301
vt 0.994063 0.414301
vt 0.694344 0.525183
vt 0.703064 0.516733
vt 0.314162 0.288629
vt 0.884187 0.414301
vt 0.797596 0.414301
vt 0.990860 0.520375
vt 0.982490 0.571885
vt 0.102343 0.188288
vt 0.169556 0.158966
vt 0.212692 0.257845
vt 0.927282 0.518727
vt 0.917964 0.574452
vt 1.797608 0.438776
vt 1.977938 0.566392
vt 1.984520 0.525883
vt 1.931763 0.524516
vt 1.924405 0.568522
vt 1.884187 0.500206
vt 1.884187 0.438776
vt 1.945395 0.500206
vt 1.945394 0.438776
vt 1.994063 0.500206
vt 1.994063 0.438776
vt 1.892749 0.529551
vt 1.875368 0.563713
vt 1.908586 0.563148
vt 1.746188 0.526325
vt 1.739412 0.566075
vt 1.994063 0.424570
vt 1.945394 0.424570
vt 1.261515 0.266925
vt 1.884187 0.424570
vt 1.797607 0.424570
vt 1.884187 0.511977
vt 1.945395 0.511977
vt 1.994063 0.511977
vt 1.743420 0.574649
vt 1.875518 0.572352
vt 1.892939 0.520912
vt 1.703064 0.516733
vt 1.260523 0.251325
vt 1.694344 0.525184
vt 1.314161 0.288630
vt 1.314162 0.288629
vt 1.994063 0.414301
vt 1.945394 0.414301
vt 1.884187 0.414301
vt 1.145479 0.287167
vt 1.077672 0.199051
vt 1.120806 0.297931
vt 1.982490 0.571885
vt 1.990860 0.520375
vt 1.927282 0.518727
vt 1.917964 0.574452
vt 0.991763 0.710215
vt 1.773595 0.424570
vt 0.824013 0.724914
vt 0.958272 0.720022
vt 1.287237 0.208757
vt 0.781862 0.666812
vt 0.773160 0.675573
vt 1.314161 0.288630
vt 1.379019 0.185221
vt 1.773595 0.414301
vt 1.825891 0.675730
vt 1.974962 0.676172
vt 1.819772 0.716274
vt 1.824013 0.724914
vt 1.781862 0.666812
vt 1.974988 0.667385
vt 1.773160 0.675571
vt 0.007896 0.546681
vt 0.028919 0.544868
vt 0.028009 0.585717
vt 0.007896 0.586623
vt 0.016889 0.406156
vt 0.016080 0.488349
vt 1.028009 0.585717
vt 1.028919 0.544868
vt 1.007896 0.546681
vt 1.007896 0.586623
vt 1.010184 0.468213
vt 1.016889 0.406156
vt 0.784300 0.185236
vt 0.000000 0.000000
vt 0.895756 0.785582
vt 0.991736 0.835109
vt 0.784300 0.209768
s 1
usemtl chest_frame_mat
f 431/297/216 490/298/217 430/299/218
f 452/300/201 465/301/201 420/302/201
f 425/303/219 413/304/219 499/305/219
f 417/306/220 431/297/221 418/307/222
f 554/308/223 434/309/223 435/310/223
f 456/311/224 457/312/225 522/313/226
f 434/314/223 554/315/223 474/316/223
f 554/315/227 506/317/227 474/316/227
f 476/318/228 425/319/229 475/320/230
f 485/321/231 517/322/231 488/323/231
f 489/311/232 490/324/217 431/325/216
f 504/326/233 536/314/233 557/327/233
f 536/314/234 558/328/234 505/328/234
f 530/329/235 504/326/235 557/327/235
f 522/313/226 457/312/225 518/330/236
f 529/331/201 486/332/201 498/333/201
f 508/334/237 525/335/237 467/336/237
f 531/337/238 522/313/239 532/338/240
f 461/339/241 472/340/242 535/341/243
f 558/328/234 536/314/234 559/314/234
f 468/342/235 504/326/235 530/329/235
f 545/343/244 539/344/244 541/345/244
f 538/346/245 544/347/245 540/348/245
f 548/349/246 551/350/246 549/351/246
f 547/352/247 552/353/247 553/354/247
f 434/355/248 474/356/248 506/357/248
f 558/356/248 559/355/248 506/357/248
f 536/355/249 505/356/249 556/358/249
f 554/359/249 435/360/249 556/361/249
f 468/362/248 559/355/248 504/363/248
f 468/362/248 506/357/248 559/355/248
f 434/355/248 466/364/248 555/363/248
f 438/613/586 437/614/586 436/615/586 439/616/586
f 425/303/229 476/617/228 424/618/606
f 423/619/607 426/620/607 425/303/607 424/618/607
f 426/620/608 423/619/608 422/621/608 427/622/608
f 427/622/609 422/621/609 421/623/609 428/624/609
f 432/625/610 431/626/216 421/623/611 422/621/610
f 452/300/586 428/627/586 429/628/586
f 430/299/218 421/629/611 431/297/216
f 423/619/612 433/630/613 432/625/610 422/621/610
f 494/631/614 433/630/613 423/619/612 424/618/614
f 426/620/615 414/632/615 413/304/615 425/303/615
f 494/631/616 424/618/616 476/617/617
f 416/633/618 414/632/618 426/620/618 427/622/618
f 428/624/619 419/634/619 416/633/619 427/622/619
f 452/300/620 420/302/620 419/635/620 428/627/620
f 415/636/621 418/637/621 431/626/621 432/625/621
f 429/628/622 430/638/622 556/639/622
f 556/640/623 430/299/624 490/298/625
f 433/630/626 412/641/626 415/636/626 432/625/626
f 537/642/627 412/641/627 433/630/627 494/631/627
f 437/614/628 429/643/628 428/644/628 436/615/628
f 473/645/629 435/310/629 434/309/629
f 554/308/227 507/646/227 506/647/227
f 430/648/630 429/643/630 437/614/630 438/613/630
f 439/616/631 421/649/631 430/648/631 438/613/631
f 428/644/632 421/649/632 439/616/632 436/615/632
f 508/334/633 440/320/633 441/650/633 442/318/633
f 446/651/586 443/652/586 444/653/586 445/654/586
f 440/320/634 447/655/634 448/656/634 441/650/634
f 447/655/635 450/657/635 449/658/635 448/656/635
f 450/657/636 454/659/636 453/660/636 449/658/636
f 429/661/586 451/662/586 452/663/586
f 455/664/586 454/665/586 451/662/586 429/661/586
f 453/660/637 456/666/224 458/667/638 449/658/639
f 456/311/224 453/668/637 457/312/225
f 448/656/640 449/658/639 458/667/638 459/669/641
f 448/656/640 459/669/641 460/670/642 441/650/642
f 442/318/643 441/650/643 460/670/643 461/339/643
f 447/655/644 440/320/644 467/336/644 462/671/644
f 447/655/645 462/671/645 463/672/645 450/657/645
f 454/659/646 450/657/646 463/672/646 464/673/646
f 451/662/647 454/665/647 464/674/647 465/675/647
f 455/664/648 429/661/648 556/676/648 466/677/648
f 465/675/201 452/663/201 451/662/201
f 522/313/239 531/337/238 469/678/649 456/311/649
f 466/677/650 457/679/650 455/664/650
f 467/336/651 440/320/651 508/334/651
f 466/680/652 468/681/653 457/312/653
f 456/666/654 469/682/654 470/683/654 458/667/654
f 459/669/655 458/667/655 470/683/655 471/684/655
f 459/669/656 471/684/656 472/340/656 460/670/656
f 473/685/657 555/326/657 466/686/657 556/687/657
f 472/340/242 461/339/241 460/670/658
f 555/326/629 473/685/629 434/314/629
f 443/652/659 446/651/659 454/688/659 455/689/659
f 443/652/660 455/689/660 457/690/660 444/653/660
f 445/654/661 444/653/661 457/690/661 453/691/661
f 445/654/662 453/691/662 454/688/662 446/651/662
f 480/651/231 477/652/231 478/653/231 479/654/231
f 475/320/663 481/655/663 482/656/663 476/318/663
f 481/655/664 484/657/664 483/658/664 482/656/664
f 484/657/665 488/659/665 487/660/665 483/658/665
f 485/321/231 486/692/231 517/322/231
f 487/660/666 489/666/232 491/667/667 483/658/668
f 489/311/232 487/668/666 490/324/217
f 482/656/669 483/658/668 491/667/667 492/669/670
f 482/656/669 492/669/670 493/670/671 476/318/671
f 481/655/672 475/320/672 499/336/672 495/671/672
f 493/670/673 494/693/616 476/318/617
f 481/655/674 495/671/674 496/672/674 484/657/674
f 488/659/675 484/657/675 496/672/675 497/673/675
f 485/321/676 488/323/676 497/694/676 498/695/676
f 431/325/221 417/696/220 500/678/677 489/311/677
f 498/695/201 486/692/201 485/321/201
f 530/697/678 490/698/678 517/322/678
f 499/336/679 475/320/679 425/319/679
f 530/699/680 556/700/623 490/324/625
f 489/666/681 500/682/681 501/683/681 491/667/681
f 492/669/682 491/667/682 501/683/682 502/684/682
f 492/669/683 502/684/683 503/341/683 493/670/683
f 493/670/684 503/341/684 537/701/684 494/693/684
f 506/317/685 507/317/685 505/328/685 558/328/685
f 477/652/686 480/651/686 488/688/686 517/689/686
f 477/652/687 517/689/687 490/690/687 478/653/687
f 479/654/688 478/653/688 490/690/688 487/691/688
f 479/654/689 487/691/689 488/688/689 480/651/689
f 512/653/231 509/652/231 510/651/231 511/654/231
f 514/656/690 513/655/690 508/334/690 442/318/690
f 513/655/691 514/656/691 515/658/691 516/657/691
f 516/657/692 515/658/692 519/660/692 520/659/692
f 521/702/231 517/703/231 486/332/231 520/704/231
f 523/667/693 522/666/226 519/660/694 515/658/693
f 518/330/236 519/668/694 522/313/226
f 514/656/695 524/669/696 523/667/693 515/658/693
f 461/339/697 524/669/696 514/656/695 442/318/697
f 513/655/698 526/671/698 525/335/698 508/334/698
f 527/672/699 526/671/699 513/655/699 516/657/699
f 520/659/700 528/673/700 527/672/700 516/657/700
f 486/332/701 529/331/701 528/705/701 520/704/701
f 468/706/702 530/707/702 517/703/702 521/702/702
f 533/683/703 532/682/703 522/666/703 523/667/703
f 521/702/704 518/708/704 468/706/704
f 468/681/653 518/330/705 457/312/653
f 524/669/706 534/684/706 533/683/706 523/667/706
f 535/341/707 534/684/707 524/669/707 461/339/707
f 509/652/708 521/689/708 520/688/708 510/651/708
f 504/326/233 559/314/233 536/314/233
f 518/690/709 521/689/709 509/652/709 512/653/709
f 511/654/710 519/691/710 518/690/710 512/653/710
f 520/688/711 519/691/711 511/654/711 510/651/711
f 538/709/231 540/710/231 541/711/231 539/712/231
f 545/343/712 541/345/712 540/348/712 544/347/712
f 545/343/713 543/713/713 539/344/713
f 538/346/245 542/714/245 544/347/245
f 549/715/231 546/716/231 547/717/231 548/718/231
f 552/353/714 546/719/714 549/351/714 551/350/714
f 548/349/246 550/720/246 551/350/246
f 547/352/247 546/719/247 552/353/247
f 466/364/248 434/355/248 506/357/248 468/362/248
f 435/360/249 473/723/249 556/361/249
f 530/364/249 557/363/249 536/355/249
f 530/364/249 536/355/249 556/358/249
f 556/358/249 505/356/249 507/357/249
f 507/724/249 554/359/249 556/361/249
usemtl chest_belt_mat
f 31/1/1 124/2/1 122/3/1
f 96/4/2 95/5/3 12/6/4
f 3/7/5 178/8/6 89/9/7
f 22/10/8 113/11/9 105/12/10
f 105/12/11 106/13/11 13/14/11
f 98/15/12 97/16/12 114/17/12 143/18/12 131/19/12 130/20/12
f 134/21/13 133/22/13 158/23/13 94/24/13 100/25/13 99/26/13
f 94/24/14 158/27/14 156/28/14 155/29/14 91/30/14 90/31/14
f 32/32/15 31/33/15 122/3/15 117/34/15 116/35/15 25/36/15
f 20/37/16 106/13/16 110/38/16
f 23/39/17 115/40/17 96/4/17
f 2/41/18 86/42/18 115/43/18
f 42/44/19 159/45/19 132/46/19
f 68/47/20 137/48/20 157/49/20
f 66/50/21 149/51/21 164/52/21
f 164/52/22 140/53/22 66/50/22
f 152/54/23 180/55/24 58/56/25
f 140/53/26 137/48/26 45/57/26 47/58/26
f 157/49/27 159/45/27 61/59/27
f 39/60/28 128/61/29 152/54/30
f 200/62/31 285/63/31 197/64/31
f 274/65/32 191/66/33 190/67/34
f 268/68/35 182/69/36 267/70/37
f 304/71/38 200/62/38 214/72/38
f 272/73/39 202/74/39 280/75/40
f 287/76/41 286/77/41 303/78/41 325/79/41 337/80/41 336/81/41
f 340/82/42 339/83/42 317/84/42 284/85/42 289/86/42 288/87/42
f 284/85/43 317/88/43 315/89/43 314/90/43 282/91/43 281/92/43
f 299/93/44 298/94/44 297/95/44 324/96/44 344/97/44 343/98/44
f 330/99/45 273/100/45 291/101/46 342/102/47
f 279/4/48 292/40/48 205/103/48
f 292/104/49 267/42/49 182/105/49
f 320/106/50 218/107/50 307/108/50
f 331/49/51 341/109/52 249/110/53
f 311/111/54 228/112/54 320/106/54
f 316/113/55 249/110/53 341/114/52
f 253/115/56 252/116/56 345/117/56 323/118/56 322/119/56 233/120/56
f 338/52/57 327/121/57 236/122/57
f 327/123/58 252/124/58 236/125/58
f 318/126/59 247/127/59 226/58/59
f 359/128/60 239/129/61 264/130/62
f 334/131/63 242/132/63 244/133/63
f 328/54/64 307/61/65 218/134/66
f 211/135/67 212/136/68 213/137/69
f 252/138/70 253/115/70 250/139/70
f 303/140/71 304/141/72 305/142/73
f 19/143/74 65/144/74 67/145/74
f 73/146/75 29/147/76 70/148/77
f 31/1/78 33/149/78 37/150/78
f 15/151/79 22/10/80 13/14/81
f 36/152/82 20/37/82 37/72/82
f 7/153/83 22/10/83 21/154/83
f 3/7/84 82/155/84 83/156/84
f 3/7/85 1/157/86 4/158/85
f 10/159/87 40/160/87 11/161/87
f 50/162/88 28/163/88 27/164/88
f 34/165/89 55/166/89 35/167/89
f 38/168/90 58/56/91 59/169/92
f 56/170/93 72/171/93 57/172/93
f 68/47/94 43/173/95 45/57/95
f 68/47/96 60/174/96 69/175/96
f 78/176/97 84/177/97 85/130/97
f 77/178/98 80/179/98 74/180/98
f 76/181/99 82/155/99 77/178/99
f 58/56/100 84/177/101 59/169/102
f 92/182/103 155/29/103 154/183/103
f 161/81/104 112/184/105 162/185/106
f 120/93/107 167/186/107 166/187/107
f 123/188/108 124/2/108 127/189/108
f 113/11/109 101/190/109 105/12/109
f 113/11/110 92/182/110 101/190/110
f 88/191/111 178/8/111 179/192/111
f 88/193/112 86/70/113 89/68/114
f 130/20/115 99/26/116 98/15/117
f 102/194/118 139/195/119 103/196/120
f 118/197/121 145/198/121 119/199/121
f 148/200/122 127/189/122 126/201/122
f 152/54/123 129/202/124 151/203/125
f 149/204/126 168/205/126 150/206/126
f 165/207/127 147/208/127 146/209/127
f 160/210/128 149/51/128 148/211/128
f 176/212/129 180/55/129 181/213/129
f 177/214/130 172/215/130 171/216/130
f 172/215/131 178/8/131 173/217/131
f 151/203/132 180/55/133 152/54/134
f 245/218/135 201/219/135 246/220/135
f 210/221/136 251/222/137 250/139/138
f 212/223/139 211/135/139 214/150/139
f 202/74/140 194/224/140 196/225/140
f 200/62/141 215/226/141 214/72/141
f 202/74/142 187/227/142 203/228/142
f 263/229/143 185/230/144 262/231/145
f 183/232/146 185/233/147 184/234/148
f 208/235/149 231/236/150 209/237/151
f 234/238/152 217/239/152 216/240/152
f 239/241/153 219/242/154 238/243/155
f 252/124/156 237/244/156 236/125/156
f 223/245/157 249/110/157 224/246/157
f 240/247/158 249/110/159 248/175/160
f 265/248/161 259/176/161 264/130/161
f 261/179/162 256/249/162 255/250/162
f 263/251/163 257/252/163 256/253/163
f 265/248/164 239/129/165 238/254/166
f 333/255/167 273/100/167 330/99/167
f 288/87/168 336/81/169 340/82/170
f 347/186/171 299/93/171 343/98/171
f 305/2/172 300/256/172 302/257/172
f 298/94/173 294/258/173 297/95/173
f 357/259/174 269/260/175 356/261/176
f 267/70/177 269/262/178 268/68/179
f 277/263/180 309/264/180 278/265/180
f 314/90/181 283/266/182 282/91/183
f 321/162/184 297/95/184 296/199/184
f 302/257/185 325/267/185 303/140/185
f 306/268/186 328/54/187 329/169/187
f 346/269/188 327/123/188 326/270/188
f 323/118/189 344/97/189 324/96/189
f 341/114/190 312/271/191 316/113/192
f 359/272/193 355/273/193 358/274/193
f 351/275/194 354/214/194 348/276/194
f 357/259/195 351/275/195 350/277/195
f 359/128/196 329/278/197 328/54/198
f 31/1/250 37/150/250 124/2/250
f 21/154/251 15/151/251 43/365/251 69/366/251
f 54/367/252 65/144/252 18/368/252 36/152/252 35/369/252 55/370/252
f 41/371/253 10/372/253 9/373/253 64/374/253
f 8/67/254 12/6/4 95/5/3
f 3/7/5 83/156/255 178/8/6
f 84/177/256 82/155/256 4/158/256 59/169/256
f 105/12/10 13/14/257 22/10/8
f 119/199/258 145/198/258 144/375/258 50/162/258 27/164/258 26/376/258
f 86/70/259 2/377/260 89/68/261
f 2/377/260 3/7/261 89/68/261
f 17/64/262 13/14/262 106/13/262
f 110/38/263 125/378/263 124/379/263 37/72/263 20/37/263
f 95/5/264 93/73/264 6/380/264 8/67/264
f 173/217/265 178/8/6 83/231/255 76/181/265 75/381/265
f 129/382/266 143/383/266 114/17/266 87/384/266
f 179/385/267 172/215/267 176/212/267 181/213/267
f 160/210/268 148/211/268 126/386/268 109/387/268 108/76/268 161/81/268
f 111/388/269 107/389/269 141/390/269 163/391/269 162/185/269 112/184/269
f 151/203/270 88/191/270 179/192/270 181/213/270
f 135/392/271 102/194/271 101/190/272 153/393/273 136/394/271
f 167/186/274 123/188/274 127/189/274 150/206/274 168/205/274
f 87/395/275 88/193/275 151/203/275 129/202/275
f 104/396/276 103/196/276 139/195/276 138/397/276 141/398/276 107/389/276
f 165/207/277 146/209/277 118/197/277 121/94/277 120/93/277 166/187/277
f 92/182/278 154/183/278 153/393/273 101/190/272
f 53/399/279 70/148/279 29/147/279 28/163/279
f 38/400/280 1/401/280 24/402/280 48/403/280
f 16/404/281 46/405/281 44/406/281 14/407/281
f 16/408/282 19/143/282 67/409/282 46/410/282
f 64/374/283 9/411/283 5/412/283 62/413/283
f 20/37/284 17/64/284 106/13/284
f 11/414/285 40/415/285 48/416/285 24/417/285
f 96/4/286 12/418/286 23/39/286
f 69/175/287 60/174/287 7/419/287 21/154/287
f 113/11/9 22/10/8 93/73/288
f 22/10/289 6/380/290 93/73/290
f 115/43/291 23/420/291 2/41/291
f 59/169/292 4/158/292 1/157/292 38/168/292
f 30/421/293 73/146/293 56/170/293 34/165/293 33/149/293
f 128/108/294 39/422/294 142/106/294
f 39/422/295 49/423/295 142/106/295
f 42/44/296 63/133/296 159/45/296
f 157/49/297 61/59/297 68/47/297
f 142/106/298 49/424/298 132/46/298
f 49/424/299 42/44/299 132/46/299
f 68/47/300 45/57/300 137/48/300
f 71/425/301 52/426/301 51/427/301 147/208/301 169/428/301
f 66/50/302 57/122/302 149/51/302
f 149/204/303 57/172/303 72/171/303 71/429/303 169/117/303
f 47/58/304 66/50/304 140/53/304
f 85/430/305 58/56/25 180/55/24
f 177/214/306 171/216/306 170/431/306 74/180/306 80/179/306 79/432/306
f 63/133/307 61/59/307 159/45/307
f 152/54/30 58/56/30 39/60/28
f 81/433/308 77/178/308 82/155/308 84/177/308
f 180/55/24 175/434/309 174/435/309 78/176/309 85/130/305
f 304/436/310 214/150/310 211/135/310 301/3/310 305/2/310
f 235/437/311 234/438/311 216/369/311 215/226/311 199/439/311 245/218/311
f 290/38/312 285/63/312 200/62/312
f 274/65/32 279/4/313 191/66/33
f 190/67/314 188/440/314 274/65/314
f 274/65/315 188/440/315 272/73/315
f 262/231/316 185/230/317 357/259/318
f 357/259/318 185/230/317 268/441/319
f 219/442/320 229/443/320 204/402/320 183/444/320
f 202/74/321 196/225/322 280/75/322
f 321/162/258 296/199/258 295/376/258 209/237/258 231/236/258 230/445/258
f 196/225/323 197/64/323 285/63/323 280/75/323
f 185/233/324 182/69/36 268/68/35
f 304/71/325 290/38/325 200/62/325
f 188/440/326 202/74/326 272/73/326
f 357/259/318 350/277/327 349/446/327 257/252/327 262/447/316
f 306/448/328 266/449/328 293/17/328 319/450/328
f 355/273/329 351/275/329 356/261/329 358/274/329
f 308/451/330 319/452/330 293/17/330 278/265/330 309/264/330
f 276/453/331 275/454/331 335/455/331 310/456/331 277/263/331
f 358/274/332 356/261/332 269/260/332 329/278/332
f 283/266/333 313/457/333 312/271/333 342/102/47 291/101/46
f 300/458/334 347/186/334 346/269/334 326/270/334 302/257/334
f 329/169/335 269/262/335 266/459/335 306/268/335
f 271/460/336 270/461/336 333/255/336 332/462/336 335/463/336 275/454/336
f 210/221/337 250/139/337 232/464/337 208/235/337
f 183/232/338 184/234/338 238/243/338 219/242/338
f 248/465/339 223/245/339 194/466/339 203/228/339
f 246/220/340 201/219/340 198/467/340 227/468/340
f 294/258/341 301/3/341 211/135/341 207/469/341 206/470/341
f 227/471/342 198/472/342 195/473/342 225/474/342
f 189/475/343 243/476/343 241/477/343 186/478/343
f 229/479/344 220/480/344 192/481/344 204/482/344
f 205/103/345 191/66/345 279/4/345
f 189/483/346 193/484/346 222/485/346 243/486/346
f 203/228/347 187/227/347 240/487/347 248/175/347
f 182/105/348 205/488/348 292/104/348
f 238/254/349 184/234/349 263/229/349 265/248/349
f 213/137/350 212/223/350 217/239/350 237/244/350 251/222/350
f 228/112/351 218/107/351 320/106/351
f 244/133/352 221/489/352 334/131/352
f 334/131/353 221/489/353 311/46/353
f 249/110/53 242/132/354 331/49/51
f 221/490/355 228/112/355 311/111/355
f 224/246/356 249/110/53 316/113/55
f 236/122/357 247/127/357 338/52/357
f 327/123/358 345/491/358 252/124/358
f 318/126/359 338/492/359 247/127/359
f 359/128/60 328/54/360 239/129/61
f 348/276/361 354/214/361 353/432/361 261/179/361 255/250/361 254/493/361
f 226/58/362 224/246/362 318/126/362
f 318/126/363 224/246/363 316/113/363
f 334/131/364 331/49/364 242/132/364
f 218/134/66 239/241/365 328/54/64
f 263/251/366 256/253/366 260/494/366 265/248/366
f 352/495/367 359/272/60 264/130/62 259/176/367 258/496/367
f 7/419/368 5/412/368 6/380/368
f 10/159/369 11/161/369 12/6/369
f 15/151/370 13/14/370 14/497/370
f 18/368/371 19/143/371 20/37/371
f 26/498/372 27/164/372 28/163/372 25/499/372 116/35/372
f 30/500/373 33/149/373 31/501/373 32/32/373 29/147/373
f 34/502/374 35/503/374 36/504/374 37/150/374 33/505/374
f 40/160/375 41/371/375 42/44/375
f 43/365/376 44/406/376 45/57/376
f 144/375/377 51/427/377 52/426/377 53/399/377 50/506/377
f 57/172/378 54/507/378 55/172/378
f 55/172/379 56/508/379 57/172/379
f 62/509/380 60/174/380 61/59/380
f 67/145/381 65/144/381 66/50/381
f 73/146/382 70/148/382 72/171/382
f 72/171/383 70/148/383 71/510/383
f 76/181/384 77/178/384 74/511/384 170/431/384 75/512/384
f 174/435/385 79/432/385 80/179/385 81/433/385 78/513/385
f 93/73/386 90/514/386 91/30/386
f 91/30/387 92/182/387 93/73/387
f 98/15/388 99/515/388 100/25/388 96/4/388 97/516/388
f 102/194/389 103/517/389 104/396/389 105/12/389 101/518/389
f 110/38/390 111/519/390 112/184/390 108/520/390 109/387/390
f 119/199/391 26/376/391 116/35/391 117/34/391 118/197/391
f 123/188/392 120/521/392 122/3/392
f 120/521/393 121/94/393 122/3/393
f 127/189/394 124/522/395 126/201/396
f 124/522/395 125/523/397 126/201/396
f 132/46/398 133/524/398 134/21/398 130/525/398 131/19/398
f 137/48/399 138/526/399 139/195/399 135/527/399 136/394/399
f 144/528/400 145/198/400 146/209/400 147/529/400 51/427/400
f 148/200/401 149/530/401 150/206/401
f 154/183/402 155/531/402 156/28/402 157/49/402 153/532/402
f 161/81/403 162/533/403 163/391/403 164/52/403 160/534/403
f 166/187/404 167/535/404 168/205/404 169/428/404 165/536/404
f 173/537/405 75/381/405 170/431/405 171/216/405 172/215/405
f 176/538/406 177/179/406 79/432/406 174/539/406 175/434/406
f 186/540/407 187/227/407 188/440/407
f 193/484/408 191/66/408 192/541/408
f 194/466/409 195/473/409 196/225/409
f 201/219/410 199/439/410 200/62/410
f 208/235/411 209/542/411 295/376/411 206/470/411 207/469/411
f 213/137/69 210/221/412 211/135/67
f 216/543/413 217/502/413 212/544/413 214/150/413 215/545/413
f 222/546/414 220/480/414 221/489/414
f 225/547/415 223/245/415 224/246/415
f 232/464/416 233/548/416 322/119/416 230/549/416 231/236/416
f 237/550/417 234/551/417 236/172/417
f 234/551/418 235/172/418 236/172/418
f 240/487/419 241/477/419 242/132/419
f 245/218/420 246/220/420 247/127/420
f 251/222/421 252/138/421 250/139/421
f 256/253/422 257/552/422 349/446/422 254/493/422 255/250/422
f 260/494/423 261/553/423 353/432/423 258/554/423 259/176/423
f 273/100/424 270/555/424 272/73/424
f 270/555/425 271/460/425 272/73/425
f 279/4/426 276/556/426 277/263/426
f 277/263/427 278/557/427 279/4/427
f 282/91/428 283/558/428 291/101/428 280/75/428 281/559/428
f 287/76/429 288/560/429 289/86/429 290/38/429 286/561/429
f 296/199/430 297/95/430 294/562/430 206/470/430 295/563/430
f 301/3/431 298/564/431 299/93/431
f 299/93/432 300/458/432 301/3/432
f 305/142/73 302/257/433 303/140/71
f 311/111/434 308/565/434 309/264/434
f 309/264/435 310/566/435 311/111/435
f 313/457/436 314/567/436 315/89/436 316/113/436 312/568/436
f 230/445/437 322/119/437 323/118/437 324/96/437 321/569/437
f 327/123/438 325/267/438 326/270/438
f 331/49/439 332/570/439 333/255/439 330/571/439 342/102/439
f 338/492/440 339/572/440 340/82/440 336/573/440 337/80/440
f 345/491/441 346/574/441 347/186/441 343/575/441 344/97/441
f 348/576/442 254/493/442 349/577/442 350/277/442 351/275/442
f 258/496/443 353/432/443 354/214/443 355/273/443 352/578/443
f 7/419/444 60/174/444 62/509/444 5/412/444
f 25/36/445 28/163/445 29/147/445 32/32/445
f 19/143/446 18/368/446 65/144/446
f 73/146/75 30/421/447 29/147/76
f 23/420/448 24/402/448 1/401/448 2/41/448
f 16/408/449 17/64/449 20/37/449 19/143/449
f 15/151/79 21/154/450 22/10/80
f 16/404/451 14/407/451 13/14/451 17/64/451
f 36/152/452 18/368/452 20/37/452
f 9/373/453 10/372/453 12/6/453 8/67/453
f 7/153/454 6/380/454 22/10/454
f 23/39/455 12/418/455 11/414/455 24/417/455
f 9/411/456 8/67/456 6/380/456 5/412/456
f 3/7/457 4/158/457 82/155/457
f 15/151/458 14/497/458 44/406/458 43/365/458
f 3/7/85 2/377/86 1/157/86
f 10/159/459 41/579/459 40/160/459
f 50/162/460 53/399/460 28/163/460
f 34/165/461 56/170/461 55/166/461
f 38/168/90 39/60/462 58/56/91
f 63/133/463 64/374/463 62/413/463 61/59/463
f 63/133/464 42/44/464 41/371/464 64/374/464
f 47/58/465 45/57/465 44/406/465 46/405/465
f 47/58/466 46/410/466 67/409/466 66/50/466
f 70/148/467 53/399/467 52/426/467 71/425/467
f 56/170/468 73/146/468 72/171/468
f 48/403/469 49/423/469 39/422/469 38/400/469
f 54/367/470 57/122/470 66/50/470 65/144/470
f 68/47/471 69/366/472 43/173/473
f 40/415/474 42/44/474 49/424/474 48/416/474
f 68/47/475 61/59/475 60/174/475
f 78/176/476 81/433/476 84/177/476
f 77/178/477 81/580/477 80/179/477
f 76/181/478 83/231/478 82/155/478
f 58/56/100 85/430/479 84/177/101
f 121/94/480 118/197/480 117/34/480 122/3/480
f 92/182/481 91/30/481 155/29/481
f 161/81/104 108/76/482 112/184/105
f 120/93/483 123/188/483 167/186/483
f 123/188/484 122/3/484 124/2/484
f 87/384/485 114/17/485 115/43/485 86/42/485
f 106/13/486 107/389/486 111/388/486 110/38/486
f 109/387/487 126/386/487 125/378/487 110/38/487
f 106/13/488 105/12/488 104/396/488 107/389/488
f 95/5/489 96/4/489 100/25/489 94/24/489
f 113/11/490 93/73/490 92/182/490
f 97/16/491 96/4/491 115/40/491 114/17/491
f 95/5/492 94/24/492 90/31/492 93/73/492
f 88/191/493 89/9/493 178/8/493
f 88/193/112 87/395/494 86/70/113
f 130/20/115 134/21/495 99/26/116
f 102/194/118 135/392/496 139/195/119
f 118/197/497 146/209/497 145/198/497
f 148/200/498 150/206/498 127/189/498
f 152/54/123 128/61/499 129/202/124
f 156/28/500 158/27/500 159/45/500 157/49/500
f 133/22/501 132/46/501 159/45/501 158/23/501
f 138/397/502 137/48/502 140/53/502 141/398/502
f 163/391/503 141/390/503 140/53/503 164/52/503
f 128/108/504 142/106/504 143/383/504 129/382/504
f 149/204/505 169/117/505 168/205/505
f 165/207/506 169/428/506 147/208/506
f 142/106/507 132/46/507 131/19/507 143/18/507
f 136/394/508 153/393/508 137/48/508
f 160/210/509 164/52/509 149/51/509
f 153/393/510 157/49/510 137/48/510
f 176/212/511 175/434/511 180/55/511
f 177/214/512 176/538/512 172/215/512
f 172/215/513 179/385/513 178/8/513
f 151/203/132 181/213/514 180/55/133
f 241/477/515 240/487/515 187/227/515 186/540/515
f 210/221/516 208/235/516 207/469/516 211/135/516
f 245/218/517 199/439/517 201/219/517
f 210/221/136 213/137/518 251/222/137
f 183/444/519 204/402/519 205/488/519 182/105/519
f 200/62/520 197/64/520 198/467/520 201/219/520
f 202/74/521 203/228/521 194/224/521
f 196/225/522 195/473/522 198/472/522 197/64/522
f 200/62/523 199/439/523 215/226/523
f 191/66/524 193/484/524 189/483/524 190/67/524
f 202/74/525 188/440/525 187/227/525
f 192/481/526 191/66/526 205/103/526 204/482/526
f 188/440/527 190/67/527 189/475/527 186/478/527
f 263/229/143 184/234/528 185/230/144
f 193/581/529 192/541/529 220/582/529 222/546/529
f 183/232/146 182/69/530 185/233/147
f 225/547/531 195/473/531 194/466/531 223/245/531
f 208/235/149 232/464/532 231/236/150
f 234/238/533 237/244/533 217/239/533
f 239/241/153 218/134/534 219/242/154
f 241/477/535 243/476/535 244/133/535 242/132/535
f 222/485/536 221/489/536 244/133/536 243/486/536
f 225/474/537 224/246/537 226/58/537 227/471/537
f 246/220/538 227/468/538 226/58/538 247/127/538
f 233/120/539 232/464/539 250/139/539 253/115/539
f 252/124/540 251/222/540 237/244/540
f 218/107/541 228/112/541 229/443/541 219/442/541
f 247/127/542 236/122/542 235/437/542 245/218/542
f 223/245/543 248/465/543 249/110/543
f 228/112/544 221/490/544 220/480/544 229/479/544
f 240/247/545 242/132/545 249/110/546
f 265/248/547 260/494/547 259/176/547
f 261/179/548 260/494/548 256/249/548
f 263/251/549 262/447/549 257/252/549
f 265/248/164 264/130/550 239/129/165
f 292/104/551 293/17/551 266/449/551 267/42/551
f 333/255/552 270/461/552 273/100/552
f 288/87/168 287/76/553 336/81/169
f 347/186/554 300/458/554 299/93/554
f 305/2/555 301/3/555 300/256/555
f 298/94/556 301/3/556 294/258/556
f 289/86/557 284/85/557 285/63/557 290/38/557
f 304/71/558 303/78/558 286/77/558 290/38/558
f 281/92/559 280/75/559 285/63/559 284/85/559
f 280/75/560 291/101/560 273/100/560 272/73/560
f 276/453/561 279/4/561 274/65/561 275/454/561
f 292/40/562 279/4/562 278/557/562 293/17/562
f 271/460/563 275/454/563 274/65/563 272/73/563
f 357/259/174 268/441/564 269/260/175
f 267/70/177 266/459/565 269/262/178
f 277/263/566 310/456/566 309/264/566
f 314/90/181 313/457/567 283/266/182
f 321/162/568 324/96/568 297/95/568
f 302/257/569 326/270/569 325/267/569
f 306/268/186 307/61/186 328/54/187
f 334/131/570 335/463/570 332/462/570 331/49/570
f 334/131/571 311/46/571 310/566/571 335/455/571
f 318/126/572 316/113/572 315/89/572 317/88/572
f 318/126/573 317/84/573 339/83/573 338/492/573
f 319/450/574 320/106/574 307/108/574 306/448/574
f 346/269/575 345/491/575 327/123/575
f 323/118/576 345/117/576 344/97/576
f 337/80/577 325/79/577 327/121/577 338/52/577
f 341/114/190 342/102/578 312/271/191
f 308/451/579 311/111/579 320/106/579 319/452/579
f 341/109/190 331/49/580 342/102/578
f 359/272/581 352/495/581 355/273/581
f 351/275/582 355/273/582 354/214/582
f 357/259/583 356/261/583 351/275/583
f 359/128/196 358/274/584 329/278/197
usemtl chest_mat
f 369/279/199 368/280/200 393/281/199
f 381/282/201 382/283/201 377/284/201
f 386/285/202 382/283/203 387/286/204
f 404/287/205 395/288/206 394/289/207
f 398/290/208 399/291/209 411/292/210
f 405/293/211 406/294/212 403/290/213
f 402/292/214 404/295/205 394/296/207
f 411/292/210 399/291/209 407/292/215
f 361/583/585 362/584/585 363/585/585 560/586/585
f 365/587/586 366/588/586 360/589/586 364/590/586
f 560/586/587 363/585/587 364/590/587 360/589/587
f 362/584/588 361/583/588 381/282/588 376/591/588
f 369/279/589 370/592/589 367/593/589 368/280/589
f 373/594/586 374/595/586 371/596/586 372/597/586
f 370/592/590 371/596/590 374/595/590 367/593/590
f 377/284/591 378/598/591 375/599/591 376/591/591
f 379/600/231 380/601/231 383/602/231 384/603/231
f 378/598/592 383/602/592 380/601/592 375/599/592
f 382/283/203 386/285/202 378/598/593 377/284/593
f 387/286/594 388/604/594 385/605/594 386/285/594
f 383/602/595 378/598/596 386/285/597
f 381/282/588 377/284/598 376/591/588
f 391/606/231 392/607/231 389/608/231 390/609/231
f 386/285/599 385/605/599 390/609/599 389/608/599
f 393/281/201 387/286/201 382/283/201 381/282/201
f 383/602/231 389/608/231 392/607/231 384/603/231
f 389/608/600 383/602/595 386/285/597
f 388/604/200 387/286/200 393/281/199 368/280/200
f 404/287/205 397/610/601 396/611/601 395/288/206
f 399/291/209 398/290/208 400/293/602 401/612/602
f 404/295/205 402/292/214 403/290/213 406/294/212
f 409/290/603 407/292/215 399/291/209 408/612/604
f 410/293/605 409/290/603 408/612/604
f 561/721/715 560/586/716 370/592/717 369/279/717
f 371/722/586 360/589/586 366/588/586 465/722/586
f 560/586/718 360/589/718 371/722/718 370/592/718
f 393/281/201 562/725/201 561/721/201 369/279/201
f 562/725/201 381/282/201 361/583/201 561/721/201
f 560/586/716 561/721/715 361/583/719
