# Blender 5.2.0 LTS
# www.blender.org
mtllib Campement_Decor.mtl
o Cube
v 3.620501 0.310484 -3.054438
v 1.779775 0.517496 -0.702101
v 3.448872 0.434769 -3.189126
v 2.362070 0.434769 -1.804242
v 1.275268 0.434769 -0.419358
v 2.533699 0.310484 -1.669554
v 1.446897 0.310484 -0.284670
v 2.533699 0.061912 -1.669554
v 1.446897 0.061912 -0.284670
v 1.275268 -0.062373 -0.419358
v 2.190439 0.061912 -1.938931
v 1.103637 0.061912 -0.554047
v 1.103637 0.310484 -0.554047
v 3.620501 0.061912 -3.054438
v 1.752043 0.337658 -0.763999
v 3.448871 -0.062373 -3.189126
v 2.362070 -0.062373 -1.804242
v 3.277240 0.061912 -3.323815
v 1.674855 0.337658 -0.665641
v 3.277240 0.310484 -3.323815
v 2.190439 0.310484 -1.938931
v 1.752538 0.543856 -0.723475
v 1.667657 0.401893 -0.830221
v 1.741571 0.517496 -0.653419
v 1.590470 0.401893 -0.731863
v 1.714335 0.543856 -0.674793
v 0.000000 -0.000000 -11.000001
v 0.000000 -0.000000 -12.000001
v -1.000001 -0.000000 -12.000001
v -1.000000 -0.000000 -11.000001
v -1.000000 -0.000000 -11.000001
v -1.000001 -0.000000 -12.000001
v -2.000000 -0.000000 -12.000000
v -2.000000 -0.000000 -11.000001
v -2.000000 -0.000000 -11.000001
v -2.000000 -0.000000 -12.000000
v -3.000000 -0.000000 -12.000001
v -3.000000 0.000000 -11.000001
v -3.000000 0.000000 -11.000001
v -3.000000 -0.000000 -12.000001
v -4.000000 -0.000000 -12.000000
v -4.000000 0.000000 -11.000001
v -4.000000 0.000000 -11.000001
v -4.000000 -0.000000 -12.000000
v -5.000000 -0.000000 -12.000000
v -5.000000 -0.000000 -11.000001
v -5.000000 -0.000000 -11.000001
v -5.000000 -0.000000 -12.000000
v -6.000000 -0.000000 -12.000001
v -6.000000 -0.000000 -11.000001
v -6.000000 -0.000000 -11.000001
v -6.000000 -0.000000 -12.000001
v -7.000000 -0.000000 -12.000000
v -7.000000 -0.000000 -11.000000
v -7.000000 -0.000000 -11.000000
v -7.000000 -0.000000 -12.000000
v -8.000000 -0.000000 -12.000000
v -8.000000 -0.000000 -11.000001
v -8.000000 -0.000000 -11.000001
v -8.000000 -0.000000 -12.000000
v -9.000000 -0.000000 -12.000001
v -9.000000 0.000000 -11.000000
v -9.000000 0.000000 -11.000000
v -9.000000 -0.000000 -12.000001
v -10.000002 -0.000000 -12.000001
v -10.000000 -0.000000 -11.000001
v -10.000000 -0.000000 -11.000001
v -10.000002 -0.000000 -12.000001
v -11.000000 -0.000000 -12.000001
v -11.000000 -0.000000 -11.000000
v 1.000000 -0.000000 -11.000001
v 1.000000 -0.000000 -12.000001
v 0.000000 -0.000000 -12.000001
v 0.000000 -0.000000 -11.000001
v 2.000000 0.000000 -11.000001
v 2.000000 -0.000000 -12.000001
v 1.000000 -0.000000 -12.000001
v 1.000000 -0.000000 -11.000001
v 3.000000 0.000000 -11.000001
v 3.000000 -0.000000 -12.000001
v 2.000000 -0.000000 -12.000001
v 2.000000 0.000000 -11.000001
v 4.000000 0.000000 -11.000001
v 4.000000 -0.000000 -12.000000
v 3.000000 -0.000000 -12.000001
v 3.000000 0.000000 -11.000001
v 5.000000 0.000000 -11.000000
v 5.000000 -0.000000 -12.000001
v 4.000000 -0.000000 -12.000000
v 4.000000 0.000000 -11.000001
v 6.000000 0.000000 -11.000001
v 6.000000 -0.000000 -12.000001
v 5.000000 -0.000000 -12.000001
v 5.000000 0.000000 -11.000000
v 7.000000 0.000000 -11.000000
v 7.000001 -0.000000 -12.000001
v 6.000000 -0.000000 -12.000001
v 6.000000 0.000000 -11.000001
v 8.000000 0.000000 -11.000001
v 8.000000 -0.000000 -12.000001
v 7.000001 -0.000000 -12.000001
v 7.000000 0.000000 -11.000000
v 9.000001 0.000000 -11.000000
v 9.000000 -0.000000 -12.000000
v 8.000000 -0.000000 -12.000001
v 8.000000 0.000000 -11.000001
v 10.000000 0.000000 -11.000001
v 10.000000 -0.000000 -12.000000
v 9.000000 -0.000000 -12.000000
v 9.000001 0.000000 -11.000000
v 0.000000 0.000000 -10.000000
v 0.000000 -0.000000 -11.000001
v -1.000000 -0.000000 -11.000001
v -1.000000 0.000000 -10.000000
v -1.000000 0.000000 -10.000000
v -1.000000 -0.000000 -11.000001
v -2.000000 -0.000000 -11.000001
v -2.000000 0.000000 -10.000001
v -2.000000 0.000000 -10.000001
v -2.000000 -0.000000 -11.000001
v -3.000000 -0.000000 -11.000001
v -3.000000 0.000000 -10.000000
v -3.000000 0.000000 -10.000000
v -3.000000 -0.000000 -11.000001
v -4.000000 -0.000000 -11.000001
v -4.000000 0.000000 -10.000000
v -4.000000 0.000000 -10.000000
v -4.000000 -0.000000 -11.000001
v -5.000000 -0.000000 -11.000001
v -5.000000 -0.000000 -10.000001
v -5.000000 -0.000000 -10.000001
v -5.000000 -0.000000 -11.000001
v -6.000000 -0.000000 -11.000001
v -6.000000 0.000000 -10.000000
v -6.000000 0.000000 -10.000000
v -6.000000 -0.000000 -11.000001
v -7.000000 -0.000000 -11.000000
v -7.000000 0.000000 -10.000000
v -7.000000 0.000000 -10.000000
v -7.000000 -0.000000 -11.000000
v -8.000000 -0.000000 -11.000001
v -8.000000 0.000000 -10.000001
v -8.000000 0.000000 -10.000001
v -8.000000 -0.000000 -11.000001
v -9.000000 -0.000000 -11.000000
v -9.000000 0.000000 -10.000001
v -9.000000 0.000000 -10.000001
v -9.000000 -0.000000 -11.000000
v -10.000000 -0.000000 -11.000001
v -10.000000 -0.000000 -10.000001
v -10.000000 -0.000000 -10.000001
v -10.000000 -0.000000 -11.000001
v -11.000000 -0.000000 -11.000000
v -11.000000 0.000000 -10.000000
v 1.000000 -0.000000 -10.000001
v 1.000000 -0.000000 -11.000001
v 0.000000 -0.000000 -11.000001
v 0.000000 0.000000 -10.000000
v 2.000000 0.000000 -10.000001
v 2.000000 -0.000000 -11.000001
v 1.000000 -0.000000 -11.000001
v 1.000000 -0.000000 -10.000001
v 3.000000 0.000000 -10.000000
v 3.000000 -0.000000 -11.000001
v 2.000000 -0.000000 -11.000001
v 2.000000 0.000000 -10.000001
v 4.000001 0.000000 -10.000001
v 4.000000 -0.000000 -11.000001
v 3.000000 -0.000000 -11.000001
v 3.000000 0.000000 -10.000000
v 5.000000 0.000000 -10.000000
v 5.000000 -0.000000 -11.000000
v 4.000000 -0.000000 -11.000001
v 4.000001 0.000000 -10.000001
v 6.000000 -0.000000 -10.000001
v 6.000000 -0.000000 -11.000001
v 5.000000 -0.000000 -11.000000
v 5.000000 0.000000 -10.000000
v 7.000000 0.000000 -10.000001
v 7.000000 -0.000000 -11.000000
v 6.000000 -0.000000 -11.000001
v 6.000000 -0.000000 -10.000001
v 8.000000 0.000000 -10.000001
v 8.000000 -0.000000 -11.000001
v 7.000000 -0.000000 -11.000000
v 7.000000 0.000000 -10.000001
v 9.000000 0.000000 -10.000000
v 9.000001 -0.000000 -11.000000
v 8.000000 -0.000000 -11.000001
v 8.000000 0.000000 -10.000001
v 10.000000 0.000000 -10.000000
v 10.000000 -0.000000 -11.000001
v 9.000001 -0.000000 -11.000000
v 9.000000 0.000000 -10.000000
v 0.000000 -0.000000 -9.000001
v 0.000000 -0.000000 -10.000000
v -1.000000 -0.000000 -10.000000
v -1.000000 -0.000000 -9.000001
v -1.000000 -0.000000 -9.000001
v -1.000000 -0.000000 -10.000000
v -2.000000 -0.000000 -10.000001
v -2.000000 -0.000000 -9.000000
v -2.000000 -0.000000 -9.000000
v -2.000000 -0.000000 -10.000001
v -3.000000 -0.000000 -10.000000
v -3.000000 0.000000 -9.000001
v -3.000000 0.000000 -9.000001
v -3.000000 -0.000000 -10.000000
v -4.000000 -0.000000 -10.000000
v -4.000000 0.000000 -9.000001
v -4.000000 0.000000 -9.000001
v -4.000000 -0.000000 -10.000000
v -5.000000 -0.000000 -10.000001
v -5.000000 -0.000000 -9.000001
v -5.000000 -0.000000 -9.000001
v -5.000000 -0.000000 -10.000001
v -6.000000 -0.000000 -10.000000
v -6.000000 -0.000000 -9.000001
v -6.000000 -0.000000 -9.000001
v -6.000000 -0.000000 -10.000000
v -7.000000 -0.000000 -10.000000
v -7.000000 -0.000000 -9.000000
v -7.000000 -0.000000 -9.000000
v -7.000000 -0.000000 -10.000000
v -8.000000 -0.000000 -10.000001
v -8.000000 -0.000000 -9.000000
v -8.000000 -0.000000 -9.000000
v -8.000000 -0.000000 -10.000001
v -9.000000 -0.000000 -10.000001
v -9.000000 0.000000 -9.000001
v -9.000000 0.000000 -9.000001
v -9.000000 -0.000000 -10.000001
v -10.000000 -0.000000 -10.000001
v -10.000000 -0.000000 -9.000001
v -10.000000 -0.000000 -9.000001
v -10.000000 -0.000000 -10.000001
v -11.000000 -0.000000 -10.000000
v -11.000002 -0.000000 -9.000000
v 1.000000 0.000000 -9.000001
v 1.000000 -0.000000 -10.000001
v 0.000000 -0.000000 -10.000000
v 0.000000 -0.000000 -9.000001
v 2.000000 0.000000 -9.000000
v 2.000000 -0.000000 -10.000001
v 1.000000 -0.000000 -10.000001
v 1.000000 0.000000 -9.000001
v 3.000000 0.000000 -9.000000
v 3.000000 -0.000000 -10.000000
v 2.000000 -0.000000 -10.000001
v 2.000000 0.000000 -9.000000
v 4.000000 0.000000 -9.000001
v 4.000001 -0.000000 -10.000001
v 3.000000 -0.000000 -10.000000
v 3.000000 0.000000 -9.000000
v 5.000000 0.000000 -9.000000
v 5.000000 -0.000000 -10.000000
v 4.000001 -0.000000 -10.000001
v 4.000000 0.000000 -9.000001
v 6.000000 0.000000 -9.000001
v 6.000000 -0.000000 -10.000001
v 5.000000 -0.000000 -10.000000
v 5.000000 0.000000 -9.000000
v 7.000000 0.000000 -9.000001
v 7.000000 -0.000000 -10.000001
v 6.000000 -0.000000 -10.000001
v 6.000000 0.000000 -9.000001
v 8.000000 0.000000 -9.000001
v 8.000000 -0.000000 -10.000001
v 7.000000 -0.000000 -10.000001
v 7.000000 0.000000 -9.000001
v 9.000000 0.000000 -9.000000
v 9.000000 -0.000000 -10.000000
v 8.000000 -0.000000 -10.000001
v 8.000000 0.000000 -9.000001
v 10.000000 0.000000 -9.000001
v 10.000000 -0.000000 -10.000000
v 9.000000 -0.000000 -10.000000
v 9.000000 0.000000 -9.000000
v 0.000000 0.000000 -8.000001
v 0.000000 -0.000000 -9.000001
v -1.000000 -0.000000 -9.000001
v -1.000000 0.000000 -8.000000
v -1.000000 0.000000 -8.000000
v -1.000000 -0.000000 -9.000001
v -2.000000 -0.000000 -9.000000
v -2.000000 0.000000 -8.000001
v -2.000000 0.000000 -8.000001
v -2.000000 -0.000000 -9.000000
v -3.000000 -0.000000 -9.000001
v -3.000000 0.000000 -8.000000
v -3.000000 0.000000 -8.000000
v -3.000000 -0.000000 -9.000001
v -4.000000 -0.000000 -9.000001
v -4.000000 0.000000 -8.000000
v -4.000000 0.000000 -8.000000
v -4.000000 -0.000000 -9.000001
v -5.000000 -0.000000 -9.000001
v -5.000000 -0.000000 -8.000000
v -5.000000 -0.000000 -8.000000
v -5.000000 -0.000000 -9.000001
v -6.000000 -0.000000 -9.000001
v -6.000000 0.000000 -8.000001
v -6.000000 0.000000 -8.000001
v -6.000000 -0.000000 -9.000001
v -7.000000 -0.000000 -9.000000
v -7.000000 0.000000 -8.000001
v -7.000000 0.000000 -8.000001
v -7.000000 -0.000000 -9.000000
v -8.000000 -0.000000 -9.000000
v -8.000000 0.000000 -8.000000
v -8.000000 0.000000 -8.000000
v -8.000000 -0.000000 -9.000000
v -9.000000 -0.000000 -9.000001
v -9.000002 0.000000 -8.000001
v -9.000002 0.000000 -8.000001
v -9.000000 -0.000000 -9.000001
v -10.000000 -0.000000 -9.000001
v -10.000000 -0.000000 -8.000001
v -10.000000 -0.000000 -8.000001
v -10.000000 -0.000000 -9.000001
v -11.000002 -0.000000 -9.000000
v -11.000000 0.000000 -8.000001
v 1.000000 0.000000 -8.000000
v 1.000000 -0.000000 -9.000001
v 0.000000 -0.000000 -9.000001
v 0.000000 0.000000 -8.000001
v 2.000000 0.000000 -8.000000
v 2.000000 -0.000000 -9.000000
v 1.000000 -0.000000 -9.000001
v 1.000000 0.000000 -8.000000
v 3.000000 0.000000 -8.000000
v 3.000000 -0.000000 -9.000000
v 2.000000 -0.000000 -9.000000
v 2.000000 0.000000 -8.000000
v 4.000000 0.000000 -8.000000
v 4.000000 -0.000000 -9.000001
v 3.000000 -0.000000 -9.000000
v 3.000000 0.000000 -8.000000
v 5.000000 0.000000 -8.000000
v 5.000000 -0.000000 -9.000000
v 4.000000 -0.000000 -9.000001
v 4.000000 0.000000 -8.000000
v 6.000000 -0.000000 -8.000000
v 6.000000 -0.000000 -9.000001
v 5.000000 -0.000000 -9.000000
v 5.000000 0.000000 -8.000000
v 7.000000 0.000000 -8.000001
v 7.000000 -0.000000 -9.000001
v 6.000000 -0.000000 -9.000001
v 6.000000 -0.000000 -8.000000
v 8.000000 0.000000 -8.000001
v 8.000000 -0.000000 -9.000001
v 7.000000 -0.000000 -9.000001
v 7.000000 0.000000 -8.000001
v 9.000000 0.000000 -8.000001
v 9.000000 -0.000000 -9.000000
v 8.000000 -0.000000 -9.000001
v 8.000000 0.000000 -8.000001
v 10.000000 0.000000 -8.000000
v 10.000000 -0.000000 -9.000001
v 9.000000 -0.000000 -9.000000
v 9.000000 0.000000 -8.000001
v 0.000000 0.000000 -7.000000
v 0.000000 -0.000000 -8.000001
v -1.000000 -0.000000 -8.000000
v -1.000000 0.000000 -7.000000
v -1.000000 0.000000 -7.000000
v -1.000000 -0.000000 -8.000000
v -2.000000 -0.000000 -8.000001
v -2.000000 -0.000000 -7.000000
v -2.000000 -0.000000 -7.000000
v -2.000000 -0.000000 -8.000001
v -3.000000 -0.000000 -8.000000
v -3.000000 0.000000 -7.000000
v -3.000000 0.000000 -7.000000
v -3.000000 -0.000000 -8.000000
v -4.000000 -0.000000 -8.000000
v -4.000000 0.000000 -7.000000
v -4.000000 0.000000 -7.000000
v -4.000000 -0.000000 -8.000000
v -5.000000 -0.000000 -8.000000
v -5.000000 -0.000000 -7.000000
v -5.000000 -0.000000 -7.000000
v -5.000000 -0.000000 -8.000000
v -6.000000 -0.000000 -8.000001
v -6.000000 -0.000000 -7.000000
v -6.000000 -0.000000 -7.000000
v -6.000000 -0.000000 -8.000001
v -7.000000 -0.000000 -8.000001
v -7.000000 -0.000000 -7.000000
v -7.000000 -0.000000 -7.000000
v -7.000000 -0.000000 -8.000001
v -8.000000 -0.000000 -8.000000
v -8.000000 -0.000000 -7.000000
v -8.000000 -0.000000 -7.000000
v -8.000000 -0.000000 -8.000000
v -9.000002 -0.000000 -8.000001
v -9.000000 0.000000 -7.000000
v -9.000000 0.000000 -7.000000
v -9.000002 -0.000000 -8.000001
v -10.000000 -0.000000 -8.000001
v -10.000000 -0.000000 -7.000000
v -10.000000 -0.000000 -7.000000
v -10.000000 -0.000000 -8.000001
v -11.000000 -0.000000 -8.000001
v -11.000002 -0.000000 -7.000000
v 1.000000 0.000000 -7.000001
v 1.000000 -0.000000 -8.000000
v 0.000000 -0.000000 -8.000001
v 0.000000 0.000000 -7.000000
v 2.000000 0.000000 -7.000000
v 2.000000 -0.000000 -8.000000
v 1.000000 -0.000000 -8.000000
v 1.000000 0.000000 -7.000001
v 3.000000 0.000000 -7.000000
v 3.000000 -0.000000 -8.000000
v 2.000000 -0.000000 -8.000000
v 2.000000 0.000000 -7.000000
v 4.000000 0.000000 -7.000000
v 4.000000 -0.000000 -8.000000
v 3.000000 -0.000000 -8.000000
v 3.000000 0.000000 -7.000000
v 5.000000 0.000000 -7.000000
v 5.000000 -0.000000 -8.000000
v 4.000000 -0.000000 -8.000000
v 4.000000 0.000000 -7.000000
v 6.000000 0.000000 -7.000001
v 6.000000 -0.000000 -8.000000
v 5.000000 -0.000000 -8.000000
v 5.000000 0.000000 -7.000000
v 7.000000 0.000000 -7.000000
v 7.000000 -0.000000 -8.000001
v 6.000000 -0.000000 -8.000000
v 6.000000 0.000000 -7.000001
v 8.000000 0.000000 -7.000000
v 8.000000 -0.000000 -8.000001
v 7.000000 -0.000000 -8.000001
v 7.000000 0.000000 -7.000000
v 9.000000 0.000000 -7.000000
v 9.000000 -0.000000 -8.000001
v 8.000000 -0.000000 -8.000001
v 8.000000 0.000000 -7.000000
v 10.000000 0.000000 -7.000001
v 10.000000 -0.000000 -8.000000
v 9.000000 -0.000000 -8.000001
v 9.000000 0.000000 -7.000000
v 0.000000 0.000000 -6.000000
v 0.000000 -0.000000 -7.000000
v -1.000000 -0.000000 -7.000000
v -1.000000 0.000000 -6.000001
v -1.000000 0.000000 -6.000001
v -1.000000 -0.000000 -7.000000
v -2.000000 -0.000000 -7.000000
v -2.000000 0.000000 -6.000000
v -2.000000 0.000000 -6.000000
v -2.000000 -0.000000 -7.000000
v -3.000000 -0.000000 -7.000000
v -3.000000 0.000000 -6.000000
v -3.000000 0.000000 -6.000000
v -3.000000 -0.000000 -7.000000
v -4.000000 -0.000000 -7.000000
v -4.000000 0.000000 -6.000000
v -4.000000 0.000000 -6.000000
v -4.000000 -0.000000 -7.000000
v -5.000000 -0.000000 -7.000000
v -5.000000 -0.000000 -6.000000
v -5.000000 -0.000000 -6.000000
v -5.000000 -0.000000 -7.000000
v -6.000000 -0.000000 -7.000000
v -6.000000 0.000000 -6.000000
v -6.000000 0.000000 -6.000000
v -6.000000 -0.000000 -7.000000
v -7.000000 -0.000000 -7.000000
v -7.000000 0.000000 -6.000000
v -7.000000 0.000000 -6.000000
v -7.000000 -0.000000 -7.000000
v -8.000000 -0.000000 -7.000000
v -8.000000 0.000000 -6.000001
v -8.000000 0.000000 -6.000001
v -8.000000 -0.000000 -7.000000
v -9.000000 -0.000000 -7.000000
v -9.000000 0.000000 -6.000000
v -9.000000 0.000000 -6.000000
v -9.000000 -0.000000 -7.000000
v -10.000000 -0.000000 -7.000000
v -10.000000 -0.000000 -6.000000
v -10.000000 -0.000000 -6.000000
v -10.000000 -0.000000 -7.000000
v -11.000002 -0.000000 -7.000000
v -11.000000 0.000000 -6.000000
v 1.000000 0.000000 -6.000000
v 1.000000 -0.000000 -7.000001
v 0.000000 -0.000000 -7.000000
v 0.000000 0.000000 -6.000000
v 2.000000 0.000000 -6.000000
v 2.000000 -0.000000 -7.000000
v 1.000000 -0.000000 -7.000001
v 1.000000 0.000000 -6.000000
v 3.000000 0.000000 -6.000000
v 3.000000 -0.000000 -7.000000
v 2.000000 -0.000000 -7.000000
v 2.000000 0.000000 -6.000000
v 4.000000 0.000000 -6.000001
v 4.000000 -0.000000 -7.000000
v 3.000000 -0.000000 -7.000000
v 3.000000 0.000000 -6.000000
v 5.000000 0.000000 -6.000000
v 5.000000 -0.000000 -7.000000
v 4.000000 -0.000000 -7.000000
v 4.000000 0.000000 -6.000001
v 6.000000 -0.000000 -6.000000
v 6.000000 -0.000000 -7.000001
v 5.000000 -0.000000 -7.000000
v 5.000000 0.000000 -6.000000
v 7.000001 0.000000 -6.000000
v 7.000000 -0.000000 -7.000000
v 6.000000 -0.000000 -7.000001
v 6.000000 -0.000000 -6.000000
v 8.000000 0.000000 -6.000001
v 8.000000 -0.000000 -7.000000
v 7.000000 -0.000000 -7.000000
v 7.000001 0.000000 -6.000000
v 9.000002 0.000000 -6.000000
v 9.000000 -0.000000 -7.000000
v 8.000000 -0.000000 -7.000000
v 8.000000 0.000000 -6.000001
v 10.000000 0.000000 -6.000000
v 10.000000 -0.000000 -7.000001
v 9.000000 -0.000000 -7.000000
v 9.000002 0.000000 -6.000000
v 0.000000 0.000000 -5.000000
v 0.000000 -0.000000 -6.000000
v -1.000000 -0.000000 -6.000001
v -1.000000 0.000000 -5.000000
v -1.000000 0.000000 -5.000000
v -1.000000 -0.000000 -6.000001
v -2.000000 -0.000000 -6.000000
v -2.000000 0.000000 -5.000000
v -2.000000 0.000000 -5.000000
v -2.000000 -0.000000 -6.000000
v -3.000000 -0.000000 -6.000000
v -3.000000 0.000000 -5.000000
v -3.000000 0.000000 -5.000000
v -3.000000 -0.000000 -6.000000
v -4.000000 -0.000000 -6.000000
v -4.000000 0.000000 -5.000000
v -4.000000 0.000000 -5.000000
v -4.000000 -0.000000 -6.000000
v -5.000000 -0.000000 -6.000000
v -5.000000 -0.000000 -5.000000
v -5.000000 -0.000000 -5.000000
v -5.000000 -0.000000 -6.000000
v -6.000000 -0.000000 -6.000000
v -6.000000 -0.000000 -5.000000
v -6.000000 -0.000000 -5.000000
v -6.000000 -0.000000 -6.000000
v -7.000000 -0.000000 -6.000000
v -7.000000 -0.000000 -5.000000
v -7.000000 -0.000000 -5.000000
v -7.000000 -0.000000 -6.000000
v -8.000000 -0.000000 -6.000001
v -8.000000 -0.000000 -5.000000
v -8.000000 -0.000000 -5.000000
v -8.000000 -0.000000 -6.000001
v -9.000000 -0.000000 -6.000000
v -9.000000 0.000000 -5.000000
v -9.000000 0.000000 -5.000000
v -9.000000 -0.000000 -6.000000
v -10.000000 -0.000000 -6.000000
v -10.000000 -0.000000 -5.000000
v -10.000000 -0.000000 -5.000000
v -10.000000 -0.000000 -6.000000
v -11.000000 -0.000000 -6.000000
v -11.000000 -0.000000 -5.000000
v 1.000000 0.000000 -5.000000
v 1.000000 -0.000000 -6.000000
v 0.000000 -0.000000 -6.000000
v 0.000000 0.000000 -5.000000
v 2.000000 0.000000 -5.000000
v 2.000000 -0.000000 -6.000000
v 1.000000 -0.000000 -6.000000
v 1.000000 0.000000 -5.000000
v 3.000000 0.000000 -5.000000
v 3.000000 -0.000000 -6.000000
v 2.000000 -0.000000 -6.000000
v 2.000000 0.000000 -5.000000
v 4.000000 0.000000 -5.000000
v 4.000000 -0.000000 -6.000001
v 3.000000 -0.000000 -6.000000
v 3.000000 0.000000 -5.000000
v 5.000000 0.000000 -5.000000
v 5.000000 -0.000000 -6.000000
v 4.000000 -0.000000 -6.000001
v 4.000000 0.000000 -5.000000
v 6.000000 0.000000 -5.000000
v 6.000000 -0.000000 -6.000000
v 5.000000 -0.000000 -6.000000
v 5.000000 0.000000 -5.000000
v 7.000000 0.000000 -5.000000
v 7.000001 -0.000000 -6.000000
v 6.000000 -0.000000 -6.000000
v 6.000000 0.000000 -5.000000
v 8.000000 0.000000 -5.000000
v 8.000000 -0.000000 -6.000001
v 7.000001 -0.000000 -6.000000
v 7.000000 0.000000 -5.000000
v 9.000000 0.000000 -5.000000
v 9.000002 -0.000000 -6.000000
v 8.000000 -0.000000 -6.000001
v 8.000000 0.000000 -5.000000
v 10.000000 0.000000 -5.000000
v 10.000000 -0.000000 -6.000000
v 9.000002 -0.000000 -6.000000
v 9.000000 0.000000 -5.000000
v 0.000000 0.000000 -4.000000
v 0.000000 -0.000000 -5.000000
v -1.000000 -0.000000 -5.000000
v -1.000000 0.000000 -4.000000
v -1.000000 0.000000 -4.000000
v -1.000000 -0.000000 -5.000000
v -2.000000 -0.000000 -5.000000
v -2.000000 0.000000 -4.000000
v -2.000000 0.000000 -4.000000
v -2.000000 -0.000000 -5.000000
v -3.000000 -0.000000 -5.000000
v -3.000000 0.000000 -4.000000
v -3.000000 0.000000 -4.000000
v -3.000000 -0.000000 -5.000000
v -4.000000 -0.000000 -5.000000
v -4.000000 0.000000 -4.000000
v -4.000000 0.000000 -4.000000
v -4.000000 -0.000000 -5.000000
v -5.000000 -0.000000 -5.000000
v -5.000000 -0.000000 -4.000000
v -5.000000 -0.000000 -4.000000
v -5.000000 -0.000000 -5.000000
v -6.000000 -0.000000 -5.000000
v -6.000000 0.000000 -4.000000
v -6.000000 0.000000 -4.000000
v -6.000000 -0.000000 -5.000000
v -7.000000 -0.000000 -5.000000
v -7.000000 0.000000 -4.000000
v -7.000000 0.000000 -4.000000
v -7.000000 -0.000000 -5.000000
v -8.000000 -0.000000 -5.000000
v -8.000000 0.000000 -4.000001
v -8.000000 0.000000 -4.000001
v -8.000000 -0.000000 -5.000000
v -9.000000 -0.000000 -5.000000
v -9.000000 0.000000 -4.000000
v -9.000000 0.000000 -4.000000
v -9.000000 -0.000000 -5.000000
v -10.000000 -0.000000 -5.000000
v -10.000000 -0.000000 -4.000000
v -10.000000 -0.000000 -4.000000
v -10.000000 -0.000000 -5.000000
v -11.000000 -0.000000 -5.000000
v -11.000000 0.000000 -4.000000
v 1.000000 -0.000000 -4.000000
v 1.000000 -0.000000 -5.000000
v 0.000000 -0.000000 -5.000000
v 0.000000 0.000000 -4.000000
v 2.000000 0.000000 -4.000000
v 2.000000 -0.000000 -5.000000
v 1.000000 -0.000000 -5.000000
v 1.000000 -0.000000 -4.000000
v 3.000000 0.000000 -4.000000
v 3.000000 -0.000000 -5.000000
v 2.000000 -0.000000 -5.000000
v 2.000000 0.000000 -4.000000
v 4.000000 0.000000 -4.000000
v 4.000000 -0.000000 -5.000000
v 3.000000 -0.000000 -5.000000
v 3.000000 0.000000 -4.000000
v 5.000001 0.000000 -4.000000
v 5.000000 -0.000000 -5.000000
v 4.000000 -0.000000 -5.000000
v 4.000000 0.000000 -4.000000
v 6.000000 -0.000000 -4.000000
v 6.000000 -0.000000 -5.000000
v 5.000000 -0.000000 -5.000000
v 5.000001 0.000000 -4.000000
v 7.000000 0.000000 -4.000001
v 7.000000 -0.000000 -5.000000
v 6.000000 -0.000000 -5.000000
v 6.000000 -0.000000 -4.000000
v 8.000000 0.000000 -4.000000
v 8.000000 -0.000000 -5.000000
v 7.000000 -0.000000 -5.000000
v 7.000000 0.000000 -4.000001
v 9.000000 0.000000 -4.000000
v 9.000000 -0.000000 -5.000000
v 8.000000 -0.000000 -5.000000
v 8.000000 0.000000 -4.000000
v 10.000000 0.000000 -4.000000
v 10.000000 -0.000000 -5.000000
v 9.000000 -0.000000 -5.000000
v 9.000000 0.000000 -4.000000
v 0.000000 0.000000 -3.000000
v 0.000000 -0.000000 -4.000000
v -1.000000 -0.000000 -4.000000
v -1.000000 0.000000 -3.000000
v -1.000000 0.000000 -3.000000
v -1.000000 -0.000000 -4.000000
v -2.000000 -0.000000 -4.000000
v -2.000000 0.000000 -3.000000
v -2.000000 0.000000 -3.000000
v -2.000000 -0.000000 -4.000000
v -3.000000 -0.000000 -4.000000
v -3.000000 0.000000 -3.000000
v -3.000000 0.000000 -3.000000
v -3.000000 -0.000000 -4.000000
v -4.000000 -0.000000 -4.000000
v -4.000000 0.000000 -3.000000
v -4.000000 0.000000 -3.000000
v -4.000000 -0.000000 -4.000000
v -5.000000 -0.000000 -4.000000
v -5.000000 -0.000000 -3.000000
v -5.000000 -0.000000 -3.000000
v -5.000000 -0.000000 -4.000000
v -6.000000 -0.000000 -4.000000
v -6.000000 -0.000000 -3.000000
v -6.000000 -0.000000 -3.000000
v -6.000000 -0.000000 -4.000000
v -7.000000 -0.000000 -4.000000
v -7.000000 -0.000000 -3.000000
v -7.000000 -0.000000 -3.000000
v -7.000000 -0.000000 -4.000000
v -8.000000 -0.000000 -4.000001
v -8.000000 -0.000000 -3.000000
v -8.000000 -0.000000 -3.000000
v -8.000000 -0.000000 -4.000001
v -9.000000 -0.000000 -4.000000
v -9.000000 0.000000 -3.000000
v -9.000000 0.000000 -3.000000
v -9.000000 -0.000000 -4.000000
v -10.000000 -0.000000 -4.000000
v -10.000000 -0.000000 -3.000000
v -10.000000 -0.000000 -3.000000
v -10.000000 -0.000000 -4.000000
v -11.000000 -0.000000 -4.000000
v -11.000000 -0.000000 -3.000000
v 1.000000 0.000000 -3.000000
v 1.000000 -0.000000 -4.000000
v 0.000000 -0.000000 -4.000000
v 0.000000 0.000000 -3.000000
v 2.000000 0.000000 -3.000000
v 2.000000 -0.000000 -4.000000
v 1.000000 -0.000000 -4.000000
v 1.000000 0.000000 -3.000000
v 3.000000 0.000000 -3.000000
v 3.000000 -0.000000 -4.000000
v 2.000000 -0.000000 -4.000000
v 2.000000 0.000000 -3.000000
v 4.000000 0.000000 -3.000000
v 4.000000 -0.000000 -4.000000
v 3.000000 -0.000000 -4.000000
v 3.000000 0.000000 -3.000000
v 5.000000 0.000000 -3.000000
v 5.000001 -0.000000 -4.000000
v 4.000000 -0.000000 -4.000000
v 4.000000 0.000000 -3.000000
v 6.000000 0.000000 -3.000000
v 6.000000 -0.000000 -4.000000
v 5.000001 -0.000000 -4.000000
v 5.000000 0.000000 -3.000000
v 7.000000 0.000000 -3.000001
v 7.000000 -0.000000 -4.000001
v 6.000000 -0.000000 -4.000000
v 6.000000 0.000000 -3.000000
v 8.000000 0.000000 -3.000000
v 8.000000 -0.000000 -4.000000
v 7.000000 -0.000000 -4.000001
v 7.000000 0.000000 -3.000001
v 9.000000 0.000000 -3.000000
v 9.000000 -0.000000 -4.000000
v 8.000000 -0.000000 -4.000000
v 8.000000 0.000000 -3.000000
v 10.000000 0.000000 -3.000000
v 10.000000 -0.000000 -4.000000
v 9.000000 -0.000000 -4.000000
v 9.000000 0.000000 -3.000000
v -0.000000 0.000000 -2.000000
v 0.000000 -0.000000 -3.000000
v -1.000000 -0.000000 -3.000000
v -1.000000 0.000000 -2.000000
v -1.000000 0.000000 -2.000000
v -1.000000 -0.000000 -3.000000
v -2.000000 -0.000000 -3.000000
v -2.000000 0.000000 -2.000000
v -2.000000 0.000000 -2.000000
v -2.000000 -0.000000 -3.000000
v -3.000000 -0.000000 -3.000000
v -3.000000 0.000000 -2.000000
v -3.000000 0.000000 -2.000000
v -3.000000 -0.000000 -3.000000
v -4.000000 -0.000000 -3.000000
v -4.000000 0.000000 -2.000000
v -4.000000 0.000000 -2.000000
v -4.000000 -0.000000 -3.000000
v -5.000000 -0.000000 -3.000000
v -5.000000 0.000000 -2.000000
v -5.000000 0.000000 -2.000000
v -5.000000 -0.000000 -3.000000
v -6.000000 -0.000000 -3.000000
v -6.000000 0.000000 -2.000000
v -6.000000 0.000000 -2.000000
v -6.000000 -0.000000 -3.000000
v -7.000000 -0.000000 -3.000000
v -7.000000 0.000000 -2.000000
v -7.000000 0.000000 -2.000000
v -7.000000 -0.000000 -3.000000
v -8.000000 -0.000000 -3.000000
v -8.000000 0.000000 -2.000000
v -8.000000 0.000000 -2.000000
v -8.000000 -0.000000 -3.000000
v -9.000000 -0.000000 -3.000000
v -9.000000 0.000000 -2.000000
v -9.000000 0.000000 -2.000000
v -9.000000 -0.000000 -3.000000
v -10.000000 -0.000000 -3.000000
v -10.000000 -0.000000 -2.000000
v -10.000000 -0.000000 -2.000000
v -10.000000 -0.000000 -3.000000
v -11.000000 -0.000000 -3.000000
v -11.000002 0.000000 -2.000000
v 1.000000 -0.000000 -2.000000
v 1.000000 -0.000000 -3.000000
v 0.000000 -0.000000 -3.000000
v -0.000000 0.000000 -2.000000
v 2.000000 0.000000 -2.000000
v 2.000000 -0.000000 -3.000000
v 1.000000 -0.000000 -3.000000
v 1.000000 -0.000000 -2.000000
v 3.000000 0.000000 -2.000000
v 3.000000 -0.000000 -3.000000
v 2.000000 -0.000000 -3.000000
v 2.000000 0.000000 -2.000000
v 4.000000 0.000000 -2.000000
v 4.000000 -0.000000 -3.000000
v 3.000000 -0.000000 -3.000000
v 3.000000 0.000000 -2.000000
v 5.000000 0.000000 -2.000000
v 5.000000 -0.000000 -3.000000
v 4.000000 -0.000000 -3.000000
v 4.000000 0.000000 -2.000000
v 6.000000 -0.000000 -2.000000
v 6.000000 -0.000000 -3.000000
v 5.000000 -0.000000 -3.000000
v 5.000000 0.000000 -2.000000
v 7.000000 0.000000 -2.000000
v 7.000000 -0.000000 -3.000001
v 6.000000 -0.000000 -3.000000
v 6.000000 -0.000000 -2.000000
v 8.000000 0.000000 -2.000000
v 8.000000 -0.000000 -3.000000
v 7.000000 -0.000000 -3.000001
v 7.000000 0.000000 -2.000000
v 9.000000 0.000000 -2.000000
v 9.000000 -0.000000 -3.000000
v 8.000000 -0.000000 -3.000000
v 8.000000 0.000000 -2.000000
v 10.000000 0.000000 -2.000000
v 10.000000 -0.000000 -3.000000
v 9.000000 -0.000000 -3.000000
v 9.000000 0.000000 -2.000000
v -1.000000 0.000000 -1.000000
v -1.000000 -0.000000 -2.000000
v -2.000000 -0.000000 -2.000000
v -2.000000 0.000000 -1.000001
v -2.000000 0.000000 -1.000001
v -2.000000 -0.000000 -2.000000
v -3.000000 -0.000000 -2.000000
v -3.000000 0.000000 -1.000000
v -3.000000 0.000000 -1.000000
v -3.000000 -0.000000 -2.000000
v -4.000000 -0.000000 -2.000000
v -4.000000 0.000000 -1.000001
v -4.000000 0.000000 -1.000001
v -4.000000 -0.000000 -2.000000
v -5.000000 -0.000000 -2.000000
v -5.000000 0.000000 -1.000001
v -5.000000 0.000000 -1.000001
v -5.000000 -0.000000 -2.000000
v -6.000000 -0.000000 -2.000000
v -6.000000 0.000000 -1.000000
v -6.000000 0.000000 -1.000000
v -6.000000 -0.000000 -2.000000
v -7.000000 -0.000000 -2.000000
v -7.000000 -0.000000 -1.000000
v -7.000000 -0.000000 -1.000000
v -7.000000 -0.000000 -2.000000
v -8.000000 -0.000000 -2.000000
v -8.000000 -0.000000 -1.000000
v -8.000000 -0.000000 -1.000000
v -8.000000 -0.000000 -2.000000
v -9.000000 -0.000000 -2.000000
v -9.000000 0.000000 -1.000001
v -9.000000 0.000000 -1.000001
v -9.000000 -0.000000 -2.000000
v -10.000000 -0.000000 -2.000000
v -10.000000 -0.000000 -1.000001
v -10.000000 -0.000000 -1.000001
v -10.000000 -0.000000 -2.000000
v -11.000002 -0.000000 -2.000000
v -11.000002 -0.000000 -1.000000
v 2.000000 0.000000 -1.000000
v 2.000000 -0.000000 -2.000000
v 1.000000 -0.000000 -2.000000
v 1.000000 0.000000 -1.000000
v 3.000000 0.000000 -1.000001
v 3.000000 -0.000000 -2.000000
v 2.000000 -0.000000 -2.000000
v 2.000000 0.000000 -1.000000
v 4.000000 0.000000 -1.000001
v 4.000000 -0.000000 -2.000000
v 3.000000 -0.000000 -2.000000
v 3.000000 0.000000 -1.000001
v 5.000000 0.000000 -1.000001
v 5.000000 -0.000000 -2.000000
v 4.000000 -0.000000 -2.000000
v 4.000000 0.000000 -1.000001
v 6.000000 0.000000 -1.000001
v 6.000000 -0.000000 -2.000000
v 5.000000 -0.000000 -2.000000
v 5.000000 0.000000 -1.000001
v 7.000000 0.000000 -1.000000
v 7.000000 -0.000000 -2.000000
v 6.000000 -0.000000 -2.000000
v 6.000000 0.000000 -1.000001
v 8.000000 0.000000 -1.000001
v 8.000000 -0.000000 -2.000000
v 7.000000 -0.000000 -2.000000
v 7.000000 0.000000 -1.000000
v 9.000000 0.000000 -1.000000
v 9.000000 -0.000000 -2.000000
v 8.000000 -0.000000 -2.000000
v 8.000000 0.000000 -1.000001
v 10.000000 0.000000 -1.000000
v 10.000000 -0.000000 -2.000000
v 9.000000 -0.000000 -2.000000
v 9.000000 0.000000 -1.000000
v 0.000000 0.000000 -0.000000
v 0.000000 -0.000000 -1.000000
v -1.000000 -0.000000 -1.000000
v -1.000000 0.000000 0.000000
v -1.000000 0.000000 0.000000
v -1.000000 -0.000000 -1.000000
v -2.000000 -0.000000 -1.000001
v -2.000000 0.000000 -0.000000
v -2.000000 0.000000 -0.000000
v -2.000000 -0.000000 -1.000001
v -3.000000 -0.000000 -1.000000
v -3.000000 0.000000 -0.000000
v -3.000000 0.000000 -0.000000
v -3.000000 -0.000000 -1.000000
v -4.000000 -0.000000 -1.000001
v -4.000000 0.000000 0.000001
v -4.000000 0.000000 0.000001
v -4.000000 -0.000000 -1.000001
v -5.000000 -0.000000 -1.000001
v -5.000000 0.000000 -0.000000
v -5.000000 0.000000 -0.000000
v -5.000000 -0.000000 -1.000001
v -6.000000 -0.000000 -1.000000
v -6.000000 0.000000 0.000000
v -6.000000 0.000000 0.000000
v -6.000000 -0.000000 -1.000000
v -7.000000 -0.000000 -1.000000
v -7.000000 0.000000 -0.000000
v -7.000000 0.000000 -0.000000
v -7.000000 -0.000000 -1.000000
v -8.000000 -0.000000 -1.000000
v -8.000000 0.000000 -0.000000
v -8.000000 0.000000 -0.000000
v -8.000000 -0.000000 -1.000000
v -9.000000 -0.000000 -1.000001
v -9.000000 0.000000 0.000000
v -9.000000 0.000000 0.000000
v -9.000000 -0.000000 -1.000001
v -10.000000 -0.000000 -1.000001
v -10.000000 -0.000000 -0.000000
v -10.000000 -0.000000 -0.000000
v -10.000000 -0.000000 -1.000001
v -11.000002 -0.000000 -1.000000
v -11.000000 0.000000 -0.000000
v 1.000000 -0.000000 -0.000000
v 1.000000 -0.000000 -1.000000
v 0.000000 -0.000000 -1.000000
v 0.000000 0.000000 -0.000000
v 2.000000 0.000000 0.000000
v 2.000000 -0.000000 -1.000000
v 1.000000 -0.000000 -1.000000
v 1.000000 -0.000000 -0.000000
v 3.000000 0.000000 -0.000001
v 3.000000 -0.000000 -1.000001
v 2.000000 -0.000000 -1.000000
v 2.000000 0.000000 0.000000
v 4.000000 0.000000 -0.000000
v 4.000000 -0.000000 -1.000001
v 3.000000 -0.000000 -1.000001
v 3.000000 0.000000 -0.000001
v 5.000000 0.000000 -0.000000
v 5.000000 -0.000000 -1.000001
v 4.000000 -0.000000 -1.000001
v 4.000000 0.000000 -0.000000
v 6.000000 -0.000000 -0.000000
v 6.000000 -0.000000 -1.000001
v 5.000000 -0.000000 -1.000001
v 5.000000 0.000000 -0.000000
v 7.000000 0.000000 -0.000000
v 7.000000 -0.000000 -1.000000
v 6.000000 -0.000000 -1.000001
v 6.000000 -0.000000 -0.000000
v 8.000000 0.000000 -0.000001
v 8.000000 -0.000000 -1.000001
v 7.000000 -0.000000 -1.000000
v 7.000000 0.000000 -0.000000
v 9.000000 0.000000 0.000000
v 9.000000 -0.000000 -1.000000
v 8.000000 -0.000000 -1.000001
v 8.000000 0.000000 -0.000001
v 10.000000 0.000000 -0.000000
v 10.000000 -0.000000 -1.000000
v 9.000000 -0.000000 -1.000000
v 9.000000 0.000000 0.000000
v 0.000000 0.000000 1.000000
v 0.000000 -0.000000 -0.000000
v -1.000000 -0.000000 0.000000
v -1.000000 0.000000 1.000000
v -1.000000 0.000000 1.000000
v -1.000000 -0.000000 0.000000
v -2.000000 -0.000000 -0.000000
v -2.000000 0.000000 1.000000
v -2.000000 0.000000 1.000000
v -2.000000 -0.000000 -0.000000
v -3.000000 -0.000000 -0.000000
v -3.000000 0.000000 1.000000
v -3.000000 0.000000 1.000000
v -3.000000 -0.000000 -0.000000
v -4.000000 -0.000000 0.000001
v -4.000000 0.000000 0.999999
v -4.000000 0.000000 0.999999
v -4.000000 -0.000000 0.000001
v -5.000000 -0.000000 -0.000000
v -5.000000 0.000000 1.000000
v -5.000000 0.000000 1.000000
v -5.000000 -0.000000 -0.000000
v -6.000000 -0.000000 0.000000
v -6.000000 0.000000 1.000000
v -6.000000 0.000000 1.000000
v -6.000000 -0.000000 0.000000
v -7.000000 -0.000000 -0.000000
v -7.000000 0.000000 1.000001
v -7.000000 0.000000 1.000001
v -7.000000 -0.000000 -0.000000
v -8.000000 -0.000000 -0.000000
v -8.000000 0.000000 1.000000
v -8.000000 0.000000 1.000000
v -8.000000 -0.000000 -0.000000
v -9.000000 -0.000000 0.000000
v -9.000000 0.000000 1.000000
v -9.000000 0.000000 1.000000
v -9.000000 -0.000000 0.000000
v -10.000000 -0.000000 -0.000000
v -10.000000 -0.000000 1.000000
v -10.000000 -0.000000 1.000000
v -10.000000 -0.000000 -0.000000
v -11.000000 -0.000000 -0.000000
v -11.000000 -0.000000 1.000000
v 1.000000 0.000000 0.999999
v 1.000000 -0.000000 -0.000000
v 0.000000 -0.000000 -0.000000
v 0.000000 0.000000 1.000000
v 2.000000 0.000000 1.000000
v 2.000000 -0.000000 0.000000
v 1.000000 -0.000000 -0.000000
v 1.000000 0.000000 0.999999
v 3.000000 0.000000 1.000000
v 3.000000 -0.000000 -0.000001
v 2.000000 -0.000000 0.000000
v 2.000000 0.000000 1.000000
v 4.000000 0.000000 1.000000
v 4.000000 -0.000000 -0.000000
v 3.000000 -0.000000 -0.000001
v 3.000000 0.000000 1.000000
v 5.000000 0.000000 1.000000
v 5.000000 -0.000000 -0.000000
v 4.000000 -0.000000 -0.000000
v 4.000000 0.000000 1.000000
v 6.000000 0.000000 0.999999
v 6.000000 -0.000000 -0.000000
v 5.000000 -0.000000 -0.000000
v 5.000000 0.000000 1.000000
v 7.000000 0.000000 1.000000
v 7.000000 -0.000000 -0.000000
v 6.000000 -0.000000 -0.000000
v 6.000000 0.000000 0.999999
v 8.000000 0.000000 1.000000
v 8.000000 -0.000000 -0.000001
v 7.000000 -0.000000 -0.000000
v 7.000000 0.000000 1.000000
v 9.000000 0.000000 1.000000
v 9.000000 -0.000000 0.000000
v 8.000000 -0.000000 -0.000001
v 8.000000 0.000000 1.000000
v 10.000000 0.000000 1.000000
v 10.000000 -0.000000 -0.000000
v 9.000000 -0.000000 0.000000
v 9.000000 0.000000 1.000000
v -0.000000 0.000000 2.000000
v 0.000000 -0.000000 1.000000
v -1.000000 -0.000000 1.000000
v -1.000000 0.000000 2.000000
v -1.000000 0.000000 2.000000
v -1.000000 -0.000000 1.000000
v -2.000000 -0.000000 1.000000
v -2.000000 0.000000 2.000000
v -2.000000 0.000000 2.000000
v -2.000000 -0.000000 1.000000
v -3.000000 -0.000000 1.000000
v -3.000000 0.000000 2.000000
v -3.000000 0.000000 2.000000
v -3.000000 -0.000000 1.000000
v -4.000000 -0.000000 0.999999
v -4.000000 0.000000 2.000001
v -4.000000 0.000000 2.000001
v -4.000000 -0.000000 0.999999
v -5.000000 -0.000000 1.000000
v -5.000000 0.000000 2.000000
v -5.000000 0.000000 2.000000
v -5.000000 -0.000000 1.000000
v -6.000000 -0.000000 1.000000
v -6.000000 0.000000 2.000000
v -6.000000 0.000000 2.000000
v -6.000000 -0.000000 1.000000
v -7.000000 -0.000000 1.000001
v -7.000000 0.000000 2.000000
v -7.000000 0.000000 2.000000
v -7.000000 -0.000000 1.000001
v -8.000000 -0.000000 1.000000
v -8.000000 0.000000 2.000000
v -8.000000 0.000000 2.000000
v -8.000000 -0.000000 1.000000
v -9.000000 -0.000000 1.000000
v -9.000000 0.000000 2.000000
v -9.000000 0.000000 2.000000
v -9.000000 -0.000000 1.000000
v -10.000000 -0.000000 1.000000
v -10.000002 -0.000000 2.000001
v -10.000002 -0.000000 2.000001
v -10.000000 -0.000000 1.000000
v -11.000000 -0.000000 1.000000
v -11.000002 0.000000 2.000001
v 1.000000 -0.000000 2.000000
v 1.000000 -0.000000 0.999999
v 0.000000 -0.000000 1.000000
v -0.000000 0.000000 2.000000
v 2.000000 0.000000 2.000000
v 2.000000 -0.000000 1.000000
v 1.000000 -0.000000 0.999999
v 1.000000 -0.000000 2.000000
v 3.000000 0.000000 2.000000
v 3.000000 -0.000000 1.000000
v 2.000000 -0.000000 1.000000
v 2.000000 0.000000 2.000000
v 4.000000 0.000000 2.000000
v 4.000000 -0.000000 1.000000
v 3.000000 -0.000000 1.000000
v 3.000000 0.000000 2.000000
v 5.000000 0.000000 2.000000
v 5.000000 -0.000000 1.000000
v 4.000000 -0.000000 1.000000
v 4.000000 0.000000 2.000000
v 6.000000 -0.000000 2.000000
v 6.000000 -0.000000 0.999999
v 5.000000 -0.000000 1.000000
v 5.000000 0.000000 2.000000
v 7.000000 0.000000 2.000000
v 7.000000 -0.000000 1.000000
v 6.000000 -0.000000 0.999999
v 6.000000 -0.000000 2.000000
v 8.000000 0.000000 2.000000
v 8.000000 -0.000000 1.000000
v 7.000000 -0.000000 1.000000
v 7.000000 0.000000 2.000000
v 9.000000 0.000000 2.000000
v 9.000000 -0.000000 1.000000
v 8.000000 -0.000000 1.000000
v 8.000000 0.000000 2.000000
v 10.000000 0.000000 2.000000
v 10.000000 -0.000000 1.000000
v 9.000000 -0.000000 1.000000
v 9.000000 0.000000 2.000000
v 0.000000 0.000000 3.000000
v -0.000000 -0.000000 2.000000
v -1.000000 -0.000000 2.000000
v -1.000000 0.000000 3.000000
v -1.000000 0.000000 3.000000
v -1.000000 -0.000000 2.000000
v -2.000000 -0.000000 2.000000
v -1.999999 0.000000 3.000000
v -1.999999 0.000000 3.000000
v -2.000000 -0.000000 2.000000
v -3.000000 -0.000000 2.000000
v -3.000000 0.000000 3.000000
v -3.000000 0.000000 3.000000
v -3.000000 -0.000000 2.000000
v -4.000000 -0.000000 2.000001
v -4.000000 0.000000 3.000000
v -4.000000 0.000000 3.000000
v -4.000000 -0.000000 2.000001
v -5.000000 -0.000000 2.000000
v -5.000000 0.000000 3.000000
v -5.000000 0.000000 3.000000
v -5.000000 -0.000000 2.000000
v -6.000000 -0.000000 2.000000
v -6.000000 0.000000 3.000000
v -6.000000 0.000000 3.000000
v -6.000000 -0.000000 2.000000
v -7.000000 -0.000000 2.000000
v -7.000000 0.000000 3.000000
v -7.000000 0.000000 3.000000
v -7.000000 -0.000000 2.000000
v -8.000000 -0.000000 2.000000
v -8.000000 0.000000 3.000000
v -8.000000 0.000000 3.000000
v -8.000000 -0.000000 2.000000
v -9.000000 -0.000000 2.000000
v -9.000000 0.000000 3.000000
v -9.000000 0.000000 3.000000
v -9.000000 -0.000000 2.000000
v -10.000002 -0.000000 2.000001
v -10.000000 -0.000000 3.000000
v -10.000000 -0.000000 3.000000
v -10.000002 -0.000000 2.000001
v -11.000002 -0.000000 2.000001
v -11.000000 -0.000000 3.000001
v 1.000001 0.000000 3.000000
v 1.000000 -0.000000 2.000000
v -0.000000 -0.000000 2.000000
v 0.000000 0.000000 3.000000
v 2.000001 0.000000 3.000000
v 2.000000 -0.000000 2.000000
v 1.000000 -0.000000 2.000000
v 1.000001 0.000000 3.000000
v 3.000001 0.000000 3.000000
v 3.000000 -0.000000 2.000000
v 2.000000 -0.000000 2.000000
v 2.000001 0.000000 3.000000
v 4.000001 0.000000 2.999999
v 4.000000 -0.000000 2.000000
v 3.000000 -0.000000 2.000000
v 3.000001 0.000000 3.000000
v 5.000000 0.000000 3.000000
v 5.000000 -0.000000 2.000000
v 4.000000 -0.000000 2.000000
v 4.000001 0.000000 2.999999
v 6.000001 0.000000 3.000000
v 6.000000 -0.000000 2.000000
v 5.000000 -0.000000 2.000000
v 5.000000 0.000000 3.000000
v 7.000000 0.000000 3.000000
v 7.000000 -0.000000 2.000000
v 6.000000 -0.000000 2.000000
v 6.000001 0.000000 3.000000
v 8.000002 0.000000 3.000000
v 8.000000 -0.000000 2.000000
v 7.000000 -0.000000 2.000000
v 7.000000 0.000000 3.000000
v 9.000000 0.000000 3.000000
v 9.000000 -0.000000 2.000000
v 8.000000 -0.000000 2.000000
v 8.000002 0.000000 3.000000
v 10.000002 0.000000 3.000000
v 10.000000 -0.000000 2.000000
v 9.000000 -0.000000 2.000000
v 9.000000 0.000000 3.000000
v 0.000000 0.000000 4.000000
v 0.000000 -0.000000 3.000000
v -1.000000 -0.000000 3.000000
v -1.000000 0.000000 4.000000
v -1.000000 0.000000 4.000000
v -1.000000 -0.000000 3.000000
v -1.999999 -0.000000 3.000000
v -2.000000 0.000000 4.000000
v -2.000000 0.000000 4.000000
v -1.999999 -0.000000 3.000000
v -3.000000 -0.000000 3.000000
v -3.000000 0.000000 4.000000
v -3.000000 0.000000 4.000000
v -3.000000 -0.000000 3.000000
v -4.000000 -0.000000 3.000000
v -4.000000 0.000000 4.000000
v -4.000000 0.000000 4.000000
v -4.000000 -0.000000 3.000000
v -5.000000 -0.000000 3.000000
v -5.000000 -0.000000 4.000000
v -5.000000 -0.000000 4.000000
v -5.000000 -0.000000 3.000000
v -6.000000 -0.000000 3.000000
v -6.000000 0.000000 4.000000
v -6.000000 0.000000 4.000000
v -6.000000 -0.000000 3.000000
v -7.000000 -0.000000 3.000000
v -7.000000 0.000000 4.000000
v -7.000000 0.000000 4.000000
v -7.000000 -0.000000 3.000000
v -8.000000 -0.000000 3.000000
v -8.000000 0.000000 3.999999
v -8.000000 0.000000 3.999999
v -8.000000 -0.000000 3.000000
v -9.000000 -0.000000 3.000000
v -9.000000 0.000000 3.999999
v -9.000000 0.000000 3.999999
v -9.000000 -0.000000 3.000000
v -10.000000 -0.000000 3.000000
v -10.000000 0.000000 4.000000
v -10.000000 0.000000 4.000000
v -10.000000 -0.000000 3.000000
v -11.000000 -0.000000 3.000001
v -11.000000 0.000000 4.000000
v 1.000000 -0.000000 4.000000
v 1.000001 -0.000000 3.000000
v 0.000000 -0.000000 3.000000
v 0.000000 0.000000 4.000000
v 2.000000 0.000000 4.000000
v 2.000001 -0.000000 3.000000
v 1.000001 -0.000000 3.000000
v 1.000000 -0.000000 4.000000
v 3.000000 0.000000 3.999999
v 3.000001 -0.000000 3.000000
v 2.000001 -0.000000 3.000000
v 2.000000 0.000000 4.000000
v 4.000000 0.000000 4.000000
v 4.000001 -0.000000 2.999999
v 3.000001 -0.000000 3.000000
v 3.000000 0.000000 3.999999
v 5.000000 0.000000 4.000000
v 5.000000 -0.000000 3.000000
v 4.000001 -0.000000 2.999999
v 4.000000 0.000000 4.000000
v 6.000000 -0.000000 4.000000
v 6.000001 -0.000000 3.000000
v 5.000000 -0.000000 3.000000
v 5.000000 0.000000 4.000000
v 7.000000 0.000000 4.000000
v 7.000000 -0.000000 3.000000
v 6.000001 -0.000000 3.000000
v 6.000000 -0.000000 4.000000
v 8.000000 0.000000 3.999999
v 8.000002 -0.000000 3.000000
v 7.000000 -0.000000 3.000000
v 7.000000 0.000000 4.000000
v 9.000000 0.000000 4.000000
v 9.000000 -0.000000 3.000000
v 8.000002 -0.000000 3.000000
v 8.000000 0.000000 3.999999
v 10.000000 0.000000 4.000000
v 10.000002 -0.000000 3.000000
v 9.000000 -0.000000 3.000000
v 9.000000 0.000000 4.000000
v 0.000000 0.000000 5.000000
v 0.000000 -0.000000 4.000000
v -1.000000 -0.000000 4.000000
v -1.000000 0.000000 5.000000
v -1.000000 0.000000 5.000000
v -1.000000 -0.000000 4.000000
v -2.000000 -0.000000 4.000000
v -2.000000 0.000000 5.000000
v -2.000000 0.000000 5.000000
v -2.000000 -0.000000 4.000000
v -3.000000 -0.000000 4.000000
v -3.000000 0.000000 5.000000
v -3.000000 0.000000 5.000000
v -3.000000 -0.000000 4.000000
v -4.000000 -0.000000 4.000000
v -4.000000 0.000000 5.000000
v -4.000000 0.000000 5.000000
v -4.000000 -0.000000 4.000000
v -5.000000 -0.000000 4.000000
v -5.000000 0.000000 5.000000
v -5.000000 0.000000 5.000000
v -5.000000 -0.000000 4.000000
v -6.000000 -0.000000 4.000000
v -6.000000 0.000000 5.000000
v -6.000000 0.000000 5.000000
v -6.000000 -0.000000 4.000000
v -7.000000 -0.000000 4.000000
v -7.000000 0.000000 5.000000
v -7.000000 0.000000 5.000000
v -7.000000 -0.000000 4.000000
v -8.000000 -0.000000 3.999999
v -8.000000 0.000000 5.000000
v -8.000000 0.000000 5.000000
v -8.000000 -0.000000 3.999999
v -9.000000 -0.000000 3.999999
v -9.000000 0.000000 5.000000
v -9.000000 0.000000 5.000000
v -9.000000 -0.000000 3.999999
v -10.000000 -0.000000 4.000000
v -10.000000 0.000000 4.999999
v -10.000000 0.000000 4.999999
v -10.000000 -0.000000 4.000000
v -11.000000 -0.000000 4.000000
v -11.000000 0.000000 4.999999
v 1.000001 0.000000 5.000000
v 1.000000 -0.000000 4.000000
v 0.000000 -0.000000 4.000000
v 0.000000 0.000000 5.000000
v 2.000000 0.000000 5.000000
v 2.000000 -0.000000 4.000000
v 1.000000 -0.000000 4.000000
v 1.000001 0.000000 5.000000
v 3.000000 0.000000 5.000000
v 3.000000 -0.000000 3.999999
v 2.000000 -0.000000 4.000000
v 2.000000 0.000000 5.000000
v 4.000000 0.000000 5.000000
v 4.000000 -0.000000 4.000000
v 3.000000 -0.000000 3.999999
v 3.000000 0.000000 5.000000
v 5.000000 0.000000 5.000000
v 5.000000 -0.000000 4.000000
v 4.000000 -0.000000 4.000000
v 4.000000 0.000000 5.000000
v 6.000000 0.000000 5.000000
v 6.000000 -0.000000 4.000000
v 5.000000 -0.000000 4.000000
v 5.000000 0.000000 5.000000
v 7.000000 0.000000 5.000000
v 7.000000 -0.000000 4.000000
v 6.000000 -0.000000 4.000000
v 6.000000 0.000000 5.000000
v 8.000000 0.000000 5.000000
v 8.000000 -0.000000 3.999999
v 7.000000 -0.000000 4.000000
v 7.000000 0.000000 5.000000
v 9.000001 0.000000 5.000000
v 9.000000 -0.000000 4.000000
v 8.000000 -0.000000 3.999999
v 8.000000 0.000000 5.000000
v 10.000000 0.000000 5.000000
v 10.000000 -0.000000 4.000000
v 9.000000 -0.000000 4.000000
v 9.000001 0.000000 5.000000
v 0.000000 0.000000 6.000000
v 0.000000 -0.000000 5.000000
v -1.000000 -0.000000 5.000000
v -1.000000 0.000000 6.000001
v -1.000000 0.000000 6.000001
v -1.000000 -0.000000 5.000000
v -2.000000 -0.000000 5.000000
v -2.000000 0.000000 6.000000
v -2.000000 0.000000 6.000000
v -2.000000 -0.000000 5.000000
v -3.000000 -0.000000 5.000000
v -3.000000 0.000000 6.000001
v -3.000000 0.000000 6.000001
v -3.000000 -0.000000 5.000000
v -4.000000 -0.000000 5.000000
v -4.000000 0.000000 6.000000
v -4.000000 0.000000 6.000000
v -4.000000 -0.000000 5.000000
v -5.000000 -0.000000 5.000000
v -5.000000 -0.000000 6.000000
v -5.000000 -0.000000 6.000000
v -5.000000 -0.000000 5.000000
v -6.000000 -0.000000 5.000000
v -6.000000 0.000000 6.000001
v -6.000000 0.000000 6.000001
v -6.000000 -0.000000 5.000000
v -7.000000 -0.000000 5.000000
v -7.000000 0.000000 6.000001
v -7.000000 0.000000 6.000001
v -7.000000 -0.000000 5.000000
v -8.000000 -0.000000 5.000000
v -8.000000 0.000000 6.000002
v -8.000000 0.000000 6.000002
v -8.000000 -0.000000 5.000000
v -9.000000 -0.000000 5.000000
v -9.000000 0.000000 6.000000
v -9.000000 0.000000 6.000000
v -9.000000 -0.000000 5.000000
v -10.000000 -0.000000 4.999999
v -10.000000 0.000000 6.000000
v -10.000000 0.000000 6.000000
v -10.000000 -0.000000 4.999999
v -11.000000 -0.000000 4.999999
v -11.000000 0.000000 6.000000
v 1.000001 -0.000000 6.000000
v 1.000001 -0.000000 5.000000
v 0.000000 -0.000000 5.000000
v 0.000000 0.000000 6.000000
v 2.000000 0.000000 6.000001
v 2.000000 -0.000000 5.000000
v 1.000001 -0.000000 5.000000
v 1.000001 -0.000000 6.000000
v 3.000000 0.000000 6.000000
v 3.000000 -0.000000 5.000000
v 2.000000 -0.000000 5.000000
v 2.000000 0.000000 6.000001
v 4.000000 0.000000 6.000001
v 4.000000 -0.000000 5.000000
v 3.000000 -0.000000 5.000000
v 3.000000 0.000000 6.000000
v 5.000000 0.000000 6.000000
v 5.000000 -0.000000 5.000000
v 4.000000 -0.000000 5.000000
v 4.000000 0.000000 6.000001
v 6.000001 -0.000000 6.000000
v 6.000000 -0.000000 5.000000
v 5.000000 -0.000000 5.000000
v 5.000000 0.000000 6.000000
v 7.000001 0.000000 6.000000
v 7.000000 -0.000000 5.000000
v 6.000000 -0.000000 5.000000
v 6.000001 -0.000000 6.000000
v 8.000000 0.000000 6.000000
v 8.000000 -0.000000 5.000000
v 7.000000 -0.000000 5.000000
v 7.000001 0.000000 6.000000
v 9.000001 0.000000 6.000001
v 9.000001 -0.000000 5.000000
v 8.000000 -0.000000 5.000000
v 8.000000 0.000000 6.000000
v 10.000000 0.000000 6.000000
v 10.000000 -0.000000 5.000000
v 9.000001 -0.000000 5.000000
v 9.000001 0.000000 6.000001
v -0.000000 0.000000 7.000000
v 0.000000 -0.000000 6.000000
v -1.000000 -0.000000 6.000001
v -1.000001 0.000000 7.000000
v -1.000001 0.000000 7.000000
v -1.000000 -0.000000 6.000001
v -2.000000 -0.000000 6.000000
v -2.000000 0.000000 7.000000
v -2.000000 0.000000 7.000000
v -2.000000 -0.000000 6.000000
v -3.000000 -0.000000 6.000001
v -3.000000 0.000000 7.000000
v -3.000000 0.000000 7.000000
v -3.000000 -0.000000 6.000001
v -4.000000 -0.000000 6.000000
v -4.000000 0.000000 7.000001
v -4.000000 0.000000 7.000001
v -4.000000 -0.000000 6.000000
v -5.000000 -0.000000 6.000000
v -5.000000 0.000000 7.000000
v -5.000000 0.000000 7.000000
v -5.000000 -0.000000 6.000000
v -6.000000 -0.000000 6.000001
v -6.000000 0.000000 7.000000
v -6.000000 0.000000 7.000000
v -6.000000 -0.000000 6.000001
v -7.000000 -0.000000 6.000001
v -7.000000 0.000000 7.000000
v -7.000000 0.000000 7.000000
v -7.000000 -0.000000 6.000001
v -8.000000 -0.000000 6.000002
v -8.000000 0.000000 7.000000
v -8.000000 0.000000 7.000000
v -8.000000 -0.000000 6.000002
v -9.000000 -0.000000 6.000000
v -9.000000 0.000000 7.000000
v -9.000000 0.000000 7.000000
v -9.000000 -0.000000 6.000000
v -10.000000 -0.000000 6.000000
v -10.000002 0.000000 7.000001
v -10.000002 0.000000 7.000001
v -10.000000 -0.000000 6.000000
v -11.000000 -0.000000 6.000000
v -11.000002 0.000000 7.000001
v 1.000000 0.000000 7.000000
v 1.000001 -0.000000 6.000000
v 0.000000 -0.000000 6.000000
v -0.000000 0.000000 7.000000
v 2.000000 0.000000 7.000001
v 2.000000 -0.000000 6.000001
v 1.000001 -0.000000 6.000000
v 1.000000 0.000000 7.000000
v 3.000000 0.000000 7.000000
v 3.000000 -0.000000 6.000000
v 2.000000 -0.000000 6.000001
v 2.000000 0.000000 7.000001
v 4.000000 0.000000 7.000000
v 4.000000 -0.000000 6.000001
v 3.000000 -0.000000 6.000000
v 3.000000 0.000000 7.000000
v 5.000000 0.000000 7.000000
v 5.000000 -0.000000 6.000000
v 4.000000 -0.000000 6.000001
v 4.000000 0.000000 7.000000
v 6.000000 0.000000 7.000000
v 6.000001 -0.000000 6.000000
v 5.000000 -0.000000 6.000000
v 5.000000 0.000000 7.000000
v 7.000000 0.000000 7.000000
v 7.000001 -0.000000 6.000000
v 6.000001 -0.000000 6.000000
v 6.000000 0.000000 7.000000
v 8.000000 0.000000 7.000000
v 8.000000 -0.000000 6.000000
v 7.000001 -0.000000 6.000000
v 7.000000 0.000000 7.000000
v 9.000000 0.000000 7.000000
v 9.000001 -0.000000 6.000001
v 8.000000 -0.000000 6.000000
v 8.000000 0.000000 7.000000
v 9.999998 0.000000 7.000000
v 10.000000 -0.000000 6.000000
v 9.000001 -0.000000 6.000001
v 9.000000 0.000000 7.000000
v 0.000001 0.000000 8.000000
v -0.000000 -0.000000 7.000000
v -1.000001 -0.000000 7.000000
v -1.000000 0.000000 8.000000
v -1.000000 0.000000 8.000000
v -1.000001 -0.000000 7.000000
v -2.000000 -0.000000 7.000000
v -2.000000 0.000000 7.999999
v -2.000000 0.000000 7.999999
v -2.000000 -0.000000 7.000000
v -3.000000 -0.000000 7.000000
v -3.000000 0.000000 8.000000
v -3.000000 0.000000 8.000000
v -3.000000 -0.000000 7.000000
v -4.000000 -0.000000 7.000001
v -4.000000 0.000000 8.000001
v -4.000000 0.000000 8.000001
v -4.000000 -0.000000 7.000001
v -5.000000 -0.000000 7.000000
v -4.999999 -0.000000 7.999999
v -4.999999 -0.000000 7.999999
v -5.000000 -0.000000 7.000000
v -6.000000 -0.000000 7.000000
v -5.999999 0.000000 8.000000
v -5.999999 0.000000 8.000000
v -6.000000 -0.000000 7.000000
v -7.000000 -0.000000 7.000000
v -7.000000 0.000000 8.000000
v -7.000000 0.000000 8.000000
v -7.000000 -0.000000 7.000000
v -8.000000 -0.000000 7.000000
v -8.000000 0.000000 7.999999
v -8.000000 0.000000 7.999999
v -8.000000 -0.000000 7.000000
v -9.000000 -0.000000 7.000000
v -9.000000 0.000000 8.000000
v -9.000000 0.000000 8.000000
v -9.000000 -0.000000 7.000000
v -10.000002 -0.000000 7.000001
v -10.000000 0.000000 8.000001
v -10.000000 0.000000 8.000001
v -10.000002 -0.000000 7.000001
v -11.000002 -0.000000 7.000001
v -11.000000 0.000000 8.000001
v 1.000001 -0.000000 8.000000
v 1.000000 -0.000000 7.000000
v -0.000000 -0.000000 7.000000
v 0.000001 0.000000 8.000000
v 2.000001 0.000000 8.000001
v 2.000000 -0.000000 7.000001
v 1.000000 -0.000000 7.000000
v 1.000001 -0.000000 8.000000
v 3.000001 0.000000 8.000000
v 3.000000 -0.000000 7.000000
v 2.000000 -0.000000 7.000001
v 2.000001 0.000000 8.000001
v 4.000001 0.000000 7.999999
v 4.000000 -0.000000 7.000000
v 3.000000 -0.000000 7.000000
v 3.000001 0.000000 8.000000
v 5.000001 0.000000 8.000000
v 5.000000 -0.000000 7.000000
v 4.000000 -0.000000 7.000000
v 4.000001 0.000000 7.999999
v 6.000001 -0.000000 7.999999
v 6.000000 -0.000000 7.000000
v 5.000000 -0.000000 7.000000
v 5.000001 0.000000 8.000000
v 7.000000 0.000000 8.000000
v 7.000000 -0.000000 7.000000
v 6.000000 -0.000000 7.000000
v 6.000001 -0.000000 7.999999
v 8.000002 0.000000 8.000000
v 8.000000 -0.000000 7.000000
v 7.000000 -0.000000 7.000000
v 7.000000 0.000000 8.000000
v 9.000000 0.000000 7.999999
v 9.000000 -0.000000 7.000000
v 8.000000 -0.000000 7.000000
v 8.000002 0.000000 8.000000
v 10.000000 0.000000 7.999999
v 9.999998 -0.000000 7.000000
v 9.000000 -0.000000 7.000000
v 9.000000 0.000000 7.999999
v -0.000000 0.000000 8.999999
v 0.000001 -0.000000 8.000000
v -1.000000 -0.000000 8.000000
v -1.000000 0.000000 9.000000
v -1.000000 0.000000 9.000000
v -1.000000 -0.000000 8.000000
v -2.000000 -0.000000 7.999999
v -2.000001 0.000000 9.000000
v -2.000001 0.000000 9.000000
v -2.000000 -0.000000 7.999999
v -3.000000 -0.000000 8.000000
v -3.000000 0.000000 8.999999
v -3.000000 0.000000 8.999999
v -3.000000 -0.000000 8.000000
v -4.000000 -0.000000 8.000001
v -4.000000 0.000000 9.000000
v -4.000000 0.000000 9.000000
v -4.000000 -0.000000 8.000001
v -4.999999 -0.000000 7.999999
v -5.000000 0.000000 9.000000
v -5.000000 0.000000 9.000000
v -4.999999 -0.000000 7.999999
v -5.999999 -0.000000 8.000000
v -6.000000 0.000000 9.000000
v -6.000000 0.000000 9.000000
v -5.999999 -0.000000 8.000000
v -7.000000 -0.000000 8.000000
v -7.000000 0.000000 9.000000
v -7.000000 0.000000 9.000000
v -7.000000 -0.000000 8.000000
v -8.000000 -0.000000 7.999999
v -8.000000 0.000000 8.999999
v -8.000000 0.000000 8.999999
v -8.000000 -0.000000 7.999999
v -9.000000 -0.000000 8.000000
v -9.000000 0.000000 8.999999
v -9.000000 0.000000 8.999999
v -9.000000 -0.000000 8.000000
v -10.000000 -0.000000 8.000001
v -10.000000 0.000000 9.000000
v -10.000000 0.000000 9.000000
v -10.000000 -0.000000 8.000001
v -11.000000 -0.000000 8.000001
v -11.000000 0.000000 9.000000
v 1.000000 0.000000 8.999999
v 1.000001 -0.000000 8.000000
v 0.000001 -0.000000 8.000000
v -0.000000 0.000000 8.999999
v 2.000000 0.000000 9.000000
v 2.000001 -0.000000 8.000001
v 1.000001 -0.000000 8.000000
v 1.000000 0.000000 8.999999
v 3.000000 0.000000 8.999999
v 3.000001 -0.000000 8.000000
v 2.000001 -0.000000 8.000001
v 2.000000 0.000000 9.000000
v 4.000000 0.000000 9.000000
v 4.000001 -0.000000 7.999999
v 3.000001 -0.000000 8.000000
v 3.000000 0.000000 8.999999
v 5.000000 0.000000 8.999999
v 5.000001 -0.000000 8.000000
v 4.000001 -0.000000 7.999999
v 4.000000 0.000000 9.000000
v 6.000000 0.000000 8.999999
v 6.000001 -0.000000 7.999999
v 5.000001 -0.000000 8.000000
v 5.000000 0.000000 8.999999
v 7.000001 0.000000 8.999999
v 7.000000 -0.000000 8.000000
v 6.000001 -0.000000 7.999999
v 6.000000 0.000000 8.999999
v 8.000000 0.000000 8.999999
v 8.000002 -0.000000 8.000000
v 7.000000 -0.000000 8.000000
v 7.000001 0.000000 8.999999
v 9.000000 0.000000 9.000001
v 9.000000 -0.000000 7.999999
v 8.000002 -0.000000 8.000000
v 8.000000 0.000000 8.999999
v 10.000000 0.000000 9.000000
v 10.000000 -0.000000 7.999999
v 9.000000 -0.000000 7.999999
v 9.000000 0.000000 9.000001
v 1.000000 0.000000 -1.000000
v 1.000000 -0.000000 -2.000000
v -0.000000 -0.000000 -2.000000
v 0.000000 0.000000 -1.000000
v 0.000000 0.000000 -1.000000
v -0.000000 -0.000000 -2.000000
v -1.000000 -0.000000 -2.000000
v -1.000000 0.000000 -1.000000
v -4.003233 0.311111 -3.108201
v -2.284895 0.510979 -0.792193
v -4.172572 0.431107 -2.982928
v -3.161738 0.431107 -1.616530
v -2.150906 0.431107 -0.250132
v -2.992400 0.311111 -1.741803
v -1.981567 0.311111 -0.375405
v -2.992400 0.071118 -1.741803
v -1.981567 0.071118 -0.375405
v -2.150906 -0.048878 -0.250132
v -3.331079 0.071118 -1.491256
v -2.320246 0.071118 -0.124858
v -2.320246 0.311111 -0.124858
v -4.003233 0.071118 -3.108201
v -2.349619 0.337348 -0.782230
v -4.172572 -0.048878 -2.982928
v -3.161739 -0.048878 -1.616530
v -4.341911 0.071118 -2.857653
v -2.277827 0.337348 -0.685185
v -4.341911 0.311111 -2.857653
v -3.331079 0.311111 -1.491256
v -2.311769 0.536429 -0.772313
v -2.432878 0.399366 -0.720637
v -2.249362 0.510979 -0.744161
v -2.361086 0.399366 -0.623592
v -2.276236 0.536429 -0.724281
v -1.895409 0.234864 0.087873
v -1.895755 0.338244 0.269345
v -0.431453 0.338244 0.272136
v 1.032850 0.338244 0.274927
v -0.431107 0.234864 0.090664
v 1.033196 0.234865 0.093455
v -0.431107 0.028103 0.090664
v 1.033196 0.028103 0.093455
v 1.032850 -0.075277 0.274927
v -0.431798 0.028103 0.453609
v 1.032504 0.028103 0.456401
v 1.032504 0.234865 0.456401
v -1.895409 0.028103 0.087873
v -1.895755 -0.075277 0.269344
v -0.431453 -0.075277 0.272136
v -1.896101 0.028103 0.450818
v -1.896101 0.234864 0.450818
v -0.431798 0.234864 0.453609
v 2.269917 1.631170 -6.713350
v 1.968750 0.000000 -6.650884
v 2.269917 0.000000 -6.713350
v 2.088100 0.000000 -6.832700
v 1.968750 1.631170 -6.650884
v 2.358102 1.185325 -6.395301
v 2.150566 0.000000 -6.531533
v 2.150567 1.631170 -6.531533
v 2.088101 1.631170 -6.832700
v 2.408853 1.232519 -6.361985
v 2.356510 1.455080 -6.331305
v 1.709822 1.556437 -6.820853
v 2.465252 1.333663 -6.324963
v 2.386347 1.455080 -6.376759
v 2.380697 1.401129 -6.380467
v 2.350860 1.401129 -6.335013
v 2.328264 1.185325 -6.349847
v 2.435415 1.333663 -6.279509
v 2.363751 1.239277 -6.391592
v 1.651740 1.286684 -6.793941
v 2.333913 1.239277 -6.346138
v 2.418468 1.171811 -6.290633
v 2.446712 1.441564 -6.272093
v 1.679985 1.556437 -6.775399
v 2.420150 1.340420 -6.354570
v 2.425800 1.394371 -6.350862
v 2.395962 1.394371 -6.305408
v 2.379015 1.232519 -6.316531
v 2.390313 1.340420 -6.309115
v 1.681578 1.286684 -6.839396
v 2.384663 1.286470 -6.312823
v 2.459603 1.279712 -6.328671
v 2.429765 1.279712 -6.283217
v 2.414501 1.286470 -6.358278
v 1.726426 0.753052 -6.747157
v 2.476551 1.441571 -6.317546
v 2.448307 1.171817 -6.336086
v 1.681436 0.807975 -6.776690
v 1.758572 1.024900 -6.791096
v 2.410510 1.016620 -6.298101
v 1.636908 0.917265 -6.805920
v 1.728734 1.024900 -6.745641
v 1.728273 0.970531 -6.745944
v 1.758111 0.970531 -6.791398
v 1.756263 0.753052 -6.792611
v 1.666746 0.917265 -6.851373
v 1.726888 0.807421 -6.746853
v 2.438038 0.744772 -6.345069
v 1.756726 0.807421 -6.792307
v 1.665361 0.754157 -6.852282
v 1.667668 1.026005 -6.850768
v 2.440347 1.016620 -6.343555
v 1.682359 0.916714 -6.776083
v 1.682821 0.971083 -6.775781
v 1.712658 0.971083 -6.821235
v 1.711273 0.807975 -6.822144
v 1.712197 0.916714 -6.821538
v 1.711736 0.862343 -6.821840
v 1.636446 0.862895 -6.806223
v 1.666283 0.862895 -6.851676
v 1.681898 0.862343 -6.776386
v 1.637830 1.026010 -6.805314
v 1.635522 0.754162 -6.806828
v 2.408200 0.744772 -6.299618
vn 0.3894 0.8689 0.3056
vn 0.7867 -0.0000 0.6174
vn 0.3894 -0.8689 0.3056
vn -0.3894 -0.8689 -0.3056
vn -0.6174 -0.0000 0.7867
vn -0.7867 -0.0000 -0.6174
vn -0.3894 0.8689 -0.3056
vn 0.6791 0.1400 -0.7206
vn 0.7462 -0.3166 0.5856
vn 0.6174 -0.0000 -0.7867
vn -0.5748 0.6828 -0.4510
vn -0.5385 0.1400 0.8309
vn 0.4766 0.7956 0.3740
vn -0.0000 1.0000 -0.0000
vn 0.3979 0.8689 -0.2944
vn 0.8039 -0.0000 -0.5947
vn 0.3979 -0.8689 -0.2944
vn -0.3979 -0.8689 0.2944
vn 0.5947 -0.0000 0.8039
vn -0.8039 -0.0000 0.5947
vn -0.3979 0.8689 0.2944
vn -0.5146 0.1400 -0.8459
vn 0.7626 -0.3166 -0.5641
vn -0.5947 -0.0000 -0.8039
vn -0.5874 0.6828 0.4345
vn 0.6583 0.1400 0.7396
vn 0.4870 0.7956 -0.3603
vn 0.0009 0.8689 -0.4950
vn 0.0019 -0.0000 -1.0000
vn 0.0009 -0.8689 -0.4950
vn -0.0009 -0.8689 0.4950
vn 1.0000 -0.0000 0.0019
vn -0.0019 -0.0000 1.0000
vn -0.0009 0.8689 0.4950
vn -1.0000 -0.0000 -0.0019
vn -0.8360 -0.0000 -0.5488
vn 0.5488 -0.0000 -0.8360
vn 0.8360 -0.0000 0.5488
vn -0.5488 -0.0000 0.8360
vn 0.1039 0.9922 0.0682
vn 0.8295 -0.1243 0.5445
vn -0.1039 -0.9922 -0.0682
vn 0.1039 0.9923 0.0682
vn -0.8295 0.1243 -0.5445
vn 0.0085 0.9999 0.0056
vn -0.8359 0.0102 -0.5487
vn -0.8359 0.0101 -0.5487
vn -0.0085 -0.9999 -0.0056
vn 0.8359 -0.0102 0.5487
vt 0.124902 0.265527
vt 0.000098 0.265527
vt 0.000098 0.250098
vt 0.124902 0.250098
vt 0.029172 0.304593
vt 0.015625 0.312310
vt 0.002078 0.304593
vt 0.002078 0.289157
vt 0.015625 0.281440
vt 0.029172 0.289157
vt 0.004004 0.265723
vt 0.011621 0.265723
vt 0.011621 0.277246
vt 0.004004 0.277246
vt 0.002078 0.304592
vt 0.029172 0.304592
vt 0.004004 0.269629
vt 0.011621 0.269629
vt 0.375098 0.875098
vt 0.499902 0.875098
vt 0.499902 0.999902
vt 0.375098 0.999902
vt 0.500098 0.875098
vt 0.624902 0.875098
vt 0.624902 0.999902
vt 0.500098 0.999902
vt 0.000098 0.484473
vt 0.015527 0.484473
vt 0.015527 0.499902
vt 0.000098 0.499902
vt 0.000098 0.496191
vt 0.015527 0.496191
vt 0.015527 0.613184
vt 0.000098 0.613184
vt 0.062598 0.539160
vt 0.120996 0.539160
vt 0.120996 0.542871
vt 0.062598 0.542871
vt 0.121191 0.539160
vt 0.124902 0.539160
vt 0.124902 0.542871
vt 0.121191 0.542871
vt 0.105566 0.539160
vt 0.109277 0.539160
vt 0.109277 0.542871
vt 0.105566 0.542871
vt 0.062598 0.543066
vt 0.128809 0.543066
vt 0.128809 0.562402
vt 0.062598 0.562402
vt 0.089941 0.539160
vt 0.089941 0.542871
s 1
usemtl Grassland_Tileatlas_01.011
f 3/1/1 4/2/1 6/3/1 1/4/1
f 4/1/1 5/2/1 7/3/1 6/4/1
f 6/1/2 7/2/2 9/3/2 8/4/2
f 8/1/3 9/2/3 10/3/3 17/4/3
f 17/1/4 10/2/4 12/3/4 11/4/4
f 7/5/5 5/6/5 13/7/5 12/8/5 10/9/5 9/10/5
f 11/1/6 12/2/6 13/3/6 21/4/6
f 21/1/7 13/2/7 5/3/7 4/4/7
f 15/11/8 23/12/8 22/13/8 2/14/8
f 1/1/2 6/2/2 8/3/2 14/4/2
f 14/1/3 8/2/3 17/3/3 16/4/3
f 16/1/4 17/2/4 11/3/4 18/4/4
f 19/11/9 15/12/9 2/13/9 24/14/9
f 18/1/6 11/2/6 21/3/6 20/4/6
f 20/1/7 21/2/7 4/3/7 3/4/7
f 3/6/10 1/15/10 14/8/10 16/9/10 18/10/10 20/16/10
f 23/11/11 25/12/11 26/13/11 22/14/11
f 25/11/12 19/12/12 24/13/12 26/14/12
f 26/17/13 24/18/13 2/13/13 22/14/13
f 1793/1/15 1794/2/15 1796/3/15 1791/4/15
f 1794/1/15 1795/2/15 1797/3/15 1796/4/15
f 1796/1/16 1797/2/16 1799/3/16 1798/4/16
f 1798/1/17 1799/2/17 1800/3/17 1807/4/17
f 1807/1/18 1800/2/18 1802/3/18 1801/4/18
f 1797/5/19 1795/6/19 1803/7/19 1802/8/19 1800/9/19 1799/10/19
f 1801/1/20 1802/2/20 1803/3/20 1811/4/20
f 1811/1/21 1803/2/21 1795/3/21 1794/4/21
f 1805/11/22 1813/12/22 1812/13/22 1792/14/22
f 1791/1/16 1796/2/16 1798/3/16 1804/4/16
f 1804/1/17 1798/2/17 1807/3/17 1806/4/17
f 1806/1/18 1807/2/18 1801/3/18 1808/4/18
f 1809/11/23 1805/12/23 1792/13/23 1814/14/23
f 1808/1/20 1801/2/20 1811/3/20 1810/4/20
f 1810/1/21 1811/2/21 1794/3/21 1793/4/21
f 1793/6/24 1791/15/24 1804/8/24 1806/9/24 1808/10/24 1810/16/24
f 1813/11/25 1815/12/25 1816/13/25 1812/14/25
f 1815/11/26 1809/12/26 1814/13/26 1816/14/26
f 1816/17/27 1814/18/27 1792/13/27 1812/14/27
usemtl GrassLands_NEW_C
f 27/19/14 28/20/14 29/21/14 30/22/14
f 31/19/14 32/20/14 33/21/14 34/22/14
f 35/19/14 36/20/14 37/21/14 38/22/14
f 39/19/14 40/20/14 41/21/14 42/22/14
f 43/19/14 44/20/14 45/21/14 46/22/14
f 47/19/14 48/20/14 49/21/14 50/22/14
f 51/19/14 52/20/14 53/21/14 54/22/14
f 55/19/14 56/20/14 57/21/14 58/22/14
f 59/19/14 60/20/14 61/21/14 62/22/14
f 63/19/14 64/20/14 65/21/14 66/22/14
f 67/19/14 68/20/14 69/21/14 70/22/14
f 71/19/14 72/20/14 73/21/14 74/22/14
f 75/19/14 76/20/14 77/21/14 78/22/14
f 79/19/14 80/20/14 81/21/14 82/22/14
f 83/19/14 84/20/14 85/21/14 86/22/14
f 87/19/14 88/20/14 89/21/14 90/22/14
f 91/19/14 92/20/14 93/21/14 94/22/14
f 95/19/14 96/20/14 97/21/14 98/22/14
f 99/19/14 100/20/14 101/21/14 102/22/14
f 103/19/14 104/20/14 105/21/14 106/22/14
f 107/19/14 108/20/14 109/21/14 110/22/14
f 111/19/14 112/20/14 113/21/14 114/22/14
f 115/19/14 116/20/14 117/21/14 118/22/14
f 119/19/14 120/20/14 121/21/14 122/22/14
f 123/19/14 124/20/14 125/21/14 126/22/14
f 127/19/14 128/20/14 129/21/14 130/22/14
f 131/19/14 132/20/14 133/21/14 134/22/14
f 135/19/14 136/20/14 137/21/14 138/22/14
f 139/19/14 140/20/14 141/21/14 142/22/14
f 143/19/14 144/20/14 145/21/14 146/22/14
f 147/19/14 148/20/14 149/21/14 150/22/14
f 151/19/14 152/20/14 153/21/14 154/22/14
f 155/19/14 156/20/14 157/21/14 158/22/14
f 159/19/14 160/20/14 161/21/14 162/22/14
f 163/19/14 164/20/14 165/21/14 166/22/14
f 167/19/14 168/20/14 169/21/14 170/22/14
f 171/19/14 172/20/14 173/21/14 174/22/14
f 175/19/14 176/20/14 177/21/14 178/22/14
f 179/19/14 180/20/14 181/21/14 182/22/14
f 183/19/14 184/20/14 185/21/14 186/22/14
f 187/19/14 188/20/14 189/21/14 190/22/14
f 191/19/14 192/20/14 193/21/14 194/22/14
f 195/19/14 196/20/14 197/21/14 198/22/14
f 199/19/14 200/20/14 201/21/14 202/22/14
f 203/19/14 204/20/14 205/21/14 206/22/14
f 207/19/14 208/20/14 209/21/14 210/22/14
f 211/19/14 212/20/14 213/21/14 214/22/14
f 215/19/14 216/20/14 217/21/14 218/22/14
f 219/19/14 220/20/14 221/21/14 222/22/14
f 223/19/14 224/20/14 225/21/14 226/22/14
f 227/19/14 228/20/14 229/21/14 230/22/14
f 231/19/14 232/20/14 233/21/14 234/22/14
f 235/19/14 236/20/14 237/21/14 238/22/14
f 239/19/14 240/20/14 241/21/14 242/22/14
f 243/19/14 244/20/14 245/21/14 246/22/14
f 247/19/14 248/20/14 249/21/14 250/22/14
f 251/19/14 252/20/14 253/21/14 254/22/14
f 255/19/14 256/20/14 257/21/14 258/22/14
f 259/19/14 260/20/14 261/21/14 262/22/14
f 263/19/14 264/20/14 265/21/14 266/22/14
f 267/19/14 268/20/14 269/21/14 270/22/14
f 271/19/14 272/20/14 273/21/14 274/22/14
f 275/19/14 276/20/14 277/21/14 278/22/14
f 279/19/14 280/20/14 281/21/14 282/22/14
f 283/19/14 284/20/14 285/21/14 286/22/14
f 287/19/14 288/20/14 289/21/14 290/22/14
f 291/19/14 292/20/14 293/21/14 294/22/14
f 295/19/14 296/20/14 297/21/14 298/22/14
f 299/19/14 300/20/14 301/21/14 302/22/14
f 303/19/14 304/20/14 305/21/14 306/22/14
f 307/19/14 308/20/14 309/21/14 310/22/14
f 311/19/14 312/20/14 313/21/14 314/22/14
f 315/19/14 316/20/14 317/21/14 318/22/14
f 319/19/14 320/20/14 321/21/14 322/22/14
f 323/19/14 324/20/14 325/21/14 326/22/14
f 327/19/14 328/20/14 329/21/14 330/22/14
f 331/19/14 332/20/14 333/21/14 334/22/14
f 335/19/14 336/20/14 337/21/14 338/22/14
f 339/19/14 340/20/14 341/21/14 342/22/14
f 343/19/14 344/20/14 345/21/14 346/22/14
f 347/19/14 348/20/14 349/21/14 350/22/14
f 351/19/14 352/20/14 353/21/14 354/22/14
f 355/19/14 356/20/14 357/21/14 358/22/14
f 359/19/14 360/20/14 361/21/14 362/22/14
f 363/19/14 364/20/14 365/21/14 366/22/14
f 367/19/14 368/20/14 369/21/14 370/22/14
f 371/19/14 372/20/14 373/21/14 374/22/14
f 375/19/14 376/20/14 377/21/14 378/22/14
f 379/19/14 380/20/14 381/21/14 382/22/14
f 383/19/14 384/20/14 385/21/14 386/22/14
f 387/19/14 388/20/14 389/21/14 390/22/14
f 391/19/14 392/20/14 393/21/14 394/22/14
f 395/19/14 396/20/14 397/21/14 398/22/14
f 399/19/14 400/20/14 401/21/14 402/22/14
f 403/19/14 404/20/14 405/21/14 406/22/14
f 407/19/14 408/20/14 409/21/14 410/22/14
f 411/19/14 412/20/14 413/21/14 414/22/14
f 415/19/14 416/20/14 417/21/14 418/22/14
f 419/19/14 420/20/14 421/21/14 422/22/14
f 423/19/14 424/20/14 425/21/14 426/22/14
f 427/19/14 428/20/14 429/21/14 430/22/14
f 431/19/14 432/20/14 433/21/14 434/22/14
f 435/19/14 436/20/14 437/21/14 438/22/14
f 439/19/14 440/20/14 441/21/14 442/22/14
f 443/19/14 444/20/14 445/21/14 446/22/14
f 447/19/14 448/20/14 449/21/14 450/22/14
f 451/19/14 452/20/14 453/21/14 454/22/14
f 455/19/14 456/20/14 457/21/14 458/22/14
f 459/19/14 460/20/14 461/21/14 462/22/14
f 463/19/14 464/20/14 465/21/14 466/22/14
f 467/19/14 468/20/14 469/21/14 470/22/14
f 471/19/14 472/20/14 473/21/14 474/22/14
f 475/19/14 476/20/14 477/21/14 478/22/14
f 479/19/14 480/20/14 481/21/14 482/22/14
f 483/19/14 484/20/14 485/21/14 486/22/14
f 487/19/14 488/20/14 489/21/14 490/22/14
f 491/19/14 492/20/14 493/21/14 494/22/14
f 495/19/14 496/20/14 497/21/14 498/22/14
f 499/19/14 500/20/14 501/21/14 502/22/14
f 503/19/14 504/20/14 505/21/14 506/22/14
f 507/19/14 508/20/14 509/21/14 510/22/14
f 511/19/14 512/20/14 513/21/14 514/22/14
f 515/19/14 516/20/14 517/21/14 518/22/14
f 519/19/14 520/20/14 521/21/14 522/22/14
f 523/19/14 524/20/14 525/21/14 526/22/14
f 527/19/14 528/20/14 529/21/14 530/22/14
f 531/19/14 532/20/14 533/21/14 534/22/14
f 535/19/14 536/20/14 537/21/14 538/22/14
f 539/19/14 540/20/14 541/21/14 542/22/14
f 543/19/14 544/20/14 545/21/14 546/22/14
f 547/19/14 548/20/14 549/21/14 550/22/14
f 551/19/14 552/20/14 553/21/14 554/22/14
f 555/19/14 556/20/14 557/21/14 558/22/14
f 559/19/14 560/20/14 561/21/14 562/22/14
f 563/19/14 564/20/14 565/21/14 566/22/14
f 567/19/14 568/20/14 569/21/14 570/22/14
f 571/19/14 572/20/14 573/21/14 574/22/14
f 575/19/14 576/20/14 577/21/14 578/22/14
f 579/19/14 580/20/14 581/21/14 582/22/14
f 583/19/14 584/20/14 585/21/14 586/22/14
f 587/19/14 588/20/14 589/21/14 590/22/14
f 591/19/14 592/20/14 593/21/14 594/22/14
f 595/19/14 596/20/14 597/21/14 598/22/14
f 599/19/14 600/20/14 601/21/14 602/22/14
f 603/19/14 604/20/14 605/21/14 606/22/14
f 607/19/14 608/20/14 609/21/14 610/22/14
f 611/19/14 612/20/14 613/21/14 614/22/14
f 615/19/14 616/20/14 617/21/14 618/22/14
f 619/19/14 620/20/14 621/21/14 622/22/14
f 623/19/14 624/20/14 625/21/14 626/22/14
f 627/19/14 628/20/14 629/21/14 630/22/14
f 631/19/14 632/20/14 633/21/14 634/22/14
f 635/19/14 636/20/14 637/21/14 638/22/14
f 639/19/14 640/20/14 641/21/14 642/22/14
f 643/19/14 644/20/14 645/21/14 646/22/14
f 647/19/14 648/20/14 649/21/14 650/22/14
f 651/19/14 652/20/14 653/21/14 654/22/14
f 655/19/14 656/20/14 657/21/14 658/22/14
f 659/19/14 660/20/14 661/21/14 662/22/14
f 663/19/14 664/20/14 665/21/14 666/22/14
f 667/19/14 668/20/14 669/21/14 670/22/14
f 671/19/14 672/20/14 673/21/14 674/22/14
f 675/19/14 676/20/14 677/21/14 678/22/14
f 679/19/14 680/20/14 681/21/14 682/22/14
f 683/19/14 684/20/14 685/21/14 686/22/14
f 687/19/14 688/20/14 689/21/14 690/22/14
f 691/19/14 692/20/14 693/21/14 694/22/14
f 695/19/14 696/20/14 697/21/14 698/22/14
f 699/19/14 700/20/14 701/21/14 702/22/14
f 703/19/14 704/20/14 705/21/14 706/22/14
f 707/19/14 708/20/14 709/21/14 710/22/14
f 711/19/14 712/20/14 713/21/14 714/22/14
f 715/19/14 716/20/14 717/21/14 718/22/14
f 719/19/14 720/20/14 721/21/14 722/22/14
f 723/19/14 724/20/14 725/21/14 726/22/14
f 727/19/14 728/20/14 729/21/14 730/22/14
f 731/19/14 732/20/14 733/21/14 734/22/14
f 735/19/14 736/20/14 737/21/14 738/22/14
f 739/19/14 740/20/14 741/21/14 742/22/14
f 743/19/14 744/20/14 745/21/14 746/22/14
f 747/19/14 748/20/14 749/21/14 750/22/14
f 751/19/14 752/20/14 753/21/14 754/22/14
f 755/19/14 756/20/14 757/21/14 758/22/14
f 759/19/14 760/20/14 761/21/14 762/22/14
f 763/19/14 764/20/14 765/21/14 766/22/14
f 767/19/14 768/20/14 769/21/14 770/22/14
f 771/19/14 772/20/14 773/21/14 774/22/14
f 775/19/14 776/20/14 777/21/14 778/22/14
f 779/19/14 780/20/14 781/21/14 782/22/14
f 783/19/14 784/20/14 785/21/14 786/22/14
f 787/19/14 788/20/14 789/21/14 790/22/14
f 791/19/14 792/20/14 793/21/14 794/22/14
f 795/19/14 796/20/14 797/21/14 798/22/14
f 799/19/14 800/20/14 801/21/14 802/22/14
f 803/19/14 804/20/14 805/21/14 806/22/14
f 807/19/14 808/20/14 809/21/14 810/22/14
f 811/19/14 812/20/14 813/21/14 814/22/14
f 815/19/14 816/20/14 817/21/14 818/22/14
f 819/19/14 820/20/14 821/21/14 822/22/14
f 823/19/14 824/20/14 825/21/14 826/22/14
f 827/19/14 828/20/14 829/21/14 830/22/14
f 831/19/14 832/20/14 833/21/14 834/22/14
f 835/19/14 836/20/14 837/21/14 838/22/14
f 839/19/14 840/20/14 841/21/14 842/22/14
f 843/19/14 844/20/14 845/21/14 846/22/14
f 847/19/14 848/20/14 849/21/14 850/22/14
f 851/19/14 852/20/14 853/21/14 854/22/14
f 855/19/14 856/20/14 857/21/14 858/22/14
f 859/19/14 860/20/14 861/21/14 862/22/14
f 863/19/14 864/20/14 865/21/14 866/22/14
f 867/19/14 868/20/14 869/21/14 870/22/14
f 871/19/14 872/20/14 873/21/14 874/22/14
f 875/19/14 876/20/14 877/21/14 878/22/14
f 879/19/14 880/20/14 881/21/14 882/22/14
f 883/19/14 884/20/14 885/21/14 886/22/14
f 887/19/14 888/20/14 889/21/14 890/22/14
f 891/19/14 892/20/14 893/21/14 894/22/14
f 895/19/14 896/20/14 897/21/14 898/22/14
f 899/19/14 900/20/14 901/21/14 902/22/14
f 903/19/14 904/20/14 905/21/14 906/22/14
f 907/19/14 908/20/14 909/21/14 910/22/14
f 911/19/14 912/20/14 913/21/14 914/22/14
f 915/19/14 916/20/14 917/21/14 918/22/14
f 919/19/14 920/20/14 921/21/14 922/22/14
f 923/19/14 924/20/14 925/21/14 926/22/14
f 927/19/14 928/20/14 929/21/14 930/22/14
f 931/19/14 932/20/14 933/21/14 934/22/14
f 935/19/14 936/20/14 937/21/14 938/22/14
f 939/19/14 940/20/14 941/21/14 942/22/14
f 943/19/14 944/20/14 945/21/14 946/22/14
f 947/19/14 948/20/14 949/21/14 950/22/14
f 951/19/14 952/20/14 953/21/14 954/22/14
f 955/19/14 956/20/14 957/21/14 958/22/14
f 959/19/14 960/20/14 961/21/14 962/22/14
f 963/19/14 964/20/14 965/21/14 966/22/14
f 967/19/14 968/20/14 969/21/14 970/22/14
f 971/19/14 972/20/14 973/21/14 974/22/14
f 975/19/14 976/20/14 977/21/14 978/22/14
f 979/19/14 980/20/14 981/21/14 982/22/14
f 983/19/14 984/20/14 985/21/14 986/22/14
f 987/19/14 988/20/14 989/21/14 990/22/14
f 991/19/14 992/20/14 993/21/14 994/22/14
f 995/19/14 996/20/14 997/21/14 998/22/14
f 999/19/14 1000/20/14 1001/21/14 1002/22/14
f 1003/19/14 1004/20/14 1005/21/14 1006/22/14
f 1007/19/14 1008/20/14 1009/21/14 1010/22/14
f 1011/19/14 1012/20/14 1013/21/14 1014/22/14
f 1015/19/14 1016/20/14 1017/21/14 1018/22/14
f 1019/19/14 1020/20/14 1021/21/14 1022/22/14
f 1023/19/14 1024/20/14 1025/21/14 1026/22/14
f 1027/19/14 1028/20/14 1029/21/14 1030/22/14
f 1031/19/14 1032/20/14 1033/21/14 1034/22/14
f 1035/19/14 1036/20/14 1037/21/14 1038/22/14
f 1039/19/14 1040/20/14 1041/21/14 1042/22/14
f 1043/19/14 1044/20/14 1045/21/14 1046/22/14
f 1047/19/14 1048/20/14 1049/21/14 1050/22/14
f 1051/19/14 1052/20/14 1053/21/14 1054/22/14
f 1055/19/14 1056/20/14 1057/21/14 1058/22/14
f 1059/19/14 1060/20/14 1061/21/14 1062/22/14
f 1063/19/14 1064/20/14 1065/21/14 1066/22/14
f 1067/19/14 1068/20/14 1069/21/14 1070/22/14
f 1071/19/14 1072/20/14 1073/21/14 1074/22/14
f 1075/19/14 1076/20/14 1077/21/14 1078/22/14
f 1079/19/14 1080/20/14 1081/21/14 1082/22/14
f 1083/19/14 1084/20/14 1085/21/14 1086/22/14
f 1087/19/14 1088/20/14 1089/21/14 1090/22/14
f 1091/19/14 1092/20/14 1093/21/14 1094/22/14
f 1095/19/14 1096/20/14 1097/21/14 1098/22/14
f 1099/19/14 1100/20/14 1101/21/14 1102/22/14
f 1103/19/14 1104/20/14 1105/21/14 1106/22/14
f 1107/19/14 1108/20/14 1109/21/14 1110/22/14
f 1111/19/14 1112/20/14 1113/21/14 1114/22/14
f 1115/19/14 1116/20/14 1117/21/14 1118/22/14
f 1119/19/14 1120/20/14 1121/21/14 1122/22/14
f 1123/19/14 1124/20/14 1125/21/14 1126/22/14
f 1127/19/14 1128/20/14 1129/21/14 1130/22/14
f 1131/19/14 1132/20/14 1133/21/14 1134/22/14
f 1135/19/14 1136/20/14 1137/21/14 1138/22/14
f 1139/19/14 1140/20/14 1141/21/14 1142/22/14
f 1143/19/14 1144/20/14 1145/21/14 1146/22/14
f 1147/19/14 1148/20/14 1149/21/14 1150/22/14
f 1151/19/14 1152/20/14 1153/21/14 1154/22/14
f 1155/19/14 1156/20/14 1157/21/14 1158/22/14
f 1159/19/14 1160/20/14 1161/21/14 1162/22/14
f 1163/19/14 1164/20/14 1165/21/14 1166/22/14
f 1167/19/14 1168/20/14 1169/21/14 1170/22/14
f 1171/19/14 1172/20/14 1173/21/14 1174/22/14
f 1175/19/14 1176/20/14 1177/21/14 1178/22/14
f 1179/19/14 1180/20/14 1181/21/14 1182/22/14
f 1183/19/14 1184/20/14 1185/21/14 1186/22/14
f 1187/19/14 1188/20/14 1189/21/14 1190/22/14
f 1191/19/14 1192/20/14 1193/21/14 1194/22/14
f 1195/19/14 1196/20/14 1197/21/14 1198/22/14
f 1199/19/14 1200/20/14 1201/21/14 1202/22/14
f 1203/19/14 1204/20/14 1205/21/14 1206/22/14
f 1207/19/14 1208/20/14 1209/21/14 1210/22/14
f 1211/19/14 1212/20/14 1213/21/14 1214/22/14
f 1215/19/14 1216/20/14 1217/21/14 1218/22/14
f 1219/19/14 1220/20/14 1221/21/14 1222/22/14
f 1223/19/14 1224/20/14 1225/21/14 1226/22/14
f 1227/19/14 1228/20/14 1229/21/14 1230/22/14
f 1231/19/14 1232/20/14 1233/21/14 1234/22/14
f 1235/19/14 1236/20/14 1237/21/14 1238/22/14
f 1239/19/14 1240/20/14 1241/21/14 1242/22/14
f 1243/19/14 1244/20/14 1245/21/14 1246/22/14
f 1247/19/14 1248/20/14 1249/21/14 1250/22/14
f 1251/19/14 1252/20/14 1253/21/14 1254/22/14
f 1255/19/14 1256/20/14 1257/21/14 1258/22/14
f 1259/19/14 1260/20/14 1261/21/14 1262/22/14
f 1263/19/14 1264/20/14 1265/21/14 1266/22/14
f 1267/19/14 1268/20/14 1269/21/14 1270/22/14
f 1271/19/14 1272/20/14 1273/21/14 1274/22/14
f 1275/19/14 1276/20/14 1277/21/14 1278/22/14
f 1279/19/14 1280/20/14 1281/21/14 1282/22/14
f 1283/19/14 1284/20/14 1285/21/14 1286/22/14
f 1287/19/14 1288/20/14 1289/21/14 1290/22/14
f 1291/19/14 1292/20/14 1293/21/14 1294/22/14
f 1295/19/14 1296/20/14 1297/21/14 1298/22/14
f 1299/19/14 1300/20/14 1301/21/14 1302/22/14
f 1303/19/14 1304/20/14 1305/21/14 1306/22/14
f 1307/19/14 1308/20/14 1309/21/14 1310/22/14
f 1311/19/14 1312/20/14 1313/21/14 1314/22/14
f 1315/19/14 1316/20/14 1317/21/14 1318/22/14
f 1319/19/14 1320/20/14 1321/21/14 1322/22/14
f 1323/19/14 1324/20/14 1325/21/14 1326/22/14
f 1327/19/14 1328/20/14 1329/21/14 1330/22/14
f 1331/19/14 1332/20/14 1333/21/14 1334/22/14
f 1335/19/14 1336/20/14 1337/21/14 1338/22/14
f 1339/19/14 1340/20/14 1341/21/14 1342/22/14
f 1343/19/14 1344/20/14 1345/21/14 1346/22/14
f 1347/19/14 1348/20/14 1349/21/14 1350/22/14
f 1351/19/14 1352/20/14 1353/21/14 1354/22/14
f 1355/19/14 1356/20/14 1357/21/14 1358/22/14
f 1359/19/14 1360/20/14 1361/21/14 1362/22/14
f 1363/19/14 1364/20/14 1365/21/14 1366/22/14
f 1367/19/14 1368/20/14 1369/21/14 1370/22/14
f 1371/19/14 1372/20/14 1373/21/14 1374/22/14
f 1375/19/14 1376/20/14 1377/21/14 1378/22/14
f 1379/19/14 1380/20/14 1381/21/14 1382/22/14
f 1383/19/14 1384/20/14 1385/21/14 1386/22/14
f 1387/19/14 1388/20/14 1389/21/14 1390/22/14
f 1391/19/14 1392/20/14 1393/21/14 1394/22/14
f 1395/19/14 1396/20/14 1397/21/14 1398/22/14
f 1399/19/14 1400/20/14 1401/21/14 1402/22/14
f 1403/19/14 1404/20/14 1405/21/14 1406/22/14
f 1407/19/14 1408/20/14 1409/21/14 1410/22/14
f 1411/19/14 1412/20/14 1413/21/14 1414/22/14
f 1415/19/14 1416/20/14 1417/21/14 1418/22/14
f 1419/19/14 1420/20/14 1421/21/14 1422/22/14
f 1423/19/14 1424/20/14 1425/21/14 1426/22/14
f 1427/19/14 1428/20/14 1429/21/14 1430/22/14
f 1431/19/14 1432/20/14 1433/21/14 1434/22/14
f 1435/19/14 1436/20/14 1437/21/14 1438/22/14
f 1439/19/14 1440/20/14 1441/21/14 1442/22/14
f 1443/19/14 1444/20/14 1445/21/14 1446/22/14
f 1447/19/14 1448/20/14 1449/21/14 1450/22/14
f 1451/19/14 1452/20/14 1453/21/14 1454/22/14
f 1455/19/14 1456/20/14 1457/21/14 1458/22/14
f 1459/19/14 1460/20/14 1461/21/14 1462/22/14
f 1463/19/14 1464/20/14 1465/21/14 1466/22/14
f 1467/19/14 1468/20/14 1469/21/14 1470/22/14
f 1471/19/14 1472/20/14 1473/21/14 1474/22/14
f 1475/19/14 1476/20/14 1477/21/14 1478/22/14
f 1479/19/14 1480/20/14 1481/21/14 1482/22/14
f 1483/19/14 1484/20/14 1485/21/14 1486/22/14
f 1487/19/14 1488/20/14 1489/21/14 1490/22/14
f 1491/19/14 1492/20/14 1493/21/14 1494/22/14
f 1495/19/14 1496/20/14 1497/21/14 1498/22/14
f 1499/19/14 1500/20/14 1501/21/14 1502/22/14
f 1503/19/14 1504/20/14 1505/21/14 1506/22/14
f 1507/19/14 1508/20/14 1509/21/14 1510/22/14
f 1511/19/14 1512/20/14 1513/21/14 1514/22/14
f 1515/19/14 1516/20/14 1517/21/14 1518/22/14
f 1519/19/14 1520/20/14 1521/21/14 1522/22/14
f 1523/19/14 1524/20/14 1525/21/14 1526/22/14
f 1527/19/14 1528/20/14 1529/21/14 1530/22/14
f 1531/19/14 1532/20/14 1533/21/14 1534/22/14
f 1535/19/14 1536/20/14 1537/21/14 1538/22/14
f 1539/19/14 1540/20/14 1541/21/14 1542/22/14
f 1543/19/14 1544/20/14 1545/21/14 1546/22/14
f 1547/19/14 1548/20/14 1549/21/14 1550/22/14
f 1551/19/14 1552/20/14 1553/21/14 1554/22/14
f 1555/19/14 1556/20/14 1557/21/14 1558/22/14
f 1559/19/14 1560/20/14 1561/21/14 1562/22/14
f 1563/19/14 1564/20/14 1565/21/14 1566/22/14
f 1567/19/14 1568/20/14 1569/21/14 1570/22/14
f 1571/19/14 1572/20/14 1573/21/14 1574/22/14
f 1575/19/14 1576/20/14 1577/21/14 1578/22/14
f 1579/19/14 1580/20/14 1581/21/14 1582/22/14
f 1583/19/14 1584/20/14 1585/21/14 1586/22/14
f 1587/19/14 1588/20/14 1589/21/14 1590/22/14
f 1591/19/14 1592/20/14 1593/21/14 1594/22/14
f 1595/19/14 1596/20/14 1597/21/14 1598/22/14
f 1599/19/14 1600/20/14 1601/21/14 1602/22/14
f 1603/19/14 1604/20/14 1605/21/14 1606/22/14
f 1607/19/14 1608/20/14 1609/21/14 1610/22/14
f 1611/19/14 1612/20/14 1613/21/14 1614/22/14
f 1615/19/14 1616/20/14 1617/21/14 1618/22/14
f 1619/19/14 1620/20/14 1621/21/14 1622/22/14
f 1623/19/14 1624/20/14 1625/21/14 1626/22/14
f 1627/19/14 1628/20/14 1629/21/14 1630/22/14
f 1631/19/14 1632/20/14 1633/21/14 1634/22/14
f 1635/19/14 1636/20/14 1637/21/14 1638/22/14
f 1639/19/14 1640/20/14 1641/21/14 1642/22/14
f 1643/19/14 1644/20/14 1645/21/14 1646/22/14
f 1647/19/14 1648/20/14 1649/21/14 1650/22/14
f 1651/19/14 1652/20/14 1653/21/14 1654/22/14
f 1655/19/14 1656/20/14 1657/21/14 1658/22/14
f 1659/19/14 1660/20/14 1661/21/14 1662/22/14
f 1663/19/14 1664/20/14 1665/21/14 1666/22/14
f 1667/19/14 1668/20/14 1669/21/14 1670/22/14
f 1671/19/14 1672/20/14 1673/21/14 1674/22/14
f 1675/19/14 1676/20/14 1677/21/14 1678/22/14
f 1679/19/14 1680/20/14 1681/21/14 1682/22/14
f 1683/19/14 1684/20/14 1685/21/14 1686/22/14
f 1687/19/14 1688/20/14 1689/21/14 1690/22/14
f 1691/19/14 1692/20/14 1693/21/14 1694/22/14
f 1695/19/14 1696/20/14 1697/21/14 1698/22/14
f 1699/19/14 1700/20/14 1701/21/14 1702/22/14
f 1703/19/14 1704/20/14 1705/21/14 1706/22/14
f 1707/19/14 1708/20/14 1709/21/14 1710/22/14
f 1711/19/14 1712/20/14 1713/21/14 1714/22/14
f 1715/19/14 1716/20/14 1717/21/14 1718/22/14
f 1719/19/14 1720/20/14 1721/21/14 1722/22/14
f 1723/19/14 1724/20/14 1725/21/14 1726/22/14
f 1727/19/14 1728/20/14 1729/21/14 1730/22/14
f 1731/19/14 1732/20/14 1733/21/14 1734/22/14
f 1735/19/14 1736/20/14 1737/21/14 1738/22/14
f 1739/19/14 1740/20/14 1741/21/14 1742/22/14
f 1743/19/14 1744/20/14 1745/21/14 1746/22/14
f 1747/19/14 1748/20/14 1749/21/14 1750/22/14
f 1751/19/14 1752/20/14 1753/21/14 1754/22/14
f 1755/19/14 1756/20/14 1757/21/14 1758/22/14
f 1759/19/14 1760/20/14 1761/21/14 1762/22/14
f 1763/19/14 1764/20/14 1765/21/14 1766/22/14
f 1767/19/14 1768/20/14 1769/21/14 1770/22/14
f 1771/19/14 1772/20/14 1773/21/14 1774/22/14
f 1775/19/14 1776/20/14 1777/21/14 1778/22/14
f 1779/19/14 1780/20/14 1781/21/14 1782/22/14
usemtl GrassLands_NEW_C.003
f 1783/19/14 1784/20/14 1785/21/14 1786/22/14
usemtl GrassLands_NEW_C.004
f 1787/23/14 1788/24/14 1789/25/14 1790/26/14
usemtl Grassland_Tileatlas_01.012
f 1818/1/28 1819/2/28 1821/3/28 1817/4/28
f 1819/1/28 1820/2/28 1822/3/28 1821/4/28
f 1821/1/29 1822/2/29 1824/3/29 1823/4/29
f 1823/1/30 1824/2/30 1825/3/30 1831/4/30
f 1831/1/31 1825/2/31 1827/3/31 1826/4/31
f 1822/5/32 1820/6/32 1828/7/32 1827/8/32 1825/9/32 1824/10/32
f 1826/1/33 1827/2/33 1828/3/33 1834/4/33
f 1834/1/34 1828/2/34 1820/3/34 1819/4/34
f 1817/1/29 1821/2/29 1823/3/29 1829/4/29
f 1829/1/30 1823/2/30 1831/3/30 1830/4/30
f 1830/1/31 1831/2/31 1826/3/31 1832/4/31
f 1832/1/33 1826/2/33 1834/3/33 1833/4/33
f 1833/1/34 1834/2/34 1819/3/34 1818/4/34
f 1818/6/35 1817/15/35 1829/8/35 1830/9/35 1832/10/35 1833/16/35
usemtl Grassland_Tileatlas_01.013
f 1843/27/14 1839/28/14 1842/29/14 1835/30/14
f 1838/31/36 1836/32/36 1839/33/36 1843/34/36
f 1837/31/37 1838/32/37 1843/33/37 1835/34/37
f 1841/31/38 1837/32/38 1835/33/38 1842/34/38
f 1836/31/39 1841/32/39 1842/33/39 1839/34/39
f 1858/35/40 1845/36/40 1848/37/40 1846/38/40
f 1850/39/41 1849/40/41 1848/41/41 1845/42/41
f 1861/39/40 1860/40/40 1849/41/40 1850/42/40
f 1863/39/41 1859/40/41 1860/41/41 1861/42/41
f 1862/43/42 1855/44/42 1853/45/42 1844/46/42
f 1851/43/41 1840/44/41 1853/45/41 1855/46/41
f 1854/47/39 1856/48/39 1857/49/39 1858/50/39
f 1852/39/43 1847/40/43 1859/41/43 1863/42/43
f 1867/39/41 1866/40/41 1847/41/41 1852/42/41
f 1865/39/42 1868/40/42 1866/41/42 1867/42/42
f 1862/39/41 1844/40/41 1868/41/41 1865/42/41
f 1846/51/44 1864/44/44 1854/45/44 1858/52/44
f 1846/47/37 1870/48/37 1871/49/37 1864/50/37
f 1886/35/45 1873/36/45 1876/37/45 1874/38/45
f 1878/39/46 1877/40/46 1876/41/46 1873/42/46
f 1889/39/45 1888/40/45 1877/41/45 1878/42/45
f 1891/39/47 1887/40/47 1888/41/47 1889/42/47
f 1890/43/48 1883/44/48 1881/45/48 1872/46/48
f 1879/43/46 1869/44/46 1881/45/46 1883/46/46
f 1882/47/37 1884/48/37 1885/49/37 1886/50/37
f 1880/39/45 1875/40/45 1887/41/45 1891/42/45
f 1894/39/46 1893/40/46 1875/41/46 1880/42/46
f 1892/39/48 1895/40/48 1893/41/48 1894/42/48
f 1890/39/46 1872/40/46 1895/41/46 1892/42/46
f 1874/51/49 1898/44/49 1882/45/49 1886/52/49
f 1874/47/39 1896/48/39 1897/49/39 1898/50/39
