# Blender 5.2.0 LTS
# www.blender.org
mtllib wall_straight.mtl
o Cube.003
v 0.262671 -0.495401 -0.500000
v -0.237329 0.504599 0.500000
v -0.008855 0.355781 -0.500000
v -0.008855 -0.363578 -0.500000
v -0.237329 0.504599 -0.500000
v -0.008855 0.355781 0.500000
v 0.088830 -0.445648 0.500000
v 0.093463 -0.445648 -0.500000
v -0.008855 -0.363578 0.500000
v -0.098778 0.444246 0.500000
v -0.098778 0.444246 -0.500000
v 0.262671 -0.495401 0.500000
vn 0.4665 0.8845 0.0011
vn 0.4655 0.8850 0.0011
vn 0.9040 0.4276 0.0008
vn 0.9223 0.3865 -0.0000
vn 0.2786 0.9604 0.0006
vn 0.5597 0.8287 -0.0000
vn 0.3994 0.9168 -0.0000
vt 0.000049 0.828223
vt 0.062451 0.828223
vt 0.062451 0.843652
vt 0.000049 0.843652
vt 0.062549 0.625098
vt 0.124951 0.625098
vt 0.124951 0.749902
vt 0.062549 0.749902
vt 0.000049 0.812598
vt 0.062451 0.812598
vt 0.062451 0.828027
vt 0.000049 0.828027
vt 0.062451 0.843848
vt 0.000049 0.843848
vt 0.000049 0.859277
vt 0.062451 0.859277
vt 0.000049 0.859473
vt 0.062451 0.859473
vt 0.062451 0.874902
vt 0.000049 0.874902
s 1
usemtl Caverns_Tileset.008
f 7/1/1 8/2/2 4/3/3 9/4/3
f 9/5/3 4/6/3 3/7/4 6/8/4
f 12/9/5 1/10/5 8/11/2 7/12/1
f 6/13/4 3/14/4 11/15/6 10/16/6
f 10/17/6 11/18/6 5/19/7 2/20/7
