# Blender 5.2.0 LTS
# www.blender.org
mtllib wall_inner_corner.mtl
o Cube.002
v -0.200774 0.330403 -0.200774
v -0.200774 0.330403 0.570752
v -0.103089 -0.619844 0.570752
v -0.200774 -0.537774 0.570752
v 0.070752 -0.669597 0.570752
v 0.070752 -0.669597 0.070752
v -0.200774 -0.537774 -0.200774
v 0.570752 -0.619844 -0.098456
v -0.429248 0.479221 0.570752
v -0.429248 0.479221 -0.200774
v -0.290697 0.418868 0.570752
v -0.290697 0.418868 -0.200774
v -0.098456 -0.619844 -0.103089
v 0.570752 -0.669597 0.070752
v 0.570752 0.418868 -0.290697
v -0.200774 0.418868 -0.290697
v 0.570752 0.479221 -0.429248
v 0.570752 -0.537774 -0.200774
v 0.570752 0.330403 -0.200774
v -0.290697 0.418868 -0.290697
v -0.200774 0.479221 -0.429248
v -0.429248 0.479221 -0.429248
vn 0.4661 0.8847 0.0016
vn 0.2933 0.9071 0.3019
vn 0.6441 0.4210 0.6387
vn 0.9038 0.4279 0.0011
vn 0.5764 0.5793 0.5764
vn 0.9223 0.3865 -0.0000
vn 0.2781 0.9606 0.0011
vn 0.1420 0.9796 0.1421
vn 0.5597 0.8287 -0.0000
vn 0.3994 0.9168 -0.0000
vn -0.0011 0.9603 0.2791
vn -0.0016 0.8848 0.4659
vn -0.0011 0.4272 0.9042
vn -0.0000 0.3865 0.9223
vn -0.0000 0.8287 0.5597
vn -0.0000 0.9168 0.3994
vn 0.2637 0.9278 0.2637
vn 0.2082 0.9557 0.2082
vt 0.070312 0.828223
vt 0.111328 0.828223
vt 0.117188 0.843652
vt 0.070312 0.843652
vt 0.062549 0.625098
vt 0.124951 0.625098
vt 0.124951 0.749902
vt 0.062549 0.749902
vt 0.009766 0.812598
vt 0.041016 0.812598
vt 0.052734 0.828027
vt 0.009766 0.828027
vt 0.117188 0.843848
vt 0.070312 0.843848
vt 0.070312 0.859277
vt 0.117188 0.859277
vt 0.007812 0.859473
vt 0.054688 0.859473
vt 0.054688 0.874902
vt 0.007812 0.874902
vt 0.021484 0.812598
vt 0.052734 0.812598
vt 0.076172 0.828223
vt 0.117188 0.828223
vt 0.091797 0.843848
vt 0.095703 0.859277
vt 0.033203 0.859473
vt 0.039062 0.859473
vt 0.039062 0.874902
vt 0.023438 0.874902
vt 0.091797 0.859277
vt 0.023438 0.859473
vt 0.029297 0.859473
s 1
usemtl Caverns_Tileset.007
f 3/1/1 13/2/2 7/3/3 4/4/4
f 4/5/4 7/6/3 1/7/5 2/8/6
f 5/9/7 6/10/8 13/11/2 3/12/1
f 2/13/6 1/14/5 12/15/9 11/16/9
f 11/17/9 12/18/9 10/19/10 9/20/10
f 6/21/8 14/22/11 8/11/12 13/12/2
f 13/23/2 8/24/12 18/3/13 7/4/3
f 1/14/5 19/13/14 15/16/15 16/15/15
f 7/5/3 18/6/13 19/7/14 1/8/5
f 16/17/15 15/18/15 17/19/16 21/20/16
f 1/25/5 16/26/15 20/26/17
f 20/27/17 16/28/15 21/29/16 22/30/18
f 12/31/9 1/25/5 20/26/17
f 12/32/9 20/33/17 22/29/18 10/30/10
