# Blender 5.2.0 LTS
# www.blender.org
mtllib floor.mtl
o floor_tile_set
v -2.492276 -0.007067 -0.017269
v -0.018014 -0.000899 -0.022231
v -0.018043 -0.000864 -2.491505
v -2.478873 0.017656 -2.483089
v -0.002667 -0.028340 -0.006880
v -2.502665 -0.028340 -2.506880
v -1.252667 -0.005763 -0.043135
v -1.252667 -0.005763 -2.470625
v -1.252667 -0.028340 -2.506880
v -2.502665 -0.028340 -1.256880
v -2.466413 -0.005763 -1.256880
v -1.250364 -0.005763 -1.256978
v -0.038919 -0.005763 -1.256880
v -0.002667 -0.028340 -1.256880
v -2.502665 -0.028340 -1.225344
v -2.487899 -0.001623 -1.225716
v -0.032620 0.002006 -1.241237
v -2.502665 -0.028340 -1.288930
v -2.492344 -0.007153 -1.288661
v -0.030845 0.004196 -1.277254
v -1.284207 -0.028340 -0.006880
v -1.283606 0.009607 -0.030672
v -1.267758 0.002280 -1.240736
v -1.283605 0.009607 -1.288319
v -1.283913 -0.005551 -2.495271
v -1.284206 -0.028340 -2.506880
v -1.209272 -0.028340 -0.006880
v -1.229419 0.002631 -0.036330
v -1.222582 0.004841 -1.235567
v -1.221247 -0.022135 -1.298721
v -1.210098 0.009607 -2.483089
v -1.209272 -0.028340 -2.506880
v -2.478874 0.017656 -0.583980
v -2.015785 -0.031831 -0.076074
v -2.434402 0.017656 -0.241707
v -2.307281 0.017656 -0.083309
v -1.518765 0.009607 -1.225942
v -1.283605 0.009607 -0.980031
v -1.404353 0.009607 -1.206069
v -1.322909 0.017656 -1.133028
v -1.211330 -0.013433 -1.522306
v -1.034207 0.009607 -1.288319
v -1.169194 0.009607 -1.310677
v -1.133891 0.009607 -1.225942
v -1.219198 0.042231 -1.170897
v -2.488009 0.009996 -1.533156
v -2.265777 0.013388 -1.288320
v -2.471081 -0.000005 -1.268660
v -2.432952 0.017656 -1.336629
v -2.371025 0.009607 -1.225942
v -2.478874 0.009607 -1.180989
v -2.472262 0.001450 -1.242360
v -1.283605 0.015765 -2.384627
v -1.450369 0.017656 -2.483089
v -1.266396 0.001058 -2.476155
v -1.323243 0.017656 -2.458150
v -0.013101 -0.012436 -2.342127
v -0.094760 0.009607 -2.483089
v -0.004404 0.017974 -0.965894
v -0.330844 0.009607 -1.225941
v -0.012316 -0.007988 -1.225587
v -0.070472 0.017656 -1.139723
v -0.155639 0.009607 -1.200886
v -0.134039 0.009607 -1.288319
v -0.026460 0.009607 -1.345326
v -0.015075 -0.004557 -1.288612
v -0.290611 0.009607 -0.030672
v -0.026452 -0.017712 -0.248798
v -0.087483 0.017656 -0.080806
v -1.210098 0.009607 -0.116304
v -1.181591 0.009607 -0.030666
v -1.209785 -0.001603 -0.021657
v -1.210098 0.009607 -0.594960
v -1.210098 0.009607 -0.871962
v -1.175668 0.013059 -0.763319
v -1.208912 0.009449 -0.745502
v -2.106088 0.009607 -1.225942
v -1.932855 0.009607 -1.225942
v -2.036441 0.017656 -1.204628
v -2.036831 0.004156 -1.236916
v -0.546249 0.017656 -2.483089
v -0.246159 0.009607 -2.483089
v -0.367608 0.017656 -2.445717
v -0.372291 0.000471 -2.490431
v -0.026460 0.009607 -1.396266
v -0.017489 -0.012659 -1.622954
v -0.051266 0.017656 -1.464174
v -0.016703 -0.002531 -1.483058
v 0.007723 -0.007067 -0.017268
v 2.481984 -0.000899 -0.022230
v 2.481956 -0.000864 -2.491505
v 0.021125 0.017656 -2.483089
v 2.497331 -0.028340 -0.006880
v 2.497332 -0.028340 -2.506880
v -0.002667 -0.028340 -2.506880
v 1.247332 -0.005763 -0.043135
v 1.247332 -0.005763 -2.470625
v 1.247332 -0.028340 -2.506880
v 0.033585 -0.005763 -1.256880
v 1.249634 -0.005763 -1.256978
v 2.461080 -0.005763 -1.256880
v 2.497331 -0.028340 -1.256880
v -0.002667 -0.028340 -1.225343
v 0.012099 -0.001623 -1.225716
v 2.467378 0.002006 -1.241237
v 2.497331 -0.028340 -1.225343
v -0.002667 -0.028340 -1.288930
v 0.007654 -0.007153 -1.288661
v 2.469153 0.004196 -1.277254
v 2.497331 -0.028340 -1.288929
v 1.215792 -0.028340 -0.006880
v 1.216393 0.009607 -0.030672
v 1.232241 0.002280 -1.240736
v 1.216393 0.009607 -1.288319
v 1.216085 -0.005551 -2.495271
v 1.215792 -0.028340 -2.506880
v 1.290726 -0.028340 -0.006880
v 1.270580 0.002631 -0.036330
v 1.277416 0.004841 -1.235567
v 1.278751 -0.022135 -1.298721
v 1.289901 0.009607 -2.483089
v 1.290727 -0.028340 -2.506880
v 0.021125 0.017656 -0.583980
v 0.484213 -0.031831 -0.076074
v 0.065596 0.017656 -0.241707
v 0.192717 0.017656 -0.083308
v 0.981234 0.009607 -1.225941
v 1.216393 0.009607 -0.980031
v 1.095646 0.009607 -1.206068
v 1.177089 0.017656 -1.133028
v 1.288668 -0.013433 -1.522306
v 1.465792 0.009607 -1.288319
v 1.330805 0.009607 -1.310676
v 1.366107 0.009607 -1.225941
v 1.280801 0.042231 -1.170897
v 0.011990 0.009996 -1.533156
v 0.234221 0.013388 -1.288319
v 0.028917 -0.000005 -1.268660
v 0.067046 0.017656 -1.336629
v 0.128974 0.009607 -1.225941
v 0.021125 0.009607 -1.180989
v 0.027736 0.001450 -1.242360
v 1.216393 0.015765 -2.384627
v 1.049630 0.017656 -2.483089
v 1.233602 0.001058 -2.476155
v 1.176756 0.017656 -2.458150
v 2.486897 -0.012436 -2.342126
v 2.405239 0.009607 -2.483088
v 2.495595 0.017974 -0.965894
v 2.169155 0.009607 -1.225941
v 2.487682 -0.007988 -1.225587
v 2.429526 0.017656 -1.139723
v 2.344359 0.009607 -1.200886
v 2.365959 0.009607 -1.288319
v 2.473539 0.009607 -1.345326
v 2.484923 -0.004557 -1.288612
v 2.209387 0.009607 -0.030671
v 2.473547 -0.017712 -0.248798
v 2.412516 0.017656 -0.080806
v 1.289901 0.009607 -0.116304
v 1.318407 0.009607 -0.030665
v 1.290214 -0.001603 -0.021657
v 1.289901 0.009607 -0.594960
v 1.289901 0.009607 -0.871962
v 1.324331 0.013059 -0.763319
v 1.291087 0.009449 -0.745502
v 0.393911 0.009607 -1.225941
v 0.567144 0.009607 -1.225941
v 0.463558 0.017656 -1.204628
v 0.463167 0.004156 -1.236916
v 1.953750 0.017656 -2.483088
v 2.253839 0.009607 -2.483088
v 2.132390 0.017656 -2.445717
v 2.127708 0.000471 -2.490431
v 2.473539 0.009607 -1.396266
v 2.482509 -0.012659 -1.622954
v 2.448732 0.017656 -1.464174
v 2.483295 -0.002531 -1.483058
v -2.502666 -0.028340 2.493119
v -2.492276 -0.007067 2.482731
v -0.018014 -0.000899 2.477769
v -0.018043 -0.000864 0.008495
v -2.478874 0.017656 0.016911
v -0.002667 -0.028340 2.493120
v -2.502665 -0.028340 -0.006880
v -1.252667 -0.028340 2.493120
v -1.252667 -0.005764 2.456865
v -1.252667 -0.005763 0.029375
v -1.252667 -0.028340 -0.006880
v -2.502665 -0.028340 1.243120
v -2.466413 -0.005764 1.243120
v -1.250365 -0.005764 1.243022
v -0.038919 -0.005764 1.243120
v -0.002667 -0.028340 1.243120
v -2.502665 -0.028340 1.274656
v -2.487899 -0.001623 1.274284
v -0.032620 0.002006 1.258763
v -0.002667 -0.028340 1.274657
v -2.502665 -0.028340 1.211070
v -2.492344 -0.007154 1.211339
v -0.030846 0.004196 1.222746
v -0.002667 -0.028340 1.211070
v -1.284207 -0.028340 2.493120
v -1.283606 0.009607 2.469328
v -1.267758 0.002280 1.259264
v -1.283606 0.009607 1.211680
v -1.283914 -0.005551 0.004729
v -1.209272 -0.028340 2.493120
v -1.229419 0.002631 2.463670
v -1.222583 0.004841 1.264433
v -1.221248 -0.022135 1.201279
v -1.210098 0.009607 0.016911
v -2.478874 0.017656 1.916020
v -2.015785 -0.031831 2.423925
v -2.434402 0.017656 2.258293
v -2.307281 0.017656 2.416691
v -1.518765 0.009607 1.274058
v -1.283606 0.009607 1.519969
v -1.404353 0.009607 1.293931
v -1.322909 0.017656 1.366972
v -1.211330 -0.013433 0.977694
v -1.034207 0.009607 1.211680
v -1.169194 0.009607 1.189323
v -1.133891 0.009607 1.274058
v -1.219198 0.042230 1.329103
v -2.488009 0.009996 0.966844
v -2.265777 0.013388 1.211680
v -2.471081 -0.000005 1.231340
v -2.432952 0.017656 1.163371
v -2.371025 0.009607 1.274058
v -2.478874 0.009607 1.319011
v -2.472262 0.001450 1.257640
v -1.283606 0.015765 0.115373
v -1.450369 0.017656 0.016911
v -1.266397 0.001058 0.023845
v -1.323243 0.017656 0.041850
v -0.013102 -0.012436 0.157873
v -0.094760 0.009607 0.016911
v -0.004404 0.017973 1.534106
v -0.330844 0.009607 1.274058
v -0.012317 -0.007988 1.274413
v -0.070472 0.017656 1.360277
v -0.155639 0.009607 1.299113
v -0.134039 0.009607 1.211681
v -0.026460 0.009607 1.154674
v -0.015075 -0.004558 1.211388
v -0.290611 0.009607 2.469328
v -0.026452 -0.017712 2.251202
v -0.087483 0.017656 2.419194
v -1.210098 0.009607 2.383696
v -1.181592 0.009607 2.469334
v -1.209785 -0.001603 2.478343
v -1.210098 0.009607 1.905040
v -1.210098 0.009607 1.628038
v -1.175668 0.013059 1.736680
v -1.208912 0.009449 1.754498
v -2.106088 0.009607 1.274058
v -1.932855 0.009607 1.274058
v -2.036441 0.017656 1.295372
v -2.036831 0.004156 1.263084
v -0.546249 0.017656 0.016911
v -0.246159 0.009607 0.016911
v -0.367608 0.017656 0.054283
v -0.372291 0.000471 0.009569
v -0.026460 0.009607 1.103734
v -0.017490 -0.012659 0.877046
v -0.051266 0.017656 1.035826
v -0.016704 -0.002531 1.016942
v 0.007723 -0.007067 2.482732
v 2.481984 -0.000899 2.477770
v 2.481956 -0.000864 0.008495
v 0.021125 0.017656 0.016911
v 2.497331 -0.028340 2.493120
v 1.247331 -0.028340 2.493120
v 1.247331 -0.005764 2.456865
v 1.247332 -0.005763 0.029375
v 1.247332 -0.028340 -0.006880
v 0.033585 -0.005764 1.243120
v 1.249634 -0.005764 1.243022
v 2.461080 -0.005764 1.243120
v 2.497331 -0.028340 1.243120
v 0.012099 -0.001623 1.274284
v 2.467378 0.002006 1.258763
v 2.497331 -0.028340 1.274657
v 0.007654 -0.007154 1.211339
v 2.469153 0.004196 1.222746
v 2.497331 -0.028340 1.211070
v 1.215791 -0.028340 2.493120
v 1.216393 0.009607 2.469328
v 1.232241 0.002280 1.259264
v 1.216393 0.009607 1.211681
v 1.216085 -0.005551 0.004729
v 1.290726 -0.028340 2.493120
v 1.270580 0.002631 2.463670
v 1.277416 0.004841 1.264433
v 1.278751 -0.022135 1.201279
v 1.289901 0.009607 0.016911
v 0.021124 0.017656 1.916020
v 0.484213 -0.031831 2.423926
v 0.065596 0.017656 2.258293
v 0.192717 0.017656 2.416692
v 0.981233 0.009607 1.274059
v 1.216393 0.009607 1.519969
v 1.095646 0.009607 1.293932
v 1.177089 0.017656 1.366972
v 1.288668 -0.013433 0.977694
v 1.465791 0.009607 1.211681
v 1.330804 0.009607 1.189324
v 1.366107 0.009607 1.274059
v 1.280801 0.042230 1.329103
v 0.011990 0.009996 0.966844
v 0.234221 0.013388 1.211681
v 0.028917 -0.000005 1.231340
v 0.067046 0.017656 1.163371
v 0.128974 0.009607 1.274058
v 0.021124 0.009607 1.319011
v 0.027736 0.001450 1.257640
v 1.216393 0.015765 0.115373
v 1.049630 0.017656 0.016911
v 1.233602 0.001058 0.023845
v 1.176755 0.017656 0.041850
v 2.486897 -0.012436 0.157873
v 2.405239 0.009607 0.016912
v 2.495594 0.017973 1.534106
v 2.169155 0.009607 1.274059
v 2.487682 -0.007988 1.274413
v 2.429526 0.017656 1.360277
v 2.344359 0.009607 1.299114
v 2.365959 0.009607 1.211681
v 2.473539 0.009607 1.154674
v 2.484923 -0.004558 1.211388
v 2.209387 0.009607 2.469328
v 2.473547 -0.017712 2.251202
v 2.412516 0.017656 2.419194
v 1.289900 0.009607 2.383696
v 1.318407 0.009607 2.469334
v 1.290213 -0.001603 2.478343
v 1.289900 0.009607 1.905040
v 1.289900 0.009607 1.628038
v 1.324330 0.013059 1.736681
v 1.291086 0.009449 1.754498
v 0.393910 0.009607 1.274058
v 0.567143 0.009607 1.274058
v 0.463558 0.017656 1.295372
v 0.463167 0.004156 1.263084
v 1.953749 0.017656 0.016911
v 2.253839 0.009607 0.016912
v 2.132390 0.017656 0.054283
v 2.127707 0.000471 0.009569
v 2.473539 0.009607 1.103734
v 2.482509 -0.012659 0.877046
v 2.448732 0.017656 1.035826
v 2.483294 -0.002531 1.016942
vn 0.7185 0.6757 -0.1651
vn 0.5060 0.7703 -0.3880
vn 0.5504 0.7694 -0.3241
vn -0.0108 0.9525 0.3043
vn 0.7942 0.6075 -0.0128
vn 0.8429 0.5381 -0.0014
vn 0.8395 0.5434 -0.0019
vn -0.0000 0.4594 -0.8882
vn -0.0011 0.4561 -0.8899
vn -0.0022 0.4608 -0.8875
vn -0.9068 0.4216 -0.0024
vn -0.9115 0.4112 -0.0015
vn -0.8990 0.4361 -0.0390
vn 0.4041 0.7623 -0.5056
vn 0.1885 0.6799 -0.7086
vn 0.3626 0.7718 -0.5223
vn 0.0880 0.9959 -0.0226
vn -0.0121 0.9998 0.0143
vn 0.5333 0.8221 0.1993
vn 0.6346 0.7153 0.2925
vn 0.4748 0.7563 0.4500
vn 0.4542 0.7909 0.4100
vn 0.6672 0.6801 -0.3038
vn 0.6672 0.6801 -0.3039
vn -0.8797 0.4756 -0.0012
vn -0.8788 0.4772 -0.0014
vn -0.8995 0.4364 -0.0206
vn 0.0216 0.9920 -0.1245
vn 0.0224 0.9913 -0.1301
vn 0.0184 0.9924 -0.1214
vn -0.3376 0.9413 -0.0006
vn -0.3354 0.9421 -0.0008
vn -0.3396 0.9406 -0.0013
vn 0.7150 0.3566 0.6013
vn 0.9113 0.4118 0.0025
vn 0.9364 0.3509 -0.0067
vn 0.0874 0.9935 -0.0730
vn -0.0243 0.9996 0.0118
vn -0.0219 0.9996 0.0154
vn -0.0002 0.8774 0.4797
vn 0.0009 0.8753 0.4836
vn -0.0354 0.9019 0.4305
vn 0.8660 0.4979 0.0456
vn 0.6715 0.6743 0.3072
vn 0.8878 0.4588 0.0366
vn 0.5073 0.8618 -0.0004
vn 0.6370 0.7707 0.0150
vn 0.5841 0.8107 0.0410
vn 0.0041 1.0000 0.0080
vn 0.0087 1.0000 0.0032
vn 0.0165 0.9998 0.0097
vn 0.0001 0.5271 0.8498
vn -0.0000 0.5271 0.8498
vn 0.1103 0.9781 -0.1763
vn 0.0144 0.9999 0.0064
vn 0.0637 0.9945 -0.0836
vn -0.0000 0.8961 -0.4438
vn -0.0000 0.8960 -0.4440
vn -0.0000 0.8958 -0.4444
vn -0.0876 0.8958 0.4357
vn -0.0069 0.9110 0.4123
vn -0.0737 0.4309 0.8994
vn 0.0822 0.9807 0.1776
vn 0.1368 0.9905 -0.0134
vn 0.0363 0.9977 0.0576
vn -0.0000 0.4958 -0.8684
vn -0.0169 0.4591 -0.8882
vn -0.0033 0.4913 -0.8710
vn -0.1030 0.9912 0.0826
vn -0.2731 0.9613 0.0355
vn 0.1167 0.7775 0.6179
vn -0.0189 0.9998 -0.0087
vn -0.0026 0.9999 -0.0146
vn -0.0280 0.9992 0.0273
vn 0.4328 0.9015 0.0006
vn 0.4248 0.9052 -0.0122
vn 0.4373 0.8993 -0.0017
vn -0.0000 0.8956 -0.4449
vn -0.0000 0.8960 -0.4441
vn 0.2462 0.9691 -0.0123
vn 0.0198 0.9911 -0.1313
vn -0.1377 0.5388 0.8311
vn -0.5189 0.8548 0.0103
vn 0.0078 0.8655 -0.5008
vn -0.0843 0.9238 0.3734
vn -0.0870 0.9638 -0.2520
vn -0.3434 0.9373 0.0597
vn -0.0936 0.9699 -0.2246
vn -0.0950 0.9911 0.0937
vn 0.0898 0.8845 -0.4578
vn -0.1624 0.9690 -0.1862
vn 0.1426 0.9872 0.0718
vn 0.0126 0.9889 -0.1477
vn 0.5011 0.8595 -0.1012
vn 0.1977 0.9772 -0.0769
vn 0.0186 0.9913 -0.1300
vn 0.0434 0.9957 0.0819
vn 0.5375 0.8371 0.1012
vn 0.3211 0.9435 -0.0820
vn 0.0287 0.9622 0.2708
vn -0.1499 0.9874 0.0499
vn -0.1824 0.8524 0.4900
vn -0.1060 0.9944 0.0009
vn -0.1099 0.9939 -0.0006
vn -0.1068 0.9943 0.0022
vn -0.1089 0.9940 -0.0019
vn -0.0077 0.9226 -0.3857
vn 0.0115 0.9225 -0.3859
vn -0.0470 0.9340 -0.3541
vn 0.0763 0.9280 -0.3647
vn 0.4746 0.8775 -0.0694
vn 0.4741 0.8778 -0.0684
vn 0.4767 0.8765 -0.0671
vn 0.4760 0.8769 -0.0662
vn -0.0078 0.9940 -0.1089
vn 0.0163 0.9901 -0.1393
vn 0.0948 0.9925 -0.0776
vn 0.0127 0.9987 0.0499
vn -0.0262 0.9995 0.0153
vn -0.0455 0.9989 0.0089
vn -0.0263 0.9850 -0.1703
vn -0.0000 0.9996 -0.0288
vn -0.0339 0.9988 -0.0359
vn 0.0114 0.9999 -0.0009
vn 0.0076 0.9999 0.0089
vn -0.0005 0.9999 0.0115
vn 0.3712 0.9116 -0.1767
vn 0.0666 0.9966 -0.0495
vn -0.0098 0.9993 -0.0350
vn -0.0796 0.9924 0.0938
vn 0.0153 0.9930 -0.1171
vn -0.0118 0.9994 0.0337
vn 0.1260 0.9919 0.0178
vn -0.0241 0.9996 0.0117
vn 0.3155 0.9489 -0.0010
vn 0.0115 0.9998 -0.0156
vn 0.4064 0.9120 0.0553
vn -0.0132 0.9999 0.0075
vn -0.0087 0.9999 0.0124
vn -0.0242 0.9997 -0.0017
vn -0.3481 0.9374 0.0046
vn -0.3325 0.9424 -0.0368
vn -0.3487 0.9372 -0.0002
vn -0.8247 0.4098 -0.3898
vn -0.8372 0.5425 0.0686
vn -0.9549 0.0873 0.2838
vn -0.0000 0.8958 -0.4445
vn -0.0120 0.3824 -0.9239
vn -0.0046 0.4833 -0.8754
vn -0.0028 0.4215 -0.9068
vn 0.0049 0.5451 -0.8384
vn -0.0092 0.5751 -0.8180
vn 0.0270 0.5285 -0.8485
vn 0.6024 0.7982 -0.0031
vn -0.8546 0.3544 0.3795
vn 0.6025 0.7981 -0.0092
vn 0.8785 0.4778 -0.0000
vn -0.9228 0.3769 0.0795
vn -0.6676 0.6861 0.2890
vn -0.8765 0.4813 -0.0054
vn -0.0022 0.4609 -0.8875
vn -0.0478 0.9987 0.0148
vn 0.0347 0.9989 0.0325
vn 0.0141 0.9994 0.0310
vn 0.4887 0.4886 0.7228
vn 0.3003 0.6703 0.6786
vn 0.5853 0.4266 0.6896
vn 0.4040 0.7623 -0.5056
vn 0.9336 0.3455 -0.0951
vn 0.8771 0.4803 0.0065
vn -0.8788 0.4773 -0.0014
vn 0.0224 0.9912 -0.1301
vn 0.7225 0.3610 0.5896
vn -0.4021 0.4671 -0.7874
vn -0.2231 0.6850 -0.6936
vn -0.4023 0.4799 -0.7797
vn 0.5852 0.4266 0.6896
vn 0.7138 0.6643 -0.2218
vn -0.0003 0.5207 0.8537
vn -0.0054 0.4843 0.8749
vn -0.0000 0.8959 -0.4442
vn -0.0000 0.8957 -0.4446
vn -0.0033 0.4912 -0.8710
vn -0.0190 0.9998 -0.0087
vn 0.4327 0.9015 0.0006
vn 0.0003 0.8957 -0.4447
vn -0.0000 0.8956 -0.4448
vn -0.1061 0.9944 0.0009
vn 0.4761 0.8769 -0.0662
vn -0.3331 0.7830 0.5253
vn -0.1441 0.6930 0.7064
vn -0.2711 0.7642 0.5852
vn -0.0240 0.9996 0.0116
vn -0.9549 0.0874 0.2838
vn -0.0000 0.8959 -0.4443
vn -0.0046 0.4833 -0.8755
vn -0.5168 0.7451 -0.4216
vn -0.6972 0.6852 -0.2109
vn -0.5009 0.7638 -0.4070
vn -0.0126 0.9419 0.3358
vn 0.2476 0.5109 0.8232
vn -0.8796 0.4756 -0.0012
vn -0.0003 0.5206 0.8538
vn -0.0055 0.4843 0.8749
vn -0.0002 0.8960 -0.4441
vn -0.0000 0.8958 -0.4446
vn 0.0004 0.8957 -0.4446
vn 0.0163 0.9901 -0.1394
vn 0.0947 0.9925 -0.0776
vn -0.0121 0.8440 -0.5362
vn -0.0004 0.8486 -0.5291
vn -0.2230 0.6850 -0.6935
vn -0.0164 0.3797 -0.9250
vn -0.0024 0.4860 -0.8739
vn -0.0092 0.5752 -0.8180
vn -0.4021 0.4671 -0.7875
vn -0.4024 0.4798 -0.7797
vn -0.0014 0.4555 -0.8903
vn -0.3355 0.9420 -0.0008
vn 0.9113 0.4118 0.0024
vn 0.0130 0.9995 0.0290
vn -0.0090 0.9999 -0.0049
vn -0.0037 1.0000 0.0032
vn -0.6677 0.6861 0.2890
vn -0.0000 0.8957 -0.4447
vn 0.4766 0.8765 -0.0671
vn -0.0087 0.9999 0.0125
vn -0.0241 0.9997 -0.0017
vn -0.0000 -1.0000 -0.0000
vn -0.0063 1.0000 0.0002
vn 0.0168 0.9998 -0.0123
vn -0.0048 1.0000 0.0071
vn -0.0119 0.9999 -0.0067
vn -0.0385 0.9989 -0.0269
vn -0.0188 0.9998 -0.0079
vn -0.0098 0.9264 0.3765
vn -0.2133 0.3692 0.9045
vn 0.4957 0.6698 -0.5529
vn -0.0100 0.9560 0.2932
vn 0.8509 0.5247 0.0255
vn 0.8383 0.5452 0.0101
vn 0.8121 0.5835 -0.0109
vn 0.8771 0.4744 -0.0754
vn 0.8429 0.5380 -0.0015
vn 0.8615 0.5072 -0.0227
vn -0.0001 0.4592 -0.8883
vn -0.9097 0.4152 -0.0001
vn -0.8821 0.4685 0.0483
vn -0.9506 0.3101 -0.0133
vn -0.9421 0.3352 -0.0084
vn -0.9135 0.4068 -0.0009
vn -0.5224 0.6372 0.5666
vn -0.2263 0.6905 0.6870
vn -0.4174 0.7727 0.4782
vn -0.0785 0.4482 0.8905
vn 0.0031 0.4837 0.8752
vn -0.2263 0.6904 0.6871
vn -0.3249 0.9321 0.1600
vn -0.0217 0.9997 0.0132
vn -0.3345 0.9345 -0.1214
vn 0.1927 0.9301 0.3128
vn -0.3029 0.9520 0.0439
vn 0.0643 0.9956 0.0674
vn 0.0115 0.9999 0.0115
vn -0.5811 0.5425 -0.6066
vn -0.6715 0.6772 -0.3007
vn -0.4024 0.7122 -0.5752
vn 0.0660 0.3941 -0.9167
vn -0.0023 0.5036 -0.8639
vn 0.2990 0.6808 -0.6686
vn 0.5795 0.5808 -0.5717
vn 0.5494 0.7269 -0.4120
vn 0.6671 0.6801 -0.3039
vn -0.8413 0.5404 0.0109
vn -0.8735 0.4868 0.0048
vn -0.8554 0.5161 -0.0430
vn -0.8886 0.4586 0.0025
vn -0.8937 0.4465 0.0451
vn -0.8917 0.4506 -0.0422
vn -0.8763 0.4804 -0.0348
vn -0.8796 0.4757 -0.0015
vn 0.4771 0.8724 0.1059
vn 0.9113 0.4117 0.0025
vn 0.9049 0.4246 -0.0297
vn 0.8848 0.4658 -0.0122
vn 0.7888 0.4481 0.4208
vn 0.9113 0.4117 0.0024
vn 0.9903 -0.0997 0.0969
vn 0.9197 0.3925 -0.0128
vn -0.6676 0.6861 0.2891
vn -0.5952 0.5608 0.5755
vn -0.4105 0.7190 0.5608
vn 0.0040 0.8804 0.4742
vn 0.0237 0.8953 0.4448
vn -0.0024 0.8329 0.5534
vn 0.0079 0.8284 0.5601
vn 0.0007 0.8738 0.4862
vn 0.7469 0.5644 0.3516
vn 0.6457 0.5554 0.5240
vn -0.6971 0.6852 -0.2110
vn 0.4600 0.8879 -0.0094
vn 0.4990 0.8666 0.0008
vn 0.4637 0.8858 0.0181
vn 0.3909 0.9182 -0.0635
vn 0.4927 0.8702 -0.0010
vn 0.5899 0.5584 -0.5833
vn 0.2991 0.6809 -0.6685
vn 0.5722 0.7143 -0.4029
vn 0.2990 0.6809 -0.6686
vn -0.0048 0.5310 0.8474
vn -0.0190 0.5296 0.8481
vn -0.0227 0.5531 0.8328
vn 0.0733 0.4957 0.8654
vn 0.0001 0.5270 0.8498
vn 0.0522 0.4902 0.8700
vn 0.0014 0.5603 0.8283
vn 0.0002 0.5271 0.8498
vn -0.0801 0.9968 0.0065
vn -0.0019 0.9998 0.0205
vn 0.0082 0.9992 0.0395
vn 0.0234 0.9997 -0.0121
vn 0.0205 0.9998 0.0023
vn -0.0030 0.9999 -0.0112
vn -0.0060 0.9333 0.3590
vn -0.0141 0.9329 0.3598
vn -0.0862 0.8883 0.4511
vn -0.0053 0.9333 0.3590
vn -0.0303 0.8941 0.4468
vn -0.0845 0.9052 0.4166
vn -0.0966 0.8895 -0.4467
vn -0.0141 0.9329 0.3599
vn 0.0119 0.9796 0.2006
vn 0.1741 0.9847 -0.0000
vn 0.1158 0.9932 0.0107
vn 0.1600 0.9869 0.0201
vn 0.3581 0.9311 -0.0698
vn 0.1369 0.9905 -0.0135
vn 0.1792 0.9838 -0.0065
vn 0.1274 0.9892 -0.0729
vn 0.1289 0.9916 0.0065
vn 0.0307 0.9828 -0.1821
vn -0.0187 0.9996 -0.0228
vn -0.0086 0.9999 -0.0150
vn -0.0160 0.9994 -0.0297
vn -0.0961 0.9929 -0.0700
vn -0.0187 0.9996 -0.0229
vn -0.0505 0.9977 -0.0462
vn 0.4320 0.9019 0.0016
vn 0.4329 0.9015 0.0004
vn 0.4204 0.9073 -0.0083
vn 0.4450 0.8955 0.0083
vn 0.4333 0.9013 0.0005
vn 0.0061 0.9880 -0.1545
vn 0.0107 0.9893 -0.1458
vn 0.0113 0.9641 -0.2653
vn 0.0225 0.9870 -0.1591
vn -0.0272 0.9870 -0.1584
vn -0.0516 0.9987 0.0041
vn -0.0808 0.9959 0.0416
vn 0.0079 0.9988 0.0484
vn 0.0767 0.9954 0.0575
vn 0.0222 0.9978 0.0622
vn 0.0890 0.9952 -0.0403
vn 0.0492 0.9953 0.0839
vn 0.0811 0.9966 0.0140
vn 0.0489 0.9846 -0.1680
vn 0.1412 0.9856 -0.0926
vn 0.7139 0.6643 -0.2218
vn 0.0212 0.9996 -0.0183
vn -0.0017 0.9977 0.0677
vn 0.1336 0.9909 0.0178
vn -0.0390 0.9986 -0.0355
vn -0.0448 0.9973 0.0584
vn -0.0451 0.9987 -0.0240
vn 0.0151 0.9984 -0.0552
vn 0.0618 0.9936 -0.0947
vn -0.0262 0.9850 -0.1703
vn -0.0288 0.9994 -0.0209
vn -0.0494 0.9980 -0.0397
vn -0.1889 0.9817 -0.0242
vn 0.0110 0.9991 -0.0411
vn 0.0035 0.9998 0.0216
vn 0.0055 0.9999 -0.0131
vn 0.0090 0.9950 -0.0993
vn 0.0114 0.9998 -0.0156
vn 0.0579 0.9861 -0.1556
vn -0.0327 0.9994 0.0058
vn -0.1205 0.9918 0.0429
vn 0.0278 0.9995 -0.0147
vn -0.0121 0.9996 0.0237
vn -0.0089 0.9998 0.0194
vn -0.0230 0.9994 0.0265
vn 0.0003 1.0000 0.0078
vn -0.0119 0.9997 0.0195
vn -0.0304 0.9995 0.0034
vn -0.0014 1.0000 -0.0004
vn 0.0036 0.9999 0.0147
vn -0.0219 0.9997 -0.0104
vn -0.3491 0.9371 -0.0008
vn -0.3505 0.9366 0.0007
vn -0.3928 0.9196 0.0009
vn -0.7876 0.6159 0.0196
vn -0.2344 0.9480 -0.2155
vn 0.0428 0.9145 -0.4022
vn -0.6963 0.6924 0.1892
vn -0.7874 0.6161 0.0218
vn -0.7717 0.6344 0.0458
vn 0.0004 0.4929 -0.8701
vn 0.0608 0.5466 -0.8352
vn -0.0005 0.5403 -0.8415
vn -0.0094 0.5170 -0.8559
vn -0.0475 0.4803 -0.8758
vn -0.0144 0.6038 -0.7970
vn -0.0020 0.5427 -0.8399
vn 0.6080 0.7939 -0.0061
vn 0.6024 0.7982 -0.0032
vn 0.7794 0.4928 0.3869
vn 0.6583 0.6842 0.3139
vn 0.6024 0.7971 -0.0428
vn -0.2031 -0.1468 -0.9681
vn 0.8771 0.4744 -0.0753
vn -0.0001 0.4590 -0.8884
vn -0.8801 0.4721 0.0502
vn -0.9124 0.4092 -0.0030
vn 0.0030 0.4837 0.8752
vn -0.0122 0.8440 -0.5362
vn -0.0005 0.8485 -0.5293
vn -0.8940 0.4468 -0.0346
vn -0.8452 0.5345 -0.0049
vn -0.6716 0.6772 -0.3007
vn 0.4007 0.7153 -0.5725
vn 0.0130 0.9995 0.0291
vn -0.8410 0.5410 0.0104
vn -0.8798 0.4754 -0.0019
vn 0.4067 0.9112 0.0661
vn 0.8988 0.4376 -0.0233
vn 0.8894 0.4570 -0.0128
vn 0.7887 0.4481 0.4209
vn 0.7795 -0.0679 -0.6227
vn 0.9907 -0.1011 0.0913
vn -0.5560 0.7356 0.3870
vn -0.4890 0.7770 0.3964
vn -0.5219 0.7789 0.3478
vn -0.7034 0.6900 0.1706
vn 0.0236 0.8953 0.4448
vn 0.0007 0.8738 0.4863
vn -0.0478 0.8424 0.5367
vn 0.0597 0.8162 0.5747
vn 0.4989 0.8666 0.0008
vn 0.3910 0.9182 -0.0635
vn 0.2991 0.6809 -0.6686
vn -0.0030 0.5310 0.8474
vn -0.0189 0.5296 0.8481
vn 0.0013 0.5603 0.8283
vn -0.0265 0.5589 0.8288
vn 0.0002 0.5286 0.8488
vn -0.0161 0.9994 -0.0298
vn 0.4204 0.9073 -0.0082
vn 0.0061 0.9880 -0.1546
vn 0.0107 0.9892 -0.1458
vn 0.1412 0.9857 -0.0925
vn -0.4025 0.4798 -0.7796
vn -0.0120 0.9997 0.0195
vn -0.0015 1.0000 -0.0005
vn -0.7876 0.6159 0.0197
vn 0.0428 0.9146 -0.4022
vn -0.7716 0.6344 0.0458
vn -0.1981 0.3708 0.9073
vn -0.6102 0.7771 -0.1544
vn -0.0133 0.9604 0.2782
vn -0.4174 0.7728 0.4782
vn -0.0005 0.8485 -0.5292
vn 0.0346 0.9989 0.0325
vn -0.6947 0.6791 0.2371
vn -0.0030 0.5310 0.8473
vn 0.0001 0.5270 0.8499
vn 0.0002 0.5287 0.8488
vn -0.0863 0.8883 0.4511
vn -0.0017 0.9977 0.0676
vn -0.0014 1.0000 -0.0005
vn -0.3928 0.9196 0.0008
vn -0.7874 0.6161 0.0219
vn -0.0013 0.4889 -0.8723
vn 0.5794 0.5808 -0.5717
vn -0.8413 0.5405 0.0109
vn -0.2711 0.7642 0.5853
vn 0.4637 0.8858 0.0180
vn -0.0190 0.5296 0.8480
vn -0.0227 0.5532 0.8328
vn 0.0014 0.5604 0.8282
vn 0.0233 0.9997 -0.0121
vn -0.0390 0.9986 -0.0356
vn -0.0303 0.9995 0.0034
vn 0.6025 0.7981 -0.0032
vt 0.302274 0.887434
vt 0.302268 0.887448
vt 0.302260 0.887446
vt 0.303212 0.887605
vt 0.303207 0.887580
vt 0.303502 0.887400
vt 0.302255 0.887435
vt 0.302227 0.887362
vt 0.302243 0.887380
vt 0.302934 0.886838
vt 0.302628 0.886924
vt 0.302571 0.886956
vt 0.303216 0.887034
vt 0.303215 0.887029
vt 0.303148 0.886973
vt 0.302572 0.886950
vt 0.302569 0.886952
vt 0.302560 0.886959
vt 0.302809 0.887208
vt 0.302796 0.887202
vt 0.302739 0.887146
vt 0.302276 0.887431
vt 0.302258 0.887425
vt 0.302265 0.887457
vt 0.303654 0.887337
vt 0.303649 0.887329
vt 0.303433 0.887168
vt 0.302917 0.887165
vt 0.302880 0.887188
vt 0.302820 0.887205
vt 0.303187 0.887591
vt 0.302934 0.887344
vt 0.302495 0.887862
vt 0.302550 0.887986
vt 0.302547 0.888010
vt 0.360770 0.912506
vt 0.360274 0.912710
vt 0.360338 0.912386
vt 0.302814 0.887187
vt 0.303149 0.887046
vt 0.302589 0.886959
vt 0.302566 0.886958
vt 0.360621 0.912301
vt 0.361217 0.912374
vt 0.361180 0.912406
vt 0.302712 0.887877
vt 0.360942 0.912707
vt 0.360604 0.913277
vt 0.360525 0.913222
vt 0.302771 0.887226
vt 0.302423 0.887373
vt 0.302717 0.887227
vt 0.360144 0.912490
vt 0.360156 0.912448
vt 0.360219 0.912428
vt 0.302089 0.887111
vt 0.302546 0.886964
vt 0.302240 0.887055
vt 0.303569 0.887331
vt 0.303546 0.887263
vt 0.361229 0.912407
vt 0.361463 0.912528
vt 0.361147 0.912442
vt 0.302894 0.887266
vt 0.303216 0.887037
vt 0.303090 0.887092
vt 0.302868 0.887215
vt 0.302765 0.887199
vt 0.302807 0.887220
vt 0.302804 0.887212
vt 0.303187 0.887014
vt 0.303215 0.887031
vt 0.303243 0.887043
vt 0.303198 0.887047
vt 0.303232 0.887038
vt 0.303223 0.887036
vt 0.302590 0.886941
vt 0.302125 0.887088
vt 0.302114 0.887130
vt 0.302094 0.887102
vt 0.302343 0.887417
vt 0.302309 0.887452
vt 0.302316 0.887519
vt 0.302252 0.887396
vt 0.302316 0.887393
vt 0.302267 0.887421
vt 0.302573 0.887917
vt 0.303163 0.887607
vt 0.303142 0.887565
vt 0.303180 0.887596
vt 0.303177 0.887609
vt 0.302912 0.887347
vt 0.302894 0.887310
vt 0.302976 0.887394
vt 0.303100 0.887092
vt 0.303060 0.887105
vt 0.303116 0.887082
vt 0.302241 0.887056
vt 0.302189 0.887068
vt 0.302307 0.887026
vt 0.302243 0.887350
vt 0.302210 0.887315
vt 0.360899 0.912575
vt 0.360947 0.912525
vt 0.361090 0.912465
vt 0.361533 0.912760
vt 0.360924 0.912626
vt 0.360748 0.912587
vt 0.360845 0.912547
vt 0.360620 0.912319
vt 0.360346 0.912753
vt 0.360282 0.912756
vt 0.360274 0.912740
vt 0.360579 0.912313
vt 0.360272 0.912416
vt 0.360802 0.912586
vt 0.360838 0.912580
vt 0.360925 0.912670
vt 0.361173 0.912925
vt 0.361193 0.912967
vt 0.360742 0.913237
vt 0.303225 0.887040
vt 0.361131 0.912452
vt 0.302548 0.886953
vt 0.303199 0.887613
vt 0.360658 0.912284
vt 0.000000 0.000000
vt 0.360964 0.912186
vt 0.361179 0.912333
vt 0.302934 0.886826
vt 0.303180 0.887625
vt 0.303234 0.887046
vt 0.360347 0.912879
vt 0.360340 0.912811
vt 0.360240 0.912675
vt 0.361274 0.912402
vt 0.360911 0.912548
vt 0.361238 0.912940
vt 0.361576 0.912622
vt 0.361600 0.912691
vt 0.360796 0.912559
vt 0.360454 0.912732
vt 0.360373 0.912777
vt 0.361007 0.912754
s 1
usemtl Material.011
f 283/1/1 326/2/2 281/3/3
f 21/4/4 22/5/4 34/6/4
f 107/7/5 88/8/6 85/9/7
f 6/10/8 54/11/9 26/12/10
f 18/13/11 19/14/12 46/15/13
f 292/16/14 320/17/15 277/18/16
f 12/19/17 30/20/18 41/21/19
f 13/22/20 14/3/21 66/23/22
f 193/22/20 194/3/21 246/23/22
f 61/2/23 103/24/23 14/3/24
f 185/25/25 1/26/26 33/27/27
f 37/28/28 39/29/29 23/30/30
f 7/31/31 76/32/32 12/19/33
f 68/33/34 2/34/35 5/35/36
f 306/36/37 352/37/38 346/38/39
f 12/19/40 24/39/41 47/40/42
f 14/3/43 107/7/44 66/23/45
f 105/1/1 151/2/2 102/3/3
f 53/41/46 12/19/47 8/42/48
f 236/43/49 229/44/50 227/45/51
f 5/35/52 2/34/52 67/46/53
f 75/47/54 69/48/55 68/49/56
f 44/50/57 60/51/58 12/19/59
f 13/22/60 42/52/61 12/19/62
f 57/53/63 58/54/64 82/55/65
f 95/56/66 32/57/67 84/58/68
f 1/26/69 36/59/69 35/60/69
f 1/26/70 35/60/70 33/27/70
f 1/26/71 34/6/71 36/59/71
f 50/61/72 33/62/73 77/63/74
f 38/64/75 7/31/76 12/19/77
f 11/65/78 80/66/59 12/19/79
f 23/30/80 40/67/80 38/64/80
f 23/30/30 39/29/29 40/67/81
f 42/52/82 43/68/82 30/20/82
f 30/20/83 43/68/83 41/21/83
f 45/69/84 44/50/84 29/70/84
f 19/14/85 47/40/85 49/71/85
f 48/72/86 47/40/86 19/14/86
f 19/14/87 49/71/87 46/15/87
f 51/73/88 50/74/88 16/75/88
f 16/75/89 50/74/89 52/76/89
f 54/11/90 56/77/90 25/16/90
f 25/16/91 53/41/91 55/17/91
f 58/78/92 57/79/92 3/80/92
f 17/1/93 63/81/93 62/82/93
f 59/83/94 61/2/94 17/1/94
f 17/1/95 62/82/95 59/83/95
f 17/1/96 60/51/96 63/81/96
f 65/84/97 64/85/97 20/86/97
f 20/86/98 66/23/98 65/84/98
f 68/33/99 69/87/99 2/34/99
f 2/34/100 69/87/100 67/46/100
f 71/88/101 70/89/101 28/90/101
f 28/90/102 72/91/102 71/88/102
f 76/32/103 75/92/104 74/93/105
f 73/94/106 75/92/104 76/32/103
f 80/66/107 79/95/107 78/96/107
f 77/97/108 79/95/108 80/66/108
f 84/58/109 83/98/109 82/99/109
f 81/100/110 83/98/110 84/58/110
f 85/9/111 88/8/112 87/101/113
f 87/101/113 88/8/112 86/102/114
f 40/103/115 37/104/116 78/105/117
f 34/106/118 38/107/119 40/103/120
f 177/37/121 131/36/122 132/108/123
f 47/45/124 24/109/125 53/110/126
f 25/16/127 56/77/127 53/41/127
f 64/111/128 65/112/129 85/113/130
f 221/36/131 261/38/132 212/114/133
f 81/38/39 87/37/38 83/115/134
f 44/116/135 45/117/136 74/118/137
f 70/119/138 71/120/139 67/121/140
f 70/89/141 73/94/142 7/31/143
f 74/93/144 45/69/145 12/19/146
f 77/97/78 80/66/59 11/65/78
f 80/66/59 78/96/58 37/28/147
f 32/57/148 81/100/149 84/58/150
f 58/78/151 95/56/152 82/99/153
f 88/8/154 95/56/155 86/102/156
f 88/8/157 107/7/157 95/56/157
f 19/14/158 18/13/159 10/122/160
f 111/4/4 112/5/4 124/6/4
f 110/7/5 178/8/6 175/9/7
f 95/10/8 144/11/9 116/12/161
f 107/13/12 108/14/12 136/15/12
f 34/106/162 40/103/163 79/123/164
f 100/19/17 120/20/18 131/21/19
f 96/31/165 112/5/166 111/4/167
f 207/16/168 235/17/15 189/18/16
f 151/2/169 106/24/23 102/3/170
f 5/25/171 89/26/171 123/27/171
f 127/28/28 129/29/172 113/30/30
f 96/31/31 166/32/32 100/19/33
f 158/33/173 90/34/35 93/35/36
f 276/42/174 297/124/175 117/57/176
f 100/19/40 114/39/41 137/40/42
f 102/3/43 110/7/44 156/23/45
f 275/31/165 289/5/166 288/4/177
f 143/41/46 100/19/47 97/42/48
f 197/1/1 241/2/24 194/3/178
f 93/35/179 90/34/52 157/46/180
f 165/47/54 159/48/55 158/49/56
f 134/50/57 150/51/181 100/19/182
f 101/22/60 132/52/61 100/19/62
f 147/53/63 148/54/64 172/55/65
f 94/56/66 122/57/67 174/58/183
f 89/26/69 126/59/69 125/60/69
f 89/26/70 125/60/70 123/27/70
f 89/26/71 124/6/71 126/59/71
f 140/61/184 123/62/73 167/63/74
f 128/64/185 96/31/76 100/19/77
f 99/65/186 170/66/187 100/19/59
f 113/30/80 130/67/80 128/64/80
f 113/30/30 129/29/172 130/67/81
f 132/52/82 133/68/82 120/20/82
f 120/20/83 133/68/83 131/21/83
f 135/69/84 134/50/84 119/70/84
f 108/14/85 137/40/85 139/71/85
f 138/72/86 137/40/86 108/14/86
f 108/14/87 139/71/87 136/15/87
f 141/73/88 140/74/88 104/75/88
f 104/75/89 140/74/89 142/76/89
f 144/11/90 146/77/90 115/16/90
f 115/16/91 143/41/91 145/17/91
f 148/78/92 147/79/92 91/80/92
f 105/1/93 153/81/93 152/82/93
f 149/83/94 151/2/94 105/1/94
f 105/1/95 152/82/95 149/83/95
f 105/1/96 150/51/96 153/81/96
f 155/84/97 154/85/97 109/86/97
f 109/86/98 156/23/98 155/84/98
f 158/33/99 159/87/99 90/34/99
f 90/34/100 159/87/100 157/46/100
f 161/88/101 160/89/101 118/90/101
f 118/90/102 162/91/102 161/88/102
f 166/32/188 165/92/104 164/93/105
f 163/94/106 165/92/104 166/32/188
f 170/66/107 169/95/107 168/96/107
f 167/97/108 169/95/108 170/66/108
f 174/58/109 173/98/109 172/99/109
f 171/100/110 173/98/110 174/58/110
f 175/9/111 178/8/112 177/101/113
f 177/101/113 178/8/112 176/102/189
f 130/103/115 127/104/116 168/105/117
f 124/106/118 128/107/119 130/103/120
f 252/91/190 209/90/191 186/125/192
f 137/45/124 114/109/125 143/110/126
f 115/16/127 146/77/127 143/41/127
f 154/111/128 155/112/129 175/113/130
f 306/36/131 346/38/132 297/114/133
f 171/38/39 177/37/193 173/115/134
f 134/116/135 135/117/136 164/118/137
f 160/119/138 161/120/139 157/121/140
f 160/89/141 163/94/142 96/31/143
f 164/93/144 135/69/145 100/19/194
f 167/97/78 170/66/187 99/65/186
f 170/66/187 168/96/195 127/28/147
f 122/57/148 171/100/196 174/58/150
f 148/78/151 94/56/152 172/99/153
f 178/8/154 94/56/155 176/102/156
f 178/8/157 110/7/157 94/56/157
f 196/75/197 232/76/198 190/122/199
f 203/4/200 204/5/4 214/6/201
f 202/7/5 268/8/6 265/9/7
f 185/10/8 234/11/9 21/12/10
f 199/13/11 200/14/12 226/15/13
f 280/22/20 281/3/21 331/23/22
f 192/19/17 211/20/18 221/21/19
f 25/16/14 55/17/15 9/18/16
f 101/22/20 102/3/21 156/23/22
f 241/2/23 198/24/23 194/3/24
f 179/25/202 180/26/26 213/27/27
f 217/28/28 219/29/29 205/30/30
f 187/31/31 256/32/32 192/19/33
f 248/33/34 181/34/35 184/35/36
f 41/36/37 87/37/38 81/38/39
f 192/19/40 206/39/41 227/40/42
f 194/3/43 202/7/44 246/23/45
f 187/31/165 204/5/166 203/4/177
f 233/41/46 192/19/47 188/42/48
f 337/91/190 294/90/191 274/125/192
f 184/35/203 181/34/52 247/46/204
f 255/47/54 249/48/55 248/49/56
f 224/50/205 240/51/58 192/19/206
f 193/22/60 222/52/61 192/19/62
f 237/53/63 238/54/64 262/55/65
f 5/56/66 27/57/66 264/58/66
f 180/26/69 216/59/69 215/60/69
f 180/26/70 215/60/70 213/27/70
f 180/26/71 214/6/71 216/59/71
f 230/61/72 213/62/73 257/63/74
f 218/64/75 187/31/76 192/19/77
f 191/65/207 260/66/187 192/19/195
f 205/30/80 220/67/80 218/64/80
f 205/30/30 219/29/29 220/67/81
f 222/52/82 223/68/82 211/20/82
f 211/20/83 223/68/83 221/21/83
f 225/69/84 224/50/84 210/70/84
f 200/14/85 227/40/85 229/71/85
f 228/72/86 227/40/86 200/14/86
f 200/14/87 229/71/87 226/15/87
f 231/73/88 230/74/88 196/75/88
f 196/75/89 230/74/89 232/76/89
f 234/11/90 236/77/90 207/16/90
f 207/16/91 233/41/91 235/17/91
f 238/78/92 237/79/92 182/80/92
f 197/1/93 243/81/93 242/82/93
f 239/83/94 241/2/94 197/1/94
f 197/1/95 242/82/95 239/83/95
f 197/1/96 240/51/96 243/81/96
f 245/84/97 244/85/97 201/86/97
f 201/86/98 246/23/98 245/84/98
f 248/33/99 249/87/99 181/34/99
f 181/34/100 249/87/100 247/46/100
f 251/88/101 250/89/101 209/90/101
f 209/90/102 252/91/102 251/88/102
f 256/32/188 255/92/104 254/93/105
f 253/94/106 255/92/104 256/32/188
f 260/66/107 259/95/107 258/96/107
f 257/97/108 259/95/108 260/66/108
f 264/58/109 263/98/109 262/99/109
f 261/100/110 263/98/110 264/58/110
f 265/9/111 268/8/112 267/101/113
f 267/101/113 268/8/112 266/102/114
f 220/103/115 217/104/208 258/105/209
f 214/106/118 218/107/119 220/103/120
f 56/43/49 49/44/50 47/45/51
f 227/45/124 206/109/125 233/110/126
f 207/16/127 236/77/127 233/41/127
f 244/111/128 245/112/129 265/113/130
f 276/42/210 117/57/211 277/18/212
f 261/38/39 267/37/38 263/115/134
f 224/116/135 225/117/136 254/118/137
f 250/119/138 251/120/139 247/121/140
f 250/89/141 253/94/142 187/31/143
f 254/93/144 225/69/145 192/19/146
f 257/97/78 260/66/187 191/65/207
f 260/66/187 258/96/78 217/28/59
f 27/57/213 261/100/196 264/58/214
f 238/78/151 5/56/215 262/99/153
f 268/8/154 5/56/155 266/102/156
f 268/8/157 202/7/157 5/56/157
f 8/42/216 31/124/175 32/57/217
f 288/4/200 289/5/4 299/6/201
f 287/7/5 353/8/6 350/9/7
f 5/10/8 319/11/218 111/12/10
f 202/13/12 285/14/12 311/15/12
f 7/31/165 22/5/166 21/4/177
f 279/19/17 296/20/18 306/21/19
f 214/106/162 220/103/163 259/123/164
f 299/106/162 305/103/163 344/123/164
f 326/2/169 284/24/23 281/3/170
f 184/25/202 269/26/171 298/27/27
f 302/28/28 304/29/172 290/30/30
f 275/31/31 341/32/219 279/19/33
f 333/33/173 270/34/220 273/35/36
f 229/44/221 236/43/222 234/126/223
f 279/19/40 291/39/41 312/40/42
f 281/3/43 287/7/44 331/23/45
f 285/14/159 202/13/159 194/122/224
f 318/41/46 279/19/47 276/42/48
f 115/16/14 145/17/15 98/18/16
f 273/35/179 270/34/52 332/46/180
f 340/47/54 334/48/55 333/49/56
f 309/50/57 325/51/58 279/19/182
f 280/22/60 307/52/61 279/19/62
f 322/53/63 323/54/64 347/55/65
f 93/56/66 117/57/66 349/58/66
f 269/26/69 301/59/69 300/60/69
f 269/26/70 300/60/70 298/27/70
f 269/26/71 299/6/71 301/59/71
f 315/61/72 298/62/73 342/63/74
f 303/64/185 275/31/76 279/19/77
f 278/65/78 345/66/225 279/19/57
f 290/30/80 305/67/80 303/64/80
f 290/30/30 304/29/172 305/67/81
f 307/52/82 308/68/82 296/20/82
f 296/20/83 308/68/83 306/21/83
f 310/69/84 309/50/84 295/70/84
f 285/14/85 312/40/85 314/71/85
f 313/72/86 312/40/86 285/14/86
f 285/14/87 314/71/87 311/15/87
f 316/73/88 315/74/88 282/75/88
f 282/75/89 315/74/89 317/76/89
f 319/11/90 321/77/90 292/16/90
f 292/16/91 318/41/91 320/17/91
f 323/78/92 322/79/92 271/80/92
f 283/1/93 328/81/93 327/82/93
f 324/83/94 326/2/94 283/1/94
f 283/1/95 327/82/95 324/83/95
f 283/1/96 325/51/96 328/81/96
f 330/84/97 329/85/97 286/86/97
f 286/86/98 331/23/98 330/84/98
f 333/33/99 334/87/99 270/34/99
f 270/34/100 334/87/100 332/46/100
f 336/88/101 335/89/101 294/90/101
f 294/90/102 337/91/102 336/88/102
f 341/32/188 340/92/104 339/93/105
f 338/94/106 340/92/104 341/32/188
f 345/66/107 344/95/107 343/96/107
f 342/97/108 344/95/108 345/66/108
f 349/58/109 348/98/109 347/99/109
f 346/100/110 348/98/110 349/58/110
f 350/9/111 353/8/112 352/101/226
f 352/101/226 353/8/112 351/102/189
f 305/103/115 302/104/116 343/105/209
f 299/106/118 303/107/119 305/103/120
f 282/75/197 317/76/198 194/122/199
f 312/45/124 291/109/125 318/110/126
f 292/16/127 321/77/127 318/41/127
f 329/111/128 330/112/129 350/113/130
f 41/36/131 81/38/132 31/114/133
f 346/38/39 352/37/38 348/115/134
f 309/116/135 310/117/136 339/118/137
f 335/119/138 336/120/227 332/121/228
f 335/89/141 338/94/142 275/31/143
f 339/93/144 310/69/145 279/19/194
f 342/97/78 345/66/225 278/65/78
f 345/66/225 343/96/78 302/28/147
f 117/57/213 346/100/196 349/58/214
f 323/78/151 93/56/215 347/99/153
f 353/8/154 93/56/155 351/102/156
f 353/8/157 287/7/157 93/56/157
f 94/127/229 273/127/229 179/127/229
f 194/122/229 277/18/229 281/3/229
f 14/122/229 98/18/229 102/3/229
f 190/122/229 189/18/229 194/3/229
f 4/128/230 46/129/231 54/126/232
f 229/44/233 234/126/234 226/129/235
f 1/26/4 185/25/236 34/6/237
f 185/25/238 21/4/4 34/6/239
f 85/9/240 65/84/241 107/7/242
f 65/84/243 66/23/244 107/7/245
f 4/130/8 54/11/9 6/10/8
f 54/11/9 25/16/246 26/12/10
f 4/130/12 6/10/247 46/15/248
f 6/10/249 18/13/250 46/15/251
f 28/90/252 7/31/253 189/125/254
f 337/91/255 274/125/256 293/131/257
f 31/124/258 8/42/259 41/21/260
f 8/42/261 12/19/262 41/21/263
f 236/43/49 227/45/51 233/110/264
f 52/76/265 11/65/266 10/122/267
f 115/16/268 98/18/269 116/12/270
f 197/1/271 194/3/272 193/22/273
f 87/37/121 41/36/122 42/108/123
f 33/27/274 51/73/275 15/132/276
f 51/73/277 16/75/26 15/132/278
f 15/132/279 185/25/280 33/27/281
f 5/35/282 103/24/283 68/33/284
f 103/24/285 61/2/35 59/83/286
f 68/33/287 103/24/288 59/83/289
f 11/65/290 48/72/291 10/122/292
f 221/36/37 267/37/38 261/38/39
f 48/72/41 11/65/293 47/40/294
f 11/65/295 12/19/296 47/40/297
f 193/22/298 246/23/299 201/86/44
f 16/75/197 52/76/300 10/122/199
f 101/22/298 156/23/299 109/86/44
f 8/42/301 55/17/302 53/41/303
f 53/41/304 24/39/302 12/19/305
f 55/17/306 8/42/307 9/18/308
f 207/16/268 189/18/269 21/12/309
f 67/46/310 71/88/311 27/131/312
f 71/88/313 72/91/314 27/131/315
f 27/131/316 5/35/53 67/46/317
f 68/49/318 59/133/319 75/47/320
f 59/133/321 62/134/322 75/47/323
f 17/1/187 13/22/187 60/51/58
f 13/22/187 12/19/59 60/51/58
f 12/19/59 29/70/57 44/50/57
f 13/22/324 20/86/325 64/85/326
f 64/85/327 42/52/328 13/22/329
f 42/52/330 30/20/331 12/19/332
f 82/55/333 83/115/334 57/53/335
f 83/115/336 87/37/337 86/135/338
f 57/53/339 83/115/340 86/135/341
f 51/136/342 33/62/343 50/61/344
f 33/62/345 79/123/346 77/63/347
f 12/19/348 23/30/349 38/64/350
f 38/64/351 22/5/349 7/31/352
f 78/105/353 79/123/354 40/103/355
f 40/103/356 39/137/354 37/104/357
f 34/106/358 22/138/120 38/107/359
f 299/106/360 344/123/361 298/62/362
f 33/62/363 35/139/364 34/106/365
f 35/139/366 36/140/163 34/106/367
f 321/43/49 312/45/51 318/110/264
f 17/1/1 61/2/23 14/3/368
f 85/113/369 87/37/370 64/111/371
f 352/37/372 307/108/373 329/111/374
f 49/44/221 56/43/222 54/126/223
f 41/36/375 43/141/129 42/108/376
f 267/37/377 221/36/122 222/108/123
f 74/118/378 75/47/379 44/116/380
f 75/47/381 62/134/382 60/142/383
f 62/134/384 63/143/385 60/142/386
f 60/142/387 44/116/388 75/47/389
f 67/121/390 69/48/391 75/47/392
f 75/47/393 73/144/394 67/121/395
f 73/144/396 70/119/397 67/121/398
f 7/31/143 28/90/399 70/89/141
f 73/94/400 76/32/399 7/31/401
f 29/70/402 12/19/403 45/69/404
f 12/19/405 76/32/406 74/93/407
f 11/65/78 52/76/78 50/74/78
f 50/74/78 77/97/78 11/65/78
f 23/30/57 12/19/79 37/28/147
f 12/19/79 80/66/59 37/28/147
f 32/57/408 31/124/214 81/100/409
f 3/80/410 95/56/411 58/78/412
f 95/56/413 84/58/410 82/99/414
f 95/56/415 3/80/416 57/79/417
f 95/56/418 57/79/419 86/102/420
f 92/128/230 136/129/231 144/126/232
f 49/44/233 54/126/234 46/129/235
f 89/26/4 5/25/236 124/6/237
f 5/25/238 111/4/4 124/6/239
f 175/9/240 155/84/241 110/7/242
f 155/84/421 156/23/244 110/7/245
f 92/130/422 144/11/9 95/10/8
f 144/11/9 115/16/246 116/12/161
f 92/130/12 95/10/247 136/15/423
f 95/10/249 107/13/12 136/15/424
f 118/90/252 96/31/253 277/125/254
f 72/91/255 189/125/425 27/131/257
f 121/124/258 97/42/259 131/21/260
f 97/42/261 100/19/262 131/21/263
f 8/42/426 32/57/427 9/18/212
f 142/76/265 99/65/266 14/122/267
f 196/75/428 190/122/429 195/132/430
f 283/1/271 281/3/431 280/22/273
f 139/44/432 146/43/222 144/126/223
f 123/27/433 141/73/275 103/132/276
f 141/73/277 104/75/26 103/132/278
f 103/132/279 5/25/171 123/27/434
f 93/35/282 106/24/435 158/33/436
f 106/24/437 151/2/35 149/83/438
f 158/33/439 106/24/440 149/83/289
f 99/65/290 138/72/291 14/122/441
f 19/14/442 10/122/443 48/72/444
f 138/72/41 99/65/293 137/40/445
f 99/65/295 100/19/296 137/40/446
f 280/22/298 331/23/299 286/86/44
f 108/14/159 107/13/159 14/122/224
f 7/31/447 21/4/448 189/125/166
f 97/42/301 145/17/449 143/41/303
f 143/41/450 114/39/449 100/19/305
f 145/17/306 97/42/307 98/18/308
f 292/16/268 277/18/269 111/12/451
f 157/46/452 161/88/453 117/131/312
f 161/88/313 162/91/314 117/131/315
f 117/131/454 93/35/455 157/46/456
f 158/49/318 149/133/319 165/47/320
f 149/133/321 152/134/322 165/47/323
f 105/1/187 101/22/187 150/51/181
f 101/22/187 100/19/182 150/51/181
f 100/19/182 119/70/195 134/50/57
f 101/22/324 109/86/325 154/85/326
f 154/85/327 132/52/328 101/22/329
f 132/52/330 120/20/331 100/19/332
f 172/55/333 173/115/334 147/53/335
f 173/115/336 177/37/337 176/135/338
f 147/53/339 173/115/340 176/135/341
f 141/136/342 123/62/343 140/61/457
f 123/62/345 169/123/346 167/63/347
f 100/19/348 113/30/349 128/64/458
f 128/64/351 112/5/349 96/31/352
f 168/105/459 169/123/460 130/103/355
f 130/103/356 129/137/354 127/104/357
f 124/106/358 112/138/120 128/107/359
f 34/106/360 79/123/361 33/62/362
f 123/62/363 125/139/364 124/106/365
f 125/139/366 126/140/163 124/106/461
f 124/106/360 169/123/361 123/62/362
f 188/42/174 212/124/175 27/57/462
f 175/113/369 177/37/370 154/111/371
f 87/37/372 42/108/373 64/111/374
f 72/91/190 28/90/191 189/125/192
f 131/36/375 133/141/129 132/108/376
f 131/36/37 177/37/193 171/38/39
f 164/118/378 165/47/379 134/116/380
f 165/47/381 152/134/382 150/142/383
f 152/134/384 153/143/385 150/142/386
f 150/142/387 134/116/388 165/47/389
f 157/121/390 159/48/391 165/47/392
f 165/47/393 163/144/463 157/121/395
f 163/144/464 160/119/397 157/121/398
f 96/31/143 118/90/399 160/89/141
f 163/94/400 166/32/399 96/31/401
f 119/70/465 100/19/403 135/69/466
f 100/19/405 166/32/406 164/93/467
f 99/65/186 142/76/78 140/74/78
f 140/74/78 167/97/78 99/65/186
f 113/30/57 100/19/59 127/28/147
f 100/19/59 170/66/187 127/28/147
f 122/57/408 121/124/214 171/100/409
f 91/80/410 94/56/411 148/78/412
f 94/56/413 174/58/410 172/99/414
f 94/56/415 91/80/416 147/79/417
f 94/56/418 147/79/419 176/102/420
f 183/128/230 226/129/231 234/126/232
f 314/44/233 319/126/234 311/129/235
f 180/26/4 179/25/236 214/6/468
f 179/25/238 203/4/469 214/6/470
f 265/9/240 245/84/241 202/7/242
f 245/84/243 246/23/244 202/7/245
f 183/130/8 234/11/9 185/10/8
f 234/11/9 207/16/246 21/12/10
f 183/130/12 185/10/247 226/15/248
f 185/10/249 199/13/250 226/15/251
f 209/90/252 187/31/253 186/125/471
f 139/44/233 144/126/234 136/129/235
f 212/124/258 188/42/259 221/21/260
f 188/42/261 192/19/262 221/21/263
f 97/42/210 122/57/472 98/18/212
f 232/76/265 191/65/266 190/122/267
f 16/75/428 10/122/429 15/132/430
f 162/91/255 277/125/425 117/131/257
f 124/106/162 130/103/473 169/123/164
f 213/27/274 231/73/275 195/132/276
f 231/73/277 196/75/26 195/132/278
f 195/132/279 179/25/280 213/27/281
f 184/35/282 198/24/283 248/33/284
f 198/24/285 241/2/35 239/83/286
f 248/33/287 198/24/288 239/83/289
f 191/65/290 228/72/291 190/122/292
f 108/14/159 14/122/474 138/72/444
f 228/72/41 191/65/293 227/40/294
f 191/65/295 192/19/296 227/40/297
f 105/1/271 102/3/431 101/22/24
f 97/42/174 121/124/175 122/57/176
f 275/31/447 288/4/448 274/125/166
f 188/42/301 235/17/449 233/41/303
f 233/41/450 206/39/302 192/19/305
f 235/17/306 188/42/307 189/18/308
f 285/14/159 194/122/474 313/72/444
f 247/46/475 251/88/311 208/131/312
f 251/88/313 252/91/476 208/131/315
f 208/131/454 184/35/455 247/46/477
f 248/49/318 239/133/319 255/47/320
f 239/133/321 242/134/322 255/47/323
f 197/1/187 193/22/187 240/51/58
f 193/22/187 192/19/206 240/51/58
f 192/19/206 210/70/57 224/50/205
f 193/22/324 201/86/325 244/85/478
f 244/85/327 222/52/328 193/22/329
f 222/52/330 211/20/331 192/19/332
f 262/55/333 263/115/334 237/53/335
f 263/115/336 267/37/337 266/135/338
f 237/53/339 263/115/340 266/135/341
f 231/136/342 213/62/343 230/61/344
f 213/62/345 259/123/346 257/63/347
f 192/19/348 205/30/349 218/64/350
f 218/64/351 204/5/349 187/31/352
f 258/105/459 259/123/460 220/103/355
f 220/103/356 219/137/354 217/104/357
f 214/106/358 204/138/120 218/107/359
f 187/31/447 203/4/448 186/125/166
f 213/62/363 215/139/364 214/106/365
f 215/139/366 216/140/163 214/106/367
f 56/43/49 47/45/51 53/110/264
f 200/14/158 199/13/159 190/122/160
f 265/113/369 267/37/479 244/111/371
f 282/75/428 194/122/429 198/132/430
f 321/43/49 314/44/50 312/45/51
f 221/36/375 223/141/129 222/108/376
f 146/43/49 139/44/50 137/45/51
f 254/118/378 255/47/379 224/116/380
f 255/47/381 242/134/382 240/142/383
f 242/134/384 243/143/385 240/142/386
f 240/142/387 224/116/388 255/47/389
f 247/121/390 249/48/391 255/47/392
f 255/47/393 253/144/394 247/121/395
f 253/144/480 250/119/397 247/121/398
f 187/31/143 209/90/399 250/89/141
f 253/94/400 256/32/399 187/31/481
f 210/70/402 192/19/403 225/69/404
f 192/19/405 256/32/482 254/93/407
f 191/65/207 232/76/78 230/74/78
f 230/74/78 257/97/78 191/65/207
f 205/30/57 192/19/195 217/28/59
f 192/19/195 260/66/187 217/28/59
f 27/57/483 212/124/214 261/100/409
f 182/80/410 5/56/411 238/78/412
f 5/56/413 264/58/410 262/99/414
f 5/56/415 182/80/416 237/79/417
f 5/56/418 237/79/419 266/102/420
f 272/128/230 311/129/231 319/126/232
f 177/37/372 132/108/373 154/111/374
f 269/26/4 184/25/236 299/6/468
f 184/25/238 288/4/469 299/6/470
f 350/9/240 330/84/241 287/7/242
f 330/84/243 331/23/244 287/7/245
f 272/130/8 319/11/8 5/10/8
f 319/11/218 292/16/246 111/12/10
f 272/130/12 5/10/247 311/15/423
f 5/10/249 202/13/12 311/15/424
f 294/90/252 275/31/253 274/125/471
f 252/91/255 186/125/256 208/131/257
f 297/124/258 276/42/259 306/21/260
f 276/42/261 279/19/262 306/21/263
f 188/42/210 27/57/472 189/18/212
f 317/76/265 278/65/430 194/122/267
f 104/75/428 14/122/429 103/132/430
f 17/1/484 14/3/272 13/22/24
f 314/44/221 321/43/222 319/126/223
f 298/27/485 316/73/275 198/132/276
f 316/73/277 282/75/26 198/132/278
f 198/132/279 184/25/280 298/27/281
f 273/35/282 284/24/435 333/33/436
f 284/24/437 326/2/35 324/83/438
f 333/33/439 284/24/440 324/83/289
f 278/65/290 313/72/291 194/122/441
f 200/14/442 190/122/443 228/72/444
f 313/72/41 278/65/293 312/40/294
f 278/65/295 279/19/296 312/40/297
f 13/22/298 66/23/299 20/86/44
f 162/91/190 118/90/191 277/125/486
f 96/31/447 111/4/448 277/125/166
f 276/42/301 320/17/449 318/41/487
f 318/41/450 291/39/449 279/19/305
f 320/17/306 276/42/307 277/18/308
f 25/16/268 9/18/269 26/12/309
f 332/46/475 336/88/488 293/131/489
f 336/88/313 337/91/314 293/131/315
f 293/131/490 273/35/455 332/46/456
f 333/49/318 324/133/319 340/47/320
f 324/133/491 327/134/322 340/47/323
f 283/1/187 280/22/187 325/51/58
f 280/22/187 279/19/182 325/51/58
f 279/19/182 295/70/57 309/50/57
f 280/22/324 286/86/325 329/85/478
f 329/85/327 307/52/328 280/22/329
f 307/52/330 296/20/331 279/19/332
f 347/55/333 348/115/334 322/53/335
f 348/115/336 352/37/337 351/135/338
f 322/53/339 348/115/340 351/135/341
f 316/136/342 298/62/343 315/61/344
f 298/62/345 344/123/346 342/63/347
f 279/19/348 290/30/349 303/64/458
f 303/64/351 289/5/349 275/31/352
f 343/105/459 344/123/460 305/103/355
f 305/103/356 304/137/354 302/104/357
f 299/106/358 289/138/120 303/107/359
f 214/106/360 259/123/361 213/62/362
f 298/62/363 300/139/364 299/106/365
f 300/139/366 301/140/163 299/106/461
f 146/43/49 137/45/51 143/110/264
f 104/75/197 142/76/300 14/122/199
f 350/113/369 352/37/370 329/111/371
f 267/37/492 222/108/373 244/111/374
f 352/37/121 306/36/122 307/108/123
f 306/36/375 308/141/129 307/108/376
f 10/122/229 9/18/229 14/3/229
f 339/118/378 340/47/379 309/116/380
f 340/47/381 327/134/382 325/142/383
f 327/134/384 328/143/385 325/142/386
f 325/142/387 309/116/388 340/47/389
f 332/121/390 334/48/391 340/47/392
f 340/47/393 338/144/394 332/121/493
f 338/144/396 335/119/397 332/121/398
f 275/31/143 294/90/399 335/89/141
f 338/94/400 341/32/399 275/31/401
f 295/70/465 279/19/403 310/69/466
f 279/19/405 341/32/482 339/93/467
f 278/65/78 317/76/78 315/74/78
f 315/74/78 342/97/78 278/65/78
f 290/30/57 279/19/57 302/28/147
f 279/19/57 345/66/225 302/28/147
f 117/57/483 297/124/214 346/100/409
f 271/80/410 93/56/411 323/78/412
f 93/56/413 349/58/410 347/99/414
f 93/56/415 271/80/494 322/79/417
f 93/56/418 322/79/419 351/102/420
f 203/4/229 179/25/229 195/132/229
f 190/122/229 199/13/229 21/12/229
f 199/13/229 185/10/229 21/12/229
f 203/4/229 195/132/229 190/122/229
f 184/35/229 208/131/229 198/24/229
f 208/131/229 186/125/229 198/24/229
f 198/24/229 186/125/229 194/3/229
f 186/125/229 203/4/229 190/122/229
f 189/18/229 27/57/229 202/7/229
f 27/57/229 5/56/229 202/7/229
f 189/18/229 202/7/229 194/3/229
f 190/122/229 21/12/229 189/18/229
f 10/122/229 14/3/229 189/125/229
f 288/4/229 184/25/229 198/132/229
f 194/122/229 202/13/229 111/12/229
f 202/13/229 5/10/229 111/12/229
f 288/4/229 198/132/229 194/122/229
f 273/35/229 293/131/229 284/24/229
f 293/131/229 274/125/229 284/24/229
f 284/24/229 274/125/229 281/3/229
f 274/125/229 288/4/229 194/122/229
f 277/18/229 117/57/229 287/7/229
f 117/57/229 93/56/229 287/7/229
f 277/18/229 287/7/229 281/3/229
f 194/122/229 111/12/229 277/18/229
f 131/36/131 171/38/132 121/114/133
f 111/4/229 5/25/229 103/132/229
f 14/122/229 107/13/229 116/12/229
f 107/13/229 95/10/229 116/12/229
f 111/4/229 103/132/229 14/122/229
f 93/35/229 117/131/229 106/24/229
f 117/131/229 277/125/229 106/24/229
f 106/24/229 277/125/229 102/3/229
f 277/125/229 111/4/229 14/122/229
f 98/18/229 122/57/229 110/7/229
f 122/57/229 94/56/229 110/7/229
f 98/18/229 110/7/229 102/3/229
f 14/122/229 116/12/229 98/18/229
f 194/122/229 281/3/229 274/125/229
f 21/4/229 185/25/229 15/132/229
f 10/122/229 18/13/229 26/12/229
f 18/13/229 6/10/229 26/12/229
f 21/4/229 15/132/229 10/122/229
f 5/35/229 27/131/229 103/24/229
f 27/131/229 189/125/229 103/24/229
f 103/24/229 189/125/229 14/3/229
f 189/125/229 21/4/229 10/122/229
f 9/18/229 32/57/229 107/7/229
f 32/57/229 95/56/229 107/7/229
f 9/18/229 107/7/229 14/3/229
f 10/122/229 26/12/229 9/18/229
f 14/122/229 102/3/229 277/125/229
f 190/122/229 194/3/229 186/125/229
f 94/127/229 179/127/229 6/127/229
